<?xml version="1.0" standalone="no"?>
<!DOCTYPE svg PUBLIC "-//W3C//DTD SVG 1.1//EN" "http://www.w3.org/Graphics/SVG/1.1/DTD/svg11.dtd" >
<svg xmlns="http://www.w3.org/2000/svg" xmlns:xlink="http://www.w3.org/1999/xlink" version="1.1">
<metadata>
Created by FontForge 20170731 at Wed Sep 23 00:09:13 2020
 By Aleksey,,,
Copyright (c) 2019 by Valerio Monopoli. All rights reserved.
</metadata>
<defs>
<font id="Migra-Extralight" horiz-adv-x="0" >
  <font-face 
    font-family="Migra Extralight"
    font-weight="200"
    font-stretch="normal"
    units-per-em="2048"
    panose-1="0 0 3 0 0 0 0 0 0 0"
    ascent="1536"
    descent="-512"
    x-height="1069"
    cap-height="1382"
    bbox="-815 -629 3688 2105"
    underline-thickness="40"
    underline-position="-163"
    unicode-range="U+0020-FB02"
  />
<missing-glyph horiz-adv-x="1228" 
 />
    <glyph glyph-name="fi" unicode="fi" horiz-adv-x="1069" 
d="M874 61l185 -49v-12h-484v12l185 49v945q-307 14 -434 24h-11l-2 -969l242 -49v-12h-541v12l187 49v969l-181 27v12h179l-4 100q-5 88 22.5 159.5t70.5 113.5t97 70t98 38.5t78 10.5q259 0 352 -162l-90 -170l-10 6q13 111 -75.5 182.5t-219.5 71.5q-112 0 -185 -62.5
t-73 -158.5q0 -43 12 -86t27 -75.5t16 -37.5l559 -2v-1006z" />
    <glyph glyph-name="fl" unicode="fl" horiz-adv-x="1097" 
d="M895 61h2l184 -49v-12h-483v12l182 49v945q-334 14 -454 24h-11l-2 -969l242 -49v-12h-541v12l187 49v969l-181 27v12h179l-4 100q-5 88 22.5 159.5t70.5 113.5t97 70t98 38.5t78 10.5q190 0 279 -93l43 86h12v-1493zM315 1069l465 -2v274q-28 68 -98.5 108t-163.5 40
q-112 0 -185 -62.5t-73 -158.5q0 -43 12 -86t27 -75.5t16 -37.5z" />
    <glyph glyph-name="f_f" unicode="ff" horiz-adv-x="1234" 
d="M1108 1561q217 0 322 -162l-91 -170l-10 6q9 73 -29 132.5t-101 90.5t-134 31q-88 0 -137 -53t-49 -148q0 -44 12 -91t27 -85.5t16 -42.5v-2h328v-66l-328 9l-2 -949l225 -49v-12h-524v12l184 49l2 951q-434 13 -506 18l-2 -969h2l242 -49v-12h-541v12l185 49h-2l2 969
l-179 27v12h177l-4 100q-5 88 16 159.5t55.5 113.5t77.5 70t79.5 38.5t65.5 10.5q217 0 322 -162l-90 -170l-10 6q9 73 -29 132.5t-101.5 90.5t-134.5 31q-88 0 -137 -53t-49 -148q0 -44 12 -91t27 -85.5t16 -42.5l506 -2l-6 102q-5 88 16.5 159.5t55.5 113.5t77.5 70
t80 38.5t65.5 10.5z" />
    <glyph glyph-name="f_f_i" unicode="ffi" horiz-adv-x="1662" 
d="M1468 61l185 -49v-12h-484v12l185 49v943q-7 0 -175 3t-270 5l-2 -951l242 -49v-12h-541v12l187 49v953q-397 11 -482 16l-2 -969h2l242 -49v-12h-541v12l185 49v969l-179 27v12h177l-4 100q-5 88 22.5 159.5t70.5 113.5t97 70t98 38.5t78 10.5q219 0 311 -131
q59 67 141.5 99t143.5 32q259 0 352 -162l-90 -170l-10 6q13 111 -75.5 182.5t-219.5 71.5q-112 0 -185 -62.5t-73 -158.5q0 -43 12 -86t27 -75.5t16 -37.5v-2h559v-1006zM258 1268q0 -43 12 -86t27 -75.5t16 -37.5h482l-7 100q-2 38 5 88q3 103 -76 167.5t-201 64.5
q-112 0 -185 -62.5t-73 -158.5z" />
    <glyph glyph-name="f_f_l" unicode="ffl" horiz-adv-x="1712" 
d="M1489 61h22l185 -49v-12h-484v12l162 43v949q-6 0 -182.5 3t-282.5 5l-2 -951l242 -49v-12h-541v12l187 49v953q-394 11 -482 16l-2 -969h2l242 -49v-12h-541v12l185 49v969l-179 27v12h177l-4 100q-5 88 22.5 159.5t70.5 113.5t97 70t98 38.5t78 10.5q219 0 311 -131
q59 67 141.5 99t143.5 32q190 0 279 -93l43 86h12v-1493zM258 1268q0 -43 12 -86t27 -75.5t16 -37.5h482l-7 100q-2 38 5 88q3 103 -76 167.5t-201 64.5q-112 0 -185 -62.5t-73 -158.5zM909 1069v-2h465v274q-28 68 -98.5 108t-163.5 40q-112 0 -185 -62.5t-73 -158.5
q0 -43 12 -86t27 -75.5t16 -37.5z" />
    <glyph glyph-name="g_f.liga" unicode="gf" horiz-adv-x="1558" 
d="M1432 1561q216 0 321 -162l-90 -170l-10 6q9 73 -29 132.5t-101 90.5t-134 31q-88 0 -137.5 -53t-49.5 -148q0 -44 12 -91t27 -85.5t16 -42.5h328v-63q-68 0 -328 10l-2 -955l226 -49v-12h-525v12l185 49l2 959q-384 15 -457 29l-2 -5q152 -98 152 -280q0 -85 -39 -164
t-94.5 -129.5t-111.5 -80.5t-95 -30q-127 0 -215 52q-6 -7 -27.5 -29.5t-29 -30.5t-22.5 -26.5t-21 -30t-11.5 -26.5t-5.5 -29q0 -53 38.5 -87.5t119.5 -41.5l342 -31q7 -1 23 -2q38 -3 59.5 -6t60 -10.5t61.5 -20.5t48 -33.5t37 -52.5t12 -74q0 -15 -2 -35.5t-13 -62
t-29.5 -79.5t-57 -81.5t-89.5 -75t-132 -52.5t-181 -21q-119 0 -221 30.5t-166 90.5t-64 137q0 15 42 53q1 1 253 219q-115 10 -191.5 58t-76.5 135q0 7 29.5 36t85.5 85.5t102 109.5q-123 89 -123 268q0 69 26 134t66 112.5t86.5 83.5t89.5 54t74 18q224 -29 367 -29h301
l-4 100q-5 88 16.5 159.5t55.5 113.5t77.5 70t80 38.5t65.5 10.5zM745 692q0 139 -87.5 229.5t-219.5 90.5q-92 0 -155.5 -61t-63.5 -189q0 -136 85 -227t206 -91q104 0 169.5 59.5t65.5 188.5zM922 -203q0 41 -24 73t-59 51t-89 32.5t-98 19.5t-103 11l-203 16
q-199 -143 -199 -231q0 -83 109.5 -143t288.5 -60q171 0 274 68.5t103 162.5z" />
    <glyph glyph-name="g_i.liga" unicode="gi" horiz-adv-x="1449" 
d="M1188 1298q-38 0 -64 26.5t-26 64.5q0 36 26 62t64 26q36 0 62 -26t26 -62q0 -38 -25.5 -64.5t-62.5 -26.5zM1255 61l185 -49v-12h-484v12l185 49v949q-337 18 -455 39l-2 -5q152 -98 152 -280q0 -85 -39 -164t-94.5 -129.5t-111.5 -80.5t-95 -30q-127 0 -215 52
q-6 -7 -27.5 -29.5t-29 -30.5t-22.5 -26.5t-21 -30t-11.5 -26.5t-5.5 -29q0 -53 38.5 -87.5t119.5 -41.5l342 -31q7 -1 23 -2q38 -3 59.5 -6t60 -10.5t61.5 -20.5t48 -33.5t37 -52.5t12 -74q0 -15 -2 -35.5t-13 -62t-29.5 -79.5t-57 -81.5t-89.5 -75t-132 -52.5t-181 -21
q-119 0 -221 30.5t-166 90.5t-64 137q0 15 42 53q1 1 253 219q-115 10 -191.5 58t-76.5 135q0 7 29.5 36t85.5 85.5t102 109.5q-123 89 -123 268q0 69 26 134t66 112.5t86.5 83.5t89.5 54t74 18q224 -29 367 -29h415v-1008zM745 692q0 139 -87.5 229.5t-219.5 90.5
q-92 0 -155.5 -61t-63.5 -189q0 -136 85 -227t206 -91q104 0 169.5 59.5t65.5 188.5zM922 -203q0 41 -24 73t-59 51t-89 32.5t-98 19.5t-103 11l-203 16q-199 -143 -199 -231q0 -83 109.5 -143t288.5 -60q171 0 274 68.5t103 162.5z" />
    <glyph glyph-name="g_t.liga" unicode="gt" horiz-adv-x="1490" 
d="M1466 150l9 -11q-62 -62 -139.5 -110.5t-106.5 -48.5q-78 0 -123 54t-45 156v830q-300 15 -375 29l-2 -5q152 -98 152 -280q0 -85 -39 -164t-94.5 -129.5t-111.5 -80.5t-95 -30q-127 0 -215 52q-6 -7 -27.5 -29.5t-29 -30.5t-22.5 -26.5t-21 -30t-11.5 -26.5t-5.5 -29
q0 -53 38.5 -87.5t119.5 -41.5l342 -31q7 -1 23 -2q38 -3 59.5 -6t60 -10.5t61.5 -20.5t48 -33.5t37 -52.5t12 -74q0 -15 -2 -35.5t-13 -62t-29.5 -79.5t-57 -81.5t-89.5 -75t-132 -52.5t-181 -21q-119 0 -221 30.5t-166 90.5t-64 137q0 15 42 53q1 1 253 219
q-115 10 -191.5 58t-76.5 135q0 7 29.5 36t85.5 85.5t102 109.5q-123 89 -123 268q0 69 26 134t66 112.5t86.5 83.5t89.5 54t74 18q224 -29 367 -29h223l108 221h9l-4 -221h282v-63q-64 0 -282 10v-826q0 -65 29 -97t93 -32q37 0 73 17.5t95 71.5zM745 692
q0 139 -87.5 229.5t-219.5 90.5q-92 0 -155.5 -61t-63.5 -189q0 -136 85 -227t206 -91q104 0 169.5 59.5t65.5 188.5zM922 -203q0 41 -24 73t-59 51t-89 32.5t-98 19.5t-103 11l-203 16q-199 -143 -199 -231q0 -83 109.5 -143t288.5 -60q171 0 274 68.5t103 162.5z" />
    <glyph glyph-name=".notdef" horiz-adv-x="1228" 
 />
    <glyph glyph-name=".null" 
 />
    <glyph glyph-name="nonmarkingreturn" horiz-adv-x="682" 
 />
    <glyph glyph-name="space" unicode=" " horiz-adv-x="409" 
 />
    <glyph glyph-name="exclam" unicode="!" horiz-adv-x="432" 
d="M225 272h-16q0 28 -13.5 217.5t-29 453t-19.5 450.5h138q-4 -187 -19 -450t-28 -452.5t-13 -218.5zM217 -4q-40 0 -67 27t-27 67q0 37 27.5 64.5t66.5 27.5q38 0 65 -27.5t27 -64.5q0 -40 -27 -67t-65 -27z" />
    <glyph glyph-name="quotedbl" unicode="&#x22;" horiz-adv-x="669" 
d="M201 840h-17q-1 23 -22 216t-27 320v6h113v-6q-6 -124 -26.5 -315t-20.5 -221zM487 840h-16q-1 23 -22 216t-27 320v6h113v-6q-6 -124 -27 -315t-21 -221z" />
    <glyph glyph-name="numbersign" unicode="#" horiz-adv-x="1355" 
d="M1315 991v-33h-324l-139 -540h338v-33h-346l-101 -385h-34l100 385h-422l-100 -385h-35l100 385h-311v33h319l140 540h-334v33h342l102 391h35l-102 -391h422l102 391h35l-103 -391h316zM395 418h422l139 540h-421z" />
    <glyph glyph-name="dollar" unicode="$" horiz-adv-x="1011" 
d="M952 358q0 -76 -28.5 -144t-81.5 -121.5t-138 -85t-190 -32.5v-165h-41v165q-89 5 -209 43t-168 45l-57 515l16 2q16 -109 49.5 -196.5t74 -143t93 -95t100 -59t101.5 -29.5v590l-31 15q-139 65 -190 98q-141 94 -156 240q-2 20 -2 40q0 108 53.5 190t138 122.5
t187.5 42.5v157h41v-157q91 -6 170.5 -40t134.5 -85l55 123h15v-512h-12q-93 369 -363 428v-541l23 -10q22 -11 60 -28t61 -28t57 -28t55.5 -30.5t49 -33t44.5 -37.5t35.5 -42.5t29 -49.5t17 -56.5t6.5 -66.5zM152 1110q0 -47 19 -88.5t45.5 -71.5t74 -62t85 -51.5
t97.5 -48.5v527q-40 4 -61 4q-115 0 -187.5 -54t-72.5 -155zM584 47q159 0 230 64t71 165q0 53 -21.5 99.5t-52 78.5t-82.5 65t-93.5 53.5t-105.5 49.5q-11 5 -16 7v-578q25 -4 70 -4z" />
    <glyph glyph-name="percent" unicode="%" horiz-adv-x="1437" 
d="M326 561q-145 0 -215 110t-70 294q0 87 21 162t52 123t68 82.5t68 49.5t53 15q99 0 164.5 -54.5t93 -144.5t27.5 -215q-1 -84 -22 -156.5t-52.5 -120t-68.5 -81.5t-67.5 -49t-51.5 -15zM733 713l-14 10l321 659h84zM342 635q34 0 66 17.5t60.5 53t44.5 100.5t15 150
q0 146 -72.5 255.5t-181.5 109.5q-68 0 -121 -78t-53 -239q0 -142 71 -255.5t171 -113.5zM1135 -20q-145 0 -215 109.5t-70 293.5q0 87 21 162t52 123t68 82.5t68 49.5t53 15q99 0 164.5 -54.5t93 -144.5t27.5 -215q-1 -84 -22 -156.5t-52.5 -119.5t-68.5 -81t-67.5 -49
t-51.5 -15zM1151 53q75 0 132 79.5t54 242.5q0 146 -72.5 255t-181.5 109q-68 0 -121 -78t-53 -239q0 -142 71 -255.5t171 -113.5zM684 670l14 -11l-319 -659h-86z" />
    <glyph glyph-name="ampersand" unicode="&#x26;" horiz-adv-x="1202" 
d="M932 397l268 -385l2 -12h-332v12l162 41l-170 244q-244 -320 -495 -320q-64 0 -120 18t-103.5 55t-75 101.5t-27.5 149.5q0 57 13.5 112.5t33 98.5t53.5 88.5t60.5 75t69.5 66t66.5 54t65 47t50.5 36.5l-344 491v12h776l6 -4l-2 -399h-12q-9 34 -19 80t-15.5 73t-16 61.5
t-22.5 54t-32.5 41t-48 32.5t-68 18t-92.5 7h-295l647 -926q65 117 100.5 237.5t31.5 216.5l6 11l118 61l-2 -6q-28 -120 -90.5 -266t-146.5 -277zM457 63q107 0 207.5 68t183.5 184l-375 533q-16 -13 -53.5 -40.5t-61.5 -47t-59 -51t-57.5 -63.5t-45 -72.5t-33.5 -89
t-11 -103.5q0 -154 88 -236t217 -82z" />
    <glyph glyph-name="quotesingle" unicode="'" horiz-adv-x="382" 
d="M201 840h-17q-1 23 -22 216t-27 320v6h113v-6q-6 -124 -26.5 -315t-20.5 -221z" />
    <glyph glyph-name="parenleft" unicode="(" horiz-adv-x="544" 
d="M244 518q0 -179 20 -336.5t51.5 -267t72.5 -197.5t79.5 -138.5t77.5 -80.5l-8 -14q-414 343 -414 1034t414 1034l8 -14q-50 -38 -98.5 -113t-96 -195t-77 -305.5t-29.5 -406.5z" />
    <glyph glyph-name="parenright" unicode=")" horiz-adv-x="544" 
d="M0 1538l8 14q414 -343 414 -1034t-414 -1034l-8 14q39 30 77.5 80.5t79.5 138.5t72.5 197.5t51.5 267t20 336.5q0 221 -29.5 406.5t-77 305.5t-96 195t-98.5 113z" />
    <glyph glyph-name="asterisk" unicode="*" horiz-adv-x="800" 
d="M410 1034q41 11 99 12t112 -6.5t88 -32t24 -61.5l-45 -182l-14 2q11 55 -10 106t-61 84t-90.5 49t-96.5 7q31 -52 54.5 -126.5t17 -139.5t-57.5 -68l-186 -14l-2 14q55 7 96.5 43t60 83.5t18.5 100.5t-22 94q-38 -45 -103.5 -89.5t-126.5 -60.5t-83 32l-72 174l13 6
q31 -66 100.5 -93.5t140 -13t113.5 59.5q-40 17 -87 49t-87 71.5t-52.5 77t17.5 64.5l143 121l11 -11q-54 -49 -59 -123t29.5 -136.5t90.5 -90.5q5 61 31 134.5t69 122t86 22.5l160 -101l-8 -10q-50 28 -103 22t-97.5 -33t-75 -70t-35.5 -89z" />
    <glyph glyph-name="plus" unicode="+" horiz-adv-x="882" 
d="M459 586h362v-37h-362v-361h-37v361h-361v37h361v362h37v-362z" />
    <glyph glyph-name="comma" unicode="," horiz-adv-x="489" 
d="M342 90v-8q-2 -28 -6 -51t-41 -127.5t-107 -272.5h-65v13l170 356l-6 2l2 2q-16 -8 -39 -8q-40 0 -67 27t-27 67q0 37 27.5 64.5t66.5 27.5q38 0 65 -27.5t27 -64.5z" />
    <glyph glyph-name="hyphen" unicode="-" horiz-adv-x="739" 
d="M61 547v37h617v-37h-617z" />
    <glyph glyph-name="period" unicode="." horiz-adv-x="481" 
d="M242 -4q-40 0 -67.5 27t-27.5 67q0 37 28 64.5t67 27.5q38 0 65 -27.5t27 -64.5q0 -40 -27 -67t-65 -27z" />
    <glyph glyph-name="slash" unicode="/" horiz-adv-x="720" 
d="M41 -512l598 2048h41l-598 -2048h-41z" />
    <glyph glyph-name="zero" unicode="0" horiz-adv-x="997" 
d="M518 -20q-121 0 -212 51.5t-146 144.5t-82 215.5t-27 272.5q0 149 34.5 277.5t85.5 210t111.5 140.5t111 84t85.5 25q99 0 177.5 -34.5t132.5 -96.5t89.5 -151t51.5 -194t16 -229q-1 -142 -35.5 -266t-86 -204t-111.5 -137.5t-110.5 -83t-84.5 -25.5zM539 76q48 0 94 18
t90 61t76.5 107t51.5 163t17 222q0 171 -51.5 318.5t-150.5 241t-226 93.5q-43 0 -85 -18t-83.5 -61t-72.5 -106.5t-50.5 -162t-19.5 -219.5q0 -168 49.5 -317t145 -244.5t215.5 -95.5z" />
    <glyph glyph-name="one" unicode="1" horiz-adv-x="550" 
d="M344 74l178 -62v-12h-479v12l176 62v1243l-194 -2v12l307 68h12v-1321z" />
    <glyph glyph-name="two" unicode="2" horiz-adv-x="890" 
d="M819 358h12v-348l-10 -10h-815l2 2v10l420 506q231 277 231 508q0 56 -13 104.5t-41.5 91t-81 67t-124.5 24.5q-114 0 -173.5 -82.5t-59.5 -243.5l-156 -88l-6 4q38 111 97 208.5t120 161t119 100t100 36.5q85 0 149.5 -21t100.5 -52t58 -73.5t29 -78.5t7 -74
q0 -115 -72.5 -254t-250.5 -354l-314 -381v-8h498q42 0 65 7.5t40.5 33.5t29 62t30.5 107q6 23 9 35z" />
    <glyph glyph-name="three" unicode="3" horiz-adv-x="833" 
d="M813 1382v-12l-467 -514l4 -6q208 51 327.5 -26.5t119.5 -241.5q0 -70 -28.5 -145.5t-90 -150.5t-147.5 -136t-210.5 -103.5t-269.5 -52.5v125l8 8h189q62 0 119 8.5t117.5 32.5t104 62t71.5 102t28 147q0 92 -28.5 160t-75.5 103.5t-106.5 48t-123 1t-123.5 -43.5
l-12 18l449 504h-465q-36 0 -55.5 -16t-36 -63t-37.5 -149h-13v334l7 6h745z" />
    <glyph glyph-name="four" unicode="4" horiz-adv-x="940" 
d="M922 365v-37h-293v-254l178 -62v-12h-479v12l178 62l2 254h-504v8l533 1046h143v-12l-612 -1005h440l2 368l104 150h15v-518h293z" />
    <glyph glyph-name="five" unicode="5" horiz-adv-x="829" 
d="M768 1274l-6 -4h-547l-70 -303l215 -86q115 -46 182.5 -80t120 -77.5t73 -93.5t20.5 -120q0 -59 -21.5 -121.5t-75 -130t-132.5 -122t-205 -94t-281 -48.5v125l8 8h221q195 0 291 81t96 220q0 113 -70.5 188t-256.5 150l-250 100l119 516h360q32 0 48.5 0.5t38.5 4
t34.5 10.5t27 19t25.5 31t21 46h12z" />
    <glyph glyph-name="six" unicode="6" horiz-adv-x="888" 
d="M467 -20q-87 0 -165.5 36t-139 102.5t-96 169t-35.5 226.5q0 527 620 909l11 -14q-152 -87 -286.5 -265.5t-176.5 -344.5l6 -4q44 64 117.5 104.5t123.5 40.5q65 0 123.5 -14.5t112.5 -48.5t93 -84.5t62 -126.5t23 -170q0 -102 -32 -190.5t-79.5 -146.5t-103 -100
t-101.5 -60.5t-77 -18.5zM498 57q37 0 71 8t71 32t63.5 61t43.5 101t17 147q0 190 -100.5 321t-247.5 131q-71 0 -123.5 -27t-83 -76t-45 -110t-14.5 -135q0 -190 100.5 -321.5t247.5 -131.5z" />
    <glyph glyph-name="seven" unicode="7" horiz-adv-x="813" 
d="M0 1376l6 6h778v-6l-53 -123l-426 -1253h-143v12l528 1258h-549q-36 0 -55.5 -16t-36 -63t-37.5 -149h-12v334z" />
    <glyph glyph-name="eight" unicode="8" horiz-adv-x="978" 
d="M598 711q47 -22 76.5 -37.5t70.5 -40t65.5 -48t49 -54.5t36 -68t11.5 -80q0 -69 -33.5 -135t-84.5 -113.5t-110 -84t-111.5 -55t-88.5 -18.5q-183 0 -295 82.5t-112 227.5q0 61 22 120t53.5 102t73 82t73.5 61.5t62 39.5q-106 59 -164.5 131t-58.5 183q0 73 29 139
t72.5 111.5t95 80t97 50.5t77.5 16q163 0 259.5 -86.5t96.5 -222.5q0 -52 -16 -101t-40 -86.5t-61 -75.5t-69.5 -64t-75.5 -56zM207 1077q0 -60 21.5 -108.5t66 -86.5t87 -63t110.5 -57l73 -35h2q178 142 178 305q0 125 -77.5 201t-206.5 76q-113 0 -183.5 -62t-70.5 -170z
M520 78q141 0 222 69.5t81 167.5q0 44 -19 83.5t-44 66.5t-72.5 57.5t-79.5 47.5t-90 44l-65 31l-64 31l2 -2q-207 -109 -207 -303q0 -133 92.5 -213t243.5 -80z" />
    <glyph glyph-name="nine" unicode="9" horiz-adv-x="888" 
d="M422 1401q87 0 165.5 -36.5t139 -103t96 -169t35.5 -226.5q0 -527 -620 -909l-11 14q152 87 286.5 266t176.5 345l-6 4q-44 -64 -118 -105t-124 -41q-65 0 -123.5 15t-112 49t-92.5 84t-62 126.5t-23 170.5q0 102 32 190.5t79.5 146.5t103 100t101.5 60.5t77 18.5z
M391 1323q-37 0 -71 -8t-71 -31.5t-63.5 -60.5t-43.5 -101t-17 -147q0 -190 100.5 -321.5t247.5 -131.5q71 0 123.5 27t83 76t45 110t14.5 135q0 190 -100.5 321.5t-247.5 131.5z" />
    <glyph glyph-name="colon" unicode=":" horiz-adv-x="481" 
d="M242 754q-40 0 -67.5 27t-27.5 67q0 37 28 64.5t67 27.5q38 0 65 -27.5t27 -64.5q0 -40 -27 -67t-65 -27zM242 -4q-40 0 -67.5 27t-27.5 67q0 37 28 64.5t67 27.5q38 0 65 -27.5t27 -64.5q0 -40 -27 -67t-65 -27z" />
    <glyph glyph-name="semicolon" unicode=";" horiz-adv-x="489" 
d="M244 754q-40 0 -67 27t-27 67q0 37 27.5 64.5t66.5 27.5q38 0 65 -27.5t27 -64.5q0 -40 -27 -67t-65 -27zM342 90v-8q-2 -28 -6 -51t-41 -127.5t-107 -272.5h-65v13l170 356l-6 2l2 2q-16 -8 -39 -8q-40 0 -67 27t-27 67q0 37 27.5 64.5t66.5 27.5q38 0 65 -27.5
t27 -64.5z" />
    <glyph glyph-name="less" unicode="&#x3c;" horiz-adv-x="1003" 
d="M922 221v-41l-840 371v41l840 360v-41l-787 -338v-6z" />
    <glyph glyph-name="equal" unicode="=" horiz-adv-x="882" 
d="M61 711v37h760v-37h-760zM61 342v37h760v-37h-760z" />
    <glyph glyph-name="greater" unicode="&#x3e;" horiz-adv-x="1003" 
d="M922 551l-840 -371v41l786 346v6l-786 338v41l840 -360v-41z" />
    <glyph glyph-name="question" unicode="?" horiz-adv-x="739" 
d="M328 272h-17q24 98 84 241t104.5 269t47.5 230q2 52 -9.5 100.5t-35.5 90t-68.5 66.5t-103.5 25q-51 0 -88.5 -26.5t-58.5 -73t-30.5 -102.5t-9.5 -123l-159 -101l-4 4q41 116 97.5 217.5t109.5 165t98.5 100t72.5 36.5q79 0 139 -23t93 -57t54 -79t27 -82t5 -73
q-1 -94 -40 -198.5t-89 -187t-115.5 -201.5t-103.5 -218zM319 -4q-40 0 -67 27t-27 67q0 37 27.5 64.5t66.5 27.5q38 0 65.5 -27.5t27.5 -64.5q0 -40 -27 -67t-66 -27z" />
    <glyph glyph-name="at" unicode="@" horiz-adv-x="1687" 
d="M926 -246q39 0 77.5 7t68.5 15.5t68.5 29.5t61.5 34.5t64 45.5t60 47.5t66 55.5t66 56l8 -10q-81 -74 -140.5 -124.5t-145.5 -114.5t-162.5 -98t-138.5 -34q-230 0 -404.5 91t-271.5 264t-97 405q0 123 29 240.5t79 212.5t116 178.5t140.5 145t151.5 105.5t150 66.5
t135 22.5q143 0 269 -39t222.5 -111.5t152 -185t55.5 -250.5q0 -109 -29.5 -218.5t-78 -195.5t-107 -154t-119 -104.5t-111.5 -36.5q-68 0 -101 38t-52 120h-11q-117 -160 -288 -160q-78 0 -120 34.5t-42 86.5q0 50 28.5 102t86 105.5t108.5 92.5t131 95q18 13 39.5 28
t34 24t24.5 18q0 143 -27 199.5t-118 56.5q-104 0 -152.5 -64.5t-44.5 -199.5l-131 -74l-12 8q32 100 85 182.5t108 128.5t102.5 70.5t79.5 24.5q54 0 95.5 -15.5t66.5 -40t40.5 -57.5t20.5 -65t4 -66l-16 -426q-5 -172 96 -172q45 0 93 25.5t91 75.5t77.5 115.5t54.5 152.5
t20 180q0 130 -53 239t-143 181.5t-209 112.5t-250 40q-143 0 -267.5 -57.5t-215 -160.5t-142 -252.5t-51.5 -325.5q0 -353 197.5 -549.5t527.5 -196.5zM778 154q50 0 107.5 37t111.5 118l2 316v14q-169 -106 -245 -195t-76 -182q0 -47 28 -77.5t72 -30.5z" />
    <glyph glyph-name="A" unicode="A" horiz-adv-x="1046" 
d="M438 1382h142l446 -1370v-12h-332v12l178 66l-133 409h-499l-27 -75q-22 -62 -34.5 -99t-21 -76.5t-10.5 -60.5t4.5 -45t17.5 -36.5t35 -28.5t50.5 -27t69.5 -27v-12h-304v12l449 1264l-31 94v12zM494 1208l-242 -684h475l-225 684h-8z" />
    <glyph glyph-name="B" unicode="B" horiz-adv-x="1173" 
d="M784 733v-6q54 -3 106.5 -22t101.5 -55t79.5 -100t30.5 -147q0 -60 -17.5 -116t-59.5 -109t-104.5 -92t-159.5 -62.5t-218 -23.5h-523v12l185 68v1223l-185 67v12h619q174 0 280.5 -78.5t106.5 -218.5q0 -155 -167 -296q-24 -21 -75 -56zM565 1341h-237v-610l256 2
q162 1 236.5 75.5t74.5 227.5q0 137 -83.5 221t-246.5 84zM543 43q219 5 320.5 79.5t101.5 252.5q0 166 -96.5 243.5t-329.5 77.5h-211v-651q45 0 95 -0.5t83 -1t37 -0.5z" />
    <glyph glyph-name="C" unicode="C" horiz-adv-x="1048" 
d="M618 -20q-162 0 -294 94t-204.5 257.5t-68.5 362.5q2 113 31 212.5t73 169.5t100.5 128t112.5 94t109.5 60.5t90 34.5t55.5 10q161 0 265.5 -59t143.5 -146l-100 -242h-12q20 87 0 153t-71 110.5t-120.5 67t-148.5 22.5q-29 0 -58.5 -3.5t-72.5 -17t-80.5 -34.5
t-77 -60.5t-68.5 -92t-48 -131.5t-21 -175q-4 -201 60.5 -365.5t190 -262t289.5 -97.5q45 0 84.5 7t80.5 25.5t59 28t63 35.5l8 -19q-99 -62 -215.5 -114.5t-155.5 -52.5z" />
    <glyph glyph-name="D" unicode="D" horiz-adv-x="1200" 
d="M465 1382q323 0 503.5 -173.5t180.5 -499.5q0 -73 -11.5 -143t-38.5 -141t-67 -133t-100 -116t-135.5 -93t-176 -61t-217.5 -22h-383v12l183 68v1223l-183 67v12h445zM326 37h67q325 3 476 169t151 486q0 149 -36 267.5t-108.5 205.5t-190 134t-273.5 47h-86v-1309z" />
    <glyph glyph-name="E" unicode="E" horiz-adv-x="1103" 
d="M1010 424h12v-424h-1002v12l185 68v1223l-185 67v12h971v-424h-12q-27 98 -31 113q-17 62 -24.5 90t-20.5 66t-18.5 50.5t-19.5 31.5t-21.5 22t-27 9t-34.5 6h-45h-409v-627h252q33 0 55.5 7t36.5 17t25.5 34.5t18.5 45.5t21 66t27 80h12v-537h-12q-12 32 -24 71
t-18.5 59.5t-16 44.5t-18.5 35t-24 22t-34.5 14.5t-48.5 3.5h-252v-645h440h36.5t30 3.5t24.5 4.5t20 11.5t17.5 16t15 26t15 33.5t15 47t17 58t20.5 74q4 15 31 113z" />
    <glyph glyph-name="F" unicode="F" horiz-adv-x="1026" 
d="M989 1382v-424h-12q-27 98 -31 113q-17 62 -24.5 90t-20.5 66t-18.5 50.5t-19.5 31.5t-21.5 22t-27 9t-34.5 6h-45h-407v-650h301q33 0 55.5 7t36.5 17t25.5 34.5t18.5 45.5t21 66t27 80h12v-536h-12q-12 32 -24 71t-18.5 59.5t-16 44t-18.5 35t-24 22t-34.5 14
t-48.5 3.5h-301v-585l178 -62v-12h-479v12l178 62v1229l-185 67v12h969z" />
    <glyph glyph-name="G" unicode="G" horiz-adv-x="1161" 
d="M459 664v12l579 2l13 -12l-9 -695h-12l-51 160h-4q-68 -48 -188 -99.5t-164 -51.5q-160 0 -291 91t-206 250.5t-75 354.5q0 116 28 218t72.5 174t101.5 131t114 96t111.5 62.5t92 35.5t56.5 10q163 0 278.5 -60t153.5 -145l-94 -246h-13q20 80 -2.5 149t-75 114
t-127 70.5t-157.5 25.5q-29 0 -60 -4t-75 -18t-83 -36.5t-79.5 -64t-69 -96t-47 -137.5t-18.5 -183q0 -197 65.5 -356t189.5 -252.5t285 -93.5q75 0 124.5 14t105.5 47v475z" />
    <glyph glyph-name="H" unicode="H" horiz-adv-x="1245" 
d="M1225 1382v-12l-178 -61v-1235l178 -62v-12h-480v12l179 62v600h-602v-600l178 -62v-12h-480v12l179 62v1235l-179 61v12h480v-12l-178 -61v-598h602v598l-179 61v12h480z" />
    <glyph glyph-name="I" unicode="I" horiz-adv-x="520" 
d="M500 1382v-12l-178 -61v-1235l178 -62v-12h-480v12l179 62v1235l-179 61v12h480z" />
    <glyph glyph-name="J" unicode="J" horiz-adv-x="778" 
d="M788 1382v-12l-178 -61v-1010q0 -29 -27.5 -83.5t-68.5 -109t-95 -95t-100 -40.5q-182 0 -272 160l111 238l10 -4q-29 -84 -8.5 -158.5t77.5 -126t119 -51.5q18 0 29.5 1.5t27.5 9.5t26.5 21.5t21.5 40t16.5 64t8.5 93.5t1 128v922l-178 61v12h479z" />
    <glyph glyph-name="K" unicode="K" horiz-adv-x="1103" 
d="M1069 1370l-551 -573l565 -787v-10h-354v12l168 62l-465 635l-110 -115v-520l178 -62v-12h-480v12l179 62v1235l-179 61v12h480v-12l-178 -61v-660l464 484q46 49 66 86.5t18.5 60.5t-24.5 41.5t-49 28t-70 20.5v12h342v-12z" />
    <glyph glyph-name="L" unicode="L" horiz-adv-x="1009" 
d="M956 424h13v-424h-949v12l185 68v1231l-174 59v12h479v-12l-178 -61h-4v-1272h385q103 0 130 34.5t81 235.5q6 24 10 37.5t10 36.5t12 43z" />
    <glyph glyph-name="M" unicode="M" horiz-adv-x="1329" 
d="M1227 1382v-12l-49 -65v-1305h-310v12l185 68l2 -2v1186h-11l-395 -934h-12l-426 872h-10v-815q0 -79 2.5 -127.5t16.5 -88.5t25 -59t48.5 -39t65 -29t95.5 -28q4 -1 7 -2v-14h-305v1284l-74 86v12h176l418 -858h12l359 858h180z" />
    <glyph glyph-name="N" unicode="N" horiz-adv-x="1148" 
d="M723 1368v14h303v-1402h-12l-803 1222h-10v-815q0 -79 2.5 -127.5t16.5 -88.5t25 -59t48.5 -39t65 -29t95.5 -28q4 -1 7 -2v-14h-305v1284l-74 86v12h158l731 -1108h10v721q0 184 -27 246q-24 54 -91 82q-36 16 -140 45z" />
    <glyph glyph-name="O" unicode="O" horiz-adv-x="1173" 
d="M602 -20q-133 0 -240 60.5t-173.5 161.5t-102 226t-35.5 260q0 107 22 203.5t58.5 166.5t84 129t97.5 98t99.5 65.5t89.5 38.5t69 12q107 0 198 -39.5t155 -108t109.5 -159t67 -192.5t21.5 -210q0 -107 -22 -203t-58.5 -166.5t-84 -129.5t-97.5 -97.5t-99.5 -65.5
t-89.5 -38.5t-69 -11.5zM647 80q61 0 115.5 16t105.5 55t87.5 98t58.5 150.5t22 206.5q0 186 -63 343.5t-181.5 254t-267.5 96.5q-61 0 -115.5 -16t-105.5 -55t-87.5 -98t-58.5 -150.5t-22 -206.5q0 -186 63 -343.5t181.5 -254t267.5 -96.5z" />
    <glyph glyph-name="P" unicode="P" horiz-adv-x="1075" 
d="M483 584h-155v-510l178 -62v-12h-479v12l178 62v1229l-185 67v12h545q211 0 340 -93.5t129 -270.5q0 -62 -18 -121t-60.5 -116.5t-104 -100.5t-157 -69.5t-211.5 -26.5zM492 1346h-164v-725h125q452 0 452 366q0 163 -107.5 261t-305.5 98z" />
    <glyph glyph-name="Q" unicode="Q" horiz-adv-x="1173" 
d="M51 688q0 107 22 203.5t58.5 166.5t84 129t97.5 98t99.5 65.5t89.5 38.5t69 12q107 0 198 -39.5t155 -108t109.5 -159t67 -192.5t21.5 -210q0 -199 -75.5 -359.5t-210.5 -256.5l-418 -297v-4h393q28 0 48.5 3.5t36 15t24.5 20.5t18.5 33t14 38.5t14.5 51t16 57.5h12
l-2 -303l-6 -8h-743v12l401 285l-2 4q-32 -4 -41 -4q-133 0 -240 60.5t-173.5 161.5t-102 226t-35.5 260zM135 774q0 -186 63 -343.5t181.5 -254t267.5 -96.5q61 0 115.5 16t105.5 55t87.5 98t58.5 150.5t22 206.5q0 186 -63 343.5t-181.5 254t-267.5 96.5q-61 0 -115.5 -16
t-105.5 -55t-87.5 -98t-58.5 -150.5t-22 -206.5z" />
    <glyph glyph-name="R" unicode="R" horiz-adv-x="1128" 
d="M668 670l434 -658v-12h-326v12l146 54l-394 604h-200v-596l178 -62v-12h-479v12l178 62v1229l-185 67v12h553q231 0 349 -78t118 -229q0 -135 -94.5 -230.5t-277.5 -174.5zM328 1346v-639h219q164 0 259 83.5t95 245.5q0 310 -360 310h-213z" />
    <glyph glyph-name="S" unicode="S" horiz-adv-x="1011" 
d="M485 782l52 -24q22 -11 60 -28t61 -28t57 -28t55.5 -30.5t49 -33t44.5 -37.5t35.5 -42.5t29 -49.5t17 -56.5t6.5 -66.5q0 -76 -28.5 -144.5t-83 -122t-140.5 -85t-192 -31.5q-79 0 -149.5 16.5t-141 40t-121.5 31.5l-57 515l16 2q14 -98 42.5 -178t63 -134t79.5 -95
t87.5 -64.5t91 -38t86.5 -19t79 -4.5q159 0 230 64t71 165q0 65 -25.5 116.5t-88 96t-102 65.5t-131.5 63q-23 11 -34 16l-62 29q-139 65 -190 98q-141 94 -156 240q-2 20 -2 40q0 164 114.5 259.5t276.5 95.5q99 0 187.5 -34.5t146.5 -90.5l55 123h15v-512h-12
q-113 438 -465 438q-115 0 -187.5 -54t-72.5 -155q0 -48 20 -91t47 -72.5t78 -63t87.5 -52t100.5 -49.5z" />
    <glyph glyph-name="T" unicode="T" horiz-adv-x="987" 
d="M967 1382v-424h-13q-11 40 -29 107q-55 205 -84.5 243t-140.5 38h-145v-1272l178 -62v-12h-479v12l178 62v1272h-145q-43 0 -64.5 -1t-44.5 -12.5t-33.5 -25t-26 -50.5t-26.5 -77.5t-31 -116.5q-17 -66 -28 -105h-13v424h947z" />
    <glyph glyph-name="U" unicode="U" horiz-adv-x="1241" 
d="M1065 78l2 2l184 -68v-12h-309v160q-95 -70 -199 -125t-141 -55q-198 0 -308 104.5t-110 312.5v906l-184 67v12h307v-964q0 -95 26.5 -164t73.5 -107t103 -55.5t123 -17.5q51 0 94.5 9t83 29.5t65 38t66.5 48.5v1104l-184 67v12h307v-1304z" />
    <glyph glyph-name="V" unicode="V" horiz-adv-x="1040" 
d="M715 1370v12h305v-12l-494 -1397h-12l-494 1397v12h336v-12l-180 -65l381 -1082h14l254 735q23 65 37 113.5t21 87t6.5 65.5t-8.5 47.5t-21.5 34t-35.5 24.5t-47.5 20t-60.5 20h-1z" />
    <glyph glyph-name="W" unicode="W" horiz-adv-x="1357" 
d="M1032 1370v12h305v-12l-395 -1397h-10l-236 820h-12l-233 -820h-11l-420 1397v12h318v-12l-176 -63l315 -1053h12l152 555q8 28 13 48.5t6.5 40t3 32t-4.5 26t-9.5 21t-18 18t-23.5 15.5t-32.5 15t-39 15t-49.5 17v12h451v-12l-180 -66l209 -737h12l225 815q18 65 18 112
t-4.5 73.5t-40 50.5t-53.5 31.5t-79 28.5l-3 1.5t-3 1t-3.5 1t-3.5 1.5z" />
    <glyph glyph-name="X" unicode="X" horiz-adv-x="1079" 
d="M997 1370l-415 -631l456 -727v-12h-354v12l176 66l-358 565l2 -6l-221 -340q-21 -32 -32 -50.5t-23.5 -43.5t-14.5 -40t-0.5 -34.5t14 -33t33 -29t53 -28.5t76.5 -26v-12h-346v12l436 666l-438 692v12h356v-12l-172 -63l332 -529l201 307q31 48 47.5 76.5t28.5 59.5
t8 49.5t-20 37.5t-48 33.5t-82 28.5v12h305v-12z" />
    <glyph glyph-name="Y" unicode="Y" horiz-adv-x="995" 
d="M985 1382v-12l-424 -807v-489l178 -62v-12h-479v12l178 62v495l-428 801v12h342v-12l-172 -65l355 -680h14l180 348q31 60 49 97.5t34.5 77.5t22 63.5t5 48t-11 38.5t-30.5 28.5t-48.5 24.5t-69.5 19v12h305z" />
    <glyph glyph-name="Z" unicode="Z" horiz-adv-x="1030" 
d="M946 424h12v-424h-886v12l727 1334h-441h-45t-34.5 -6t-27 -9t-21.5 -22t-19.5 -31.5t-18.5 -50.5t-20.5 -66t-24.5 -90q-10 -42 -30 -113h-13v424h844v-12l-715 -1333h472q78 0 102 13q33 18 59 93q14 40 49 168q4 15 31 113z" />
    <glyph glyph-name="bracketleft" unicode="[" horiz-adv-x="487" 
d="M467 1534v-12l-178 -66l-6 -1888l184 -68v-12h-291v2046h291z" />
    <glyph glyph-name="backslash" unicode="\" horiz-adv-x="720" 
d="M41 1536h41l598 -2048h-41z" />
    <glyph glyph-name="bracketright" unicode="]" horiz-adv-x="487" 
d="M311 1534v-2046h-291v12l185 68l-6 1888l-179 66v12h291z" />
    <glyph glyph-name="asciicircum" unicode="^" horiz-adv-x="624" 
d="M76 934h-15l252 604h6l244 -604h-14l-236 397h-6z" />
    <glyph glyph-name="underscore" unicode="_" horiz-adv-x="1024" 
d="M0 -37v37h1024v-37h-1024z" />
    <glyph glyph-name="grave" unicode="`" horiz-adv-x="512" 
d="M82 1524v12h133l195 -371h-15z" />
    <glyph glyph-name="a" unicode="a" horiz-adv-x="921" 
d="M731 84l240 133l6 -10q-31 -25 -87.5 -85.5t-99.5 -98t-71 -37.5q-14 0 -23.5 5.5t-23.5 25.5t-28 69.5t-28 128.5q-92 -129 -169 -183.5t-179 -54.5q-98 0 -149 45.5t-51 118.5q0 59 33.5 120t98 122.5t129 111t156.5 111.5l136 92q0 39 -1 67t-5.5 62.5t-12.5 58.5
t-22 48.5t-33.5 39.5t-48.5 24.5t-66 9.5q-123 0 -187.5 -91t-56.5 -233l-151 -84l-6 4q36 101 85.5 186t98.5 140.5t99.5 94.5t90 56t68.5 17q64 0 113.5 -18.5t79 -48t48.5 -69.5t25.5 -79.5t5.5 -81.5l-14 -582v-135zM332 53q134 0 284 209l5 387q-216 -133 -315 -241
t-99 -213q0 -65 34.5 -103.5t90.5 -38.5z" />
    <glyph glyph-name="b" unicode="b" horiz-adv-x="976" 
d="M506 1090q86 0 160 -32t133 -95t93 -167t34 -239q0 -98 -23.5 -185t-61.5 -147.5t-83 -109t-90 -76.5t-80.5 -42.5t-57.5 -14.5q-112 0 -186.5 45t-110.5 123v-3h-14l-53 -167h-12l4 1493l-203 -3v13l307 67h12v-592q72 56 141 94t91 38zM563 59q36 0 68 8.5t69 36.5
t63.5 74t44 128.5t17.5 191.5q0 139 -44.5 253t-126 181t-183.5 67q-103 0 -199 -79v-502q0 -163 78.5 -261t212.5 -98z" />
    <glyph glyph-name="c" unicode="c" horiz-adv-x="806" 
d="M500 -20q-94 0 -174.5 32.5t-142 95.5t-97 163t-35.5 227q0 92 19 174t50 141t71 108t81 80t81.5 53t71 31t50.5 9q63 0 116 -17.5t87 -45t58.5 -62.5t35 -68.5t10.5 -64.5l-129 -138l-6 4q31 127 -33 215.5t-174 88.5q-40 0 -76.5 -8.5t-77 -35.5t-69.5 -69.5
t-48 -117.5t-19 -173q0 -250 113.5 -391t305.5 -141q19 0 36 2t34.5 7.5t28 9t29 13.5t25 13t27.5 16.5t25 15.5l8 -14q-202 -153 -282 -153z" />
    <glyph glyph-name="d" unicode="d" horiz-adv-x="999" 
d="M809 84l240 133l6 -10q-31 -25 -87.5 -85.5t-99.5 -98t-71 -37.5q-10 0 -17 2t-17.5 12t-19 28.5t-19.5 54.5t-22 87q-205 -182 -243 -182q-84 0 -156.5 30t-129.5 88t-89.5 152.5t-32.5 214.5q0 124 36.5 231t89 173.5t113 114t107.5 67.5t74 20q140 0 223 -37v431
l-205 -3v13l308 67h12v-1466zM469 84q116 0 227 127q-2 2 -2 8v721q-114 64 -219 64q-45 0 -86.5 -10t-86.5 -40t-77.5 -77t-53.5 -128t-21 -186q0 -210 89 -344.5t230 -134.5z" />
    <glyph glyph-name="e" unicode="e" horiz-adv-x="825" 
d="M774 147l8 -14q-202 -153 -282 -153q-94 0 -174.5 32.5t-142 95.5t-97 163t-35.5 227q0 92 19 174t50 141t71 108t81 80t81.5 53t71 31t50.5 9q158 0 225.5 -88.5t67.5 -251.5q0 -24 -60 -69.5t-83 -45.5h-475v-37q0 -250 113.5 -391t305.5 -141q19 0 36 2t34.5 7.5t28 9
t29 13.5t25 13t27.5 16.5t25 15.5zM440 1006q-47 0 -89 -13.5t-86 -47t-74 -102.5t-39 -167h505q13 166 -50.5 248t-166.5 82z" />
    <glyph glyph-name="f" unicode="f" horiz-adv-x="616" 
d="M489 1561q217 0 322 -162l-90 -170l-10 6q9 73 -29 132.5t-101.5 90.5t-134.5 31q-88 0 -137 -53t-49 -148q0 -44 12 -91t27 -85.5t16 -42.5h328v-68q-14 0 -62.5 5t-122.5 12.5t-132 11.5h-11l-2 -969l226 -49v-12h-525v12l185 49l2 971l-181 25v12h179l-4 100
q-5 88 16 159.5t55.5 113.5t77.5 70t79.5 38.5t65.5 10.5z" />
    <glyph glyph-name="g" unicode="g" horiz-adv-x="993" 
d="M1059 1069v-63q-139 0 -373 43l-2 -5q152 -98 152 -280q0 -85 -39 -164t-94.5 -129.5t-111.5 -80.5t-95 -30q-127 0 -215 52q-6 -7 -27.5 -29.5t-29 -30.5t-22.5 -26.5t-21 -30t-11.5 -26.5t-5.5 -29q0 -53 38.5 -87.5t119.5 -41.5l342 -31q7 -1 23 -2q38 -3 59.5 -6
t60 -10.5t61.5 -20.5t48 -33.5t37 -52.5t12 -74q0 -15 -2 -35.5t-13 -62t-29.5 -79.5t-57 -81.5t-89.5 -75t-132 -52.5t-181 -21q-119 0 -221 30.5t-166 90.5t-64 137q0 15 42 53q1 1 253 219q-115 10 -191.5 58t-76.5 135q0 7 29.5 36t85.5 85.5t102 109.5
q-123 89 -123 268q0 69 26 134t66 112.5t86.5 83.5t89.5 54t74 18q224 -29 367 -29h219zM745 692q0 139 -87.5 229.5t-219.5 90.5q-92 0 -155.5 -61t-63.5 -189q0 -136 85 -227t206 -91q104 0 169.5 59.5t65.5 188.5zM922 -203q0 41 -24 73t-59 51t-89 32.5t-98 19.5
t-103 11l-203 16q-199 -143 -199 -231q0 -83 109.5 -143t288.5 -60q171 0 274 68.5t103 162.5z" />
    <glyph glyph-name="h" unicode="h" horiz-adv-x="1067" 
d="M895 743v-682l184 -49v-12h-483v12l184 49l2 682q0 123 -64.5 186.5t-158.5 63.5q-112 0 -240 -182v-750h3l184 -49v-12h-483v12l182 49v1412l-205 -3v13l307 67h12v-680q81 98 159.5 155.5t111.5 59.5q62 2 113.5 -13t96 -52t70 -107.5t25.5 -169.5z" />
    <glyph glyph-name="i" unicode="i" horiz-adv-x="544" 
d="M283 1298q-38 0 -64 26.5t-26 64.5q0 36 26 62t64 26q36 0 62 -26t26 -62q0 -38 -25.5 -64.5t-62.5 -26.5zM350 61l185 -49v-12h-484v12l185 49v943l-185 53v12h299v-1008z" />
    <glyph glyph-name="j" unicode="j" horiz-adv-x="423" 
d="M227 1300q-38 0 -64 26.5t-26 64.5q0 36 26 62t64 26q36 0 62 -26t26 -62q0 -38 -25.5 -64.5t-62.5 -26.5zM180 1004l-184 53v12h299v-1028q0 -81 -31 -155.5t-85 -135.5t-104 -105t-112 -92t-84 -69l-8 16q52 46 99.5 98t98 123t81 154.5t30.5 165.5v963z" />
    <glyph glyph-name="k" unicode="k" horiz-adv-x="946" 
d="M920 1057l-435 -416l455 -629v-12h-356v12l188 43l-371 504l-82 -78v-420h3l184 -49v-12h-483v12l182 49v1412l-205 -3v13l307 67h12v-1020l351 338q52 50 57 81.5t-33 55.5t-131 52v12h357v-12z" />
    <glyph glyph-name="l" unicode="l" horiz-adv-x="522" 
d="M319 61h3l184 -49v-12h-483v12l182 49v1412l-205 -3v13l307 67h12v-1489z" />
    <glyph glyph-name="m" unicode="m" horiz-adv-x="1660" 
d="M1489 743v-682l184 -49v-12h-483v12l184 49l2 682q0 123 -64.5 186.5t-158.5 63.5q-64 0 -129 -57t-117 -135q2 -18 2 -58v-682l185 -49v-12h-484v12l185 49l2 682q0 123 -65 186.5t-159 63.5q-111 0 -237 -180v-752l184 -49v-12h-483v12l184 49v930l-239 -133l-7 10
q31 26 87.5 86t99.5 98t71 38q14 0 23.5 -5.5t23 -25t27 -67.5t27.5 -124q81 99 159 157t111 60q70 3 127.5 -15.5t104 -73.5t63.5 -144q83 107 166 169t119 64q62 2 113.5 -13t96 -52t70 -107.5t25.5 -169.5z" />
    <glyph glyph-name="n" unicode="n" horiz-adv-x="1081" 
d="M909 743v-682l185 -49v-12h-484v12l185 49l2 682q0 123 -65 186.5t-159 63.5q-111 0 -237 -180v-752l184 -49v-12h-483v12l184 49v930l-239 -133l-7 10q31 26 87.5 86t99.5 98t71 38q14 0 23.5 -5.5t23 -25t27 -67.5t27.5 -124q81 99 159 157t111 60q62 2 113.5 -13
t96 -52t70 -107.5t25.5 -169.5z" />
    <glyph glyph-name="o" unicode="o" horiz-adv-x="899" 
d="M461 -20q-82 0 -154.5 30.5t-130 90t-91.5 158t-34 224.5q0 110 22 204t57.5 157.5t78 112.5t87 76t80.5 40.5t62 13.5q82 0 154.5 -30.5t130 -90t91.5 -158t34 -224.5q0 -110 -22 -204t-57.5 -157.5t-78 -112.5t-87 -76t-80.5 -40.5t-62 -13.5zM512 74q31 0 63 9.5
t67.5 36t62.5 68t45 113t18 162.5q0 233 -107 381.5t-274 148.5q-31 0 -63 -9.5t-67.5 -36t-62.5 -68t-45 -113t-18 -162.5q0 -233 107 -381.5t274 -148.5z" />
    <glyph glyph-name="p" unicode="p" horiz-adv-x="993" 
d="M535 1087q84 0 156.5 -30t129 -88t89 -152.5t32.5 -214.5q0 -124 -36.5 -231t-89 -173.5t-113 -114t-107.5 -67.5t-74 -20q-140 0 -223 37v-484l184 -49v-12h-483v12l184 49v1442l-239 -133l-6 10q31 26 87.5 86t99.5 98t71 38q13 0 21.5 -4.5t21 -21t25.5 -56t26 -103.5
q205 182 244 182zM518 72q46 0 87 10t86.5 39.5t78 76.5t53.5 128t21 186q0 210 -89.5 344.5t-230.5 134.5q-116 0 -227 -127q2 -2 2 -8v-721q112 -63 219 -63z" />
    <glyph glyph-name="q" unicode="q" horiz-adv-x="950" 
d="M819 854v-1305l185 -49v-12h-484v12l185 49v566q-73 -57 -142 -95t-92 -38q-86 0 -160 31.5t-133 94.5t-93 167t-34 239q0 117 33.5 217.5t82.5 164t105.5 109.5t101.5 65.5t72 19.5q205 0 289 -150h10l82 172h13zM506 72q109 0 199 82v499q0 163 -78.5 261t-212.5 98
q-36 0 -68 -8.5t-69 -36.5t-63.5 -74t-44 -128.5t-17.5 -191.5q0 -139 44.5 -253t126 -181t183.5 -67z" />
    <glyph glyph-name="r" unicode="r" horiz-adv-x="790" 
d="M846 999l6 -8q-8 -8 -38.5 -46.5t-53.5 -57.5t-45 -19q-35 0 -111 57.5t-112 57.5q-32 0 -74.5 -51t-81.5 -123v-748l184 -49v-12h-483v12l184 49v930l-239 -133l-7 10q31 26 87.5 86t99.5 98t71 38q14 0 23.5 -5.5t23 -24.5t27 -66t27.5 -122q50 76 113.5 148t78.5 72
q25 0 71.5 -31t95.5 -62.5t79 -31.5q7 0 14 1.5t12 3t13 5.5t11 6l12 8z" />
    <glyph glyph-name="s" unicode="s" horiz-adv-x="849" 
d="M446 618l54 -26q51 -25 86 -45t75 -51t64 -62.5t40.5 -76t16.5 -95.5q0 -124 -83.5 -204.5t-239.5 -80.5q-59 0 -118 12.5t-118.5 30t-93.5 23.5l-57 438h16q21 -112 64 -197t91.5 -131t108 -74t103 -36t86.5 -8q84 0 136 45t52 123q0 82 -72 145t-219 135l-57 29
q-48 24 -80 42.5t-68.5 46.5t-58 57t-35.5 69t-14 86q0 127 89 206t228 79q63 0 130 -20t114 -62l41 65h12v-450h-16q-7 64 -24 122t-47 111t-69.5 91.5t-95.5 61.5t-122 23q-88 0 -133.5 -45t-45.5 -114q0 -46 19.5 -84t61 -71t79 -55t100.5 -53z" />
    <glyph glyph-name="t" unicode="t" horiz-adv-x="622" 
d="M598 150l8 -11q-62 -62 -139.5 -110.5t-106.5 -48.5q-78 0 -122.5 54t-44.5 156v840l-173 27v12h175l108 221h8l-4 -221h283v-68q-13 0 -55.5 5t-108 12.5t-119.5 11.5v-840q0 -65 29.5 -97t93.5 -32q37 0 73 17.5t95 71.5z" />
    <glyph glyph-name="u" unicode="u" horiz-adv-x="1062" 
d="M852 82l240 133l6 -10q-31 -25 -87.5 -85.5t-99.5 -98t-71 -37.5q-10 0 -17 2t-18.5 13t-20.5 31.5t-20.5 60.5t-22.5 97q-78 -95 -154.5 -150.5t-109.5 -57.5q-62 -2 -113.5 13t-96 52t-70 107.5t-25.5 169.5v682l-184 53v12h299v-65l-2 -682q0 -123 64.5 -186.5
t158.5 -63.5q105 0 229 168v764l-184 53v12h299v-987z" />
    <glyph glyph-name="v" unicode="v" horiz-adv-x="833" 
d="M530 1057v12h293v-12l-407 -1116h-8l-398 1116v12h336v-12l-196 -53l296 -838h13l172 477q24 66 39.5 112t23.5 86.5t11 65t-6 47.5t-18 34.5t-36 25.5t-49 21.5t-66 21.5z" />
    <glyph glyph-name="w" unicode="w" horiz-adv-x="1341" 
d="M1044 1057v12h287v-12l-366 -1114h-9l-278 858h-12l-283 -858h-8l-365 1114v12h338v-12l-196 -53h-2l264 -811h12l145 450q26 81 39 128t21 96t1.5 75t-25.5 51t-53 39t-87 25v12h455v-12l-189 -51l-2 -2l264 -811h13l149 450q22 67 36 112.5t21 86t9.5 65t-7.5 47.5
t-19.5 34.5t-36.5 25.5t-49 21.5t-67 21.5z" />
    <glyph glyph-name="x" unicode="x" horiz-adv-x="874" 
d="M838 1057l-351 -486l365 -557v-14h-356v12l188 54l-274 415l-115 -159q-11 -15 -32 -44q-34 -46 -48 -67t-30.5 -53.5t-12.5 -48t18 -36t49 -34.5t91 -27v-12h-307v12l364 506l-354 539v12h342v-12l-174 -49l264 -402l100 142q44 61 68.5 99.5t36 71t10 50t-22.5 35
t-48 28t-79 25.5v12h308v-12z" />
    <glyph glyph-name="y" unicode="y" horiz-adv-x="823" 
d="M520 1069h293v-12l-80 -221l-467 -1348h-145v12l266 471l-387 1086v12h336v-12l-197 -53l297 -838h13l172 477q24 66 39.5 112t23.5 86.5t11 65t-6 47.5t-18 34.5t-36 25.5t-49 21.5t-66 21.5v12z" />
    <glyph glyph-name="z" unicode="z" horiz-adv-x="864" 
d="M807 1069v-12l-594 -1018h270q153 0 196.5 56t85.5 261q14 69 23 109h13l2 -461l-6 -4h-729v12l594 1020h-263q-43 0 -76.5 -3.5t-59 -13.5t-43 -20t-31.5 -30.5t-22 -38t-16.5 -50.5t-13.5 -58.5t-14 -71t-17 -80.5h-12l-2 399l6 4h709z" />
    <glyph glyph-name="braceleft" unicode="{" horiz-adv-x="626" 
d="M-41 496v36q18 0 37.5 1t47 4t52.5 8t55 13.5t53 20t47.5 28t39 37.5t26.5 47.5t10 59t-10 72.5l-77 297q-22 84 -22.5 161.5t19 138.5t64 97.5t109.5 36.5q22 0 92.5 -33t124.5 -69l-11 -12q-1 1 -25 13t-34.5 16.5t-31.5 10t-40 5.5q-57 0 -94.5 -32t-51 -85
t-11 -116.5t21.5 -131.5l72 -260q16 -57 17 -105t-10.5 -82.5t-34.5 -61t-51 -43.5t-64.5 -28t-71 -16t-74.5 -6v-12q46 -1 86 -7.5t82 -21t69.5 -39t48.5 -62t20 -88.5t-17 -120l-72 -262q-18 -67 -21 -130.5t10 -116t50 -84.5t94 -32q15 0 30 3t31 9t25.5 10t26 12.5
t20.5 10.5l11 -10q-54 -37 -124.5 -71.5t-92.5 -34.5q-65 0 -109.5 37t-64 98t-19 138.5t22.5 160.5l77 299q8 39 9.5 71.5t-10.5 59t-26.5 47.5t-38.5 37.5t-47.5 28.5t-53 20t-54.5 13.5t-52.5 8.5t-47 4t-37.5 1z" />
    <glyph glyph-name="bar" unicode="|" horiz-adv-x="454" 
d="M246 -514h-37v2058h37v-2058z" />
    <glyph glyph-name="braceright" unicode="}" horiz-adv-x="626" 
d="M668 532v-36q-18 0 -37.5 -1t-47 -4t-52.5 -8.5t-54.5 -13.5t-53 -20t-48 -28.5t-39 -37.5t-26.5 -47.5t-10.5 -59t9.5 -71.5l78 -299q22 -83 22.5 -160.5t-19 -138.5t-64 -98t-109.5 -37q-22 0 -92.5 34.5t-124.5 71.5l10 10q4 -2 20.5 -10.5t26 -12.5t25.5 -10t31 -9
t30 -3q57 0 94 32t50 84.5t10 116t-21 130.5l-71 262q-16 69 -17 120t20 88.5t48.5 62t69.5 39t82 21t86 7.5v12q-40 1 -74.5 6t-71 16t-64.5 28t-51 43.5t-34.5 61t-10.5 82.5t17 105l71 260q19 68 21.5 131.5t-11 116.5t-51 85t-94.5 32q-19 0 -40 -5.5t-31.5 -10
t-34.5 -16.5t-25 -13l-10 12q54 36 124.5 69t92.5 33q65 0 109.5 -36.5t64 -97.5t19 -138.5t-22.5 -161.5l-78 -297q-14 -44 -9.5 -79.5t14.5 -63.5t33.5 -49.5t47.5 -37.5t56.5 -26.5t60.5 -17.5t59.5 -10.5t53.5 -5t43 -1.5z" />
    <glyph glyph-name="asciitilde" unicode="~" horiz-adv-x="858" 
d="M829 690l9 -6q-44 -96 -96 -152.5t-101 -56.5q-54 0 -228 70.5t-216 70.5q-20 0 -34.5 -2.5t-37.5 -12.5t-47 -35.5t-49 -65.5l-9 6q46 95 97.5 151t99.5 56q50 0 220.5 -71t219.5 -71q22 0 35.5 2.5t37.5 12t49 36t50 68.5z" />
    <glyph glyph-name="exclamdown" unicode="&#xa1;" horiz-adv-x="432" 
d="M217 1079q38 0 65 -27t27 -67q0 -37 -27 -64.5t-65 -27.5q-39 0 -66.5 27.5t-27.5 64.5q0 40 27 67t67 27zM209 803h16q0 -29 13 -218t28 -452t19 -450h-138q4 187 19.5 450t29 452.5t13.5 217.5z" />
    <glyph glyph-name="cent" unicode="&#xa2;" horiz-adv-x="806" 
d="M569 70q19 0 36 2t34.5 7.5t28 9t29 13.5t25 13t27.5 16.5t25 15.5l8 -14q-202 -153 -282 -153h-13v-342h-41v344q-175 20 -285 151.5t-110 364.5q0 116 30.5 215t75 163t101 112t103 70.5t85.5 31.5v364h41v-360q75 -2 134.5 -29t93 -67t50.5 -82t17 -80l-129 -138l-6 4
q31 127 -33 215.5t-174 88.5q-40 0 -76.5 -8.5t-77 -35.5t-69.5 -69.5t-48 -117.5t-19 -173q0 -250 113.5 -391t305.5 -141z" />
    <glyph glyph-name="sterling" unicode="&#xa3;" horiz-adv-x="1003" 
d="M223 113h504q42 0 65 7.5t40.5 33.5t29 62t30.5 107q6 23 9 35h12v-348l-10 -10h-852v14l119 103q1 1 21 18t25.5 22t24.5 22.5t26.5 27.5t22.5 28t22.5 32t16 32.5t12 37.5t3.5 38q0 50 -24 96t-64.5 102.5t-60.5 102.5h-164v37h149q-22 64 -22 145q0 101 39 192
t95.5 151.5t121.5 105.5t117 65.5t81 20.5q84 0 147.5 -26t97 -67t49.5 -83t16 -82l-129 -140l-7 4q23 84 -7.5 155.5t-95.5 111t-144 39.5q-126 0 -197.5 -96.5t-71.5 -247.5q0 -127 52 -248h403v-37h-387q29 -59 70 -118.5t65.5 -93t24.5 -46.5q0 -43 -275 -305z" />
    <glyph glyph-name="yen" unicode="&#xa5;" horiz-adv-x="1138" 
d="M752 1382h305v-12l-332 -633h307v-37h-327l-72 -137v-47h401v-37h-401v-405l178 -62v-12h-479v12l178 62v405h-395v37h395v53l-70 131h-325v37h305l-338 633v12h342v-12l-172 -65l354 -680h15l180 348q31 60 49 97.5t34.5 77.5t22 63.5t5 48t-11 38.5t-30.5 28.5
t-48.5 24.5t-69.5 19v12z" />
    <glyph glyph-name="brokenbar" unicode="&#xa6;" horiz-adv-x="454" 
d="M246 692h-37v852h37v-852zM209 324h37v-838h-37v838z" />
    <glyph glyph-name="section" unicode="&#xa7;" horiz-adv-x="933" 
d="M651 283q156 -93 156 -246q0 -124 -87.5 -205.5t-246.5 -81.5q-90 0 -217 32t-143 34l-41 395h12q15 -98 49.5 -173.5t77.5 -121.5t98 -75.5t106.5 -40.5t106.5 -11q104 0 161.5 51t57.5 129q0 31 -9.5 59t-22.5 49t-39.5 43.5t-46 36.5t-58 33.5t-60 29.5t-65.5 30
l-37 16q-60 27 -97 45t-85.5 49.5t-75 62t-46 74.5t-19.5 95q0 98 68 171.5t171 90.5q-87 46 -134.5 104.5t-47.5 147.5q0 121 95.5 199t236.5 81q174 0 262 -79l41 65h10v-450h-14q-9 81 -34.5 152t-67.5 130.5t-107.5 94t-146.5 34.5q-90 0 -148.5 -44t-58.5 -124
q0 -26 9 -50t20.5 -42.5t36.5 -39t43 -32.5t55 -31t56 -28t62 -29l41 -18q45 -20 73.5 -34t68 -36t64.5 -40.5t52.5 -45t43 -53.5t26 -62t10.5 -73q0 -95 -55 -166.5t-160 -101.5zM424 393l27 -12q120 -55 159 -76q90 10 138.5 59t48.5 119q0 53 -25.5 98t-75 82t-98.5 63
t-119 56l-43 19q-4 2 -28.5 12t-36.5 16h-2q-93 0 -155 -49.5t-62 -130.5q0 -42 20.5 -78.5t62.5 -68.5t84 -55.5t105 -53.5z" />
    <glyph glyph-name="dieresis" unicode="&#xa8;" horiz-adv-x="798" 
d="M221 1303q-31 0 -52.5 21.5t-21.5 53.5q0 30 22 52t52 22t52 -22t22 -52q0 -32 -21.5 -53.5t-52.5 -21.5zM578 1303q-31 0 -52.5 21.5t-21.5 53.5q0 30 22 52t52 22t51.5 -22t21.5 -52q0 -32 -21 -53.5t-52 -21.5z" />
    <glyph glyph-name="copyright" unicode="&#xa9;" horiz-adv-x="1548" 
d="M774 -16q-200 0 -363.5 92.5t-256.5 254.5t-93 361q0 149 54.5 280t149 225t227 148t282.5 54t282.5 -54t227 -148t149 -225t54.5 -280q0 -199 -93 -361t-256.5 -254.5t-363.5 -92.5zM774 14q191 0 346 88t242.5 243t87.5 347q0 143 -51.5 268.5t-141 215t-215 141
t-268.5 51.5t-268.5 -51.5t-215 -141t-141 -215t-51.5 -268.5q0 -192 87.5 -347t242.5 -243t346 -88zM770 240q-107 0 -193.5 62t-134.5 170t-45 239q2 102 37 186.5t83 134t103 84t94 47.5t58 13q106 0 174 -38.5t96 -97.5l-67 -157l-14 4q19 73 -6.5 124t-78.5 74t-124 23
q-28 0 -57 -5t-70 -26t-72.5 -55t-54.5 -99.5t-25 -152.5q-5 -203 87.5 -335t254.5 -132q39 0 76.5 9.5t59.5 20t55 29.5l8 -12q-66 -41 -142 -75.5t-102 -34.5z" />
    <glyph glyph-name="ordfeminine" unicode="&#xaa;" horiz-adv-x="819" 
d="M618 651l173 103l8 -13q-24 -19 -65.5 -62.5t-72.5 -71t-51 -27.5q-15 0 -24 7t-23 46t-28 115q-66 -96 -122.5 -136.5t-131.5 -40.5q-72 0 -109 33.5t-37 87.5q0 43 24.5 89t70 90.5t94.5 82.5t114 82l101 68q0 39 -2 65.5t-9.5 58t-21.5 50t-40 31t-63 12.5
q-88 0 -135 -66.5t-41 -169.5l-114 -57l-9 6q32 91 79.5 163.5t94 112.5t86 60.5t66.5 20.5q58 0 99.5 -20t62 -53.5t29.5 -68.5t8 -75l-11 -424v-99zM324 631q99 0 211 160l4 274q-157 -97 -230 -177.5t-73 -156.5q0 -47 23.5 -73.5t64.5 -26.5zM723 477h-600v33h600v-33z
" />
    <glyph glyph-name="guillemotleft" unicode="&#xab;" horiz-adv-x="911" 
d="M481 31l-12 -2l-387 495v6l387 455l12 -2l-274 -453v-6zM809 31l-12 -2l-387 495v6l387 455l12 -2l-274 -453v-6z" />
    <glyph glyph-name="logicalnot" unicode="&#xac;" horiz-adv-x="944" 
d="M821 645v-37h-2v-403h-43v403h-715v37h760z" />
    <glyph glyph-name="registered" unicode="&#xae;" horiz-adv-x="1548" 
d="M774 1399q150 0 282.5 -54t227 -148t149 -225t54.5 -280q0 -199 -93 -361t-256.5 -254.5t-363.5 -92.5t-363.5 92.5t-256.5 254.5t-93 361q0 149 54.5 280t149 225t227 148t282.5 54zM774 14q191 0 346 88t242.5 243t87.5 347q0 143 -51.5 268.5t-141 215t-215 141
t-268.5 51.5t-268.5 -51.5t-215 -141t-141 -215t-51.5 -268.5q0 -192 87.5 -347t242.5 -243t346 -88zM1069 952q0 -86 -59.5 -147.5t-173.5 -110.5l274 -418v-10h-207v10l92 33l-250 385h-127v-379l113 -39v-10h-305v10l115 39v783l-117 39v12h350q295 0 295 -197zM618 1114
v-389h140q105 0 165 50t60 151q0 92 -53 140t-176 48h-136z" />
    <glyph glyph-name="macron" unicode="&#xaf;" horiz-adv-x="862" 
d="M123 1229v61h616v-61h-616z" />
    <glyph glyph-name="degree" unicode="&#xb0;" horiz-adv-x="606" 
d="M303 913q-100 0 -171 71t-71 171t71 171t171 71t171 -71t71 -171t-71 -171t-171 -71zM303 952q80 0 135.5 59t55.5 144t-55.5 144t-135.5 59q-79 0 -134.5 -59t-55.5 -144t55.5 -144t134.5 -59z" />
    <glyph glyph-name="plusminus" unicode="&#xb1;" horiz-adv-x="964" 
d="M461 971v-258h360v-37h-360v-260h-39v260h-361v37h361v258h39zM821 307h-760v37h760v-37z" />
    <glyph glyph-name="uni00B2" unicode="&#xb2;" horiz-adv-x="632" 
d="M545 965h6v-217l-6 -7h-465v7l242 292q120 146 120 279q0 69 -34 113.5t-107 44.5q-56 0 -89.5 -44.5t-33.5 -134.5l-96 -43l-4 2q43 124 120 206.5t130 82.5q60 0 102 -17t61.5 -45t27 -54t7.5 -54q0 -69 -38.5 -149.5t-137.5 -198.5l-168 -203h262q44 0 58 19.5
t36 97.5q5 15 7 23z" />
    <glyph glyph-name="uni00B3" unicode="&#xb3;" horiz-adv-x="624" 
d="M555 1559v-11l-279 -303l3 -4q129 30 202.5 -16t73.5 -144q0 -50 -29 -105.5t-83 -108t-144 -90t-199 -44.5v103h4h113q248 0 248 174q0 68 -26.5 115t-66.5 65.5t-87 16t-88 -26.5l-9 12l261 285h-254q-30 0 -44 -24t-32 -112h-13v213l5 5h444z" />
    <glyph glyph-name="acute" unicode="&#xb4;" horiz-adv-x="512" 
d="M297 1536h133v-12l-313 -359h-15z" />
    <glyph glyph-name="paragraph" unicode="&#xb6;" horiz-adv-x="1058" 
d="M958 1382v-12l-184 -67v-1223l184 -68v-12h-272l6 6v1340h-227v-1342l4 -4h-272v12l184 68l2 -2v723h-68q-126 0 -210.5 83t-84.5 206q0 125 85 208.5t212 83.5h641z" />
    <glyph glyph-name="periodcentered" unicode="&#xb7;" horiz-adv-x="481" 
d="M242 477q-40 0 -67.5 27t-27.5 67q0 37 28 65t67 28q38 0 65 -28t27 -65q0 -40 -27 -67t-65 -27z" />
    <glyph glyph-name="cedilla" unicode="&#xb8;" horiz-adv-x="462" 
d="M113 -219l137 235h26l-81 -147q79 -18 127.5 -62.5t48.5 -107.5q0 -70 -63 -130.5t-183 -94.5l-2 10q158 50 158 158q0 56 -44.5 88.5t-121.5 38.5z" />
    <glyph glyph-name="uni00B9" unicode="&#xb9;" horiz-adv-x="505" 
d="M305 784l121 -30v-13h-326v13l117 30v705l-129 14v13l211 28h6v-760z" />
    <glyph glyph-name="ordmasculine" unicode="&#xba;" horiz-adv-x="798" 
d="M408 569q-130 0 -218 95.5t-88 279.5q0 97 23 177.5t57 129.5t75 83t74.5 47.5t57.5 13.5q130 0 218.5 -96.5t88.5 -280.5q0 -97 -23 -177.5t-57.5 -129t-75.5 -82.5t-74.5 -47t-57.5 -13zM440 641q31 0 61 12.5t61 42t50 90t19 144.5q0 175 -75.5 283t-199.5 108
q-23 0 -46.5 -7t-50.5 -26.5t-46.5 -50.5t-33 -84t-13.5 -121q0 -174 75 -282.5t199 -108.5zM133 477v33h553v-33h-553z" />
    <glyph glyph-name="guillemotright" unicode="&#xbb;" horiz-adv-x="911" 
d="M502 524l-387 -495l-13 2l275 493v6l-275 453l13 2l387 -455v-6zM829 524l-387 -495l-12 2l275 493v6l-275 453l12 2l387 -455v-6z" />
    <glyph glyph-name="onequarter" unicode="&#xbc;" horiz-adv-x="1439" 
d="M100 584v12l117 31v704l-129 15v12l211 28h6v-759l121 -31v-12h-326zM698 723l322 659h84l-391 -669zM1360 227v-30h-166v-152l109 -33v-12h-299v12l106 33v152h-301v6l319 588h97v-7l-363 -557h250v213l70 90h12v-303h166zM358 0h-86l392 670l14 -11z" />
    <glyph glyph-name="onehalf" unicode="&#xbd;" horiz-adv-x="1419" 
d="M100 584v12l117 31v704l-129 15v12l211 28h6v-759l121 -31v-12h-326zM698 723l322 659h84l-391 -669zM1333 223h6v-217l-6 -6h-465v6l242 293q121 147 121 279q0 69 -34 113t-107 44q-56 0 -89.5 -44t-33.5 -134l-97 -43l-4 2q43 124 120 206.5t130 82.5q60 0 102 -17
t61.5 -45t27.5 -54t8 -54q0 -69 -38.5 -149.5t-137.5 -198.5l-168 -203h262q43 0 57.5 19.5t35.5 93.5q4 17 7 26zM358 0h-86l392 670l14 -11z" />
    <glyph glyph-name="threequarters" unicode="&#xbe;" horiz-adv-x="1396" 
d="M715 723l321 659h84l-391 -669zM555 903q0 -50 -29 -105.5t-83 -108t-144 -90t-199 -44.5v102h4h113q248 0 248 174q0 68 -26.5 115t-66.5 65.5t-87 16t-88 -26.5l-9 13l261 284h-254q-30 0 -44 -24t-32 -111h-13v213l5 4h444v-10l-279 -303l3 -4q129 30 202.5 -16
t73.5 -144zM1376 227v-30h-166v-152l109 -33v-12h-299v12l106 33v152h-301v6l320 588h96v-7l-362 -557h249v213l70 90h12v-303h166zM375 0h-86l391 670l14 -11z" />
    <glyph glyph-name="questiondown" unicode="&#xbf;" horiz-adv-x="739" 
d="M420 1067q40 0 67 -27t27 -67q0 -37 -27.5 -64.5t-66.5 -27.5q-38 0 -65 27.5t-27 64.5q0 40 27 67t65 27zM412 791h16q-20 -82 -61.5 -189t-77 -188t-64.5 -181t-32 -182q-2 -52 9.5 -100.5t35.5 -90t68.5 -66.5t103.5 -25q51 0 88.5 26.5t58 73t30 102.5t9.5 123
l160 101l4 -5q-41 -116 -97.5 -217.5t-110 -165t-99 -99.5t-72.5 -36q-79 0 -139 23t-93 57t-54 79t-27 82t-5 73q1 94 40 198.5t89.5 187t116 201.5t103.5 218z" />
    <glyph glyph-name="Agrave" unicode="&#xc0;" horiz-adv-x="1046" 
d="M391 1759l133 -309h-14l-279 297v12h160zM438 1382h142l446 -1370v-12h-332v12l178 66l-133 409h-499l-27 -75q-22 -62 -34.5 -99t-21 -76.5t-10.5 -60.5t4.5 -45t17.5 -36.5t35 -28.5t50.5 -27t69.5 -27v-12h-304v12l449 1264l-31 94v12zM494 1208l-242 -684h475
l-225 684h-8z" />
    <glyph glyph-name="Aacute" unicode="&#xc1;" horiz-adv-x="1046" 
d="M799 1759v-12l-279 -297h-14l133 309h160zM438 1382h142l446 -1370v-12h-332v12l178 66l-133 409h-499l-27 -75q-22 -62 -34.5 -99t-21 -76.5t-10.5 -60.5t4.5 -45t17.5 -36.5t35 -28.5t50.5 -27t69.5 -27v-12h-304v12l449 1264l-31 94v12zM494 1208l-242 -684h475
l-225 684h-8z" />
    <glyph glyph-name="Acircumflex" unicode="&#xc2;" horiz-adv-x="1046" 
d="M745 1464l-235 156h-6l-232 -156v13l238 284h6l229 -284v-13zM438 1382h142l446 -1370v-12h-332v12l178 66l-133 409h-499l-27 -75q-22 -62 -34.5 -99t-21 -76.5t-10.5 -60.5t4.5 -45t17.5 -36.5t35 -28.5t50.5 -27t69.5 -27v-12h-304v12l449 1264l-31 94v12zM494 1208
l-242 -684h475l-225 684h-8z" />
    <glyph glyph-name="Atilde" unicode="&#xc3;" horiz-adv-x="1046" 
d="M334 1608q-94 0 -148 -113l-8 6q39 91 88 146t88 55q50 0 194 -59.5t193 -59.5q20 0 35 3t36.5 13t42 35t38.5 64l8 -6q-37 -91 -87 -147t-89 -56q-54 0 -201.5 59.5t-189.5 59.5zM438 1382h142l446 -1370v-12h-332v12l178 66l-133 409h-499l-27 -75q-22 -62 -34.5 -99
t-21 -76.5t-10.5 -60.5t4.5 -45t17.5 -36.5t35 -28.5t50.5 -27t69.5 -27v-12h-304v12l449 1264l-31 94v12zM494 1208l-242 -684h475l-225 684h-8z" />
    <glyph glyph-name="Adieresis" unicode="&#xc4;" horiz-adv-x="1046" 
d="M332 1559q-31 0 -52.5 21.5t-21.5 53.5q0 30 22 52t52 22t52 -22t22 -52q0 -32 -21.5 -53.5t-52.5 -21.5zM688 1559q-31 0 -52.5 21.5t-21.5 53.5q0 30 22 52t52 22t52 -22t22 -52q0 -32 -21.5 -53.5t-52.5 -21.5zM438 1382h142l446 -1370v-12h-332v12l178 66l-133 409
h-499l-27 -75q-22 -62 -34.5 -99t-21 -76.5t-10.5 -60.5t4.5 -45t17.5 -36.5t35 -28.5t50.5 -27t69.5 -27v-12h-304v12l449 1264l-31 94v12zM494 1208l-242 -684h475l-225 684h-8z" />
    <glyph glyph-name="Aring" unicode="&#xc5;" horiz-adv-x="1046" 
d="M510 1423q-81 0 -137 56.5t-56 136.5t56 136t137 56q80 0 136 -56t56 -136t-56.5 -136.5t-135.5 -56.5zM510 1774q-64 0 -109 -46t-45 -112t45 -112t109 -46t109 46t45 112t-45 112t-109 46zM438 1382h142l446 -1370v-12h-332v12l178 66l-133 409h-499l-27 -75
q-22 -62 -34.5 -99t-21 -76.5t-10.5 -60.5t4.5 -45t17.5 -36.5t35 -28.5t50.5 -27t69.5 -27v-12h-304v12l449 1264l-31 94v12zM494 1208l-242 -684h475l-225 684h-8z" />
    <glyph glyph-name="AE" unicode="&#xc6;" horiz-adv-x="1703" 
d="M1610 424h12v-424h-1001v12l184 68v407h-447l-45 -75q-37 -60 -59 -98t-40.5 -76.5t-25.5 -60.5t-6 -45.5t9 -36t28 -29t44 -27.5t63 -27l-4 -12h-302l5 12l780 1288v3l-184 67v12h970v-424h-12q-27 98 -31 113q-17 62 -24.5 90t-20.5 66t-18.5 50.5t-19.5 31.5t-21.5 22
t-27 9t-34.5 6h-45h-409v-627h252q33 0 55.5 7t36.5 17t25.5 34.5t18.5 45.5t21 66t27 80h12v-537h-12q-12 32 -24 71t-18.5 59.5t-16 44.5t-18.5 35t-24 22t-34.5 14.5t-48.5 3.5h-252v-645h440h36.5t30 3.5t24.5 4.5t20 11.5t17.5 16t15 26t15 33.5t15 47t17 58t20.5 74
q4 15 31 113zM805 1223l-424 -699h424v699z" />
    <glyph glyph-name="Ccedilla" unicode="&#xc7;" horiz-adv-x="1048" 
d="M618 -20q-24 0 -36 2l-62 -113q79 -18 127.5 -62.5t48.5 -107.5q0 -70 -62.5 -130.5t-182.5 -94.5l-2 10q157 50 157 158q0 56 -44.5 88.5t-121.5 38.5l-2 12l119 203q-225 28 -368.5 228t-137.5 482q2 113 31 212.5t73 169.5t100.5 128t112.5 94t109.5 60.5t90 34.5
t55.5 10q161 0 265.5 -59t143.5 -146l-100 -242h-12q20 87 0 153t-71 110.5t-120.5 67t-148.5 22.5q-29 0 -58.5 -3.5t-72.5 -17t-80.5 -34.5t-77 -60.5t-68.5 -92t-48 -131.5t-21 -175q-4 -201 60.5 -365.5t190 -262t289.5 -97.5q45 0 84.5 7t80.5 25.5t59 28t63 35.5
l8 -19q-99 -62 -215.5 -114.5t-155.5 -52.5z" />
    <glyph glyph-name="Egrave" unicode="&#xc8;" horiz-adv-x="1103" 
d="M444 1759l134 -309h-15l-278 297v12h159zM1010 424h12v-424h-1002v12l185 68v1223l-185 67v12h971v-424h-12q-27 98 -31 113q-17 62 -24.5 90t-20.5 66t-18.5 50.5t-19.5 31.5t-21.5 22t-27 9t-34.5 6h-45h-409v-627h252q33 0 55.5 7t36.5 17t25.5 34.5t18.5 45.5t21 66
t27 80h12v-537h-12q-12 32 -24 71t-18.5 59.5t-16 44.5t-18.5 35t-24 22t-34.5 14.5t-48.5 3.5h-252v-645h440h36.5t30 3.5t24.5 4.5t20 11.5t17.5 16t15 26t15 33.5t15 47t17 58t20.5 74q4 15 31 113z" />
    <glyph glyph-name="Eacute" unicode="&#xc9;" horiz-adv-x="1103" 
d="M852 1759v-12l-279 -297h-14l133 309h160zM1010 424h12v-424h-1002v12l185 68v1223l-185 67v12h971v-424h-12q-27 98 -31 113q-17 62 -24.5 90t-20.5 66t-18.5 50.5t-19.5 31.5t-21.5 22t-27 9t-34.5 6h-45h-409v-627h252q33 0 55.5 7t36.5 17t25.5 34.5t18.5 45.5t21 66
t27 80h12v-537h-12q-12 32 -24 71t-18.5 59.5t-16 44.5t-18.5 35t-24 22t-34.5 14.5t-48.5 3.5h-252v-645h440h36.5t30 3.5t24.5 4.5t20 11.5t17.5 16t15 26t15 33.5t15 47t17 58t20.5 74q4 15 31 113z" />
    <glyph glyph-name="Ecircumflex" unicode="&#xca;" horiz-adv-x="1103" 
d="M799 1464l-236 156h-6l-231 -156v13l237 284h6l230 -284v-13zM1010 424h12v-424h-1002v12l185 68v1223l-185 67v12h971v-424h-12q-27 98 -31 113q-17 62 -24.5 90t-20.5 66t-18.5 50.5t-19.5 31.5t-21.5 22t-27 9t-34.5 6h-45h-409v-627h252q33 0 55.5 7t36.5 17
t25.5 34.5t18.5 45.5t21 66t27 80h12v-537h-12q-12 32 -24 71t-18.5 59.5t-16 44.5t-18.5 35t-24 22t-34.5 14.5t-48.5 3.5h-252v-645h440h36.5t30 3.5t24.5 4.5t20 11.5t17.5 16t15 26t15 33.5t15 47t17 58t20.5 74q4 15 31 113z" />
    <glyph glyph-name="Edieresis" unicode="&#xcb;" horiz-adv-x="1103" 
d="M385 1559q-31 0 -52.5 21.5t-21.5 53.5q0 30 22 52t52 22t52 -22t22 -52q0 -32 -21.5 -53.5t-52.5 -21.5zM741 1559q-31 0 -52 21.5t-21 53.5q0 30 21.5 52t51.5 22t52 -22t22 -52q0 -32 -21.5 -53.5t-52.5 -21.5zM1010 424h12v-424h-1002v12l185 68v1223l-185 67v12h971
v-424h-12q-27 98 -31 113q-17 62 -24.5 90t-20.5 66t-18.5 50.5t-19.5 31.5t-21.5 22t-27 9t-34.5 6h-45h-409v-627h252q33 0 55.5 7t36.5 17t25.5 34.5t18.5 45.5t21 66t27 80h12v-537h-12q-12 32 -24 71t-18.5 59.5t-16 44.5t-18.5 35t-24 22t-34.5 14.5t-48.5 3.5h-252
v-645h440h36.5t30 3.5t24.5 4.5t20 11.5t17.5 16t15 26t15 33.5t15 47t17 58t20.5 74q4 15 31 113z" />
    <glyph glyph-name="Igrave" unicode="&#xcc;" horiz-adv-x="520" 
d="M141 1759l133 -309h-14l-278 297v12h159zM500 1382v-12l-178 -61v-1235l178 -62v-12h-480v12l179 62v1235l-179 61v12h480z" />
    <glyph glyph-name="Iacute" unicode="&#xcd;" horiz-adv-x="520" 
d="M256 1450l133 309h160v-12l-279 -297h-14zM20 1382h480v-12l-178 -61v-1235l178 -62v-12h-480v12l179 62v1235l-179 61v12z" />
    <glyph glyph-name="Icircumflex" unicode="&#xce;" horiz-adv-x="520" 
d="M496 1464l-236 156h-6l-231 -156v13l237 284h6l230 -284v-13zM500 1382v-12l-178 -61v-1235l178 -62v-12h-480v12l179 62v1235l-179 61v12h480z" />
    <glyph glyph-name="Idieresis" unicode="&#xcf;" horiz-adv-x="520" 
d="M82 1559q-31 0 -52.5 21.5t-21.5 53.5q0 30 22 52t52 22t52 -22t22 -52q0 -32 -21.5 -53.5t-52.5 -21.5zM438 1559q-31 0 -52 21.5t-21 53.5q0 30 21.5 52t51.5 22t52 -22t22 -52q0 -32 -21.5 -53.5t-52.5 -21.5zM20 1382h480v-12l-178 -61v-1235l178 -62v-12h-480v12
l179 62v1235l-179 61v12z" />
    <glyph glyph-name="Eth" unicode="&#xd0;" horiz-adv-x="1200" 
d="M465 1382q323 0 503.5 -173.5t180.5 -499.5q0 -73 -11.5 -143t-38.5 -141t-67 -133t-100 -116t-135.5 -93t-176 -61t-217.5 -22h-383v12l183 68v602h-178v37h178v584l-183 67v12h445zM326 37h67q325 3 476 169t151 486q0 149 -36 267.5t-108.5 205.5t-190 134t-273.5 47
h-86v-627h290v-37h-290v-645z" />
    <glyph glyph-name="Ntilde" unicode="&#xd1;" horiz-adv-x="1148" 
d="M408 1608q-94 0 -148 -113l-8 6q39 91 88 146t88 55q50 0 194 -59.5t193 -59.5q20 0 35 3t36.5 13t42 35t38.5 64l8 -6q-37 -91 -87 -147t-89 -56q-54 0 -201.5 59.5t-189.5 59.5zM723 1368v14h303v-1402h-12l-803 1222h-10v-815q0 -79 2.5 -127.5t16.5 -88.5t25 -59
t48.5 -39t65 -29t95.5 -28q4 -1 7 -2v-14h-305v1284l-74 86v12h158l731 -1108h10v721q0 184 -27 246q-24 54 -91 82q-36 16 -140 45z" />
    <glyph glyph-name="Ograve" unicode="&#xd2;" horiz-adv-x="1173" 
d="M309 1747v12h160l133 -309h-14zM602 -20q-133 0 -240 60.5t-173.5 161.5t-102 226t-35.5 260q0 107 22 203.5t58.5 166.5t84 129t97.5 98t99.5 65.5t89.5 38.5t69 12q107 0 198 -39.5t155 -108t109.5 -159t67 -192.5t21.5 -210q0 -107 -22 -203t-58.5 -166.5t-84 -129.5
t-97.5 -97.5t-99.5 -65.5t-89.5 -38.5t-69 -11.5zM647 80q61 0 115.5 16t105.5 55t87.5 98t58.5 150.5t22 206.5q0 186 -63 343.5t-181.5 254t-267.5 96.5q-61 0 -115.5 -16t-105.5 -55t-87.5 -98t-58.5 -150.5t-22 -206.5q0 -186 63 -343.5t181.5 -254t267.5 -96.5z" />
    <glyph glyph-name="Oacute" unicode="&#xd3;" horiz-adv-x="1173" 
d="M717 1759h160v-12l-279 -297h-14zM602 -20q-133 0 -240 60.5t-173.5 161.5t-102 226t-35.5 260q0 107 22 203.5t58.5 166.5t84 129t97.5 98t99.5 65.5t89.5 38.5t69 12q107 0 198 -39.5t155 -108t109.5 -159t67 -192.5t21.5 -210q0 -107 -22 -203t-58.5 -166.5
t-84 -129.5t-97.5 -97.5t-99.5 -65.5t-89.5 -38.5t-69 -11.5zM647 80q61 0 115.5 16t105.5 55t87.5 98t58.5 150.5t22 206.5q0 186 -63 343.5t-181.5 254t-267.5 96.5q-61 0 -115.5 -16t-105.5 -55t-87.5 -98t-58.5 -150.5t-22 -206.5q0 -186 63 -343.5t181.5 -254
t267.5 -96.5z" />
    <glyph glyph-name="Ocircumflex" unicode="&#xd4;" horiz-adv-x="1173" 
d="M350 1464v13l238 284h6l229 -284v-13l-235 156h-6zM602 -20q-133 0 -240 60.5t-173.5 161.5t-102 226t-35.5 260q0 107 22 203.5t58.5 166.5t84 129t97.5 98t99.5 65.5t89.5 38.5t69 12q107 0 198 -39.5t155 -108t109.5 -159t67 -192.5t21.5 -210q0 -107 -22 -203
t-58.5 -166.5t-84 -129.5t-97.5 -97.5t-99.5 -65.5t-89.5 -38.5t-69 -11.5zM647 80q61 0 115.5 16t105.5 55t87.5 98t58.5 150.5t22 206.5q0 186 -63 343.5t-181.5 254t-267.5 96.5q-61 0 -115.5 -16t-105.5 -55t-87.5 -98t-58.5 -150.5t-22 -206.5q0 -186 63 -343.5
t181.5 -254t267.5 -96.5z" />
    <glyph glyph-name="Otilde" unicode="&#xd5;" horiz-adv-x="1173" 
d="M971 1698l8 -6q-37 -91 -87 -147t-89 -56q-54 0 -201.5 59.5t-189.5 59.5q-94 0 -148 -113l-8 6q39 91 88 146t88 55q50 0 194 -59.5t193 -59.5q20 0 35 3t36.5 13t42 35t38.5 64zM602 -20q-133 0 -240 60.5t-173.5 161.5t-102 226t-35.5 260q0 107 22 203.5t58.5 166.5
t84 129t97.5 98t99.5 65.5t89.5 38.5t69 12q107 0 198 -39.5t155 -108t109.5 -159t67 -192.5t21.5 -210q0 -107 -22 -203t-58.5 -166.5t-84 -129.5t-97.5 -97.5t-99.5 -65.5t-89.5 -38.5t-69 -11.5zM647 80q61 0 115.5 16t105.5 55t87.5 98t58.5 150.5t22 206.5
q0 186 -63 343.5t-181.5 254t-267.5 96.5q-61 0 -115.5 -16t-105.5 -55t-87.5 -98t-58.5 -150.5t-22 -206.5q0 -186 63 -343.5t181.5 -254t267.5 -96.5z" />
    <glyph glyph-name="Odieresis" unicode="&#xd6;" horiz-adv-x="1173" 
d="M410 1559q-31 0 -52.5 21.5t-21.5 53.5q0 30 22 52t52 22t51.5 -22t21.5 -52q0 -32 -21 -53.5t-52 -21.5zM766 1559q-31 0 -52.5 21.5t-21.5 53.5q0 30 22 52t52 22t52 -22t22 -52q0 -32 -21.5 -53.5t-52.5 -21.5zM602 -20q-133 0 -240 60.5t-173.5 161.5t-102 226
t-35.5 260q0 107 22 203.5t58.5 166.5t84 129t97.5 98t99.5 65.5t89.5 38.5t69 12q107 0 198 -39.5t155 -108t109.5 -159t67 -192.5t21.5 -210q0 -107 -22 -203t-58.5 -166.5t-84 -129.5t-97.5 -97.5t-99.5 -65.5t-89.5 -38.5t-69 -11.5zM647 80q61 0 115.5 16t105.5 55
t87.5 98t58.5 150.5t22 206.5q0 186 -63 343.5t-181.5 254t-267.5 96.5q-61 0 -115.5 -16t-105.5 -55t-87.5 -98t-58.5 -150.5t-22 -206.5q0 -186 63 -343.5t181.5 -254t267.5 -96.5z" />
    <glyph glyph-name="multiply" unicode="&#xd7;" horiz-adv-x="737" 
d="M602 844l27 -27l-256 -256l256 -256l-27 -26l-256 256l-256 -254l-24 24l253 256l-253 254l24 27l256 -256z" />
    <glyph glyph-name="Oslash" unicode="&#xd8;" horiz-adv-x="1173" 
d="M1069 1382l-111 -168q80 -99 122 -236t42 -286q0 -107 -22 -203t-58.5 -166.5t-84 -129.5t-97.5 -97.5t-99.5 -65.5t-89.5 -38.5t-69 -11.5q-218 0 -362 157l-93 -137h-43l111 166q-80 99 -122 236.5t-42 285.5q0 107 22 203.5t58.5 166.5t84 129t97.5 98t99.5 65.5
t89.5 38.5t69 12q215 0 363 -158l92 139h43zM135 774q0 -144 40 -274.5t112 -227.5l575 865q-143 163 -338 163q-61 0 -115.5 -16t-105.5 -55t-87.5 -98t-58.5 -150.5t-22 -206.5zM647 80q61 0 115.5 16t105.5 55t87.5 98t58.5 150.5t22 206.5q0 144 -39.5 274t-111.5 226
l-576 -862q144 -164 338 -164z" />
    <glyph glyph-name="Ugrave" unicode="&#xd9;" horiz-adv-x="1241" 
d="M498 1759l133 -309h-15l-278 297v12h160zM1065 78l2 2l184 -68v-12h-309v160q-95 -70 -199 -125t-141 -55q-198 0 -308 104.5t-110 312.5v906l-184 67v12h307v-964q0 -95 26.5 -164t73.5 -107t103 -55.5t123 -17.5q51 0 94.5 9t83 29.5t65 38t66.5 48.5v1104l-184 67v12
h307v-1304z" />
    <glyph glyph-name="Uacute" unicode="&#xda;" horiz-adv-x="1241" 
d="M905 1759v-12l-278 -297h-15l133 309h160zM1065 78l2 2l184 -68v-12h-309v160q-95 -70 -199 -125t-141 -55q-198 0 -308 104.5t-110 312.5v906l-184 67v12h307v-964q0 -95 26.5 -164t73.5 -107t103 -55.5t123 -17.5q51 0 94.5 9t83 29.5t65 38t66.5 48.5v1104l-184 67v12
h307v-1304z" />
    <glyph glyph-name="Ucircumflex" unicode="&#xdb;" horiz-adv-x="1241" 
d="M852 1464l-236 156h-6l-231 -156v13l237 284h7l229 -284v-13zM1065 78l2 2l184 -68v-12h-309v160q-95 -70 -199 -125t-141 -55q-198 0 -308 104.5t-110 312.5v906l-184 67v12h307v-964q0 -95 26.5 -164t73.5 -107t103 -55.5t123 -17.5q51 0 94.5 9t83 29.5t65 38
t66.5 48.5v1104l-184 67v12h307v-1304z" />
    <glyph glyph-name="Udieresis" unicode="&#xdc;" horiz-adv-x="1241" 
d="M438 1559q-31 0 -52 21.5t-21 53.5q0 30 21.5 52t51.5 22t52 -22t22 -52q0 -32 -21.5 -53.5t-52.5 -21.5zM795 1559q-31 0 -52.5 21.5t-21.5 53.5q0 30 22 52t52 22t51.5 -22t21.5 -52q0 -32 -21 -53.5t-52 -21.5zM1065 78l2 2l184 -68v-12h-309v160q-95 -70 -199 -125
t-141 -55q-198 0 -308 104.5t-110 312.5v906l-184 67v12h307v-964q0 -95 26.5 -164t73.5 -107t103 -55.5t123 -17.5q51 0 94.5 9t83 29.5t65 38t66.5 48.5v1104l-184 67v12h307v-1304z" />
    <glyph glyph-name="Yacute" unicode="&#xdd;" horiz-adv-x="995" 
d="M799 1759v-12l-279 -297h-14l133 309h160zM985 1382v-12l-424 -807v-489l178 -62v-12h-479v12l178 62v495l-428 801v12h342v-12l-172 -65l355 -680h14l180 348q31 60 49 97.5t34.5 77.5t22 63.5t5 48t-11 38.5t-30.5 28.5t-48.5 24.5t-69.5 19v12h305z" />
    <glyph glyph-name="Thorn" unicode="&#xde;" horiz-adv-x="1058" 
d="M477 305h-155v-231l178 -62v-12h-480v12l179 62v1235l-179 61v12h480v-12l-178 -61v-205h237q212 0 345.5 -94.5t133.5 -270.5q0 -88 -32 -164t-96.5 -137.5t-175.5 -97t-257 -35.5zM485 1067h-163v-725h124q453 0 453 367q0 177 -105.5 267.5t-308.5 90.5z" />
    <glyph glyph-name="germandbls" unicode="&#xdf;" horiz-adv-x="1110" 
d="M893 670l76 -92q67 -82 94 -142.5t27 -124.5q0 -137 -94.5 -235.5t-239.5 -98.5q-51 0 -92.5 10t-90.5 29.5t-73 26.5l-41 395h12q13 -97 42.5 -173t64 -120.5t76.5 -74t77 -40t68 -10.5q91 0 145.5 60.5t54.5 152.5q0 50 -28 116t-88 136l-72 84q-104 125 -104 219
q0 22 5 44t16 45t18 36t23 37t19 29l15 22q61 94 61 187q0 139 -101 226t-247 87q-112 0 -180 -57t-68 -156q0 -48 27.5 -150.5t26.5 -191.5v-946h-299v12l184 49h2v969l-195 29v10h195l-4 121q-2 70 17.5 128.5t54 97.5t77 68.5t91 45.5t91.5 23.5t82 7.5q148 0 244 -82
t96 -199q0 -20 -3.5 -41.5t-8 -39t-14 -40t-16 -35.5t-19.5 -36t-18.5 -31.5t-19.5 -31t-17 -26.5l-17 -26q-24 -39 -33.5 -65.5t-12 -49t14.5 -53t36 -56t63 -79.5z" />
    <glyph glyph-name="agrave" unicode="&#xe0;" horiz-adv-x="921" 
d="M274 1536l195 -371h-14l-314 359v12h133zM731 84l240 133l6 -10q-31 -25 -87.5 -85.5t-99.5 -98t-71 -37.5q-14 0 -23.5 5.5t-23.5 25.5t-28 69.5t-28 128.5q-92 -129 -169 -183.5t-179 -54.5q-98 0 -149 45.5t-51 118.5q0 59 33.5 120t98 122.5t129 111t156.5 111.5
l136 92q0 39 -1 67t-5.5 62.5t-12.5 58.5t-22 48.5t-33.5 39.5t-48.5 24.5t-66 9.5q-123 0 -187.5 -91t-56.5 -233l-151 -84l-6 4q36 101 85.5 186t98.5 140.5t99.5 94.5t90 56t68.5 17q64 0 113.5 -18.5t79 -48t48.5 -69.5t25.5 -79.5t5.5 -81.5l-14 -582v-135zM332 53
q134 0 284 209l5 387q-216 -133 -315 -241t-99 -213q0 -65 34.5 -103.5t90.5 -38.5z" />
    <glyph glyph-name="aacute" unicode="&#xe1;" horiz-adv-x="921" 
d="M774 1536v-12l-313 -359h-15l195 371h133zM731 84l240 133l6 -10q-31 -25 -87.5 -85.5t-99.5 -98t-71 -37.5q-14 0 -23.5 5.5t-23.5 25.5t-28 69.5t-28 128.5q-92 -129 -169 -183.5t-179 -54.5q-98 0 -149 45.5t-51 118.5q0 59 33.5 120t98 122.5t129 111t156.5 111.5
l136 92q0 39 -1 67t-5.5 62.5t-12.5 58.5t-22 48.5t-33.5 39.5t-48.5 24.5t-66 9.5q-123 0 -187.5 -91t-56.5 -233l-151 -84l-6 4q36 101 85.5 186t98.5 140.5t99.5 94.5t90 56t68.5 17q64 0 113.5 -18.5t79 -48t48.5 -69.5t25.5 -79.5t5.5 -81.5l-14 -582v-135zM332 53
q134 0 284 209l5 387q-216 -133 -315 -241t-99 -213q0 -65 34.5 -103.5t90.5 -38.5z" />
    <glyph glyph-name="acircumflex" unicode="&#xe2;" horiz-adv-x="921" 
d="M676 1149l-215 225h-6l-211 -225v12l217 387h6l209 -387v-12zM731 84l240 133l6 -10q-31 -25 -87.5 -85.5t-99.5 -98t-71 -37.5q-14 0 -23.5 5.5t-23.5 25.5t-28 69.5t-28 128.5q-92 -129 -169 -183.5t-179 -54.5q-98 0 -149 45.5t-51 118.5q0 59 33.5 120t98 122.5
t129 111t156.5 111.5l136 92q0 39 -1 67t-5.5 62.5t-12.5 58.5t-22 48.5t-33.5 39.5t-48.5 24.5t-66 9.5q-123 0 -187.5 -91t-56.5 -233l-151 -84l-6 4q36 101 85.5 186t98.5 140.5t99.5 94.5t90 56t68.5 17q64 0 113.5 -18.5t79 -48t48.5 -69.5t25.5 -79.5t5.5 -81.5
l-14 -582v-135zM332 53q134 0 284 209l5 387q-216 -133 -315 -241t-99 -213q0 -65 34.5 -103.5t90.5 -38.5z" />
    <glyph glyph-name="atilde" unicode="&#xe3;" horiz-adv-x="921" 
d="M305 1325q-20 0 -34.5 -3t-37.5 -13t-47 -35.5t-49 -65.5l-8 6q46 95 97.5 151t99.5 56q50 0 143.5 -48t142.5 -48q22 0 35.5 2.5t37.5 12t49 36t50 68.5l9 -6q-44 -96 -96 -152.5t-101 -56.5q-54 0 -151.5 48t-139.5 48zM731 84l240 133l6 -10q-31 -25 -87.5 -85.5
t-99.5 -98t-71 -37.5q-14 0 -23.5 5.5t-23.5 25.5t-28 69.5t-28 128.5q-92 -129 -169 -183.5t-179 -54.5q-98 0 -149 45.5t-51 118.5q0 59 33.5 120t98 122.5t129 111t156.5 111.5l136 92q0 39 -1 67t-5.5 62.5t-12.5 58.5t-22 48.5t-33.5 39.5t-48.5 24.5t-66 9.5
q-123 0 -187.5 -91t-56.5 -233l-151 -84l-6 4q36 101 85.5 186t98.5 140.5t99.5 94.5t90 56t68.5 17q64 0 113.5 -18.5t79 -48t48.5 -69.5t25.5 -79.5t5.5 -81.5l-14 -582v-135zM332 53q134 0 284 209l5 387q-216 -133 -315 -241t-99 -213q0 -65 34.5 -103.5t90.5 -38.5z
" />
    <glyph glyph-name="adieresis" unicode="&#xe4;" horiz-adv-x="921" 
d="M283 1245q-31 0 -52.5 22t-21.5 54q0 30 22 52t52 22t51.5 -22t21.5 -52q0 -32 -21 -54t-52 -22zM639 1245q-31 0 -52.5 22t-21.5 54q0 30 22 52t52 22t52 -22t22 -52q0 -32 -21.5 -54t-52.5 -22zM731 84l240 133l6 -10q-31 -25 -87.5 -85.5t-99.5 -98t-71 -37.5
q-14 0 -23.5 5.5t-23.5 25.5t-28 69.5t-28 128.5q-92 -129 -169 -183.5t-179 -54.5q-98 0 -149 45.5t-51 118.5q0 59 33.5 120t98 122.5t129 111t156.5 111.5l136 92q0 39 -1 67t-5.5 62.5t-12.5 58.5t-22 48.5t-33.5 39.5t-48.5 24.5t-66 9.5q-123 0 -187.5 -91t-56.5 -233
l-151 -84l-6 4q36 101 85.5 186t98.5 140.5t99.5 94.5t90 56t68.5 17q64 0 113.5 -18.5t79 -48t48.5 -69.5t25.5 -79.5t5.5 -81.5l-14 -582v-135zM332 53q134 0 284 209l5 387q-216 -133 -315 -241t-99 -213q0 -65 34.5 -103.5t90.5 -38.5z" />
    <glyph glyph-name="aring" unicode="&#xe5;" horiz-adv-x="921" 
d="M461 1178q-81 0 -137 56t-56 136t56 136.5t137 56.5q79 0 135.5 -56.5t56.5 -136.5t-56.5 -136t-135.5 -56zM461 1528q-64 0 -109 -46t-45 -112t45 -112t109 -46t108.5 46t44.5 112t-44.5 112t-108.5 46zM731 84l240 133l6 -10q-31 -25 -87.5 -85.5t-99.5 -98t-71 -37.5
q-14 0 -23.5 5.5t-23.5 25.5t-28 69.5t-28 128.5q-92 -129 -169 -183.5t-179 -54.5q-98 0 -149 45.5t-51 118.5q0 59 33.5 120t98 122.5t129 111t156.5 111.5l136 92q0 39 -1 67t-5.5 62.5t-12.5 58.5t-22 48.5t-33.5 39.5t-48.5 24.5t-66 9.5q-123 0 -187.5 -91t-56.5 -233
l-151 -84l-6 4q36 101 85.5 186t98.5 140.5t99.5 94.5t90 56t68.5 17q64 0 113.5 -18.5t79 -48t48.5 -69.5t25.5 -79.5t5.5 -81.5l-14 -582v-135zM332 53q134 0 284 209l5 387q-216 -133 -315 -241t-99 -213q0 -65 34.5 -103.5t90.5 -38.5z" />
    <glyph glyph-name="ae" unicode="&#xe6;" horiz-adv-x="1411" 
d="M1362 127l6 -6q-88 -67 -163 -104t-120 -37q-167 0 -276 71.5t-156 204.5h-6q-158 -279 -391 -279q-90 0 -139 44.5t-49 111.5q0 43 16.5 86.5t52 87.5t71.5 80.5t95.5 82.5t101 76t111 79t105.5 75q-3 163 -43.5 235.5t-145.5 72.5q-109 0 -180 -87t-64 -237l-151 -84
l-6 4q48 125 113 224.5t126.5 155.5t114 85t88.5 29q122 0 186.5 -61t79.5 -154q75 99 172.5 157t149.5 58q157 0 224 -90t67 -254q0 -24 -69 -69.5t-93 -45.5h-447q-2 -23 -2 -68q0 -228 110 -369t304 -141q61 0 106.5 16.5t100.5 49.5zM995 1020q-105 0 -170 -91.5
t-80 -256.5h478q3 164 -54.5 256t-173.5 92zM342 53q65 0 145 62.5t152 185.5q-24 103 -21 203l3 123v24q-215 -133 -311.5 -243.5t-96.5 -223.5q0 -59 35.5 -95t93.5 -36z" />
    <glyph glyph-name="ccedilla" unicode="&#xe7;" horiz-adv-x="806" 
d="M500 -20h-27l-61 -111q79 -18 127.5 -62.5t48.5 -107.5q0 -70 -63 -130.5t-183 -94.5l-2 10q158 50 158 158q0 56 -44.5 88.5t-121.5 38.5l-2 12l116 201q-175 18 -285 150.5t-110 365.5q0 92 19 174t50 141t71 108t81 80t81.5 53t71 31t50.5 9q63 0 116 -17.5t87 -45
t58.5 -62.5t35 -68.5t10.5 -64.5l-129 -138l-6 4q31 127 -33 215.5t-174 88.5q-40 0 -76.5 -8.5t-77 -35.5t-69.5 -69.5t-48 -117.5t-19 -173q0 -250 113.5 -391t305.5 -141q19 0 36 2t34.5 7.5t28 9t29 13.5t25 13t27.5 16.5t25 15.5l8 -14q-202 -153 -282 -153z" />
    <glyph glyph-name="egrave" unicode="&#xe8;" horiz-adv-x="825" 
d="M289 1536l194 -371h-14l-313 359v12h133zM774 147l8 -14q-202 -153 -282 -153q-94 0 -174.5 32.5t-142 95.5t-97 163t-35.5 227q0 92 19 174t50 141t71 108t81 80t81.5 53t71 31t50.5 9q158 0 225.5 -88.5t67.5 -251.5q0 -24 -60 -69.5t-83 -45.5h-475v-37
q0 -250 113.5 -391t305.5 -141q19 0 36 2t34.5 7.5t28 9t29 13.5t25 13t27.5 16.5t25 15.5zM440 1006q-47 0 -89 -13.5t-86 -47t-74 -102.5t-39 -167h505q13 166 -50.5 248t-166.5 82z" />
    <glyph glyph-name="eacute" unicode="&#xe9;" horiz-adv-x="825" 
d="M461 1165l194 371h133v-12l-313 -359h-14zM569 70q19 0 36 2t34.5 7.5t28 9t29 13.5t25 13t27.5 16.5t25 15.5l8 -14q-202 -153 -282 -153q-94 0 -174.5 32.5t-142 95.5t-97 163t-35.5 227q0 92 19 174t50 141t71 108t81 80t81.5 53t71 31t50.5 9q158 0 225.5 -88.5
t67.5 -251.5q0 -24 -60 -69.5t-83 -45.5h-475v-37q0 -250 113.5 -391t305.5 -141zM440 1006q-47 0 -89 -13.5t-86 -47t-74 -102.5t-39 -167h505q13 166 -50.5 248t-166.5 82z" />
    <glyph glyph-name="ecircumflex" unicode="&#xea;" horiz-adv-x="825" 
d="M690 1149l-215 225h-6l-211 -225v12l217 387h6l209 -387v-12zM774 147l8 -14q-202 -153 -282 -153q-94 0 -174.5 32.5t-142 95.5t-97 163t-35.5 227q0 92 19 174t50 141t71 108t81 80t81.5 53t71 31t50.5 9q158 0 225.5 -88.5t67.5 -251.5q0 -24 -60 -69.5t-83 -45.5
h-475v-37q0 -250 113.5 -391t305.5 -141q19 0 36 2t34.5 7.5t28 9t29 13.5t25 13t27.5 16.5t25 15.5zM440 1006q-47 0 -89 -13.5t-86 -47t-74 -102.5t-39 -167h505q13 166 -50.5 248t-166.5 82z" />
    <glyph glyph-name="edieresis" unicode="&#xeb;" horiz-adv-x="825" 
d="M297 1245q-31 0 -52.5 22t-21.5 54q0 30 22 52t52 22t52 -22t22 -52q0 -32 -21.5 -54t-52.5 -22zM653 1245q-31 0 -52 22t-21 54q0 30 21.5 52t51.5 22t52 -22t22 -52q0 -32 -21.5 -54t-52.5 -22zM774 147l8 -14q-202 -153 -282 -153q-94 0 -174.5 32.5t-142 95.5
t-97 163t-35.5 227q0 92 19 174t50 141t71 108t81 80t81.5 53t71 31t50.5 9q158 0 225.5 -88.5t67.5 -251.5q0 -24 -60 -69.5t-83 -45.5h-475v-37q0 -250 113.5 -391t305.5 -141q19 0 36 2t34.5 7.5t28 9t29 13.5t25 13t27.5 16.5t25 15.5zM440 1006q-47 0 -89 -13.5
t-86 -47t-74 -102.5t-39 -167h505q13 166 -50.5 248t-166.5 82z" />
    <glyph glyph-name="igrave" unicode="&#xec;" horiz-adv-x="544" 
d="M88 1536l195 -371h-15l-313 359v12h133zM350 61l185 -49v-12h-484v12l185 49v943l-185 53v12h299v-1008z" />
    <glyph glyph-name="iacute" unicode="&#xed;" horiz-adv-x="544" 
d="M260 1165l195 371h133v-12l-314 -359h-14zM350 61l185 -49v-12h-484v12l185 49v943l-185 53v12h299v-1008z" />
    <glyph glyph-name="icircumflex" unicode="&#xee;" horiz-adv-x="544" 
d="M489 1149l-215 225h-6l-211 -225v12l217 387h7l208 -387v-12zM350 61l185 -49v-12h-484v12l185 49v943l-185 53v12h299v-1008z" />
    <glyph glyph-name="idieresis" unicode="&#xef;" horiz-adv-x="544" 
d="M170 1321q0 -32 -21.5 -54t-52.5 -22t-52 22t-21 54q0 30 21.5 52t51.5 22t52 -22t22 -52zM453 1245q-31 0 -52.5 22t-21.5 54q0 30 22 52t52 22t51.5 -22t21.5 -52q0 -32 -21 -54t-52 -22zM350 61l185 -49v-12h-484v12l185 49v943l-185 53v12h299v-1008z" />
    <glyph glyph-name="eth" unicode="&#xf0;" horiz-adv-x="913" 
d="M772 1458l-223 -129q151 -154 233.5 -349.5t79.5 -399.5q-2 -119 -35 -222.5t-80.5 -170.5t-103.5 -115.5t-102.5 -70t-77.5 -21.5q-83 0 -155 31t-130.5 93t-92.5 167.5t-34 242.5q0 119 22 214.5t57.5 156t83 101t95.5 57t97 16.5q29 0 63 -8.5t74.5 -27.5t79.5 -57.5
t65 -91.5l4 5q-85 256 -200 415l-232 -133l-18 31l227 131q-73 93 -209 203l10 12q133 -69 254 -184l230 133zM512 74q31 0 63 9.5t67.5 36t62.5 68t45 113t18 162.5q0 233 -107 381.5t-274 148.5q-31 0 -63 -9.5t-67.5 -36t-62.5 -68t-45 -113t-18 -162.5
q0 -233 107 -381.5t274 -148.5z" />
    <glyph glyph-name="ntilde" unicode="&#xf1;" horiz-adv-x="1081" 
d="M367 1325q-20 0 -34.5 -3t-37.5 -13t-47 -35.5t-49 -65.5l-9 6q46 95 97.5 151t99.5 56q50 0 144 -48t143 -48q22 0 35.5 2.5t37.5 12t49 36t50 68.5l8 -6q-44 -96 -96 -152.5t-101 -56.5q-54 0 -151 48t-139 48zM909 743v-682l185 -49v-12h-484v12l185 49l2 682
q0 123 -65 186.5t-159 63.5q-111 0 -237 -180v-752l184 -49v-12h-483v12l184 49v930l-239 -133l-7 10q31 26 87.5 86t99.5 98t71 38q14 0 23.5 -5.5t23 -25t27 -67.5t27.5 -124q81 99 159 157t111 60q62 2 113.5 -13t96 -52t70 -107.5t25.5 -169.5z" />
    <glyph glyph-name="ograve" unicode="&#xf2;" horiz-adv-x="899" 
d="M131 1524v12h133l195 -371h-15zM461 -20q-82 0 -154.5 30.5t-130 90t-91.5 158t-34 224.5q0 110 22 204t57.5 157.5t78 112.5t87 76t80.5 40.5t62 13.5q82 0 154.5 -30.5t130 -90t91.5 -158t34 -224.5q0 -110 -22 -204t-57.5 -157.5t-78 -112.5t-87 -76t-80.5 -40.5
t-62 -13.5zM512 74q31 0 63 9.5t67.5 36t62.5 68t45 113t18 162.5q0 233 -107 381.5t-274 148.5q-31 0 -63 -9.5t-67.5 -36t-62.5 -68t-45 -113t-18 -162.5q0 -233 107 -381.5t274 -148.5z" />
    <glyph glyph-name="oacute" unicode="&#xf3;" horiz-adv-x="899" 
d="M631 1536h133v-12l-313 -359h-15zM461 -20q-82 0 -154.5 30.5t-130 90t-91.5 158t-34 224.5q0 110 22 204t57.5 157.5t78 112.5t87 76t80.5 40.5t62 13.5q82 0 154.5 -30.5t130 -90t91.5 -158t34 -224.5q0 -110 -22 -204t-57.5 -157.5t-78 -112.5t-87 -76t-80.5 -40.5
t-62 -13.5zM512 74q31 0 63 9.5t67.5 36t62.5 68t45 113t18 162.5q0 233 -107 381.5t-274 148.5q-31 0 -63 -9.5t-67.5 -36t-62.5 -68t-45 -113t-18 -162.5q0 -233 107 -381.5t274 -148.5z" />
    <glyph glyph-name="ocircumflex" unicode="&#xf4;" horiz-adv-x="899" 
d="M233 1149v12l218 387h6l209 -387v-12l-215 225h-7zM461 -20q-82 0 -154.5 30.5t-130 90t-91.5 158t-34 224.5q0 110 22 204t57.5 157.5t78 112.5t87 76t80.5 40.5t62 13.5q82 0 154.5 -30.5t130 -90t91.5 -158t34 -224.5q0 -110 -22 -204t-57.5 -157.5t-78 -112.5
t-87 -76t-80.5 -40.5t-62 -13.5zM512 74q31 0 63 9.5t67.5 36t62.5 68t45 113t18 162.5q0 233 -107 381.5t-274 148.5q-31 0 -63 -9.5t-67.5 -36t-62.5 -68t-45 -113t-18 -162.5q0 -233 107 -381.5t274 -148.5z" />
    <glyph glyph-name="otilde" unicode="&#xf5;" horiz-adv-x="899" 
d="M774 1444l8 -6q-44 -96 -96 -152.5t-100 -56.5q-54 0 -151.5 48t-139.5 48q-20 0 -34.5 -3t-37.5 -13t-47 -35.5t-49 -65.5l-8 6q46 96 97 151.5t99 55.5q50 0 144 -48t143 -48q22 0 35.5 2.5t37.5 12t49 36t50 68.5zM461 -20q-82 0 -154.5 30.5t-130 90t-91.5 158
t-34 224.5q0 110 22 204t57.5 157.5t78 112.5t87 76t80.5 40.5t62 13.5q82 0 154.5 -30.5t130 -90t91.5 -158t34 -224.5q0 -110 -22 -204t-57.5 -157.5t-78 -112.5t-87 -76t-80.5 -40.5t-62 -13.5zM512 74q31 0 63 9.5t67.5 36t62.5 68t45 113t18 162.5q0 233 -107 381.5
t-274 148.5q-31 0 -63 -9.5t-67.5 -36t-62.5 -68t-45 -113t-18 -162.5q0 -233 107 -381.5t274 -148.5z" />
    <glyph glyph-name="odieresis" unicode="&#xf6;" horiz-adv-x="899" 
d="M272 1245q-31 0 -52 22t-21 54q0 30 21.5 52t51.5 22t52 -22t22 -52q0 -32 -21.5 -54t-52.5 -22zM629 1245q-31 0 -52.5 22t-21.5 54q0 30 22 52t52 22t51.5 -22t21.5 -52q0 -32 -21 -54t-52 -22zM461 -20q-82 0 -154.5 30.5t-130 90t-91.5 158t-34 224.5q0 110 22 204
t57.5 157.5t78 112.5t87 76t80.5 40.5t62 13.5q82 0 154.5 -30.5t130 -90t91.5 -158t34 -224.5q0 -110 -22 -204t-57.5 -157.5t-78 -112.5t-87 -76t-80.5 -40.5t-62 -13.5zM512 74q31 0 63 9.5t67.5 36t62.5 68t45 113t18 162.5q0 233 -107 381.5t-274 148.5q-31 0 -63 -9.5
t-67.5 -36t-62.5 -68t-45 -113t-18 -162.5q0 -233 107 -381.5t274 -148.5z" />
    <glyph glyph-name="divide" unicode="&#xf7;" horiz-adv-x="882" 
d="M442 774q-30 0 -50.5 21t-20.5 51q0 28 20.5 48.5t50.5 20.5q28 0 48 -20.5t20 -48.5q0 -29 -20 -50.5t-48 -21.5zM61 547v37h760v-37h-760zM442 201q-30 0 -50.5 20.5t-20.5 50.5q0 28 20.5 49t50.5 21q28 0 48 -21t20 -49q0 -29 -20 -50t-48 -21z" />
    <glyph glyph-name="oslash" unicode="&#xf8;" horiz-adv-x="899" 
d="M840 1069l-92 -133q100 -134 100 -352q0 -110 -22 -204t-57.5 -157.5t-78 -112.5t-87 -76t-80.5 -40.5t-62 -13.5q-180 0 -291 129l-78 -111h-33l93 133q-101 136 -101 352q0 110 22 204t57.5 157.5t78 112.5t87 76t80.5 40.5t62 13.5q180 0 291 -126l76 108h35zM131 604
q0 -218 96 -366l428 616q-107 139 -268 139q-31 0 -63 -9.5t-67.5 -36t-62.5 -68t-45 -113t-18 -162.5zM512 74q31 0 63 9.5t67.5 36t62.5 68t45 113t18 162.5q0 221 -96 366l-428 -614q107 -141 268 -141z" />
    <glyph glyph-name="ugrave" unicode="&#xf9;" horiz-adv-x="1062" 
d="M311 1536l195 -371h-14l-314 359v12h133zM852 82l240 133l6 -10q-31 -25 -87.5 -85.5t-99.5 -98t-71 -37.5q-10 0 -17 2t-18.5 13t-20.5 31.5t-20.5 60.5t-22.5 97q-78 -95 -154.5 -150.5t-109.5 -57.5q-62 -2 -113.5 13t-96 52t-70 107.5t-25.5 169.5v682l-184 53v12
h299v-65l-2 -682q0 -123 64.5 -186.5t158.5 -63.5q105 0 229 168v764l-184 53v12h299v-987z" />
    <glyph glyph-name="uacute" unicode="&#xfa;" horiz-adv-x="1062" 
d="M811 1536v-12l-313 -359h-15l195 371h133zM852 82l240 133l6 -10q-31 -25 -87.5 -85.5t-99.5 -98t-71 -37.5q-10 0 -17 2t-18.5 13t-20.5 31.5t-20.5 60.5t-22.5 97q-78 -95 -154.5 -150.5t-109.5 -57.5q-62 -2 -113.5 13t-96 52t-70 107.5t-25.5 169.5v682l-184 53v12
h299v-65l-2 -682q0 -123 64.5 -186.5t158.5 -63.5q105 0 229 168v764l-184 53v12h299v-987z" />
    <glyph glyph-name="ucircumflex" unicode="&#xfb;" horiz-adv-x="1062" 
d="M713 1149l-215 225h-6l-211 -225v12l217 387h6l209 -387v-12zM852 82l240 133l6 -10q-31 -25 -87.5 -85.5t-99.5 -98t-71 -37.5q-10 0 -17 2t-18.5 13t-20.5 31.5t-20.5 60.5t-22.5 97q-78 -95 -154.5 -150.5t-109.5 -57.5q-62 -2 -113.5 13t-96 52t-70 107.5
t-25.5 169.5v682l-184 53v12h299v-65l-2 -682q0 -123 64.5 -186.5t158.5 -63.5q105 0 229 168v764l-184 53v12h299v-987z" />
    <glyph glyph-name="udieresis" unicode="&#xfc;" horiz-adv-x="1062" 
d="M319 1245q-31 0 -52 22t-21 54q0 30 21.5 52t51.5 22t52 -22t22 -52q0 -32 -21.5 -54t-52.5 -22zM676 1245q-31 0 -52.5 22t-21.5 54q0 30 22 52t52 22t52 -22t22 -52q0 -32 -21.5 -54t-52.5 -22zM852 82l240 133l6 -10q-31 -25 -87.5 -85.5t-99.5 -98t-71 -37.5
q-10 0 -17 2t-18.5 13t-20.5 31.5t-20.5 60.5t-22.5 97q-78 -95 -154.5 -150.5t-109.5 -57.5q-62 -2 -113.5 13t-96 52t-70 107.5t-25.5 169.5v682l-184 53v12h299v-65l-2 -682q0 -123 64.5 -186.5t158.5 -63.5q105 0 229 168v764l-184 53v12h299v-987z" />
    <glyph glyph-name="yacute" unicode="&#xfd;" horiz-adv-x="823" 
d="M741 1536v-12l-313 -359h-14l194 371h133zM520 1069h293v-12l-80 -221l-467 -1348h-145v12l266 471l-387 1086v12h336v-12l-197 -53l297 -838h13l172 477q24 66 39.5 112t23.5 86.5t11 65t-6 47.5t-18 34.5t-36 25.5t-49 21.5t-66 21.5v12z" />
    <glyph glyph-name="thorn" unicode="&#xfe;" horiz-adv-x="999" 
d="M541 1087q84 0 156.5 -30t129 -88t89 -152.5t32.5 -214.5q0 -124 -36.5 -231t-89 -173.5t-113 -114t-107.5 -67.5t-74 -20q-158 0 -239 45v-494l178 -47v-12h-483v12l184 49l-2 1924l-197 -3v13l307 67h13v-651q217 188 252 188zM524 72q46 0 87 10t86.5 39.5t78 76.5
t53.5 128t21 186q0 210 -89.5 344.5t-230.5 134.5q-75 0 -131.5 -39t-109.5 -104v-705q40 -22 65 -33.5t73.5 -24.5t96.5 -13z" />
    <glyph glyph-name="ydieresis" unicode="&#xff;" horiz-adv-x="823" 
d="M250 1245q-31 0 -52.5 22t-21.5 54q0 30 22 52t52 22t52 -22t22 -52q0 -32 -21.5 -54t-52.5 -22zM606 1245q-31 0 -52.5 22t-21.5 54q0 30 22 52t52 22t52 -22t22 -52q0 -32 -21.5 -54t-52.5 -22zM520 1069h293v-12l-80 -221l-467 -1348h-145v12l266 471l-387 1086v12
h336v-12l-197 -53l297 -838h13l172 477q24 66 39.5 112t23.5 86.5t11 65t-6 47.5t-18 34.5t-36 25.5t-49 21.5t-66 21.5v12z" />
    <glyph glyph-name="Amacron" unicode="&#x100;" horiz-adv-x="1046" 
d="M201 1614h616v-66h-616v66zM438 1382h142l446 -1370v-12h-332v12l178 66l-133 409h-499l-27 -75q-22 -62 -34.5 -99t-21 -76.5t-10.5 -60.5t4.5 -45t17.5 -36.5t35 -28.5t50.5 -27t69.5 -27v-12h-304v12l449 1264l-31 94v12zM494 1208l-242 -684h475l-225 684h-8z" />
    <glyph glyph-name="amacron" unicode="&#x101;" horiz-adv-x="921" 
d="M152 1290h616v-61h-616v61zM731 84l240 133l6 -10q-31 -25 -87.5 -85.5t-99.5 -98t-71 -37.5q-14 0 -23.5 5.5t-23.5 25.5t-28 69.5t-28 128.5q-92 -129 -169 -183.5t-179 -54.5q-98 0 -149 45.5t-51 118.5q0 59 33.5 120t98 122.5t129 111t156.5 111.5l136 92
q0 39 -1 67t-5.5 62.5t-12.5 58.5t-22 48.5t-33.5 39.5t-48.5 24.5t-66 9.5q-123 0 -187.5 -91t-56.5 -233l-151 -84l-6 4q36 101 85.5 186t98.5 140.5t99.5 94.5t90 56t68.5 17q64 0 113.5 -18.5t79 -48t48.5 -69.5t25.5 -79.5t5.5 -81.5l-14 -582v-135zM332 53
q134 0 284 209l5 387q-216 -133 -315 -241t-99 -213q0 -65 34.5 -103.5t90.5 -38.5z" />
    <glyph glyph-name="Abreve" unicode="&#x102;" horiz-adv-x="1046" 
d="M510 1489q-93 0 -158 62.5t-65 166.5h14q0 -51 64.5 -81.5t144.5 -30.5t144.5 30.5t64.5 81.5h14q0 -104 -65 -166.5t-158 -62.5zM438 1382h142l446 -1370v-12h-332v12l178 66l-133 409h-499l-27 -75q-22 -62 -34.5 -99t-21 -76.5t-10.5 -60.5t4.5 -45t17.5 -36.5
t35 -28.5t50.5 -27t69.5 -27v-12h-304v12l449 1264l-31 94v12zM494 1208l-242 -684h475l-225 684h-8z" />
    <glyph glyph-name="abreve" unicode="&#x103;" horiz-adv-x="921" 
d="M461 1182q-93 0 -158 93.5t-65 248.5h14q0 -107 64.5 -171.5t144.5 -64.5t144.5 64.5t64.5 171.5h14q0 -155 -65 -248.5t-158 -93.5zM731 84l240 133l6 -10q-31 -25 -87.5 -85.5t-99.5 -98t-71 -37.5q-14 0 -23.5 5.5t-23.5 25.5t-28 69.5t-28 128.5
q-92 -129 -169 -183.5t-179 -54.5q-98 0 -149 45.5t-51 118.5q0 59 33.5 120t98 122.5t129 111t156.5 111.5l136 92q0 39 -1 67t-5.5 62.5t-12.5 58.5t-22 48.5t-33.5 39.5t-48.5 24.5t-66 9.5q-123 0 -187.5 -91t-56.5 -233l-151 -84l-6 4q36 101 85.5 186t98.5 140.5
t99.5 94.5t90 56t68.5 17q64 0 113.5 -18.5t79 -48t48.5 -69.5t25.5 -79.5t5.5 -81.5l-14 -582v-135zM332 53q134 0 284 209l5 387q-216 -133 -315 -241t-99 -213q0 -65 34.5 -103.5t90.5 -38.5z" />
    <glyph glyph-name="Aogonek" unicode="&#x104;" horiz-adv-x="1046" 
d="M1026 0h-127q-103 -112 -144 -243q-41 -130 13 -181q28 -25 74 -25q60 0 137 66l8 -6q-65 -57 -118.5 -89t-75.5 -32q-21 0 -43 5.5t-48 19t-42.5 44.5t-16.5 76q0 76 56.5 159.5t177.5 205.5h-183v12l178 66l-133 409h-499l-27 -75q-22 -62 -34.5 -99t-21 -76.5
t-10.5 -60.5t4.5 -45t17.5 -36.5t35 -28.5t50.5 -27t69.5 -27v-12h-304v12l449 1264l-31 94v12h142l446 -1370v-12zM494 1208l-242 -684h475l-225 684h-8z" />
    <glyph glyph-name="aogonek" unicode="&#x105;" horiz-adv-x="921" 
d="M731 84l240 133l6 -10q-30 -25 -108 -106.5t-113 -102.5q-106 -106 -155 -240q-49 -133 -2 -193q27 -34 81 -34q60 0 137 66l8 -7q-65 -56 -118.5 -88t-75.5 -32q-21 0 -43 5.5t-48 19t-42.5 44.5t-16.5 76q0 78 58 162.5t182 208.5h-2q-14 0 -23.5 5.5t-23.5 25.5
t-28 69.5t-28 128.5q-92 -129 -169 -183.5t-179 -54.5q-98 0 -149 45.5t-51 118.5q0 59 33.5 120t98 122.5t129 111t156.5 111.5l136 92q0 39 -1 67t-5.5 62.5t-12.5 58.5t-22 48.5t-33.5 39.5t-48.5 24.5t-66 9.5q-123 0 -187.5 -91t-56.5 -233l-151 -84l-6 4
q36 101 85.5 186t98.5 140.5t99.5 94.5t90 56t68.5 17q64 0 113.5 -18.5t79 -48t48.5 -69.5t25.5 -79.5t5.5 -81.5l-14 -582v-135zM332 53q134 0 284 209l5 387q-216 -133 -315 -241t-99 -213q0 -65 34.5 -103.5t90.5 -38.5z" />
    <glyph glyph-name="Cacute" unicode="&#x106;" horiz-adv-x="1048" 
d="M758 1759h160v-12l-279 -297h-14zM618 -20q-162 0 -294 94t-204.5 257.5t-68.5 362.5q2 113 31 212.5t73 169.5t100.5 128t112.5 94t109.5 60.5t90 34.5t55.5 10q161 0 265.5 -59t143.5 -146l-100 -242h-12q20 87 0 153t-71 110.5t-120.5 67t-148.5 22.5
q-29 0 -58.5 -3.5t-72.5 -17t-80.5 -34.5t-77 -60.5t-68.5 -92t-48 -131.5t-21 -175q-4 -201 60.5 -365.5t190 -262t289.5 -97.5q45 0 84.5 7t80.5 25.5t59 28t63 35.5l8 -19q-99 -62 -215.5 -114.5t-155.5 -52.5z" />
    <glyph glyph-name="cacute" unicode="&#x107;" horiz-adv-x="806" 
d="M649 1536h133v-12l-313 -359h-14zM500 -20q-94 0 -174.5 32.5t-142 95.5t-97 163t-35.5 227q0 92 19 174t50 141t71 108t81 80t81.5 53t71 31t50.5 9q63 0 116 -17.5t87 -45t58.5 -62.5t35 -68.5t10.5 -64.5l-129 -138l-6 4q31 127 -33 215.5t-174 88.5q-40 0 -76.5 -8.5
t-77 -35.5t-69.5 -69.5t-48 -117.5t-19 -173q0 -250 113.5 -391t305.5 -141q19 0 36 2t34.5 7.5t28 9t29 13.5t25 13t27.5 16.5t25 15.5l8 -14q-202 -153 -282 -153z" />
    <glyph glyph-name="Ccircumflex" unicode="&#x108;" horiz-adv-x="1048" 
d="M391 1464v13l238 284h6l229 -284v-13l-235 156h-6zM618 -20q-162 0 -294 94t-204.5 257.5t-68.5 362.5q2 113 31 212.5t73 169.5t100.5 128t112.5 94t109.5 60.5t90 34.5t55.5 10q161 0 265.5 -59t143.5 -146l-100 -242h-12q20 87 0 153t-71 110.5t-120.5 67t-148.5 22.5
q-29 0 -58.5 -3.5t-72.5 -17t-80.5 -34.5t-77 -60.5t-68.5 -92t-48 -131.5t-21 -175q-4 -201 60.5 -365.5t190 -262t289.5 -97.5q45 0 84.5 7t80.5 25.5t59 28t63 35.5l8 -19q-99 -62 -215.5 -114.5t-155.5 -52.5z" />
    <glyph glyph-name="ccircumflex" unicode="&#x109;" horiz-adv-x="806" 
d="M252 1149v12l217 387h6l209 -387v-12l-215 225h-6zM500 -20q-94 0 -174.5 32.5t-142 95.5t-97 163t-35.5 227q0 92 19 174t50 141t71 108t81 80t81.5 53t71 31t50.5 9q63 0 116 -17.5t87 -45t58.5 -62.5t35 -68.5t10.5 -64.5l-129 -138l-6 4q31 127 -33 215.5t-174 88.5
q-40 0 -76.5 -8.5t-77 -35.5t-69.5 -69.5t-48 -117.5t-19 -173q0 -250 113.5 -391t305.5 -141q19 0 36 2t34.5 7.5t28 9t29 13.5t25 13t27.5 16.5t25 15.5l8 -14q-202 -153 -282 -153z" />
    <glyph glyph-name="Cdotaccent" unicode="&#x10a;" horiz-adv-x="1048" 
d="M629 1522q-31 0 -52.5 21.5t-21.5 53.5q0 30 22 52t52 22t51.5 -22t21.5 -52q0 -32 -21 -53.5t-52 -21.5zM618 -20q-162 0 -294 94t-204.5 257.5t-68.5 362.5q2 113 31 212.5t73 169.5t100.5 128t112.5 94t109.5 60.5t90 34.5t55.5 10q161 0 265.5 -59t143.5 -146
l-100 -242h-12q20 87 0 153t-71 110.5t-120.5 67t-148.5 22.5q-29 0 -58.5 -3.5t-72.5 -17t-80.5 -34.5t-77 -60.5t-68.5 -92t-48 -131.5t-21 -175q-4 -201 60.5 -365.5t190 -262t289.5 -97.5q45 0 84.5 7t80.5 25.5t59 28t63 35.5l8 -19q-99 -62 -215.5 -114.5
t-155.5 -52.5z" />
    <glyph glyph-name="cdotaccent" unicode="&#x10b;" horiz-adv-x="806" 
d="M469 1208q-31 0 -52.5 22t-21.5 54q0 30 22 52t52 22t52 -22t22 -52q0 -32 -21.5 -54t-52.5 -22zM500 -20q-94 0 -174.5 32.5t-142 95.5t-97 163t-35.5 227q0 92 19 174t50 141t71 108t81 80t81.5 53t71 31t50.5 9q63 0 116 -17.5t87 -45t58.5 -62.5t35 -68.5t10.5 -64.5
l-129 -138l-6 4q31 127 -33 215.5t-174 88.5q-40 0 -76.5 -8.5t-77 -35.5t-69.5 -69.5t-48 -117.5t-19 -173q0 -250 113.5 -391t305.5 -141q19 0 36 2t34.5 7.5t28 9t29 13.5t25 13t27.5 16.5t25 15.5l8 -14q-202 -153 -282 -153z" />
    <glyph glyph-name="Ccaron" unicode="&#x10c;" horiz-adv-x="1048" 
d="M629 1479l-238 284v13l232 -156h6l235 156v-13l-229 -284h-6zM618 -20q-162 0 -294 94t-204.5 257.5t-68.5 362.5q2 113 31 212.5t73 169.5t100.5 128t112.5 94t109.5 60.5t90 34.5t55.5 10q161 0 265.5 -59t143.5 -146l-100 -242h-12q20 87 0 153t-71 110.5t-120.5 67
t-148.5 22.5q-29 0 -58.5 -3.5t-72.5 -17t-80.5 -34.5t-77 -60.5t-68.5 -92t-48 -131.5t-21 -175q-4 -201 60.5 -365.5t190 -262t289.5 -97.5q45 0 84.5 7t80.5 25.5t59 28t63 35.5l8 -19q-99 -62 -215.5 -114.5t-155.5 -52.5z" />
    <glyph glyph-name="ccaron" unicode="&#x10d;" horiz-adv-x="806" 
d="M469 1157l-217 387v12l211 -225h6l215 225v-12l-209 -387h-6zM500 -20q-94 0 -174.5 32.5t-142 95.5t-97 163t-35.5 227q0 92 19 174t50 141t71 108t81 80t81.5 53t71 31t50.5 9q63 0 116 -17.5t87 -45t58.5 -62.5t35 -68.5t10.5 -64.5l-129 -138l-6 4q31 127 -33 215.5
t-174 88.5q-40 0 -76.5 -8.5t-77 -35.5t-69.5 -69.5t-48 -117.5t-19 -173q0 -250 113.5 -391t305.5 -141q19 0 36 2t34.5 7.5t28 9t29 13.5t25 13t27.5 16.5t25 15.5l8 -14q-202 -153 -282 -153z" />
    <glyph glyph-name="Dcaron" unicode="&#x10e;" horiz-adv-x="1200" 
d="M780 1763l-229 -284h-6l-238 284v13l232 -156h6l235 156v-13zM465 1382q323 0 503.5 -173.5t180.5 -499.5q0 -73 -11.5 -143t-38.5 -141t-67 -133t-100 -116t-135.5 -93t-176 -61t-217.5 -22h-383v12l183 68v1223l-183 67v12h445zM326 37h67q325 3 476 169t151 486
q0 149 -36 267.5t-108.5 205.5t-190 134t-273.5 47h-86v-1309z" />
    <glyph glyph-name="dcaron" unicode="&#x10f;" horiz-adv-x="999" 
d="M809 84l240 133l6 -10q-31 -25 -87.5 -85.5t-99.5 -98t-71 -37.5q-10 0 -17 2t-17.5 12t-19 28.5t-19.5 54.5t-22 87q-205 -182 -243 -182q-84 0 -156.5 30t-129.5 88t-89.5 152.5t-32.5 214.5q0 124 36.5 231t89 173.5t113 114t107.5 67.5t74 20q140 0 223 -37v431
l-205 -3v13l308 67h12v-1466zM1135 1460q-2 -25 -5.5 -45.5t-36 -112.5t-94.5 -239h-57v12l150 314l-7 2q-17 -7 -30 -7q-35 0 -59.5 24.5t-24.5 59.5q0 33 24.5 56.5t59.5 23.5q33 0 56.5 -23.5t23.5 -56.5v-8zM469 84q116 0 227 127q-2 2 -2 8v721q-114 64 -219 64
q-45 0 -86.5 -10t-86.5 -40t-77.5 -77t-53.5 -128t-21 -186q0 -210 89 -344.5t230 -134.5z" />
    <glyph glyph-name="Dcroat" unicode="&#x110;" horiz-adv-x="1200" 
d="M465 1382q323 0 503.5 -173.5t180.5 -499.5q0 -73 -11.5 -143t-38.5 -141t-67 -133t-100 -116t-135.5 -93t-176 -61t-217.5 -22h-383v12l183 68v602h-178v37h178v584l-183 67v12h445zM326 37h67q325 3 476 169t151 486q0 149 -36 267.5t-108.5 205.5t-190 134t-273.5 47
h-86v-627h290v-37h-290v-645z" />
    <glyph glyph-name="dcroat" unicode="&#x111;" horiz-adv-x="999" 
d="M809 84l240 133l6 -10q-31 -25 -87.5 -85.5t-99.5 -98t-71 -37.5q-10 0 -17 2t-17.5 12t-19 28.5t-19.5 54.5t-22 87q-205 -182 -243 -182q-84 0 -156.5 30t-129.5 88t-89.5 152.5t-32.5 214.5q0 124 36.5 231t89 173.5t113 114t107.5 67.5t74 20q140 0 223 -37v213h-305
v37h305v181l-205 -3v13l308 67h12v-258h172v-37h-172v-1171zM469 84q116 0 227 127q-2 2 -2 8v721q-114 64 -219 64q-45 0 -86.5 -10t-86.5 -40t-77.5 -77t-53.5 -128t-21 -186q0 -210 89 -344.5t230 -134.5z" />
    <glyph glyph-name="Emacron" unicode="&#x112;" horiz-adv-x="1103" 
d="M254 1614h616v-66h-616v66zM1010 424h12v-424h-1002v12l185 68v1223l-185 67v12h971v-424h-12q-27 98 -31 113q-17 62 -24.5 90t-20.5 66t-18.5 50.5t-19.5 31.5t-21.5 22t-27 9t-34.5 6h-45h-409v-627h252q33 0 55.5 7t36.5 17t25.5 34.5t18.5 45.5t21 66t27 80h12v-537
h-12q-12 32 -24 71t-18.5 59.5t-16 44.5t-18.5 35t-24 22t-34.5 14.5t-48.5 3.5h-252v-645h440h36.5t30 3.5t24.5 4.5t20 11.5t17.5 16t15 26t15 33.5t15 47t17 58t20.5 74q4 15 31 113z" />
    <glyph glyph-name="emacron" unicode="&#x113;" horiz-adv-x="825" 
d="M166 1229v61h616v-61h-616zM569 70q19 0 36 2t34.5 7.5t28 9t29 13.5t25 13t27.5 16.5t25 15.5l8 -14q-202 -153 -282 -153q-94 0 -174.5 32.5t-142 95.5t-97 163t-35.5 227q0 92 19 174t50 141t71 108t81 80t81.5 53t71 31t50.5 9q158 0 225.5 -88.5t67.5 -251.5
q0 -24 -60 -69.5t-83 -45.5h-475v-37q0 -250 113.5 -391t305.5 -141zM440 1006q-47 0 -89 -13.5t-86 -47t-74 -102.5t-39 -167h505q13 166 -50.5 248t-166.5 82z" />
    <glyph glyph-name="Ebreve" unicode="&#x114;" horiz-adv-x="1103" 
d="M563 1489q-93 0 -158 62.5t-65 166.5h14q0 -51 64.5 -81.5t144.5 -30.5t144.5 30.5t64.5 81.5h14q0 -104 -65 -166.5t-158 -62.5zM1010 424h12v-424h-1002v12l185 68v1223l-185 67v12h971v-424h-12q-27 98 -31 113q-17 62 -24.5 90t-20.5 66t-18.5 50.5t-19.5 31.5
t-21.5 22t-27 9t-34.5 6h-45h-409v-627h252q33 0 55.5 7t36.5 17t25.5 34.5t18.5 45.5t21 66t27 80h12v-537h-12q-12 32 -24 71t-18.5 59.5t-16 44.5t-18.5 35t-24 22t-34.5 14.5t-48.5 3.5h-252v-645h440h36.5t30 3.5t24.5 4.5t20 11.5t17.5 16t15 26t15 33.5t15 47t17 58
t20.5 74q4 15 31 113z" />
    <glyph glyph-name="ebreve" unicode="&#x115;" horiz-adv-x="825" 
d="M475 1182q-93 0 -158 93.5t-65 248.5h14q0 -107 64.5 -171.5t144.5 -64.5t144.5 64.5t64.5 171.5h14q0 -155 -65 -248.5t-158 -93.5zM774 147l8 -14q-202 -153 -282 -153q-94 0 -174.5 32.5t-142 95.5t-97 163t-35.5 227q0 92 19 174t50 141t71 108t81 80t81.5 53t71 31
t50.5 9q158 0 225.5 -88.5t67.5 -251.5q0 -24 -60 -69.5t-83 -45.5h-475v-37q0 -250 113.5 -391t305.5 -141q19 0 36 2t34.5 7.5t28 9t29 13.5t25 13t27.5 16.5t25 15.5zM440 1006q-47 0 -89 -13.5t-86 -47t-74 -102.5t-39 -167h505q13 166 -50.5 248t-166.5 82z" />
    <glyph glyph-name="Edotaccent" unicode="&#x116;" horiz-adv-x="1103" 
d="M563 1522q-31 0 -52.5 21.5t-21.5 53.5q0 30 22 52t52 22t52 -22t22 -52q0 -32 -21.5 -53.5t-52.5 -21.5zM1010 424h12v-424h-1002v12l185 68v1223l-185 67v12h971v-424h-12q-27 98 -31 113q-17 62 -24.5 90t-20.5 66t-18.5 50.5t-19.5 31.5t-21.5 22t-27 9t-34.5 6h-45
h-409v-627h252q33 0 55.5 7t36.5 17t25.5 34.5t18.5 45.5t21 66t27 80h12v-537h-12q-12 32 -24 71t-18.5 59.5t-16 44.5t-18.5 35t-24 22t-34.5 14.5t-48.5 3.5h-252v-645h440h36.5t30 3.5t24.5 4.5t20 11.5t17.5 16t15 26t15 33.5t15 47t17 58t20.5 74q4 15 31 113z" />
    <glyph glyph-name="edotaccent" unicode="&#x117;" horiz-adv-x="825" 
d="M475 1208q-31 0 -52.5 22t-21.5 54q0 30 22 52t52 22t52 -22t22 -52q0 -32 -21.5 -54t-52.5 -22zM774 147l8 -14q-202 -153 -282 -153q-94 0 -174.5 32.5t-142 95.5t-97 163t-35.5 227q0 92 19 174t50 141t71 108t81 80t81.5 53t71 31t50.5 9q158 0 225.5 -88.5
t67.5 -251.5q0 -24 -60 -69.5t-83 -45.5h-475v-37q0 -250 113.5 -391t305.5 -141q19 0 36 2t34.5 7.5t28 9t29 13.5t25 13t27.5 16.5t25 15.5zM440 1006q-47 0 -89 -13.5t-86 -47t-74 -102.5t-39 -167h505q13 166 -50.5 248t-166.5 82z" />
    <glyph glyph-name="Eogonek" unicode="&#x118;" horiz-adv-x="1103" 
d="M1010 424h12v-424h-150q-103 -112 -144 -243q-41 -130 13 -181q28 -25 74 -25q60 0 137 66l9 -6q-65 -56 -119 -88.5t-76 -32.5q-21 0 -43 5.5t-48 19t-42.5 44.5t-16.5 76q0 76 56.5 159.5t177.5 205.5h-830v12l185 68v1223l-185 67v12h971v-424h-12q-27 98 -31 113
q-17 62 -24.5 90t-20.5 66t-18.5 50.5t-19.5 31.5t-21.5 22t-27 9t-34.5 6h-45h-409v-627h252q33 0 55.5 7t36.5 17t25.5 34.5t18.5 45.5t21 66t27 80h12v-537h-12q-12 32 -24 71t-18.5 59.5t-16 44.5t-18.5 35t-24 22t-34.5 14.5t-48.5 3.5h-252v-645h440h36.5t30 3.5
t24.5 4.5t20 11.5t17.5 16t15 26t15 33.5t15 47t17 58t20.5 74q4 15 31 113z" />
    <glyph glyph-name="eogonek" unicode="&#x119;" horiz-adv-x="825" 
d="M586 -453q60 0 137 66l8 -6q-65 -57 -118.5 -89t-75.5 -32q-20 0 -43 8t-48.5 25t-42 50.5t-16.5 78.5q0 41 14.5 80t54 90.5t84.5 100t130 134.5q-114 -73 -170 -73q-94 0 -174.5 32.5t-142 95.5t-97 163t-35.5 227q0 92 19 174t50 141t71 108t81 80t81.5 53t71 31
t50.5 9q158 0 225.5 -88.5t67.5 -251.5q0 -24 -60 -69.5t-83 -45.5h-475v-37q0 -250 113.5 -391t305.5 -141q19 0 36 2t34.5 7.5t28 9t29 13.5t25 13t27.5 16.5t25 15.5l8 -14l-16 -12q-161 -161 -222 -266.5t-61 -184.5q0 -63 28 -93t75 -30zM440 1006q-47 0 -89 -13.5
t-86 -47t-74 -102.5t-39 -167h505q13 166 -50.5 248t-166.5 82z" />
    <glyph glyph-name="Ecaron" unicode="&#x11a;" horiz-adv-x="1103" 
d="M799 1763l-230 -284h-6l-237 284v13l231 -156h6l236 156v-13zM1010 424h12v-424h-1002v12l185 68v1223l-185 67v12h971v-424h-12q-27 98 -31 113q-17 62 -24.5 90t-20.5 66t-18.5 50.5t-19.5 31.5t-21.5 22t-27 9t-34.5 6h-45h-409v-627h252q33 0 55.5 7t36.5 17
t25.5 34.5t18.5 45.5t21 66t27 80h12v-537h-12q-12 32 -24 71t-18.5 59.5t-16 44.5t-18.5 35t-24 22t-34.5 14.5t-48.5 3.5h-252v-645h440h36.5t30 3.5t24.5 4.5t20 11.5t17.5 16t15 26t15 33.5t15 47t17 58t20.5 74q4 15 31 113z" />
    <glyph glyph-name="ecaron" unicode="&#x11b;" horiz-adv-x="825" 
d="M690 1544l-209 -387h-6l-217 387v12l211 -225h6l215 225v-12zM774 147l8 -14q-202 -153 -282 -153q-94 0 -174.5 32.5t-142 95.5t-97 163t-35.5 227q0 92 19 174t50 141t71 108t81 80t81.5 53t71 31t50.5 9q158 0 225.5 -88.5t67.5 -251.5q0 -24 -60 -69.5t-83 -45.5
h-475v-37q0 -250 113.5 -391t305.5 -141q19 0 36 2t34.5 7.5t28 9t29 13.5t25 13t27.5 16.5t25 15.5zM440 1006q-47 0 -89 -13.5t-86 -47t-74 -102.5t-39 -167h505q13 166 -50.5 248t-166.5 82z" />
    <glyph glyph-name="Gcircumflex" unicode="&#x11c;" horiz-adv-x="1161" 
d="M868 1464l-235 156h-6l-232 -156v13l238 284h6l229 -284v-13zM459 664v12l579 2l13 -12l-9 -695h-12l-51 160h-4q-68 -48 -188 -99.5t-164 -51.5q-160 0 -291 91t-206 250.5t-75 354.5q0 116 28 218t72.5 174t101.5 131t114 96t111.5 62.5t92 35.5t56.5 10
q163 0 278.5 -60t153.5 -145l-94 -246h-13q20 80 -2.5 149t-75 114t-127 70.5t-157.5 25.5q-29 0 -60 -4t-75 -18t-83 -36.5t-79.5 -64t-69 -96t-47 -137.5t-18.5 -183q0 -197 65.5 -356t189.5 -252.5t285 -93.5q75 0 124.5 14t105.5 47v475z" />
    <glyph glyph-name="gcircumflex" unicode="&#x11d;" horiz-adv-x="993" 
d="M707 1149l-215 225h-7l-211 -225v12l218 387h6l209 -387v-12zM1059 1069v-63q-139 0 -373 43l-2 -5q152 -98 152 -280q0 -85 -39 -164t-94.5 -129.5t-111.5 -80.5t-95 -30q-127 0 -215 52q-6 -7 -27.5 -29.5t-29 -30.5t-22.5 -26.5t-21 -30t-11.5 -26.5t-5.5 -29
q0 -53 38.5 -87.5t119.5 -41.5l342 -31q7 -1 23 -2q38 -3 59.5 -6t60 -10.5t61.5 -20.5t48 -33.5t37 -52.5t12 -74q0 -15 -2 -35.5t-13 -62t-29.5 -79.5t-57 -81.5t-89.5 -75t-132 -52.5t-181 -21q-119 0 -221 30.5t-166 90.5t-64 137q0 15 42 53q1 1 253 219
q-115 10 -191.5 58t-76.5 135q0 7 29.5 36t85.5 85.5t102 109.5q-123 89 -123 268q0 69 26 134t66 112.5t86.5 83.5t89.5 54t74 18q224 -29 367 -29h219zM745 692q0 139 -87.5 229.5t-219.5 90.5q-92 0 -155.5 -61t-63.5 -189q0 -136 85 -227t206 -91q104 0 169.5 59.5
t65.5 188.5zM922 -203q0 41 -24 73t-59 51t-89 32.5t-98 19.5t-103 11l-203 16q-199 -143 -199 -231q0 -83 109.5 -143t288.5 -60q171 0 274 68.5t103 162.5z" />
    <glyph glyph-name="Gbreve" unicode="&#x11e;" horiz-adv-x="1161" 
d="M633 1489q-93 0 -158 62.5t-65 166.5h14q0 -51 64.5 -81.5t144.5 -30.5t144.5 30.5t64.5 81.5h14q0 -104 -65 -166.5t-158 -62.5zM459 664v12l579 2l13 -12l-9 -695h-12l-51 160h-4q-68 -48 -188 -99.5t-164 -51.5q-160 0 -291 91t-206 250.5t-75 354.5q0 116 28 218
t72.5 174t101.5 131t114 96t111.5 62.5t92 35.5t56.5 10q163 0 278.5 -60t153.5 -145l-94 -246h-13q20 80 -2.5 149t-75 114t-127 70.5t-157.5 25.5q-29 0 -60 -4t-75 -18t-83 -36.5t-79.5 -64t-69 -96t-47 -137.5t-18.5 -183q0 -197 65.5 -356t189.5 -252.5t285 -93.5
q75 0 124.5 14t105.5 47v475z" />
    <glyph glyph-name="gbreve" unicode="&#x11f;" horiz-adv-x="993" 
d="M492 1182q-93 0 -158.5 94t-65.5 248h15q0 -107 64.5 -171.5t144.5 -64.5t144 64.5t64 171.5h15q0 -155 -65 -248.5t-158 -93.5zM1059 1069v-63q-139 0 -373 43l-2 -5q152 -98 152 -280q0 -85 -39 -164t-94.5 -129.5t-111.5 -80.5t-95 -30q-127 0 -215 52
q-6 -7 -27.5 -29.5t-29 -30.5t-22.5 -26.5t-21 -30t-11.5 -26.5t-5.5 -29q0 -53 38.5 -87.5t119.5 -41.5l342 -31q7 -1 23 -2q38 -3 59.5 -6t60 -10.5t61.5 -20.5t48 -33.5t37 -52.5t12 -74q0 -15 -2 -35.5t-13 -62t-29.5 -79.5t-57 -81.5t-89.5 -75t-132 -52.5t-181 -21
q-119 0 -221 30.5t-166 90.5t-64 137q0 15 42 53q1 1 253 219q-115 10 -191.5 58t-76.5 135q0 7 29.5 36t85.5 85.5t102 109.5q-123 89 -123 268q0 69 26 134t66 112.5t86.5 83.5t89.5 54t74 18q224 -29 367 -29h219zM745 692q0 139 -87.5 229.5t-219.5 90.5
q-92 0 -155.5 -61t-63.5 -189q0 -136 85 -227t206 -91q104 0 169.5 59.5t65.5 188.5zM922 -203q0 41 -24 73t-59 51t-89 32.5t-98 19.5t-103 11l-203 16q-199 -143 -199 -231q0 -83 109.5 -143t288.5 -60q171 0 274 68.5t103 162.5z" />
    <glyph glyph-name="Gdotaccent" unicode="&#x120;" horiz-adv-x="1161" 
d="M633 1522q-31 0 -52.5 21.5t-21.5 53.5q0 30 22 52t52 22t52 -22t22 -52q0 -32 -21.5 -53.5t-52.5 -21.5zM459 664v12l579 2l13 -12l-9 -695h-12l-51 160h-4q-68 -48 -188 -99.5t-164 -51.5q-160 0 -291 91t-206 250.5t-75 354.5q0 116 28 218t72.5 174t101.5 131t114 96
t111.5 62.5t92 35.5t56.5 10q163 0 278.5 -60t153.5 -145l-94 -246h-13q20 80 -2.5 149t-75 114t-127 70.5t-157.5 25.5q-29 0 -60 -4t-75 -18t-83 -36.5t-79.5 -64t-69 -96t-47 -137.5t-18.5 -183q0 -197 65.5 -356t189.5 -252.5t285 -93.5q75 0 124.5 14t105.5 47v475z
" />
    <glyph glyph-name="gdotaccent" unicode="&#x121;" horiz-adv-x="993" 
d="M492 1208q-31 0 -52.5 22t-21.5 54q0 30 22 52t52 22t51.5 -22t21.5 -52q0 -32 -21 -54t-52 -22zM1059 1069v-63q-139 0 -373 43l-2 -5q152 -98 152 -280q0 -85 -39 -164t-94.5 -129.5t-111.5 -80.5t-95 -30q-127 0 -215 52q-6 -7 -27.5 -29.5t-29 -30.5t-22.5 -26.5
t-21 -30t-11.5 -26.5t-5.5 -29q0 -53 38.5 -87.5t119.5 -41.5l342 -31q7 -1 23 -2q38 -3 59.5 -6t60 -10.5t61.5 -20.5t48 -33.5t37 -52.5t12 -74q0 -15 -2 -35.5t-13 -62t-29.5 -79.5t-57 -81.5t-89.5 -75t-132 -52.5t-181 -21q-119 0 -221 30.5t-166 90.5t-64 137
q0 15 42 53q1 1 253 219q-115 10 -191.5 58t-76.5 135q0 7 29.5 36t85.5 85.5t102 109.5q-123 89 -123 268q0 69 26 134t66 112.5t86.5 83.5t89.5 54t74 18q224 -29 367 -29h219zM745 692q0 139 -87.5 229.5t-219.5 90.5q-92 0 -155.5 -61t-63.5 -189q0 -136 85 -227
t206 -91q104 0 169.5 59.5t65.5 188.5zM922 -203q0 41 -24 73t-59 51t-89 32.5t-98 19.5t-103 11l-203 16q-199 -143 -199 -231q0 -83 109.5 -143t288.5 -60q171 0 274 68.5t103 162.5z" />
    <glyph glyph-name="uni0122" unicode="&#x122;" horiz-adv-x="1161" 
d="M459 664v12l579 2l13 -12l-9 -695h-12l-51 160h-4q-68 -48 -188 -99.5t-164 -51.5q-160 0 -291 91t-206 250.5t-75 354.5q0 116 28 218t72.5 174t101.5 131t114 96t111.5 62.5t92 35.5t56.5 10q163 0 278.5 -60t153.5 -145l-94 -246h-13q20 80 -2.5 149t-75 114
t-127 70.5t-157.5 25.5q-29 0 -60 -4t-75 -18t-83 -36.5t-79.5 -64t-69 -96t-47 -137.5t-18.5 -183q0 -197 65.5 -356t189.5 -252.5t285 -93.5q75 0 124.5 14t105.5 47v475zM592 -166q32 0 55 -23.5t23 -54.5v-8q-5 -77 -129 -377h-56v11l144 299l-6 2q-17 -7 -31 -7
q-34 0 -56 23t-22 57q0 31 22.5 54.5t55.5 23.5z" />
    <glyph glyph-name="uni0123" unicode="&#x123;" horiz-adv-x="993" 
d="M473 1206q-38 0 -65 27.5t-27 64.5v9q2 28 6 51t40.5 127t107.5 272h65v-12l-170 -356l6 -3l-2 -2q18 9 39 9q40 0 67 -27.5t27 -67.5q0 -37 -27.5 -64.5t-66.5 -27.5zM1059 1069v-63q-139 0 -373 43l-2 -5q152 -98 152 -280q0 -85 -39 -164t-94.5 -129.5t-111.5 -80.5
t-95 -30q-127 0 -215 52q-6 -7 -27.5 -29.5t-29 -30.5t-22.5 -26.5t-21 -30t-11.5 -26.5t-5.5 -29q0 -53 38.5 -87.5t119.5 -41.5l342 -31q7 -1 23 -2q38 -3 59.5 -6t60 -10.5t61.5 -20.5t48 -33.5t37 -52.5t12 -74q0 -15 -2 -35.5t-13 -62t-29.5 -79.5t-57 -81.5t-89.5 -75
t-132 -52.5t-181 -21q-119 0 -221 30.5t-166 90.5t-64 137q0 15 42 53q1 1 253 219q-115 10 -191.5 58t-76.5 135q0 7 29.5 36t85.5 85.5t102 109.5q-123 89 -123 268q0 69 26 134t66 112.5t86.5 83.5t89.5 54t74 18q224 -29 367 -29h219zM745 692q0 139 -87.5 229.5
t-219.5 90.5q-92 0 -155.5 -61t-63.5 -189q0 -136 85 -227t206 -91q104 0 169.5 59.5t65.5 188.5zM922 -203q0 41 -24 73t-59 51t-89 32.5t-98 19.5t-103 11l-203 16q-199 -143 -199 -231q0 -83 109.5 -143t288.5 -60q171 0 274 68.5t103 162.5z" />
    <glyph glyph-name="Hcircumflex" unicode="&#x124;" horiz-adv-x="1245" 
d="M858 1464l-235 156h-7l-231 -156v13l238 284h6l229 -284v-13zM1225 1382v-12l-178 -61v-1235l178 -62v-12h-480v12l179 62v600h-602v-600l178 -62v-12h-480v12l179 62v1235l-179 61v12h480v-12l-178 -61v-598h602v598l-179 61v12h480z" />
    <glyph glyph-name="hcircumflex" unicode="&#x125;" horiz-adv-x="1067" 
d="M492 1618l-236 156h-6l-232 -156v12l238 285h6l230 -285v-12zM895 743v-682l184 -49v-12h-483v12l184 49l2 682q0 123 -64.5 186.5t-158.5 63.5q-112 0 -240 -182v-750h3l184 -49v-12h-483v12l182 49v1412l-205 -3v13l307 67h12v-680q81 98 159.5 155.5t111.5 59.5
q62 2 113.5 -13t96 -52t70 -107.5t25.5 -169.5z" />
    <glyph glyph-name="Hbar" unicode="&#x126;" horiz-adv-x="1263" 
d="M1243 965v-37h-196v-854l178 -62v-12h-480v12l179 62v600h-602v-600l178 -62v-12h-480v12l179 62v854h-158v37h158v344l-179 61v12h480v-12l-178 -61v-344h602v344l-179 61v12h480v-12l-178 -61v-344h196zM322 711h602v217h-602v-217z" />
    <glyph glyph-name="hbar" unicode="&#x127;" horiz-adv-x="1067" 
d="M895 743v-682l184 -49v-12h-483v12l184 49l2 682q0 123 -64.5 186.5t-158.5 63.5q-112 0 -240 -182v-750h3l184 -49v-12h-483v12l182 49v1194h-205v37h205v181l-205 -3v13l307 67h12v-258h273v-37h-273v-385q81 98 159.5 155.5t111.5 59.5q62 2 113.5 -13t96 -52
t70 -107.5t25.5 -169.5z" />
    <glyph glyph-name="Itilde" unicode="&#x128;" horiz-adv-x="520" 
d="M643 1698l8 -6q-37 -91 -87 -147t-89 -56q-54 0 -201.5 59.5t-189.5 59.5q-93 0 -147 -113l-9 6q39 91 88 146t88 55q50 0 194.5 -59.5t193.5 -59.5q20 0 35 3t36 13t41.5 35t38.5 64zM20 1382h480v-12l-178 -61v-1235l178 -62v-12h-480v12l179 62v1235l-179 61v12z" />
    <glyph glyph-name="itilde" unicode="&#x129;" horiz-adv-x="544" 
d="M410 1229q-54 0 -151.5 48t-139.5 48q-20 0 -34.5 -3t-37.5 -13t-47 -35.5t-49 -65.5l-8 6q46 96 97 151.5t99 55.5q50 0 144 -48t143 -48q22 0 35.5 2.5t37.5 12t49 36t50 68.5l8 -6q-44 -96 -96 -152.5t-100 -56.5zM350 61l185 -49v-12h-484v12l185 49v943l-185 53v12
h299v-1008z" />
    <glyph glyph-name="Imacron" unicode="&#x12a;" horiz-adv-x="520" 
d="M-49 1548v66h616v-66h-616zM20 1382h480v-12l-178 -61v-1235l178 -62v-12h-480v12l179 62v1235l-179 61v12z" />
    <glyph glyph-name="imacron" unicode="&#x12b;" horiz-adv-x="544" 
d="M-35 1229v61h617v-61h-617zM350 61l185 -49v-12h-484v12l185 49v943l-185 53v12h299v-1008z" />
    <glyph glyph-name="Ibreve" unicode="&#x12c;" horiz-adv-x="520" 
d="M260 1489q-93 0 -158 62.5t-65 166.5h14q0 -51 64.5 -81.5t144.5 -30.5t144.5 30.5t64.5 81.5h14q0 -104 -65 -166.5t-158 -62.5zM500 1382v-12l-178 -61v-1235l178 -62v-12h-480v12l179 62v1235l-179 61v12h480z" />
    <glyph glyph-name="ibreve" unicode="&#x12d;" horiz-adv-x="544" 
d="M274 1182q-93 0 -158 93.5t-65 248.5h15q0 -107 64 -171.5t144 -64.5t144.5 64.5t64.5 171.5h15q0 -154 -65.5 -248t-158.5 -94zM350 61l185 -49v-12h-484v12l185 49v943l-185 53v12h299v-1008z" />
    <glyph glyph-name="Iogonek" unicode="&#x12e;" horiz-adv-x="520" 
d="M500 1382v-12l-178 -61v-1235l178 -62v-12h-183q-103 -112 -144 -243q-41 -130 13 -181q28 -25 74 -25q60 0 137 66l9 -6q-65 -56 -119 -88.5t-76 -32.5q-21 0 -43 5.5t-48 19t-42.5 44.5t-16.5 76q0 76 56.5 159.5t177.5 205.5h-275v12l179 62v1235l-179 61v12h480z" />
    <glyph glyph-name="iogonek" unicode="&#x12f;" horiz-adv-x="544" 
d="M283 1298q-38 0 -64 26.5t-26 64.5q0 36 26 62t64 26q36 0 62 -26t26 -62q0 -38 -25.5 -64.5t-62.5 -26.5zM535 0h-220q-103 -112 -144 -243q-41 -130 13 -181q28 -25 74 -25q60 0 137 66l8 -6q-65 -57 -118.5 -89t-75.5 -32q-21 0 -43 5.5t-48 19t-42.5 44.5t-16.5 76
q0 76 56.5 159.5t177.5 205.5h-242v12l185 49v943l-185 53v12h299v-1008l185 -49v-12z" />
    <glyph glyph-name="Idotaccent" unicode="&#x130;" horiz-adv-x="520" 
d="M260 1522q-31 0 -52.5 21.5t-21.5 53.5q0 30 22 52t52 22t52 -22t22 -52q0 -32 -21.5 -53.5t-52.5 -21.5zM500 1382v-12l-178 -61v-1235l178 -62v-12h-480v12l179 62v1235l-179 61v12h480z" />
    <glyph glyph-name="dotlessi" unicode="&#x131;" horiz-adv-x="544" 
d="M350 61l185 -49v-12h-484v12l185 49v943l-185 53v12h299v-1008z" />
    <glyph glyph-name="IJ" unicode="&#x132;" horiz-adv-x="1277" 
d="M20 1382h480v-12l-178 -61v-1235l178 -62v-12h-480v12l179 62v1235l-179 61v12zM1288 1382v-12l-178 -61v-1010q0 -29 -27.5 -83.5t-68.5 -109t-95 -95t-100 -40.5q-182 0 -272 160l110 238l11 -4q-29 -84 -8.5 -158.5t77.5 -126t119 -51.5q18 0 29.5 1.5t27.5 9.5
t26.5 21.5t21.5 40t16.5 64t8.5 93.5t1 128v922l-178 61v12h479z" />
    <glyph glyph-name="Jcircumflex" unicode="&#x134;" horiz-adv-x="778" 
d="M778 1464l-235 156h-6l-232 -156v13l238 284h6l229 -284v-13zM788 1382v-12l-178 -61v-1010q0 -29 -27.5 -83.5t-68.5 -109t-95 -95t-100 -40.5q-182 0 -272 160l111 238l10 -4q-29 -84 -8.5 -158.5t77.5 -126t119 -51.5q18 0 29.5 1.5t27.5 9.5t26.5 21.5t21.5 40
t16.5 64t8.5 93.5t1 128v922l-178 61v12h479z" />
    <glyph glyph-name="jcircumflex" unicode="&#x135;" horiz-adv-x="403" 
d="M203 1548h6l209 -387v-12l-215 225h-6l-211 -225v12zM166 1008l-170 49v12h299v-65l-4 -963q0 -68 -23.5 -133.5t-58 -114.5t-83.5 -99t-90 -82.5t-88.5 -70t-68.5 -57.5l-8 16q51 45 98.5 98t96 123.5t77.5 154t29 165.5z" />
    <glyph glyph-name="uni0136" unicode="&#x136;" horiz-adv-x="1103" 
d="M1069 1370l-551 -573l565 -787v-10h-354v12l168 62l-465 635l-110 -115v-520l178 -62v-12h-480v12l179 62v1235l-179 61v12h480v-12l-178 -61v-660l464 484q46 49 66 86.5t18.5 60.5t-24.5 41.5t-49 28t-70 20.5v12h342v-12zM555 -166q32 0 55 -23.5t23 -54.5v-8
q-5 -77 -129 -377h-55v11l143 299l-6 2q-18 -7 -31 -7q-34 0 -56 23t-22 57q0 31 22.5 54.5t55.5 23.5z" />
    <glyph glyph-name="uni0137" unicode="&#x137;" horiz-adv-x="946" 
d="M920 1057l-435 -416l455 -629v-12h-356v12l188 43l-371 504l-82 -78v-420h3l184 -49v-12h-483v12l182 49v1412l-205 -3v13l307 67h12v-1020l351 338q52 50 57 81.5t-33 55.5t-131 52v12h357v-12z" />
    <glyph glyph-name="kgreenlandic" unicode="&#x138;" horiz-adv-x="946" 
d="M920 1057l-435 -416l455 -629v-12h-356v12l188 43l-371 504l-82 -78v-420h3l184 -49v-12h-483v12l182 49v1412l-205 -3v13l307 67h12v-1020l351 338q52 50 57 81.5t-33 55.5t-131 52v12h357v-12z" />
    <glyph glyph-name="Lacute" unicode="&#x139;" horiz-adv-x="1009" 
d="M557 1759v-12l-278 -297h-15l133 309h160zM956 424h13v-424h-949v12l185 68v1231l-174 59v12h479v-12l-178 -61h-4v-1272h385q103 0 130 34.5t81 235.5q6 24 10 37.5t10 36.5t12 43z" />
    <glyph glyph-name="lacute" unicode="&#x13a;" horiz-adv-x="522" 
d="M254 1632l195 371h133v-12l-314 -359h-14zM319 61h3l184 -49v-12h-483v12l182 49v1412l-205 -3v13l307 67h12v-1489z" />
    <glyph glyph-name="uni013B" unicode="&#x13b;" horiz-adv-x="1009" 
d="M956 424h13v-424h-949v12l185 68v1231l-174 59v12h479v-12l-178 -61h-4v-1272h385q103 0 130 34.5t81 235.5q6 24 10 37.5t10 36.5t12 43zM522 -166q32 0 55 -23.5t23 -54.5v-8q-5 -77 -129 -377h-55v11l143 299l-6 2q-17 -7 -31 -7q-34 0 -56 23t-22 57q0 31 22.5 54.5
t55.5 23.5z" />
    <glyph glyph-name="uni013C" unicode="&#x13c;" horiz-adv-x="522" 
d="M319 61h3l184 -49v-12h-483v12l182 49v1412l-205 -3v13l307 67h12v-1489zM270 -166q32 0 55 -23.5t23 -54.5v-8q-5 -77 -129 -377h-55v11l143 299l-6 2q-18 -7 -31 -7q-33 0 -55 23t-22 57q0 32 22 55t55 23z" />
    <glyph glyph-name="Lcaron" unicode="&#x13d;" horiz-adv-x="1009" 
d="M760 1298q-2 -26 -5.5 -45.5t-35.5 -112t-94 -239.5h-58v12l150 314l-6 2q-15 -6 -31 -6q-35 0 -59.5 24.5t-24.5 59.5q0 32 24.5 55.5t59.5 23.5q34 0 57 -23t23 -56v-9zM956 424h13v-424h-949v12l185 68v1231l-174 59v12h479v-12l-178 -61h-4v-1272h385q103 0 130 34.5
t81 235.5q6 24 10 37.5t10 36.5t12 43z" />
    <glyph glyph-name="lcaron" unicode="&#x13e;" horiz-adv-x="522" 
d="M319 61h3l184 -49v-12h-483v12l182 49v1412l-205 -3v13l307 67h12v-1489zM645 1468v-8q-2 -26 -5.5 -45.5t-35.5 -112t-94 -239.5h-57v12l149 314l-6 2q-17 -7 -31 -7q-35 0 -59.5 24.5t-24.5 59.5q0 33 24.5 56.5t59.5 23.5q33 0 56.5 -23.5t23.5 -56.5z" />
    <glyph glyph-name="Ldot" unicode="&#x13f;" horiz-adv-x="1009" 
d="M956 424h13v-424h-949v12l185 68v1231l-174 59v12h479v-12l-178 -61h-4v-1272h385q103 0 130 34.5t81 235.5q6 24 10 37.5t10 36.5t12 43zM770 641q-40 0 -67 27t-27 67q0 37 27.5 64.5t66.5 27.5q38 0 65 -27.5t27 -64.5q0 -40 -27 -67t-65 -27z" />
    <glyph glyph-name="ldot" unicode="&#x140;" horiz-adv-x="710" 
d="M319 61h3l184 -49v-12h-483v12l182 49v1412l-205 -3v13l307 67h12v-1489zM610 844q38 0 65 -27.5t27 -64.5q0 -40 -27 -67.5t-65 -27.5q-40 0 -67 27.5t-27 67.5q0 37 27.5 64.5t66.5 27.5z" />
    <glyph glyph-name="Lslash" unicode="&#x141;" horiz-adv-x="1009" 
d="M956 424h13v-424h-949v12l185 68v541l-185 -123v37l185 122v654l-174 59v12h479v-12l-178 -61h-4v-572l288 193v-37l-288 -193v-663h385q103 0 130 34.5t81 235.5q6 24 10 37.5t10 36.5t12 43z" />
    <glyph glyph-name="lslash" unicode="&#x142;" horiz-adv-x="522" 
d="M319 61h3l184 -49v-12h-483v12l182 49v1412l-205 -3v13l307 67h12v-1489z" />
    <glyph glyph-name="Nacute" unicode="&#x143;" horiz-adv-x="1148" 
d="M872 1759v-12l-278 -297h-14l133 309h159zM723 1368v14h303v-1402h-12l-803 1222h-10v-815q0 -79 2.5 -127.5t16.5 -88.5t25 -59t48.5 -39t65 -29t95.5 -28q4 -1 7 -2v-14h-305v1284l-74 86v12h158l731 -1108h10v721q0 184 -27 246q-24 54 -91 82q-36 16 -140 45z" />
    <glyph glyph-name="nacute" unicode="&#x144;" horiz-adv-x="1081" 
d="M836 1536v-12l-314 -359h-14l194 371h134zM909 743v-682l185 -49v-12h-484v12l185 49l2 682q0 123 -65 186.5t-159 63.5q-111 0 -237 -180v-752l184 -49v-12h-483v12l184 49v930l-239 -133l-7 10q31 26 87.5 86t99.5 98t71 38q14 0 23.5 -5.5t23 -25t27 -67.5t27.5 -124
q81 99 159 157t111 60q62 2 113.5 -13t96 -52t70 -107.5t25.5 -169.5z" />
    <glyph glyph-name="uni0145" unicode="&#x145;" horiz-adv-x="1148" 
d="M723 1368v14h303v-1402h-12l-803 1222h-10v-815q0 -79 2.5 -127.5t16.5 -88.5t25 -59t48.5 -39t65 -29t95.5 -28q4 -1 7 -2v-14h-305v1284l-74 86v12h158l731 -1108h10v721q0 184 -27 246q-24 54 -91 82q-36 16 -140 45zM578 -166q32 0 54.5 -23.5t22.5 -54.5v-8
q-5 -77 -129 -377h-55v11l143 299l-6 2q-17 -7 -30 -7q-34 0 -56 23t-22 57q0 31 22.5 54.5t55.5 23.5z" />
    <glyph glyph-name="uni0146" unicode="&#x146;" horiz-adv-x="1081" 
d="M909 743v-682l185 -49v-12h-484v12l185 49l2 682q0 123 -65 186.5t-159 63.5q-111 0 -237 -180v-752l184 -49v-12h-483v12l184 49v930l-239 -133l-7 10q31 26 87.5 86t99.5 98t71 38q14 0 23.5 -5.5t23 -25t27 -67.5t27.5 -124q81 99 159 157t111 60q62 2 113.5 -13
t96 -52t70 -107.5t25.5 -169.5zM524 -166q32 0 55 -23.5t23 -54.5v-8q-5 -77 -129 -377h-55v11l143 299l-6 2q-17 -7 -31 -7q-34 0 -56 23t-22 57q0 31 22.5 54.5t55.5 23.5z" />
    <glyph glyph-name="Ncaron" unicode="&#x147;" horiz-adv-x="1148" 
d="M819 1763l-229 -284h-6l-238 284v13l232 -156h6l235 156v-13zM723 1368v14h303v-1402h-12l-803 1222h-10v-815q0 -79 2.5 -127.5t16.5 -88.5t25 -59t48.5 -39t65 -29t95.5 -28q4 -1 7 -2v-14h-305v1284l-74 86v12h158l731 -1108h10v721q0 184 -27 246q-24 54 -91 82
q-36 16 -140 45z" />
    <glyph glyph-name="ncaron" unicode="&#x148;" horiz-adv-x="1081" 
d="M737 1544l-209 -387h-6l-217 387v12l211 -225h6l215 225v-12zM909 743v-682l185 -49v-12h-484v12l185 49l2 682q0 123 -65 186.5t-159 63.5q-111 0 -237 -180v-752l184 -49v-12h-483v12l184 49v930l-239 -133l-7 10q31 26 87.5 86t99.5 98t71 38q14 0 23.5 -5.5t23 -25
t27 -67.5t27.5 -124q81 99 159 157t111 60q62 2 113.5 -13t96 -52t70 -107.5t25.5 -169.5z" />
    <glyph glyph-name="Eng" unicode="&#x14a;" horiz-adv-x="1179" 
d="M680 1386q202 0 299.5 -102t97.5 -315v-744q0 -112 -24 -211.5t-56.5 -165.5t-84.5 -131t-88.5 -98t-89.5 -77t-68 -58l-9 16q41 38 75 75.5t77.5 104.5t73 140t50.5 179.5t21 225.5v723q0 344 -305 344q-28 0 -54.5 -3.5t-46 -7t-44 -14t-37 -15.5t-37.5 -21t-33 -21
t-35.5 -25t-33.5 -24v-1087l178 -62v-12h-479v12l178 62v1229l-185 67v12h308v-182q93 71 202.5 128.5t149.5 57.5z" />
    <glyph glyph-name="eng" unicode="&#x14b;" horiz-adv-x="1042" 
d="M612 1085q62 2 113.5 -13t96.5 -52t70.5 -107.5t25.5 -169.5v-702q-3 -70 -28 -136.5t-59 -115.5t-82 -98.5t-87 -81.5t-85.5 -69t-66.5 -56l-8 16q52 45 98.5 98t95.5 125t78 160.5t29 177.5l2 682q0 123 -64.5 186.5t-158.5 63.5q-114 0 -246 -192v-740l184 -49v-12
h-483v12l184 49v930l-239 -133l-7 10q31 26 87.5 86t99.5 98t71 38q14 0 23.5 -5.5t23.5 -26t28 -70t28 -128.5q81 103 160.5 163t115.5 62z" />
    <glyph glyph-name="Omacron" unicode="&#x14c;" horiz-adv-x="1173" 
d="M279 1548v66h616v-66h-616zM602 -20q-133 0 -240 60.5t-173.5 161.5t-102 226t-35.5 260q0 107 22 203.5t58.5 166.5t84 129t97.5 98t99.5 65.5t89.5 38.5t69 12q107 0 198 -39.5t155 -108t109.5 -159t67 -192.5t21.5 -210q0 -107 -22 -203t-58.5 -166.5t-84 -129.5
t-97.5 -97.5t-99.5 -65.5t-89.5 -38.5t-69 -11.5zM647 80q61 0 115.5 16t105.5 55t87.5 98t58.5 150.5t22 206.5q0 186 -63 343.5t-181.5 254t-267.5 96.5q-61 0 -115.5 -16t-105.5 -55t-87.5 -98t-58.5 -150.5t-22 -206.5q0 -186 63 -343.5t181.5 -254t267.5 -96.5z" />
    <glyph glyph-name="omacron" unicode="&#x14d;" horiz-adv-x="899" 
d="M141 1229v61h617v-61h-617zM461 -20q-82 0 -154.5 30.5t-130 90t-91.5 158t-34 224.5q0 110 22 204t57.5 157.5t78 112.5t87 76t80.5 40.5t62 13.5q82 0 154.5 -30.5t130 -90t91.5 -158t34 -224.5q0 -110 -22 -204t-57.5 -157.5t-78 -112.5t-87 -76t-80.5 -40.5
t-62 -13.5zM512 74q31 0 63 9.5t67.5 36t62.5 68t45 113t18 162.5q0 233 -107 381.5t-274 148.5q-31 0 -63 -9.5t-67.5 -36t-62.5 -68t-45 -113t-18 -162.5q0 -233 107 -381.5t274 -148.5z" />
    <glyph glyph-name="Obreve" unicode="&#x14e;" horiz-adv-x="1173" 
d="M588 1489q-93 0 -158 62.5t-65 166.5h14q0 -51 64.5 -81.5t144.5 -30.5t144.5 30.5t64.5 81.5h14q0 -104 -65 -166.5t-158 -62.5zM571 1401q107 0 198 -39.5t155 -108t109.5 -159t67 -192.5t21.5 -210q0 -107 -22 -203t-58.5 -166.5t-84 -129.5t-97.5 -97.5t-99.5 -65.5
t-89.5 -38.5t-69 -11.5q-133 0 -240 60.5t-173.5 161.5t-102 226t-35.5 260q0 107 22 203.5t58.5 166.5t84 129t97.5 98t99.5 65.5t89.5 38.5t69 12zM647 80q61 0 115.5 16t105.5 55t87.5 98t58.5 150.5t22 206.5q0 186 -63 343.5t-181.5 254t-267.5 96.5q-61 0 -115.5 -16
t-105.5 -55t-87.5 -98t-58.5 -150.5t-22 -206.5q0 -186 63 -343.5t181.5 -254t267.5 -96.5z" />
    <glyph glyph-name="obreve" unicode="&#x14f;" horiz-adv-x="899" 
d="M451 1182q-93 0 -158.5 94t-65.5 248h15q0 -107 64.5 -171.5t144.5 -64.5t144 64.5t64 171.5h15q0 -155 -65 -248.5t-158 -93.5zM438 1087q82 0 154.5 -30.5t130 -90t91.5 -158t34 -224.5q0 -110 -22 -204t-57.5 -157.5t-78 -112.5t-87 -76t-80.5 -40.5t-62 -13.5
q-82 0 -154.5 30.5t-130 90t-91.5 158t-34 224.5q0 110 22 204t57.5 157.5t78 112.5t87 76t80.5 40.5t62 13.5zM512 74q31 0 63 9.5t67.5 36t62.5 68t45 113t18 162.5q0 233 -107 381.5t-274 148.5q-31 0 -63 -9.5t-67.5 -36t-62.5 -68t-45 -113t-18 -162.5
q0 -233 107 -381.5t274 -148.5z" />
    <glyph glyph-name="Ohungarumlaut" unicode="&#x150;" horiz-adv-x="1173" 
d="M596 1765h127v-12l-268 -307h-11zM842 1765h127v-12l-269 -307h-10zM602 -20q-133 0 -240 60.5t-173.5 161.5t-102 226t-35.5 260q0 107 22 203.5t58.5 166.5t84 129t97.5 98t99.5 65.5t89.5 38.5t69 12q107 0 198 -39.5t155 -108t109.5 -159t67 -192.5t21.5 -210
q0 -107 -22 -203t-58.5 -166.5t-84 -129.5t-97.5 -97.5t-99.5 -65.5t-89.5 -38.5t-69 -11.5zM647 80q61 0 115.5 16t105.5 55t87.5 98t58.5 150.5t22 206.5q0 186 -63 343.5t-181.5 254t-267.5 96.5q-61 0 -115.5 -16t-105.5 -55t-87.5 -98t-58.5 -150.5t-22 -206.5
q0 -186 63 -343.5t181.5 -254t267.5 -96.5z" />
    <glyph glyph-name="ohungarumlaut" unicode="&#x151;" horiz-adv-x="899" 
d="M483 1536h107v-12l-248 -359h-10zM688 1536h107v-12l-248 -359h-10zM461 -20q-82 0 -154.5 30.5t-130 90t-91.5 158t-34 224.5q0 110 22 204t57.5 157.5t78 112.5t87 76t80.5 40.5t62 13.5q82 0 154.5 -30.5t130 -90t91.5 -158t34 -224.5q0 -110 -22 -204t-57.5 -157.5
t-78 -112.5t-87 -76t-80.5 -40.5t-62 -13.5zM512 74q31 0 63 9.5t67.5 36t62.5 68t45 113t18 162.5q0 233 -107 381.5t-274 148.5q-31 0 -63 -9.5t-67.5 -36t-62.5 -68t-45 -113t-18 -162.5q0 -233 107 -381.5t274 -148.5z" />
    <glyph glyph-name="OE" unicode="&#x152;" horiz-adv-x="1650" 
d="M1556 424h13v-424h-817q-158 4 -283 45t-206 105.5t-134 152.5t-75.5 181t-22.5 196q0 205 83.5 362.5t248 248.5t389.5 91h786v-424h-12q-27 98 -31 113q-17 62 -24.5 90t-20.5 66t-18.5 50.5t-19.5 31.5t-21.5 22t-27 9t-34.5 6h-45h-410v-627h252q33 0 55.5 7t36.5 17
t26 34.5t19 45.5t21 66t27 80h12v-537h-12q-13 35 -27 81t-21 66.5t-19 45.5t-26 34t-36.5 16t-55.5 7h-252v-645h441h36.5t30 3.5t24.5 4.5t20 11.5t17.5 16t15 26t15 33.5t15 47t17 58t20.5 74q10 42 30 113zM160 680q0 -305 148 -470t444 -169v1300q-146 -3 -260 -53.5
t-186 -139.5t-109 -207.5t-37 -260.5z" />
    <glyph glyph-name="oe" unicode="&#x153;" horiz-adv-x="1540" 
d="M1489 147l8 -14q-202 -153 -283 -153q-146 0 -257.5 78t-159.5 227q-31 -79 -78.5 -141.5t-96 -96t-90 -50.5t-71.5 -17q-82 0 -154.5 30.5t-130 90t-91.5 158t-34 224.5q0 110 22 204t57.5 157.5t78 112.5t87 76t80.5 40.5t62 13.5q131 0 236 -77t147 -226
q35 80 90 143.5t109.5 97.5t98.5 51.5t71 17.5q158 0 225.5 -88.5t67.5 -251.5q0 -24 -60.5 -69.5t-83.5 -45.5h-475v-37q0 -250 114 -391t306 -141q19 0 36 2t34.5 7.5t28 9t29 13.5t25 13t27.5 16.5t25 15.5zM1155 1006q-37 0 -70.5 -7.5t-71.5 -29.5t-67 -57t-51 -96
t-29 -140h506q13 166 -50.5 248t-166.5 82zM512 74q31 0 62 9t66 34.5t62 64.5t45.5 106.5t20.5 153.5q-2 18 -2 56v22q-14 211 -118.5 342t-260.5 131q-31 0 -63 -9.5t-67.5 -36t-62.5 -68t-45 -113t-18 -162.5q0 -233 107 -381.5t274 -148.5z" />
    <glyph glyph-name="Racute" unicode="&#x154;" horiz-adv-x="1128" 
d="M879 1759v-12l-279 -297h-14l133 309h160zM668 670l434 -658v-12h-326v12l146 54l-394 604h-200v-596l178 -62v-12h-479v12l178 62v1229l-185 67v12h553q231 0 349 -78t118 -229q0 -135 -94.5 -230.5t-277.5 -174.5zM328 1346v-639h219q164 0 259 83.5t95 245.5
q0 310 -360 310h-213z" />
    <glyph glyph-name="racute" unicode="&#x155;" horiz-adv-x="790" 
d="M709 1536v-12l-314 -359h-14l194 371h134zM846 999l6 -8q-8 -8 -38.5 -46.5t-53.5 -57.5t-45 -19q-35 0 -111 57.5t-112 57.5q-32 0 -74.5 -51t-81.5 -123v-748l184 -49v-12h-483v12l184 49v930l-239 -133l-7 10q31 26 87.5 86t99.5 98t71 38q14 0 23.5 -5.5t23 -24.5
t27 -66t27.5 -122q50 76 113.5 148t78.5 72q25 0 71.5 -31t95.5 -62.5t79 -31.5q7 0 14 1.5t12 3t13 5.5t11 6l12 8z" />
    <glyph glyph-name="uni0156" unicode="&#x156;" horiz-adv-x="1128" 
d="M668 670l434 -658v-12h-326v12l146 54l-394 604h-200v-596l178 -62v-12h-479v12l178 62v1229l-185 67v12h553q231 0 349 -78t118 -229q0 -135 -94.5 -230.5t-277.5 -174.5zM328 1346v-639h219q164 0 259 83.5t95 245.5q0 310 -360 310h-213zM592 -166q32 0 55 -23.5
t23 -54.5v-8q-5 -77 -129 -377h-56v11l144 299l-6 2q-17 -7 -31 -7q-34 0 -56 23t-22 57q0 31 22.5 54.5t55.5 23.5z" />
    <glyph glyph-name="uni0157" unicode="&#x157;" horiz-adv-x="790" 
d="M846 999l6 -8q-8 -8 -38.5 -46.5t-53.5 -57.5t-45 -19q-35 0 -111 57.5t-112 57.5q-32 0 -74.5 -51t-81.5 -123v-748l184 -49v-12h-483v12l184 49v930l-239 -133l-7 10q31 26 87.5 86t99.5 98t71 38q14 0 23.5 -5.5t23 -24.5t27 -66t27.5 -122q50 76 113.5 148t78.5 72
q25 0 71.5 -31t95.5 -62.5t79 -31.5q7 0 14 1.5t12 3t13 5.5t11 6l12 8zM274 -166q32 0 55 -23.5t23 -54.5v-8q-5 -77 -129 -377h-55v11l143 299l-6 2q-17 -7 -31 -7q-33 0 -55 23t-22 57q0 32 22 55t55 23z" />
    <glyph glyph-name="Rcaron" unicode="&#x158;" horiz-adv-x="1128" 
d="M825 1763l-229 -284h-6l-238 284v13l232 -156h6l235 156v-13zM668 670l434 -658v-12h-326v12l146 54l-394 604h-200v-596l178 -62v-12h-479v12l178 62v1229l-185 67v12h553q231 0 349 -78t118 -229q0 -135 -94.5 -230.5t-277.5 -174.5zM328 1346v-639h219q164 0 259 83.5
t95 245.5q0 310 -360 310h-213z" />
    <glyph glyph-name="rcaron" unicode="&#x159;" horiz-adv-x="790" 
d="M610 1544l-209 -387h-6l-217 387v12l211 -225h6l215 225v-12zM846 999l6 -8q-8 -8 -38.5 -46.5t-53.5 -57.5t-45 -19q-35 0 -111 57.5t-112 57.5q-32 0 -74.5 -51t-81.5 -123v-748l184 -49v-12h-483v12l184 49v930l-239 -133l-7 10q31 26 87.5 86t99.5 98t71 38
q14 0 23.5 -5.5t23 -24.5t27 -66t27.5 -122q50 76 113.5 148t78.5 72q25 0 71.5 -31t95.5 -62.5t79 -31.5q7 0 14 1.5t12 3t13 5.5t11 6l12 8z" />
    <glyph glyph-name="Sacute" unicode="&#x15a;" horiz-adv-x="1011" 
d="M784 1759v-12l-278 -297h-14l133 309h159zM485 782l52 -24q22 -11 60 -28t61 -28t57 -28t55.5 -30.5t49 -33t44.5 -37.5t35.5 -42.5t29 -49.5t17 -56.5t6.5 -66.5q0 -76 -28.5 -144.5t-83 -122t-140.5 -85t-192 -31.5q-79 0 -149.5 16.5t-141 40t-121.5 31.5l-57 515
l16 2q14 -98 42.5 -178t63 -134t79.5 -95t87.5 -64.5t91 -38t86.5 -19t79 -4.5q159 0 230 64t71 165q0 65 -25.5 116.5t-88 96t-102 65.5t-131.5 63q-23 11 -34 16l-62 29q-139 65 -190 98q-141 94 -156 240q-2 20 -2 40q0 164 114.5 259.5t276.5 95.5q99 0 187.5 -34.5
t146.5 -90.5l55 123h15v-512h-12q-113 438 -465 438q-115 0 -187.5 -54t-72.5 -155q0 -48 20 -91t47 -72.5t78 -63t87.5 -52t100.5 -49.5z" />
    <glyph glyph-name="sacute" unicode="&#x15b;" horiz-adv-x="849" 
d="M739 1536v-12l-313 -359h-14l194 371h133zM446 618l54 -26q51 -25 86 -45t75 -51t64 -62.5t40.5 -76t16.5 -95.5q0 -124 -83.5 -204.5t-239.5 -80.5q-59 0 -118 12.5t-118.5 30t-93.5 23.5l-57 438h16q21 -112 64 -197t91.5 -131t108 -74t103 -36t86.5 -8q84 0 136 45
t52 123q0 82 -72 145t-219 135l-57 29q-48 24 -80 42.5t-68.5 46.5t-58 57t-35.5 69t-14 86q0 127 89 206t228 79q63 0 130 -20t114 -62l41 65h12v-450h-16q-7 64 -24 122t-47 111t-69.5 91.5t-95.5 61.5t-122 23q-88 0 -133.5 -45t-45.5 -114q0 -46 19.5 -84t61 -71t79 -55
t100.5 -53z" />
    <glyph glyph-name="Scircumflex" unicode="&#x15c;" horiz-adv-x="1011" 
d="M731 1464l-235 156h-7l-231 -156v13l238 284h6l229 -284v-13zM485 782l52 -24q22 -11 60 -28t61 -28t57 -28t55.5 -30.5t49 -33t44.5 -37.5t35.5 -42.5t29 -49.5t17 -56.5t6.5 -66.5q0 -76 -28.5 -144.5t-83 -122t-140.5 -85t-192 -31.5q-79 0 -149.5 16.5t-141 40
t-121.5 31.5l-57 515l16 2q14 -98 42.5 -178t63 -134t79.5 -95t87.5 -64.5t91 -38t86.5 -19t79 -4.5q159 0 230 64t71 165q0 65 -25.5 116.5t-88 96t-102 65.5t-131.5 63q-23 11 -34 16l-62 29q-139 65 -190 98q-141 94 -156 240q-2 20 -2 40q0 164 114.5 259.5t276.5 95.5
q99 0 187.5 -34.5t146.5 -90.5l55 123h15v-512h-12q-113 438 -465 438q-115 0 -187.5 -54t-72.5 -155q0 -48 20 -91t47 -72.5t78 -63t87.5 -52t100.5 -49.5z" />
    <glyph glyph-name="scircumflex" unicode="&#x15d;" horiz-adv-x="849" 
d="M641 1149l-215 225h-6l-211 -225v12l217 387h6l209 -387v-12zM446 618l54 -26q51 -25 86 -45t75 -51t64 -62.5t40.5 -76t16.5 -95.5q0 -124 -83.5 -204.5t-239.5 -80.5q-59 0 -118 12.5t-118.5 30t-93.5 23.5l-57 438h16q21 -112 64 -197t91.5 -131t108 -74t103 -36
t86.5 -8q84 0 136 45t52 123q0 82 -72 145t-219 135l-57 29q-48 24 -80 42.5t-68.5 46.5t-58 57t-35.5 69t-14 86q0 127 89 206t228 79q63 0 130 -20t114 -62l41 65h12v-450h-16q-7 64 -24 122t-47 111t-69.5 91.5t-95.5 61.5t-122 23q-88 0 -133.5 -45t-45.5 -114
q0 -46 19.5 -84t61 -71t79 -55t100.5 -53z" />
    <glyph glyph-name="Scedilla" unicode="&#x15e;" horiz-adv-x="1011" 
d="M508 -25l-59 -106q79 -18 127.5 -62.5t48.5 -107.5q0 -70 -63 -130.5t-183 -94.5l-2 10q158 50 158 158q0 56 -44.5 88.5t-121.5 38.5l-2 12l112 194q-92 3 -214 42t-169 46l-57 515l16 2q14 -98 42.5 -178t63 -134t79.5 -95t87.5 -64.5t91 -38t86.5 -19t79 -4.5
q159 0 230 64t71 165q0 65 -25.5 116.5t-88 96t-102 65.5t-131.5 63q-23 11 -34 16l-62 29q-139 65 -190 98q-141 94 -156 240q-2 20 -2 40q0 164 114.5 259.5t276.5 95.5q99 0 187.5 -34.5t146.5 -90.5l55 123h15v-512h-12q-113 438 -465 438q-115 0 -187.5 -54t-72.5 -155
q0 -48 20 -91t47 -72.5t78 -63t87.5 -52t100.5 -49.5l52 -24q22 -11 60 -28t61 -28t57 -28t55.5 -30.5t49 -33t44.5 -37.5t35.5 -42.5t29 -49.5t17 -56.5t6.5 -66.5q0 -76 -28.5 -144.5t-83 -122t-140.5 -85t-192 -31.5z" />
    <glyph glyph-name="scedilla" unicode="&#x15f;" horiz-adv-x="849" 
d="M459 -23h-19l-61 -108q79 -18 127.5 -62.5t48.5 -107.5q0 -70 -63 -130.5t-183 -94.5l-2 10q158 50 158 158q0 56 -44.5 88.5t-121.5 38.5l-2 12l115 199q-64 5 -160 31.5t-123 31.5l-57 438h16q21 -112 64 -197t91.5 -131t108 -74t103 -36t86.5 -8q84 0 136 45t52 123
q0 82 -72 145t-219 135l-57 29q-48 24 -80 42.5t-68.5 46.5t-58 57t-35.5 69t-14 86q0 127 89 206t228 79q63 0 130 -20t114 -62l41 65h12v-450h-16q-7 64 -24 122t-47 111t-69.5 91.5t-95.5 61.5t-122 23q-88 0 -133.5 -45t-45.5 -114q0 -46 19.5 -84t61 -71t79 -55
t100.5 -53l54 -26q51 -25 86 -45t75 -51t64 -62.5t40.5 -76t16.5 -95.5q0 -124 -83.5 -204.5t-239.5 -80.5z" />
    <glyph glyph-name="Scaron" unicode="&#x160;" horiz-adv-x="1011" 
d="M731 1763l-229 -284h-6l-238 284v13l231 -156h7l235 156v-13zM485 782l52 -24q22 -11 60 -28t61 -28t57 -28t55.5 -30.5t49 -33t44.5 -37.5t35.5 -42.5t29 -49.5t17 -56.5t6.5 -66.5q0 -76 -28.5 -144.5t-83 -122t-140.5 -85t-192 -31.5q-79 0 -149.5 16.5t-141 40
t-121.5 31.5l-57 515l16 2q14 -98 42.5 -178t63 -134t79.5 -95t87.5 -64.5t91 -38t86.5 -19t79 -4.5q159 0 230 64t71 165q0 65 -25.5 116.5t-88 96t-102 65.5t-131.5 63q-23 11 -34 16l-62 29q-139 65 -190 98q-141 94 -156 240q-2 20 -2 40q0 164 114.5 259.5t276.5 95.5
q99 0 187.5 -34.5t146.5 -90.5l55 123h15v-512h-12q-113 438 -465 438q-115 0 -187.5 -54t-72.5 -155q0 -48 20 -91t47 -72.5t78 -63t87.5 -52t100.5 -49.5z" />
    <glyph glyph-name="scaron" unicode="&#x161;" horiz-adv-x="849" 
d="M641 1544l-209 -387h-6l-217 387v12l211 -225h6l215 225v-12zM446 618l54 -26q51 -25 86 -45t75 -51t64 -62.5t40.5 -76t16.5 -95.5q0 -124 -83.5 -204.5t-239.5 -80.5q-59 0 -118 12.5t-118.5 30t-93.5 23.5l-57 438h16q21 -112 64 -197t91.5 -131t108 -74t103 -36
t86.5 -8q84 0 136 45t52 123q0 82 -72 145t-219 135l-57 29q-48 24 -80 42.5t-68.5 46.5t-58 57t-35.5 69t-14 86q0 127 89 206t228 79q63 0 130 -20t114 -62l41 65h12v-450h-16q-7 64 -24 122t-47 111t-69.5 91.5t-95.5 61.5t-122 23q-88 0 -133.5 -45t-45.5 -114
q0 -46 19.5 -84t61 -71t79 -55t100.5 -53z" />
    <glyph glyph-name="uni0162" unicode="&#x162;" horiz-adv-x="987" 
d="M967 1382v-424h-13q-11 40 -29 107q-55 205 -84.5 243t-140.5 38h-145v-1272l178 -62v-12h-209l-73 -131q79 -18 127.5 -62.5t48.5 -107.5q0 -70 -63 -130.5t-183 -94.5l-2 10q158 50 158 158q0 56 -44.5 88.5t-121.5 38.5l-2 12l127 219h-242v12l178 62v1272h-145
q-43 0 -64.5 -1t-44.5 -12.5t-33.5 -25t-26 -50.5t-26.5 -77.5t-31 -116.5q-17 -66 -28 -105h-13v424h947z" />
    <glyph glyph-name="uni0163" unicode="&#x163;" horiz-adv-x="622" 
d="M328 -18l-64 -113q79 -18 127.5 -62.5t48.5 -107.5q0 -70 -62.5 -130.5t-182.5 -94.5l-2 10q157 50 157 158q0 56 -44.5 88.5t-121.5 38.5l-2 12l121 207q-110 36 -110 202v840l-173 27v12h175l108 221h8l-4 -221h283v-68q-13 0 -55.5 5t-108 12.5t-119.5 11.5v-840
q0 -65 29.5 -97t93.5 -32q37 0 73 17.5t95 71.5l8 -11q-62 -62 -139.5 -110.5t-106.5 -48.5q-22 0 -32 2z" />
    <glyph glyph-name="Tcaron" unicode="&#x164;" horiz-adv-x="987" 
d="M733 1763l-229 -284h-6l-238 284v13l232 -156h6l235 156v-13zM967 1382v-424h-13q-11 40 -29 107q-55 205 -84.5 243t-140.5 38h-145v-1272l178 -62v-12h-479v12l178 62v1272h-145q-43 0 -64.5 -1t-44.5 -12.5t-33.5 -25t-26 -50.5t-26.5 -77.5t-31 -116.5
q-17 -66 -28 -105h-13v424h947z" />
    <glyph glyph-name="tcaron" unicode="&#x165;" horiz-adv-x="622" 
d="M668 1583q-2 -25 -5.5 -45.5t-36 -112.5t-94.5 -239h-57v12l150 313l-7 2q-15 -6 -30 -6q-35 0 -59.5 24.5t-24.5 59.5q0 33 24.5 56.5t59.5 23.5q33 0 56.5 -23.5t23.5 -56.5v-8zM430 61q37 0 73 17.5t95 71.5l8 -11q-62 -62 -139.5 -110.5t-106.5 -48.5
q-78 0 -122.5 54t-44.5 156v840l-173 27v12h175l108 221h8l-4 -221h283v-68q-13 0 -55.5 5t-108 12.5t-119.5 11.5v-840q0 -65 29.5 -97t93.5 -32z" />
    <glyph glyph-name="Tbar" unicode="&#x166;" horiz-adv-x="987" 
d="M967 1382v-424h-13q-11 40 -29 107q-55 205 -84.5 243t-140.5 38h-145v-627h236v-37h-236v-608l178 -62v-12h-479v12l178 62v608h-233v37h233v627h-145q-43 0 -64.5 -1t-44.5 -12.5t-33.5 -25t-26 -50.5t-26.5 -77.5t-31 -116.5q-17 -66 -28 -105h-13v424h947z" />
    <glyph glyph-name="tbar" unicode="&#x167;" horiz-adv-x="628" 
d="M612 678v-37h-305v-451q0 -65 29.5 -97t93.5 -32q37 0 73 17.5t95 71.5l8 -11q-62 -62 -139.5 -110.5t-106.5 -48.5q-78 0 -122.5 54t-44.5 156v451h-173v37h173v352l-173 27v12h175l108 221h8l-4 -221h283v-68q-13 0 -55.5 5t-108 12.5t-119.5 11.5v-352h305z" />
    <glyph glyph-name="Utilde" unicode="&#x168;" horiz-adv-x="1241" 
d="M440 1608q-93 0 -147 -113l-8 6q39 91 88 146t88 55q50 0 194 -59.5t193 -59.5q20 0 35 3t36 13t41.5 35t38.5 64l9 -6q-37 -91 -87 -147t-90 -56q-54 0 -201.5 59.5t-189.5 59.5zM1065 78l2 2l184 -68v-12h-309v160q-95 -70 -199 -125t-141 -55q-198 0 -308 104.5
t-110 312.5v906l-184 67v12h307v-964q0 -95 26.5 -164t73.5 -107t103 -55.5t123 -17.5q51 0 94.5 9t83 29.5t65 38t66.5 48.5v1104l-184 67v12h307v-1304z" />
    <glyph glyph-name="utilde" unicode="&#x169;" horiz-adv-x="1062" 
d="M342 1325q-20 0 -34.5 -3t-37.5 -13t-47 -35.5t-49 -65.5l-8 6q46 96 97 151.5t99 55.5q50 0 144 -48t143 -48q22 0 35.5 2.5t37.5 12t49 36t50 68.5l8 -6q-44 -96 -96 -152.5t-100 -56.5q-54 0 -151.5 48t-139.5 48zM852 82l240 133l6 -10q-31 -25 -87.5 -85.5
t-99.5 -98t-71 -37.5q-10 0 -17 2t-18.5 13t-20.5 31.5t-20.5 60.5t-22.5 97q-78 -95 -154.5 -150.5t-109.5 -57.5q-62 -2 -113.5 13t-96 52t-70 107.5t-25.5 169.5v682l-184 53v12h299v-65l-2 -682q0 -123 64.5 -186.5t158.5 -63.5q105 0 229 168v764l-184 53v12h299v-987z
" />
    <glyph glyph-name="Umacron" unicode="&#x16a;" horiz-adv-x="1241" 
d="M307 1614h617v-66h-617v66zM1065 78l2 2l184 -68v-12h-309v160q-95 -70 -199 -125t-141 -55q-198 0 -308 104.5t-110 312.5v906l-184 67v12h307v-964q0 -95 26.5 -164t73.5 -107t103 -55.5t123 -17.5q51 0 94.5 9t83 29.5t65 38t66.5 48.5v1104l-184 67v12h307v-1304z
" />
    <glyph glyph-name="umacron" unicode="&#x16b;" horiz-adv-x="1062" 
d="M188 1290h617v-61h-617v61zM852 82l240 133l6 -10q-31 -25 -87.5 -85.5t-99.5 -98t-71 -37.5q-10 0 -17 2t-18.5 13t-20.5 31.5t-20.5 60.5t-22.5 97q-78 -95 -154.5 -150.5t-109.5 -57.5q-62 -2 -113.5 13t-96 52t-70 107.5t-25.5 169.5v682l-184 53v12h299v-65l-2 -682
q0 -123 64.5 -186.5t158.5 -63.5q105 0 229 168v764l-184 53v12h299v-987z" />
    <glyph glyph-name="Ubreve" unicode="&#x16c;" horiz-adv-x="1241" 
d="M616 1489q-93 0 -158 62.5t-65 166.5h15q0 -51 64 -81.5t144 -30.5t144.5 30.5t64.5 81.5h15q0 -104 -65.5 -166.5t-158.5 -62.5zM1065 78l2 2l184 -68v-12h-309v160q-95 -70 -199 -125t-141 -55q-198 0 -308 104.5t-110 312.5v906l-184 67v12h307v-964q0 -95 26.5 -164
t73.5 -107t103 -55.5t123 -17.5q51 0 94.5 9t83 29.5t65 38t66.5 48.5v1104l-184 67v12h307v-1304z" />
    <glyph glyph-name="ubreve" unicode="&#x16d;" horiz-adv-x="1062" 
d="M498 1182q-93 0 -158.5 94t-65.5 248h15q0 -107 64.5 -171.5t144.5 -64.5t144.5 64.5t64.5 171.5h14q0 -155 -65 -248.5t-158 -93.5zM852 82l240 133l6 -10q-31 -25 -87.5 -85.5t-99.5 -98t-71 -37.5q-10 0 -17 2t-18.5 13t-20.5 31.5t-20.5 60.5t-22.5 97
q-78 -95 -154.5 -150.5t-109.5 -57.5q-62 -2 -113.5 13t-96 52t-70 107.5t-25.5 169.5v682l-184 53v12h299v-65l-2 -682q0 -123 64.5 -186.5t158.5 -63.5q105 0 229 168v764l-184 53v12h299v-987z" />
    <glyph glyph-name="Uring" unicode="&#x16e;" horiz-adv-x="1241" 
d="M616 1423q-81 0 -136.5 56.5t-55.5 136.5t55.5 136t136.5 56q80 0 136.5 -56.5t56.5 -135.5q0 -80 -56.5 -136.5t-136.5 -56.5zM616 1774q-64 0 -108.5 -46t-44.5 -112t44.5 -112t108.5 -46t109 46t45 112t-45 112t-109 46zM1065 78l2 2l184 -68v-12h-309v160
q-95 -70 -199 -125t-141 -55q-198 0 -308 104.5t-110 312.5v906l-184 67v12h307v-964q0 -95 26.5 -164t73.5 -107t103 -55.5t123 -17.5q51 0 94.5 9t83 29.5t65 38t66.5 48.5v1104l-184 67v12h307v-1304z" />
    <glyph glyph-name="uring" unicode="&#x16f;" horiz-adv-x="1062" 
d="M498 1178q-81 0 -137 56t-56 136t56 136.5t137 56.5q79 0 135.5 -56.5t56.5 -136.5t-56 -136t-136 -56zM498 1528q-64 0 -109 -46t-45 -112t45 -112t109 -46t108.5 46t44.5 112t-44.5 112t-108.5 46zM852 82l240 133l6 -10q-31 -25 -87.5 -85.5t-99.5 -98t-71 -37.5
q-10 0 -17 2t-18.5 13t-20.5 31.5t-20.5 60.5t-22.5 97q-78 -95 -154.5 -150.5t-109.5 -57.5q-62 -2 -113.5 13t-96 52t-70 107.5t-25.5 169.5v682l-184 53v12h299v-65l-2 -682q0 -123 64.5 -186.5t158.5 -63.5q105 0 229 168v764l-184 53v12h299v-987z" />
    <glyph glyph-name="Uhungarumlaut" unicode="&#x170;" horiz-adv-x="1241" 
d="M752 1765v-12l-269 -307h-10l152 319h127zM997 1753l-268 -307h-10l151 319h127v-12zM1065 78l2 2l184 -68v-12h-309v160q-95 -70 -199 -125t-141 -55q-198 0 -308 104.5t-110 312.5v906l-184 67v12h307v-964q0 -95 26.5 -164t73.5 -107t103 -55.5t123 -17.5q51 0 94.5 9
t83 29.5t65 38t66.5 48.5v1104l-184 67v12h307v-1304z" />
    <glyph glyph-name="uhungarumlaut" unicode="&#x171;" horiz-adv-x="1062" 
d="M637 1536v-12l-248 -359h-10l151 371h107zM842 1524l-248 -359h-10l151 371h107v-12zM852 82l240 133l6 -10q-31 -25 -87.5 -85.5t-99.5 -98t-71 -37.5q-10 0 -17 2t-18.5 13t-20.5 31.5t-20.5 60.5t-22.5 97q-78 -95 -154.5 -150.5t-109.5 -57.5q-62 -2 -113.5 13
t-96 52t-70 107.5t-25.5 169.5v682l-184 53v12h299v-65l-2 -682q0 -123 64.5 -186.5t158.5 -63.5q105 0 229 168v764l-184 53v12h299v-987z" />
    <glyph glyph-name="Uogonek" unicode="&#x172;" horiz-adv-x="1241" 
d="M1065 78l2 2l184 -68v-12h-286q-103 -112 -145 -243q-41 -130 14 -181q27 -25 73 -25q60 0 137 66l9 -6q-65 -56 -119 -88.5t-76 -32.5q-16 0 -33 2.5t-38.5 12t-38 24.5t-28 42.5t-11.5 63.5q0 77 56.5 160t176.5 205v160q-95 -70 -199 -125t-141 -55q-198 0 -308 104.5
t-110 312.5v906l-184 67v12h307v-964q0 -95 26.5 -164t73.5 -107t103 -55.5t123 -17.5q51 0 94.5 9t83 29.5t65 38t66.5 48.5v1104l-184 67v12h307v-1304z" />
    <glyph glyph-name="uogonek" unicode="&#x173;" horiz-adv-x="1062" 
d="M1092 215l6 -10q-34 -27 -107 -104t-104 -99q-107 -106 -158 -241q-50 -134 -5 -195q28 -35 83 -35q60 0 137 66l8 -7q-65 -56 -118.5 -88t-75.5 -32q-21 0 -43 5.5t-48 19t-42.5 44.5t-16.5 76q0 77 57 159.5t181 209.5h-6q-10 0 -17 2t-18.5 13t-20.5 31.5t-20.5 60.5
t-22.5 97q-78 -95 -154.5 -150.5t-109.5 -57.5q-62 -2 -113.5 13t-96 52t-70 107.5t-25.5 169.5v682l-184 53v12h299v-65l-2 -682q0 -123 64.5 -186.5t158.5 -63.5q105 0 229 168v764l-184 53v12h299v-987z" />
    <glyph glyph-name="Wcircumflex" unicode="&#x174;" horiz-adv-x="1357" 
d="M944 1464l-235 156h-7l-231 -156v13l238 284h6l229 -284v-13zM1032 1370v12h305v-12l-395 -1397h-10l-236 820h-12l-233 -820h-11l-420 1397v12h318v-12l-176 -63l315 -1053h12l152 555q8 28 13 48.5t6.5 40t3 32t-4.5 26t-9.5 21t-18 18t-23.5 15.5t-32.5 15t-39 15
t-49.5 17v12h451v-12l-180 -66l209 -737h12l225 815q18 65 18 112t-4.5 73.5t-40 50.5t-53.5 31.5t-79 28.5l-3 1.5t-3 1t-3.5 1t-3.5 1.5z" />
    <glyph glyph-name="wcircumflex" unicode="&#x175;" horiz-adv-x="1341" 
d="M897 1149l-215 225h-6l-211 -225v12l217 387h6l209 -387v-12zM1044 1057v12h287v-12l-366 -1114h-9l-278 858h-12l-283 -858h-8l-365 1114v12h338v-12l-196 -53h-2l264 -811h12l145 450q26 81 39 128t21 96t1.5 75t-25.5 51t-53 39t-87 25v12h455v-12l-189 -51l-2 -2
l264 -811h13l149 450q22 67 36 112.5t21 86t9.5 65t-7.5 47.5t-19.5 34.5t-36.5 25.5t-49 21.5t-67 21.5z" />
    <glyph glyph-name="Ycircumflex" unicode="&#x176;" horiz-adv-x="995" 
d="M745 1464l-235 156h-6l-232 -156v13l238 284h6l229 -284v-13zM985 1382v-12l-424 -807v-489l178 -62v-12h-479v12l178 62v495l-428 801v12h342v-12l-172 -65l355 -680h14l180 348q31 60 49 97.5t34.5 77.5t22 63.5t5 48t-11 38.5t-30.5 28.5t-48.5 24.5t-69.5 19v12h305z
" />
    <glyph glyph-name="ycircumflex" unicode="&#x177;" horiz-adv-x="823" 
d="M643 1149l-215 225h-6l-211 -225v12l217 387h6l209 -387v-12zM520 1069h293v-12l-80 -221l-467 -1348h-145v12l266 471l-387 1086v12h336v-12l-197 -53l297 -838h13l172 477q24 66 39.5 112t23.5 86.5t11 65t-6 47.5t-18 34.5t-36 25.5t-49 21.5t-66 21.5v12z" />
    <glyph glyph-name="Ydieresis" unicode="&#x178;" horiz-adv-x="995" 
d="M332 1559q-31 0 -52.5 21.5t-21.5 53.5q0 30 22 52t52 22t52 -22t22 -52q0 -32 -21.5 -53.5t-52.5 -21.5zM688 1559q-31 0 -52.5 21.5t-21.5 53.5q0 30 22 52t52 22t52 -22t22 -52q0 -32 -21.5 -53.5t-52.5 -21.5zM985 1382v-12l-424 -807v-489l178 -62v-12h-479v12
l178 62v495l-428 801v12h342v-12l-172 -65l355 -680h14l180 348q31 60 49 97.5t34.5 77.5t22 63.5t5 48t-11 38.5t-30.5 28.5t-48.5 24.5t-69.5 19v12h305z" />
    <glyph glyph-name="Zacute" unicode="&#x179;" horiz-adv-x="1030" 
d="M807 1759v-12l-279 -297h-14l133 309h160zM946 424h12v-424h-886v12l727 1334h-441h-45t-34.5 -6t-27 -9t-21.5 -22t-19.5 -31.5t-18.5 -50.5t-20.5 -66t-24.5 -90q-10 -42 -30 -113h-13v424h844v-12l-715 -1333h472q78 0 102 13q33 18 59 93q14 40 49 168q4 15 31 113z
" />
    <glyph glyph-name="zacute" unicode="&#x17a;" horiz-adv-x="864" 
d="M745 1536v-12l-313 -359h-14l194 371h133zM807 1069v-12l-594 -1018h270q153 0 196.5 56t85.5 261q14 69 23 109h13l2 -461l-6 -4h-729v12l594 1020h-263q-43 0 -76.5 -3.5t-59 -13.5t-43 -20t-31.5 -30.5t-22 -38t-16.5 -50.5t-13.5 -58.5t-14 -71t-17 -80.5h-12l-2 399
l6 4h709z" />
    <glyph glyph-name="Zdotaccent" unicode="&#x17b;" horiz-adv-x="1030" 
d="M518 1522q-31 0 -52.5 21.5t-21.5 53.5q0 30 22 52t52 22t52 -22t22 -52q0 -32 -21.5 -53.5t-52.5 -21.5zM946 424h12v-424h-886v12l727 1334h-441h-45t-34.5 -6t-27 -9t-21.5 -22t-19.5 -31.5t-18.5 -50.5t-20.5 -66t-24.5 -90q-10 -42 -30 -113h-13v424h844v-12
l-715 -1333h472q78 0 102 13q33 18 59 93q14 40 49 168q4 15 31 113z" />
    <glyph glyph-name="zdotaccent" unicode="&#x17c;" horiz-adv-x="864" 
d="M432 1208q-31 0 -52.5 22t-21.5 54q0 30 22 52t52 22t52 -22t22 -52q0 -32 -21.5 -54t-52.5 -22zM807 1069v-12l-594 -1018h270q153 0 196.5 56t85.5 261q14 69 23 109h13l2 -461l-6 -4h-729v12l594 1020h-263q-43 0 -76.5 -3.5t-59 -13.5t-43 -20t-31.5 -30.5t-22 -38
t-16.5 -50.5t-13.5 -58.5t-14 -71t-17 -80.5h-12l-2 399l6 4h709z" />
    <glyph glyph-name="Zcaron" unicode="&#x17d;" horiz-adv-x="1030" 
d="M754 1763l-230 -284h-6l-237 284v13l231 -156h6l236 156v-13zM946 424h12v-424h-886v12l727 1334h-441h-45t-34.5 -6t-27 -9t-21.5 -22t-19.5 -31.5t-18.5 -50.5t-20.5 -66t-24.5 -90q-10 -42 -30 -113h-13v424h844v-12l-715 -1333h472q78 0 102 13q33 18 59 93
q14 40 49 168q4 15 31 113z" />
    <glyph glyph-name="zcaron" unicode="&#x17e;" horiz-adv-x="864" 
d="M647 1544l-209 -387h-6l-217 387v12l211 -225h6l215 225v-12zM807 1069v-12l-594 -1018h270q153 0 196.5 56t85.5 261q14 69 23 109h13l2 -461l-6 -4h-729v12l594 1020h-263q-43 0 -76.5 -3.5t-59 -13.5t-43 -20t-31.5 -30.5t-22 -38t-16.5 -50.5t-13.5 -58.5t-14 -71
t-17 -80.5h-12l-2 399l6 4h709z" />
    <glyph glyph-name="uni018F" unicode="&#x18f;" horiz-adv-x="1118" 
d="M422 1384q316 0 480.5 -168t164.5 -489q0 -109 -26.5 -207.5t-70 -171.5t-99.5 -135t-114 -103.5t-114 -70.5t-99.5 -42t-70.5 -13q-187 0 -288 116.5t-101 333.5q0 30 69 77.5t93 47.5h733q4 62 4 94q0 290 -176.5 463.5t-472.5 173.5q-130 0 -254 -73l-10 14
q101 64 212.5 108.5t139.5 44.5zM555 74q174 0 283.5 120t136.5 328h-766q-4 -216 87 -332t259 -116z" />
    <glyph glyph-name="uni019D" unicode="&#x19d;" horiz-adv-x="1251" 
d="M1067 985v-905l184 -68v-12h-307v965q0 344 -305 344q-28 0 -54.5 -3.5t-45.5 -7t-44.5 -14.5t-37.5 -15.5t-38 -21t-32.5 -20.5t-36 -25t-33.5 -24v-953q0 -112 -24 -211.5t-56.5 -165.5t-84.5 -131t-88.5 -98t-89.5 -77t-68 -58l-8 16q41 38 75 75.5t77.5 104.5t73 140
t50.5 179.5t21 225.5v1078l-185 67v12h307v-165q92 71 202.5 128.5t150.5 57.5q397 0 397 -418z" />
    <glyph glyph-name="Gcaron" unicode="&#x1e6;" horiz-adv-x="1161" 
d="M868 1763l-229 -284h-6l-238 284v13l232 -156h6l235 156v-13zM459 664v12l579 2l13 -12l-9 -695h-12l-51 160h-4q-68 -48 -188 -99.5t-164 -51.5q-160 0 -291 91t-206 250.5t-75 354.5q0 116 28 218t72.5 174t101.5 131t114 96t111.5 62.5t92 35.5t56.5 10
q163 0 278.5 -60t153.5 -145l-94 -246h-13q20 80 -2.5 149t-75 114t-127 70.5t-157.5 25.5q-29 0 -60 -4t-75 -18t-83 -36.5t-79.5 -64t-69 -96t-47 -137.5t-18.5 -183q0 -197 65.5 -356t189.5 -252.5t285 -93.5q75 0 124.5 14t105.5 47v475z" />
    <glyph glyph-name="gcaron" unicode="&#x1e7;" horiz-adv-x="993" 
d="M707 1544l-209 -387h-6l-218 387v12l211 -225h7l215 225v-12zM1059 1069v-63q-139 0 -373 43l-2 -5q152 -98 152 -280q0 -85 -39 -164t-94.5 -129.5t-111.5 -80.5t-95 -30q-127 0 -215 52q-6 -7 -27.5 -29.5t-29 -30.5t-22.5 -26.5t-21 -30t-11.5 -26.5t-5.5 -29
q0 -53 38.5 -87.5t119.5 -41.5l342 -31q7 -1 23 -2q38 -3 59.5 -6t60 -10.5t61.5 -20.5t48 -33.5t37 -52.5t12 -74q0 -15 -2 -35.5t-13 -62t-29.5 -79.5t-57 -81.5t-89.5 -75t-132 -52.5t-181 -21q-119 0 -221 30.5t-166 90.5t-64 137q0 15 42 53q1 1 253 219
q-115 10 -191.5 58t-76.5 135q0 7 29.5 36t85.5 85.5t102 109.5q-123 89 -123 268q0 69 26 134t66 112.5t86.5 83.5t89.5 54t74 18q224 -29 367 -29h219zM745 692q0 139 -87.5 229.5t-219.5 90.5q-92 0 -155.5 -61t-63.5 -189q0 -136 85 -227t206 -91q104 0 169.5 59.5
t65.5 188.5zM922 -203q0 41 -24 73t-59 51t-89 32.5t-98 19.5t-103 11l-203 16q-199 -143 -199 -231q0 -83 109.5 -143t288.5 -60q171 0 274 68.5t103 162.5z" />
    <glyph glyph-name="uni01EA" unicode="&#x1ea;" horiz-adv-x="1173" 
d="M743 20q-106 -106 -156 -241q-50 -134 -3 -194q27 -34 82 -34q60 0 137 66l8 -6q-65 -56 -119 -88.5t-76 -32.5q-16 0 -33 2.5t-38.5 12t-38 24.5t-28 42.5t-11.5 63.5q0 76 57.5 160.5t177.5 206.5q-61 -22 -100 -22q-133 0 -240 60.5t-173.5 161.5t-102 226t-35.5 260
q0 107 22 203.5t58.5 166.5t84 129t97.5 98t99.5 65.5t89.5 38.5t69 12q107 0 198 -39.5t155 -108t109.5 -159t67 -192.5t21.5 -210q0 -111 -24 -210.5t-62 -170.5t-89.5 -131t-101 -97t-102.5 -63zM135 774q0 -186 63 -343.5t181.5 -254t267.5 -96.5q61 0 115.5 16
t105.5 55t87.5 98t58.5 150.5t22 206.5q0 186 -63 343.5t-181.5 254t-267.5 96.5q-61 0 -115.5 -16t-105.5 -55t-87.5 -98t-58.5 -150.5t-22 -206.5z" />
    <glyph glyph-name="uni01EB" unicode="&#x1eb;" horiz-adv-x="899" 
d="M582 20q-107 -108 -157 -243t-2 -194q27 -32 81 -32q60 0 137 66l8 -6q-65 -57 -118.5 -89t-75.5 -32q-21 0 -43 5.5t-48 19t-42.5 44.5t-16.5 76q0 76 56.5 159t175.5 204q-47 -18 -76 -18q-82 0 -154.5 30.5t-130 90t-91.5 158t-34 224.5q0 110 22 204t57.5 157.5
t78 112.5t87 76t80.5 40.5t62 13.5q82 0 154.5 -30.5t130 -90t91.5 -158t34 -224.5q0 -116 -24 -214t-65 -165t-84.5 -111.5t-92.5 -73.5zM131 604q0 -233 107 -381.5t274 -148.5q31 0 63 9.5t67.5 36t62.5 68t45 113t18 162.5q0 233 -107 381.5t-274 148.5q-31 0 -63 -9.5
t-67.5 -36t-62.5 -68t-45 -113t-18 -162.5z" />
    <glyph glyph-name="Aringacute" unicode="&#x1fa;" horiz-adv-x="1046" 
d="M510 1423q-81 0 -137 56.5t-56 136.5t56 136t137 56h6l127 297h160v-12l-268 -287q71 -9 119 -63t48 -127q0 -80 -56.5 -136.5t-135.5 -56.5zM510 1774q-64 0 -109 -46t-45 -112t45 -112t109 -46t109 46t45 112t-45 112t-109 46zM438 1382h142l446 -1370v-12h-332v12
l178 66l-133 409h-499l-27 -75q-22 -62 -34.5 -99t-21 -76.5t-10.5 -60.5t4.5 -45t17.5 -36.5t35 -28.5t50.5 -27t69.5 -27v-12h-304v12l449 1264l-31 94v12zM494 1208l-242 -684h475l-225 684h-8z" />
    <glyph glyph-name="aringacute" unicode="&#x1fb;" horiz-adv-x="921" 
d="M461 1178q-81 0 -137 56t-56 136t56 136.5t137 56.5l180 342h133v-13l-289 -331q71 -8 119.5 -63t48.5 -128q0 -80 -56.5 -136t-135.5 -56zM461 1528q-64 0 -109 -46t-45 -112t45 -112t109 -46t108.5 46t44.5 112t-44.5 112t-108.5 46zM731 84l240 133l6 -10
q-31 -25 -87.5 -85.5t-99.5 -98t-71 -37.5q-14 0 -23.5 5.5t-23.5 25.5t-28 69.5t-28 128.5q-92 -129 -169 -183.5t-179 -54.5q-98 0 -149 45.5t-51 118.5q0 59 33.5 120t98 122.5t129 111t156.5 111.5l136 92q0 39 -1 67t-5.5 62.5t-12.5 58.5t-22 48.5t-33.5 39.5
t-48.5 24.5t-66 9.5q-123 0 -187.5 -91t-56.5 -233l-151 -84l-6 4q36 101 85.5 186t98.5 140.5t99.5 94.5t90 56t68.5 17q64 0 113.5 -18.5t79 -48t48.5 -69.5t25.5 -79.5t5.5 -81.5l-14 -582v-135zM332 53q134 0 284 209l5 387q-216 -133 -315 -241t-99 -213
q0 -65 34.5 -103.5t90.5 -38.5z" />
    <glyph glyph-name="AEacute" unicode="&#x1fc;" horiz-adv-x="1703" 
d="M1346 1759v-12l-279 -297h-14l133 309h160zM1610 424h12v-424h-1001v12l184 68v407h-447l-45 -75q-37 -60 -59 -98t-40.5 -76.5t-25.5 -60.5t-6 -45.5t9 -36t28 -29t44 -27.5t63 -27l-4 -12h-302l5 12l780 1288v3l-184 67v12h970v-424h-12q-27 98 -31 113
q-17 62 -24.5 90t-20.5 66t-18.5 50.5t-19.5 31.5t-21.5 22t-27 9t-34.5 6h-45h-409v-627h252q33 0 55.5 7t36.5 17t25.5 34.5t18.5 45.5t21 66t27 80h12v-537h-12q-12 32 -24 71t-18.5 59.5t-16 44.5t-18.5 35t-24 22t-34.5 14.5t-48.5 3.5h-252v-645h440h36.5t30 3.5
t24.5 4.5t20 11.5t17.5 16t15 26t15 33.5t15 47t17 58t20.5 74q4 15 31 113zM805 1223l-424 -699h424v699z" />
    <glyph glyph-name="aeacute" unicode="&#x1fd;" horiz-adv-x="1411" 
d="M1010 1536v-12l-314 -359h-14l195 371h133zM1362 127l6 -6q-88 -67 -163 -104t-120 -37q-167 0 -276 71.5t-156 204.5h-6q-158 -279 -391 -279q-90 0 -139 44.5t-49 111.5q0 43 16.5 86.5t52 87.5t71.5 80.5t95.5 82.5t101 76t111 79t105.5 75q-3 163 -43.5 235.5
t-145.5 72.5q-109 0 -180 -87t-64 -237l-151 -84l-6 4q48 125 113 224.5t126.5 155.5t114 85t88.5 29q122 0 186.5 -61t79.5 -154q75 99 172.5 157t149.5 58q157 0 224 -90t67 -254q0 -24 -69 -69.5t-93 -45.5h-447q-2 -23 -2 -68q0 -228 110 -369t304 -141q61 0 106.5 16.5
t100.5 49.5zM995 1020q-105 0 -170 -91.5t-80 -256.5h478q3 164 -54.5 256t-173.5 92zM342 53q65 0 145 62.5t152 185.5q-24 103 -21 203l3 123v24q-215 -133 -311.5 -243.5t-96.5 -223.5q0 -59 35.5 -95t93.5 -36z" />
    <glyph glyph-name="Oslashacute" unicode="&#x1fe;" horiz-adv-x="1173" 
d="M877 1759v-12l-279 -297h-14l133 309h160zM1069 1382l-111 -168q80 -99 122 -236t42 -286q0 -107 -22 -203t-58.5 -166.5t-84 -129.5t-97.5 -97.5t-99.5 -65.5t-89.5 -38.5t-69 -11.5q-218 0 -362 157l-93 -137h-43l111 166q-80 99 -122 236.5t-42 285.5q0 107 22 203.5
t58.5 166.5t84 129t97.5 98t99.5 65.5t89.5 38.5t69 12q215 0 363 -158l92 139h43zM135 774q0 -144 40 -274.5t112 -227.5l575 865q-143 163 -338 163q-61 0 -115.5 -16t-105.5 -55t-87.5 -98t-58.5 -150.5t-22 -206.5zM647 80q61 0 115.5 16t105.5 55t87.5 98t58.5 150.5
t22 206.5q0 144 -39.5 274t-111.5 226l-576 -862q144 -164 338 -164z" />
    <glyph glyph-name="oslashacute" unicode="&#x1ff;" horiz-adv-x="899" 
d="M764 1536v-12l-313 -359h-15l195 371h133zM840 1069l-92 -133q100 -134 100 -352q0 -110 -22 -204t-57.5 -157.5t-78 -112.5t-87 -76t-80.5 -40.5t-62 -13.5q-180 0 -291 129l-78 -111h-33l93 133q-101 136 -101 352q0 110 22 204t57.5 157.5t78 112.5t87 76t80.5 40.5
t62 13.5q180 0 291 -126l76 108h35zM131 604q0 -218 96 -366l428 616q-107 139 -268 139q-31 0 -63 -9.5t-67.5 -36t-62.5 -68t-45 -113t-18 -162.5zM512 74q31 0 63 9.5t67.5 36t62.5 68t45 113t18 162.5q0 221 -96 366l-428 -614q107 -141 268 -141z" />
    <glyph glyph-name="uni0218" unicode="&#x218;" horiz-adv-x="1011" 
d="M485 782l52 -24q22 -11 60 -28t61 -28t57 -28t55.5 -30.5t49 -33t44.5 -37.5t35.5 -42.5t29 -49.5t17 -56.5t6.5 -66.5q0 -76 -28.5 -144.5t-83 -122t-140.5 -85t-192 -31.5q-79 0 -149.5 16.5t-141 40t-121.5 31.5l-57 515l16 2q14 -98 42.5 -178t63 -134t79.5 -95
t87.5 -64.5t91 -38t86.5 -19t79 -4.5q159 0 230 64t71 165q0 65 -25.5 116.5t-88 96t-102 65.5t-131.5 63q-23 11 -34 16l-62 29q-139 65 -190 98q-141 94 -156 240q-2 20 -2 40q0 164 114.5 259.5t276.5 95.5q99 0 187.5 -34.5t146.5 -90.5l55 123h15v-512h-12
q-113 438 -465 438q-115 0 -187.5 -54t-72.5 -155q0 -48 20 -91t47 -72.5t78 -63t87.5 -52t100.5 -49.5zM498 -166q32 0 54.5 -23.5t22.5 -54.5v-8q-5 -77 -129 -377h-55v11l144 299l-7 2q-17 -7 -30 -7q-34 0 -56 23t-22 57q0 31 22.5 54.5t55.5 23.5z" />
    <glyph glyph-name="uni0219" unicode="&#x219;" horiz-adv-x="849" 
d="M446 618l54 -26q51 -25 86 -45t75 -51t64 -62.5t40.5 -76t16.5 -95.5q0 -124 -83.5 -204.5t-239.5 -80.5q-59 0 -118 12.5t-118.5 30t-93.5 23.5l-57 438h16q21 -112 64 -197t91.5 -131t108 -74t103 -36t86.5 -8q84 0 136 45t52 123q0 82 -72 145t-219 135l-57 29
q-48 24 -80 42.5t-68.5 46.5t-58 57t-35.5 69t-14 86q0 127 89 206t228 79q63 0 130 -20t114 -62l41 65h12v-450h-16q-7 64 -24 122t-47 111t-69.5 91.5t-95.5 61.5t-122 23q-88 0 -133.5 -45t-45.5 -114q0 -46 19.5 -84t61 -71t79 -55t100.5 -53zM428 -166q32 0 55 -23.5
t23 -54.5v-8q-5 -77 -129 -377h-55v11l143 299l-6 2q-17 -7 -31 -7q-34 0 -56 23t-22 57q0 31 22.5 54.5t55.5 23.5z" />
    <glyph glyph-name="uni021A" unicode="&#x21a;" horiz-adv-x="987" 
d="M967 1382v-424h-13q-11 40 -29 107q-55 205 -84.5 243t-140.5 38h-145v-1272l178 -62v-12h-479v12l178 62v1272h-145q-43 0 -64.5 -1t-44.5 -12.5t-33.5 -25t-26 -50.5t-26.5 -77.5t-31 -116.5q-17 -66 -28 -105h-13v424h947zM500 -166q32 0 55 -23.5t23 -54.5v-8
q-5 -77 -129 -377h-56v11l144 299l-7 2q-18 -7 -30 -7q-34 0 -56 23t-22 57q0 31 22.5 54.5t55.5 23.5z" />
    <glyph glyph-name="uni021B" unicode="&#x21b;" horiz-adv-x="622" 
d="M360 -20q-78 0 -122.5 54t-44.5 156v840l-173 27v12h175l108 221h8l-4 -221h283v-68q-13 0 -55.5 5t-108 12.5t-119.5 11.5v-840q0 -65 29.5 -97t93.5 -32q37 0 73 17.5t95 71.5l8 -11q-62 -62 -139.5 -110.5t-106.5 -48.5zM313 -166q32 0 55 -23.5t23 -54.5v-8
q-5 -77 -129 -377h-55v11l143 299l-6 2q-17 -7 -31 -7q-33 0 -55 23t-22 57q0 32 22 55t55 23z" />
    <glyph glyph-name="uni0232" unicode="&#x232;" horiz-adv-x="995" 
d="M201 1614h616v-66h-616v66zM985 1382v-12l-424 -807v-489l178 -62v-12h-479v12l178 62v495l-428 801v12h342v-12l-172 -65l355 -680h14l180 348q31 60 49 97.5t34.5 77.5t22 63.5t5 48t-11 38.5t-30.5 28.5t-48.5 24.5t-69.5 19v12h305z" />
    <glyph glyph-name="uni0233" unicode="&#x233;" horiz-adv-x="823" 
d="M119 1290h616v-61h-616v61zM520 1069h293v-12l-80 -221l-467 -1348h-145v12l266 471l-387 1086v12h336v-12l-197 -53l297 -838h13l172 477q24 66 39.5 112t23.5 86.5t11 65t-6 47.5t-18 34.5t-36 25.5t-49 21.5t-66 21.5v12z" />
    <glyph glyph-name="uni0237" unicode="&#x237;" horiz-adv-x="403" 
d="M-4 1057v12h299v-65l-4 -963q0 -68 -23.5 -133.5t-58 -114.5t-83.5 -99t-90 -82.5t-88.5 -70t-68.5 -57.5l-8 16q51 45 98.5 98t96 123.5t77.5 154t29 165.5l-6 967z" />
    <glyph glyph-name="uni0259" unicode="&#x259;" horiz-adv-x="825" 
d="M326 1090q94 0 174 -33t142 -95.5t97 -163t35 -227.5q0 -92 -19 -174t-50 -141t-71 -108t-81 -80t-81.5 -53t-71 -31t-50.5 -9q-158 0 -225.5 88.5t-67.5 251.5q0 24 60.5 69.5t83.5 45.5h475v37q0 250 -114 391t-306 141q-19 0 -36 -2t-34.5 -7.5t-28 -9t-29 -13.5
t-25 -13t-27.5 -16.5t-25 -15.5l-8 14q204 154 283 154zM385 63q37 0 70.5 7.5t71.5 29.5t67 57t51 96t29 140h-506q-13 -166 50.5 -248t166.5 -82z" />
    <glyph glyph-name="uni0272" unicode="&#x272;" horiz-adv-x="1083" 
d="M924 743v-682l184 -49v-12h-483v12l184 49l2 682q0 123 -64.5 186.5t-158.5 63.5q-112 0 -238 -180v-772q0 -68 -23 -133.5t-57 -114t-82.5 -99t-89 -83t-87.5 -70.5t-68 -57l-9 16q51 45 98.5 98t96 123.5t78 154t29.5 165.5v950l-240 -133l-6 10q31 26 87.5 86t99.5 98
t71 38q14 0 23 -5.5t22.5 -25t27 -67.5t27.5 -124q81 99 159 157t111 60q62 2 113.5 -13t96.5 -52t70.5 -107.5t25.5 -169.5z" />
    <glyph glyph-name="circumflex" unicode="&#x2c6;" horiz-adv-x="636" 
d="M102 1157v12l217 387h7l209 -387v-12l-216 225h-6z" />
    <glyph glyph-name="caron" unicode="&#x2c7;" horiz-adv-x="636" 
d="M319 1141l-217 387v12l211 -225h6l216 225v-12l-209 -387h-7z" />
    <glyph glyph-name="breve" unicode="&#x2d8;" horiz-adv-x="692" 
d="M555 1524h14q0 -155 -65 -248.5t-158 -93.5t-158 93.5t-65 248.5h14q0 -107 64.5 -171.5t144.5 -64.5t144.5 64.5t64.5 171.5z" />
    <glyph glyph-name="dotaccent" unicode="&#x2d9;" horiz-adv-x="442" 
d="M221 1249q-31 0 -52.5 22t-21.5 54q0 30 22 52t52 22t52 -22t22 -52q0 -32 -21.5 -54t-52.5 -22z" />
    <glyph glyph-name="ring" unicode="&#x2da;" horiz-adv-x="630" 
d="M315 1178q-81 0 -136.5 56t-55.5 136t55.5 136.5t136.5 56.5q79 0 136 -56.5t57 -136.5q0 -79 -56.5 -135.5t-136.5 -56.5zM315 1212q64 0 109 46t45 112t-45 112t-109 46t-108.5 -46t-44.5 -112t44.5 -112t108.5 -46z" />
    <glyph glyph-name="ogonek" unicode="&#x2db;" horiz-adv-x="512" 
d="M379 16l20 -2q-107 -106 -158 -241q-50 -134 -5 -195q28 -35 83 -35q61 0 138 66l8 -6q-65 -56 -119 -88.5t-76 -32.5q-16 0 -33 2.5t-38.5 12t-38 24.5t-28 42.5t-11.5 63.5q0 80 61.5 167t196.5 222z" />
    <glyph glyph-name="tilde" unicode="&#x2dc;" horiz-adv-x="847" 
d="M748 1432l8 -7q-44 -95 -96 -151.5t-101 -56.5q-54 0 -151.5 48t-139.5 48q-20 0 -34.5 -3t-37.5 -13t-47 -35.5t-49 -65.5l-8 6q46 95 97.5 151t99.5 56q50 0 143.5 -48t142.5 -48q17 0 27 1t30 7t36 17.5t37.5 35.5t42.5 58z" />
    <glyph glyph-name="hungarumlaut" unicode="&#x2dd;" horiz-adv-x="667" 
d="M254 1536h106v-12l-247 -359h-11zM459 1536h106v-12l-248 -359h-10z" />
    <glyph glyph-name="gravecomb" unicode="&#x300;" 
d="M-430 1524v12h133l195 -371h-15z" />
    <glyph glyph-name="acutecomb" unicode="&#x301;" 
d="M-215 1536h133v-12l-313 -359h-15z" />
    <glyph glyph-name="uni0302" unicode="&#x302;" 
d="M-535 1149v12l218 387h6l209 -387v-12l-215 225h-7z" />
    <glyph glyph-name="tildecomb" unicode="&#x303;" 
d="M-100 1444l8 -6q-44 -96 -96 -152.5t-101 -56.5q-54 0 -151.5 48t-139.5 48q-20 0 -34.5 -3t-37.5 -13t-47 -35.5t-49 -65.5l-8 6q46 95 97.5 151t99.5 56q50 0 144 -48t143 -48q22 0 35.5 2.5t37.5 12t49 36t50 68.5z" />
    <glyph glyph-name="uni0304" unicode="&#x304;" 
d="M-739 1229v61h616v-61h-616z" />
    <glyph glyph-name="uni0306" unicode="&#x306;" 
d="M-137 1524h14q0 -155 -65 -248.5t-158 -93.5t-158 93.5t-65 248.5h14q0 -107 64.5 -171.5t144.5 -64.5t144.5 64.5t64.5 171.5z" />
    <glyph glyph-name="uni0307" unicode="&#x307;" 
d="M-221 1208q-31 0 -52.5 22t-21.5 54q0 30 22 52t52 22t52 -22t22 -52q0 -32 -21.5 -54t-52.5 -22z" />
    <glyph glyph-name="uni0308" unicode="&#x308;" 
d="M-578 1245q-31 0 -52 22t-21 54q0 30 21.5 52t51.5 22t52 -22t22 -52q0 -32 -21.5 -54t-52.5 -22zM-221 1245q-31 0 -52.5 22t-21.5 54q0 30 22 52t52 22t52 -22t22 -52q0 -32 -21.5 -54t-52.5 -22z" />
    <glyph glyph-name="uni030A" unicode="&#x30a;" 
d="M-315 1178q-81 0 -137 56t-56 136t56 136.5t137 56.5q79 0 135.5 -56.5t56.5 -136.5t-56.5 -136t-135.5 -56zM-315 1212q64 0 108.5 46t44.5 112t-44.5 112t-108.5 46t-109 -46t-45 -112t45 -112t109 -46z" />
    <glyph glyph-name="uni030B" unicode="&#x30b;" 
d="M-414 1536h107v-12l-248 -359h-10zM-209 1536h107v-12l-248 -359h-10z" />
    <glyph glyph-name="uni030C" unicode="&#x30c;" 
d="M-317 1157l-218 387v12l211 -225h7l215 225v-12l-209 -387h-6z" />
    <glyph glyph-name="uni0312" unicode="&#x312;" 
d="M-188 1757h65v-12l-170 -356l6 -3l-2 -2q18 9 39 9q40 0 67 -27.5t27 -67.5q0 -37 -27.5 -64.5t-66.5 -27.5q-38 0 -65 27.5t-27 64.5v9q2 28 6 51t40.5 127t107.5 272z" />
    <glyph glyph-name="dotbelowcomb" unicode="&#x323;" 
d="M-221 -311q-31 0 -52.5 21.5t-21.5 53.5q0 30 22 52t52 22t52 -22t22 -52q0 -32 -21.5 -53.5t-52.5 -21.5z" />
    <glyph glyph-name="uni0326" unicode="&#x326;" 
d="M-147 -244v-8q-5 -77 -129 -377h-56v11l144 299l-7 2q-17 -7 -30 -7q-34 0 -56 23t-22 57q0 31 22.5 54.5t55.5 23.5q32 0 55 -23.5t23 -54.5z" />
    <glyph glyph-name="uni0327" unicode="&#x327;" 
d="M-350 -219l137 235h27l-82 -147q79 -18 127.5 -62.5t48.5 -107.5q0 -70 -63 -130.5t-183 -94.5l-2 10q158 50 158 158q0 56 -44.5 88.5t-121.5 38.5z" />
    <glyph glyph-name="uni0328" unicode="&#x328;" 
d="M-133 4l20 -2q-107 -106 -158 -241q-50 -134 -5 -195q28 -35 83 -35q61 0 138 66l8 -7q-65 -56 -119 -88t-76 -32q-16 0 -33 2.5t-38.5 12t-38 24.5t-28 42.5t-11.5 63.5q0 80 61.5 167t196.5 222z" />
    <glyph glyph-name="uni0394" unicode="&#x394;" horiz-adv-x="1048" 
d="M594 1421l27 -116l387 -1293v-12h-967v12l401 1342l140 67h12zM473 1300l-356 -1196h725l-363 1196h-6z" />
    <glyph glyph-name="uni03A9" unicode="&#x3a9;" horiz-adv-x="1269" 
d="M770 104h231q81 0 112 44t61 174h12v-322h-457v287q159 34 252.5 182.5t93.5 361.5q0 230 -120.5 379.5t-313.5 149.5q-194 0 -315 -149.5t-121 -379.5q0 -207 88 -352.5t242 -187.5v-291h-457v322h10q29 -130 62.5 -174t113.5 -44h232v154q-197 46 -312.5 195
t-115.5 358q0 166 72 299.5t203.5 210t297.5 76.5q250 0 410.5 -167t160.5 -419q0 -213 -121 -365.5t-321 -193.5v-148z" />
    <glyph glyph-name="uni03BC" unicode="&#x3bc;" horiz-adv-x="1062" 
d="M852 82l240 133l6 -10q-31 -25 -87.5 -85.5t-99.5 -98t-71 -37.5q-10 0 -17 2t-18.5 13t-20.5 31.5t-20.5 60.5t-22.5 97q-78 -95 -154.5 -150.5t-109.5 -57.5q-211 -7 -278 170l96 -648v-14h-123v1516l-184 53v12h299v-65l-2 -682q0 -123 64.5 -186.5t158.5 -63.5
q105 0 229 168v764l-184 53v12h299v-987z" />
    <glyph glyph-name="pi" unicode="&#x3c0;" horiz-adv-x="987" 
d="M745 84l240 133l6 -10q-31 -25 -87.5 -85.5t-99.5 -98t-71 -37.5q-14 0 -23.5 5.5t-23.5 25.5t-27.5 70.5t-27.5 129.5v748h-262q-1 -218 -13.5 -372t-39.5 -265t-59.5 -184t-84.5 -156l-131 92l2 8q127 101 208 353.5t91 523.5h-57q-136 2 -297 -170l-15 8
q11 14 38.5 54t52.5 71.5t59 66t75.5 54t86.5 20.5h692v-104h-232v-881z" />
    <glyph glyph-name="Wgrave" unicode="&#x1e80;" horiz-adv-x="1357" 
d="M590 1759l133 -309h-14l-279 297v12h160zM1032 1370v12h305v-12l-395 -1397h-10l-236 820h-12l-233 -820h-11l-420 1397v12h318v-12l-176 -63l315 -1053h12l152 555q8 28 13 48.5t6.5 40t3 32t-4.5 26t-9.5 21t-18 18t-23.5 15.5t-32.5 15t-39 15t-49.5 17v12h451v-12
l-180 -66l209 -737h12l225 815q18 65 18 112t-4.5 73.5t-40 50.5t-53.5 31.5t-79 28.5l-3 1.5t-3 1t-3.5 1t-3.5 1.5z" />
    <glyph glyph-name="wgrave" unicode="&#x1e81;" horiz-adv-x="1341" 
d="M496 1536l194 -371h-14l-314 359v12h134zM1044 1057v12h287v-12l-366 -1114h-9l-278 858h-12l-283 -858h-8l-365 1114v12h338v-12l-196 -53h-2l264 -811h12l145 450q26 81 39 128t21 96t1.5 75t-25.5 51t-53 39t-87 25v12h455v-12l-189 -51l-2 -2l264 -811h13l149 450
q22 67 36 112.5t21 86t9.5 65t-7.5 47.5t-19.5 34.5t-36.5 25.5t-49 21.5t-67 21.5z" />
    <glyph glyph-name="Wacute" unicode="&#x1e82;" horiz-adv-x="1357" 
d="M997 1759v-12l-278 -297h-14l133 309h159zM1032 1370v12h305v-12l-395 -1397h-10l-236 820h-12l-233 -820h-11l-420 1397v12h318v-12l-176 -63l315 -1053h12l152 555q8 28 13 48.5t6.5 40t3 32t-4.5 26t-9.5 21t-18 18t-23.5 15.5t-32.5 15t-39 15t-49.5 17v12h451v-12
l-180 -66l209 -737h12l225 815q18 65 18 112t-4.5 73.5t-40 50.5t-53.5 31.5t-79 28.5l-3 1.5t-3 1t-3.5 1t-3.5 1.5z" />
    <glyph glyph-name="wacute" unicode="&#x1e83;" horiz-adv-x="1341" 
d="M995 1536v-12l-313 -359h-14l194 371h133zM1044 1057v12h287v-12l-366 -1114h-9l-278 858h-12l-283 -858h-8l-365 1114v12h338v-12l-196 -53h-2l264 -811h12l145 450q26 81 39 128t21 96t1.5 75t-25.5 51t-53 39t-87 25v12h455v-12l-189 -51l-2 -2l264 -811h13l149 450
q22 67 36 112.5t21 86t9.5 65t-7.5 47.5t-19.5 34.5t-36.5 25.5t-49 21.5t-67 21.5z" />
    <glyph glyph-name="Wdieresis" unicode="&#x1e84;" horiz-adv-x="1357" 
d="M530 1559q-31 0 -52 21.5t-21 53.5q0 30 21.5 52t51.5 22t52 -22t22 -52q0 -32 -21.5 -53.5t-52.5 -21.5zM887 1559q-31 0 -52.5 21.5t-21.5 53.5q0 30 22 52t52 22t52 -22t22 -52q0 -32 -21.5 -53.5t-52.5 -21.5zM1032 1370v12h305v-12l-395 -1397h-10l-236 820h-12
l-233 -820h-11l-420 1397v12h318v-12l-176 -63l315 -1053h12l152 555q8 28 13 48.5t6.5 40t3 32t-4.5 26t-9.5 21t-18 18t-23.5 15.5t-32.5 15t-39 15t-49.5 17v12h451v-12l-180 -66l209 -737h12l225 815q18 65 18 112t-4.5 73.5t-40 50.5t-53.5 31.5t-79 28.5l-3 1.5t-3 1
t-3.5 1t-3.5 1.5z" />
    <glyph glyph-name="wdieresis" unicode="&#x1e85;" horiz-adv-x="1341" 
d="M504 1245q-31 0 -52.5 22t-21.5 54q0 30 22 52t52 22t52 -22t22 -52q0 -32 -21.5 -54t-52.5 -22zM860 1245q-31 0 -52.5 22t-21.5 54q0 30 22 52t52 22t52 -22t22 -52q0 -32 -21.5 -54t-52.5 -22zM1044 1057v12h287v-12l-366 -1114h-9l-278 858h-12l-283 -858h-8
l-365 1114v12h338v-12l-196 -53h-2l264 -811h12l145 450q26 81 39 128t21 96t1.5 75t-25.5 51t-53 39t-87 25v12h455v-12l-189 -51l-2 -2l264 -811h13l149 450q22 67 36 112.5t21 86t9.5 65t-7.5 47.5t-19.5 34.5t-36.5 25.5t-49 21.5t-67 21.5z" />
    <glyph glyph-name="uni1E9E" unicode="&#x1e9e;" horiz-adv-x="1214" 
d="M831 936q0 -49 24 -97t59.5 -85.5t77.5 -84.5t77.5 -92t59.5 -111t24 -140q0 -133 -98 -241t-226 -108q-64 0 -116 11.5t-123.5 36.5t-110.5 36l-53 519l14 2q12 -113 38.5 -203.5t63.5 -148.5t77.5 -98.5t86.5 -61t84 -29t76 -8.5q89 0 146 60.5t57 162.5
q0 62 -24 119.5t-60 100.5t-78 90.5t-78 89t-60 97t-24 113.5q0 82 47.5 153t196.5 220q-70 61 -148 96t-188 35q-77 0 -139.5 -24.5t-112 -77t-77 -143t-27.5 -214.5v-911h-307v12l184 68v831q0 135 40.5 234.5t115 157.5t170 85t215.5 27q221 0 413 -98v-6l-108 -99
q-40 -37 -60 -56t-49.5 -51.5t-43.5 -55.5t-25 -53t-11 -60z" />
    <glyph glyph-name="uni1EA0" unicode="&#x1ea0;" horiz-adv-x="1046" 
d="M438 1382h142l446 -1370v-12h-332v12l178 66l-133 409h-499l-27 -75q-22 -62 -34.5 -99t-21 -76.5t-10.5 -60.5t4.5 -45t17.5 -36.5t35 -28.5t50.5 -27t69.5 -27v-12h-304v12l449 1264l-31 94v12zM494 1208l-242 -684h475l-225 684h-8zM524 -162q30 0 52 -22t22 -52
q0 -32 -21.5 -53.5t-52.5 -21.5t-52 21.5t-21 53.5q0 30 21.5 52t51.5 22z" />
    <glyph glyph-name="uni1EA1" unicode="&#x1ea1;" horiz-adv-x="921" 
d="M731 84l240 133l6 -10q-31 -25 -87.5 -85.5t-99.5 -98t-71 -37.5q-14 0 -23.5 5.5t-23.5 25.5t-28 69.5t-28 128.5q-92 -129 -169 -183.5t-179 -54.5q-98 0 -149 45.5t-51 118.5q0 59 33.5 120t98 122.5t129 111t156.5 111.5l136 92q0 39 -1 67t-5.5 62.5t-12.5 58.5
t-22 48.5t-33.5 39.5t-48.5 24.5t-66 9.5q-123 0 -187.5 -91t-56.5 -233l-151 -84l-6 4q36 101 85.5 186t98.5 140.5t99.5 94.5t90 56t68.5 17q64 0 113.5 -18.5t79 -48t48.5 -69.5t25.5 -79.5t5.5 -81.5l-14 -582v-135zM332 53q134 0 284 209l5 387q-216 -133 -315 -241
t-99 -213q0 -65 34.5 -103.5t90.5 -38.5zM461 -162q30 0 52 -22t22 -52q0 -32 -21.5 -53.5t-52.5 -21.5t-52.5 21.5t-21.5 53.5q0 30 22 52t52 22z" />
    <glyph glyph-name="uni1EB8" unicode="&#x1eb8;" horiz-adv-x="1103" 
d="M1010 424h12v-424h-1002v12l185 68v1223l-185 67v12h971v-424h-12q-27 98 -31 113q-17 62 -24.5 90t-20.5 66t-18.5 50.5t-19.5 31.5t-21.5 22t-27 9t-34.5 6h-45h-409v-627h252q33 0 55.5 7t36.5 17t25.5 34.5t18.5 45.5t21 66t27 80h12v-537h-12q-12 32 -24 71
t-18.5 59.5t-16 44.5t-18.5 35t-24 22t-34.5 14.5t-48.5 3.5h-252v-645h440h36.5t30 3.5t24.5 4.5t20 11.5t17.5 16t15 26t15 33.5t15 47t17 58t20.5 74q4 15 31 113zM563 -162q30 0 52 -22t22 -52q0 -32 -21.5 -53.5t-52.5 -21.5t-52.5 21.5t-21.5 53.5q0 30 22 52t52 22z
" />
    <glyph glyph-name="uni1EB9" unicode="&#x1eb9;" horiz-adv-x="825" 
d="M774 147l8 -14q-202 -153 -282 -153q-94 0 -174.5 32.5t-142 95.5t-97 163t-35.5 227q0 92 19 174t50 141t71 108t81 80t81.5 53t71 31t50.5 9q158 0 225.5 -88.5t67.5 -251.5q0 -24 -60 -69.5t-83 -45.5h-475v-37q0 -250 113.5 -391t305.5 -141q19 0 36 2t34.5 7.5t28 9
t29 13.5t25 13t27.5 16.5t25 15.5zM440 1006q-47 0 -89 -13.5t-86 -47t-74 -102.5t-39 -167h505q13 166 -50.5 248t-166.5 82zM414 -162q30 0 51.5 -22t21.5 -52q0 -32 -21 -53.5t-52 -21.5t-52.5 21.5t-21.5 53.5q0 30 22 52t52 22z" />
    <glyph glyph-name="uni1EBC" unicode="&#x1ebc;" horiz-adv-x="1103" 
d="M387 1608q-93 0 -147 -113l-9 6q39 91 88.5 146t88.5 55q50 0 194 -59.5t193 -59.5q20 0 35 3t36 13t41.5 35t38.5 64l8 -6q-37 -91 -87 -147t-89 -56q-54 0 -201.5 59.5t-189.5 59.5zM1010 424h12v-424h-1002v12l185 68v1223l-185 67v12h971v-424h-12q-27 98 -31 113
q-17 62 -24.5 90t-20.5 66t-18.5 50.5t-19.5 31.5t-21.5 22t-27 9t-34.5 6h-45h-409v-627h252q33 0 55.5 7t36.5 17t25.5 34.5t18.5 45.5t21 66t27 80h12v-537h-12q-12 32 -24 71t-18.5 59.5t-16 44.5t-18.5 35t-24 22t-34.5 14.5t-48.5 3.5h-252v-645h440h36.5t30 3.5
t24.5 4.5t20 11.5t17.5 16t15 26t15 33.5t15 47t17 58t20.5 74q4 15 31 113z" />
    <glyph glyph-name="uni1EBD" unicode="&#x1ebd;" horiz-adv-x="825" 
d="M319 1325q-27 0 -47 -4.5t-54 -32.5t-66 -80l-9 6q46 95 97.5 151t99.5 56q50 0 144 -48t143 -48q22 0 35.5 2.5t37.5 12t49 36t50 68.5l8 -6q-44 -96 -96 -152.5t-101 -56.5q-54 0 -151.5 48t-139.5 48zM569 70q19 0 36 2t34.5 7.5t28 9t29 13.5t25 13t27.5 16.5
t25 15.5l8 -14q-202 -153 -282 -153q-94 0 -174.5 32.5t-142 95.5t-97 163t-35.5 227q0 92 19 174t50 141t71 108t81 80t81.5 53t71 31t50.5 9q158 0 225.5 -88.5t67.5 -251.5q0 -24 -60 -69.5t-83 -45.5h-475v-37q0 -250 113.5 -391t305.5 -141zM440 1006q-47 0 -89 -13.5
t-86 -47t-74 -102.5t-39 -167h505q13 166 -50.5 248t-166.5 82z" />
    <glyph glyph-name="uni1ECA" unicode="&#x1eca;" horiz-adv-x="520" 
d="M500 1382v-12l-178 -61v-1235l178 -62v-12h-480v12l179 62v1235l-179 61v12h480zM260 -162q30 0 52 -22t22 -52q0 -32 -21.5 -53.5t-52.5 -21.5t-52.5 21.5t-21.5 53.5q0 30 22 52t52 22z" />
    <glyph glyph-name="uni1ECB" unicode="&#x1ecb;" horiz-adv-x="544" 
d="M283 1298q-38 0 -64 26.5t-26 64.5q0 36 26 62t64 26q36 0 62 -26t26 -62q0 -38 -25.5 -64.5t-62.5 -26.5zM350 61l185 -49v-12h-484v12l185 49v943l-185 53v12h299v-1008zM291 -162q30 0 52 -22t22 -52q0 -32 -21.5 -53.5t-52.5 -21.5t-52.5 21.5t-21.5 53.5q0 30 22 52
t52 22z" />
    <glyph glyph-name="uni1ECC" unicode="&#x1ecc;" horiz-adv-x="1173" 
d="M602 -20q-133 0 -240 60.5t-173.5 161.5t-102 226t-35.5 260q0 107 22 203.5t58.5 166.5t84 129t97.5 98t99.5 65.5t89.5 38.5t69 12q107 0 198 -39.5t155 -108t109.5 -159t67 -192.5t21.5 -210q0 -107 -22 -203t-58.5 -166.5t-84 -129.5t-97.5 -97.5t-99.5 -65.5
t-89.5 -38.5t-69 -11.5zM647 80q61 0 115.5 16t105.5 55t87.5 98t58.5 150.5t22 206.5q0 186 -63 343.5t-181.5 254t-267.5 96.5q-61 0 -115.5 -16t-105.5 -55t-87.5 -98t-58.5 -150.5t-22 -206.5q0 -186 63 -343.5t181.5 -254t267.5 -96.5zM588 -311q-31 0 -52.5 21.5
t-21.5 53.5q0 30 22 52t52 22t52 -22t22 -52q0 -32 -21.5 -53.5t-52.5 -21.5z" />
    <glyph glyph-name="uni1ECD" unicode="&#x1ecd;" horiz-adv-x="899" 
d="M461 -20q-82 0 -154.5 30.5t-130 90t-91.5 158t-34 224.5q0 110 22 204t57.5 157.5t78 112.5t87 76t80.5 40.5t62 13.5q82 0 154.5 -30.5t130 -90t91.5 -158t34 -224.5q0 -110 -22 -204t-57.5 -157.5t-78 -112.5t-87 -76t-80.5 -40.5t-62 -13.5zM512 74q31 0 63 9.5
t67.5 36t62.5 68t45 113t18 162.5q0 233 -107 381.5t-274 148.5q-31 0 -63 -9.5t-67.5 -36t-62.5 -68t-45 -113t-18 -162.5q0 -233 107 -381.5t274 -148.5zM451 -311q-31 0 -52.5 21.5t-21.5 53.5q0 30 22 52t52 22t51.5 -22t21.5 -52q0 -32 -21 -53.5t-52 -21.5z" />
    <glyph glyph-name="uni1EE4" unicode="&#x1ee4;" horiz-adv-x="1241" 
d="M1065 78l2 2l184 -68v-12h-309v160q-95 -70 -199 -125t-141 -55q-198 0 -308 104.5t-110 312.5v906l-184 67v12h307v-964q0 -95 26.5 -164t73.5 -107t103 -55.5t123 -17.5q51 0 94.5 9t83 29.5t65 38t66.5 48.5v1104l-184 67v12h307v-1304zM616 -162q30 0 52 -22t22 -52
q0 -32 -21.5 -53.5t-52.5 -21.5t-52 21.5t-21 53.5q0 30 21.5 52t51.5 22z" />
    <glyph glyph-name="uni1EE5" unicode="&#x1ee5;" horiz-adv-x="1062" 
d="M852 82l240 133l6 -10q-31 -25 -87.5 -85.5t-99.5 -98t-71 -37.5q-10 0 -17 2t-18.5 13t-20.5 31.5t-20.5 60.5t-22.5 97q-78 -95 -154.5 -150.5t-109.5 -57.5q-62 -2 -113.5 13t-96 52t-70 107.5t-25.5 169.5v682l-184 53v12h299v-65l-2 -682q0 -123 64.5 -186.5
t158.5 -63.5q105 0 229 168v764l-184 53v12h299v-987zM541 -162q30 0 51.5 -22t21.5 -52q0 -32 -21 -53.5t-52 -21.5t-52.5 21.5t-21.5 53.5q0 30 22 52t52 22z" />
    <glyph glyph-name="Ygrave" unicode="&#x1ef2;" horiz-adv-x="995" 
d="M391 1759l133 -309h-14l-279 297v12h160zM985 1382v-12l-424 -807v-489l178 -62v-12h-479v12l178 62v495l-428 801v12h342v-12l-172 -65l355 -680h14l180 348q31 60 49 97.5t34.5 77.5t22 63.5t5 48t-11 38.5t-30.5 28.5t-48.5 24.5t-69.5 19v12h305z" />
    <glyph glyph-name="ygrave" unicode="&#x1ef3;" horiz-adv-x="823" 
d="M242 1536l194 -371h-14l-313 359v12h133zM520 1069h293v-12l-80 -221l-467 -1348h-145v12l266 471l-387 1086v12h336v-12l-197 -53l297 -838h13l172 477q24 66 39.5 112t23.5 86.5t11 65t-6 47.5t-18 34.5t-36 25.5t-49 21.5t-66 21.5v12z" />
    <glyph glyph-name="uni1EF8" unicode="&#x1ef8;" horiz-adv-x="995" 
d="M334 1608q-94 0 -148 -113l-8 6q39 91 88 146t88 55q50 0 194 -59.5t193 -59.5q20 0 35 3t36.5 13t42 35t38.5 64l8 -6q-37 -91 -87 -147t-89 -56q-54 0 -201.5 59.5t-189.5 59.5zM985 1382v-12l-424 -807v-489l178 -62v-12h-479v12l178 62v495l-428 801v12h342v-12
l-172 -65l355 -680h14l180 348q31 60 49 97.5t34.5 77.5t22 63.5t5 48t-11 38.5t-30.5 28.5t-48.5 24.5t-69.5 19v12h305z" />
    <glyph glyph-name="uni1EF9" unicode="&#x1ef9;" horiz-adv-x="823" 
d="M272 1325q-20 0 -34.5 -3t-37.5 -13t-47 -35.5t-49 -65.5l-8 6q46 95 97.5 151t99.5 56q50 0 144 -48t143 -48q22 0 35.5 2.5t37.5 12t49 36t50 68.5l8 -6q-44 -96 -96 -152.5t-101 -56.5q-54 0 -151.5 48t-139.5 48zM520 1069h293v-12l-80 -221l-467 -1348h-145v12
l266 471l-387 1086v12h336v-12l-197 -53l297 -838h13l172 477q24 66 39.5 112t23.5 86.5t11 65t-6 47.5t-18 34.5t-36 25.5t-49 21.5t-66 21.5v12z" />
    <glyph glyph-name="endash" unicode="&#x2013;" horiz-adv-x="1024" 
d="M0 547v37h1024v-37h-1024z" />
    <glyph glyph-name="emdash" unicode="&#x2014;" horiz-adv-x="2048" 
d="M0 547v37h2048v-37h-2048z" />
    <glyph glyph-name="quoteleft" unicode="&#x2018;" horiz-adv-x="489" 
d="M301 1397h66v-13l-170 -356l6 -2l-2 -2q16 8 39 8q40 0 67 -27t27 -67q0 -37 -27.5 -64.5t-66.5 -27.5q-38 0 -65.5 27.5t-27.5 64.5v8q2 28 6 51t41 127.5t107 272.5z" />
    <glyph glyph-name="quoteright" unicode="&#x2019;" horiz-adv-x="489" 
d="M342 1311v-8q-2 -28 -6 -51t-41 -127.5t-107 -272.5h-65v12l170 357l-6 2l2 2q-16 -8 -39 -8q-40 0 -67 27t-27 67q0 37 27.5 64.5t66.5 27.5q38 0 65 -27.5t27 -64.5z" />
    <glyph glyph-name="quotesinglbase" unicode="&#x201a;" horiz-adv-x="489" 
d="M342 90v-8q-2 -28 -6 -51t-41 -127.5t-107 -272.5h-65v13l170 356l-6 2l2 2q-16 -8 -39 -8q-40 0 -67 27t-27 67q0 37 27.5 64.5t66.5 27.5q38 0 65 -27.5t27 -64.5z" />
    <glyph glyph-name="quotedblleft" unicode="&#x201c;" horiz-adv-x="780" 
d="M147 946q2 28 6 51t41 127.5t107 272.5h66v-13l-170 -356l6 -2l-2 -2q16 8 39 8q40 0 67 -27t27 -67q0 -37 -27.5 -64.5t-66.5 -27.5q-38 0 -65.5 27.5t-27.5 64.5v8zM592 1397h65v-13l-170 -356l7 -2l-2 -2q16 8 38 8q40 0 67.5 -27t27.5 -67q0 -37 -28 -64.5t-67 -27.5
q-38 0 -65 27.5t-27 64.5v8q2 28 6 51t41 127.5t107 272.5z" />
    <glyph glyph-name="quotedblright" unicode="&#x201d;" horiz-adv-x="780" 
d="M250 1403q38 0 65 -27.5t27 -64.5v-8q-2 -28 -6 -51t-41 -127.5t-107 -272.5h-65v12l170 357l-6 2l2 2q-16 -8 -39 -8q-40 0 -67 27t-27 67q0 37 27.5 64.5t66.5 27.5zM633 1311v-8q-2 -28 -6 -51t-41 -127.5t-107 -272.5h-65v12l170 357l-6 2l2 2q-16 -8 -39 -8
q-40 0 -67.5 27t-27.5 67q0 37 28 64.5t67 27.5q38 0 65 -27.5t27 -64.5z" />
    <glyph glyph-name="quotedblbase" unicode="&#x201e;" horiz-adv-x="778" 
d="M250 182q38 0 65 -27.5t27 -64.5v-8q-2 -28 -6 -51t-41 -127.5t-107 -272.5h-65v13l170 356l-6 2l2 2q-16 -8 -39 -8q-40 0 -67 27t-27 67q0 37 27.5 64.5t66.5 27.5zM631 90v-8q-2 -28 -6 -51t-41 -127.5t-107 -272.5h-65v13l170 356l-7 2l3 2q-16 -8 -39 -8
q-40 0 -67.5 27t-27.5 67q0 37 28 64.5t67 27.5q38 0 65 -27.5t27 -64.5z" />
    <glyph glyph-name="dagger" unicode="&#x2020;" horiz-adv-x="753" 
d="M387 999l346 52v-123l-346 51l57 -279l-61 -741h-8l-62 741l54 279l-347 -51v123l347 -52l-58 385h133z" />
    <glyph glyph-name="daggerdbl" unicode="&#x2021;" horiz-adv-x="876" 
d="M449 999l346 52v-123l-346 51l57 -305l-57 -309l346 51v-123l-346 51l55 -385h-133l57 385l-346 -51v123l346 -51l-53 309l53 305l-346 -51v123l346 -52l-57 385h133z" />
    <glyph glyph-name="bullet" unicode="&#x2022;" horiz-adv-x="684" 
d="M342 371q-74 0 -126 52.5t-52 125.5t52 125.5t126 52.5t126 -52.5t52 -125.5t-52 -125.5t-126 -52.5z" />
    <glyph glyph-name="ellipsis" unicode="&#x2026;" horiz-adv-x="1505" 
d="M242 182q38 0 65 -27.5t27 -64.5q0 -40 -27 -67t-65 -27q-40 0 -67.5 27t-27.5 67q0 37 28 64.5t67 27.5zM754 182q38 0 65 -27.5t27 -64.5q0 -40 -27 -67t-65 -27q-40 0 -67.5 27t-27.5 67q0 37 28 64.5t67 27.5zM1266 182q38 0 65 -27.5t27 -64.5q0 -40 -27 -67
t-65 -27q-40 0 -67.5 27t-27.5 67q0 37 28 64.5t67 27.5z" />
    <glyph glyph-name="perthousand" unicode="&#x2030;" horiz-adv-x="2076" 
d="M326 561q-145 0 -215 110t-70 294q0 87 21 162t52 123t68 82.5t68 49.5t53 15q99 0 164.5 -54.5t93 -144.5t27.5 -215q-1 -84 -22 -156.5t-52.5 -120t-68.5 -81.5t-67.5 -49t-51.5 -15zM733 713l-14 10l321 659h84zM342 635q34 0 66 17.5t60.5 53t44.5 100.5t15 150
q0 146 -72.5 255.5t-181.5 109.5q-68 0 -121 -78t-53 -239q0 -142 71 -255.5t171 -113.5zM1135 -20q-145 0 -215 109.5t-70 293.5q0 87 21 162t52 123t68 82.5t68 49.5t53 15q99 0 164.5 -54.5t93 -144.5t27.5 -215q-1 -84 -22 -156.5t-52.5 -119.5t-68.5 -81t-67.5 -49
t-51.5 -15zM1774 -20q-145 0 -215 109.5t-70 293.5q0 87 21 162t52 123t68 82.5t68 49.5t53 15q99 0 164.5 -54.5t93 -144.5t27.5 -215q-1 -84 -22 -156.5t-52.5 -119.5t-68.5 -81t-67.5 -49t-51.5 -15zM1151 53q75 0 132 79.5t54 242.5q0 146 -72.5 255t-181.5 109
q-68 0 -121 -78t-53 -239q0 -142 71 -255.5t171 -113.5zM1790 53q34 0 66 17.5t60.5 53.5t44.5 101t15 150q0 146 -72.5 255t-181.5 109q-68 0 -121 -78t-53 -239q0 -142 71 -255.5t171 -113.5zM684 670l14 -11l-319 -659h-86z" />
    <glyph glyph-name="guilsinglleft" unicode="&#x2039;" horiz-adv-x="583" 
d="M481 31l-12 -2l-387 495v6l387 455l12 -2l-274 -453v-6z" />
    <glyph glyph-name="guilsinglright" unicode="&#x203a;" horiz-adv-x="583" 
d="M502 524l-387 -495l-13 2l275 493v6l-275 453l13 2l387 -455v-6z" />
    <glyph glyph-name="fraction" unicode="&#x2044;" horiz-adv-x="180" 
d="M104 713l-14 10l322 659h84zM55 670l15 -11l-320 -659h-86z" />
    <glyph glyph-name="uni2070" unicode="&#x2070;" horiz-adv-x="628" 
d="M326 721q-145 0 -215 109.5t-70 293.5q0 87 21 162t52 123t68 82.5t68 49.5t53 15q147 0 216 -111t69 -302q-1 -84 -22 -156.5t-52.5 -120t-68.5 -81.5t-67.5 -49t-51.5 -15zM342 795q34 0 66 17.5t60.5 53t44.5 100.5t15 150q0 146 -72.5 255.5t-181.5 109.5
q-68 0 -121 -78.5t-53 -239.5q0 -142 71 -255t171 -113z" />
    <glyph glyph-name="uni2074" unicode="&#x2074;" horiz-adv-x="591" 
d="M571 971v-31h-165v-152l108 -32v-13h-299v13l107 32v152h-302v6l320 588h96v-6l-362 -557h250v213l69 90h13v-303h165z" />
    <glyph glyph-name="uni2075" unicode="&#x2075;" horiz-adv-x="522" 
d="M469 1454l-2 -2h-311l-33 -149l113 -46q126 -49 179.5 -98.5t53.5 -126.5q0 -43 -22.5 -89t-68.5 -91.5t-131.5 -78t-195.5 -38.5v101l2 4h131q222 0 222 145q0 62 -43.5 102.5t-145.5 81.5l-143 58l69 307h207q22 0 32.5 0.5t25 3.5t22 9.5t16 18.5t15.5 31h8v-143z" />
    <glyph glyph-name="uni2076" unicode="&#x2076;" horiz-adv-x="579" 
d="M305 727q-102 0 -178 81t-76 214q0 75 25.5 147.5t59 123t86.5 103.5t86.5 80t80.5 62q13 10 19 14l10 -14q-86 -61 -162.5 -164t-99.5 -194l4 -2q25 36 65.5 59t67.5 23q99 0 168 -61.5t69 -186.5q0 -56 -18.5 -105t-46 -81t-59.5 -55t-58 -33.5t-43 -10.5zM328 776
q57 0 96 40t39 140q0 105 -56 177.5t-137 72.5q-135 0 -135 -180q0 -105 56 -177.5t137 -72.5z" />
    <glyph glyph-name="uni2077" unicode="&#x2077;" horiz-adv-x="450" 
d="M29 1280v254h426v-6l-27 -76l-197 -711h-102v13l268 698h-260q-46 0 -61 -28.5t-31 -119.5q-2 -15 -4 -24h-12z" />
    <glyph glyph-name="uni2078" unicode="&#x2078;" horiz-adv-x="567" 
d="M356 1153q79 -40 124.5 -85t45.5 -114q0 -50 -29 -96t-70 -75t-81.5 -46.5t-66.5 -17.5q-107 0 -172.5 47.5t-65.5 132.5q0 55 30 105.5t61.5 77t66.5 46.5q-123 72 -123 189q0 52 25.5 97.5t61.5 73.5t71 44t59 16q94 0 150.5 -51t56.5 -129q0 -68 -39.5 -119
t-104.5 -96zM119 1358q0 -33 11 -58.5t41 -47.5t46.5 -31t63.5 -31l12 -6l37 -19q96 74 96 160q0 72 -45.5 117t-120.5 45q-65 0 -103 -33t-38 -96zM309 784q82 0 125 37t43 94q0 14 -3 27t-11 25t-14.5 21t-20.5 19.5t-22.5 16.5t-27 15.5t-27 13.5t-30 14.5t-28.5 13.5
l-39 19q-5 2 -14.5 7t-14.5 7q-57 -32 -83.5 -69.5t-26.5 -88.5q0 -78 53 -125t141 -47z" />
    <glyph glyph-name="uni2079" unicode="&#x2079;" horiz-adv-x="579" 
d="M274 1559q102 0 178 -81t76 -214q0 -75 -26.5 -148.5t-58 -122.5t-88.5 -106t-85 -79t-81 -62l-6 -4.5t-5 -4t-6 -4.5l-10 15q86 61 162.5 164t99.5 194l-4 2q-25 -36 -65.5 -59t-67.5 -23q-99 0 -168.5 61.5t-69.5 186.5q0 56 18.5 105t46 81t59.5 55t58 33.5t43 10.5z
M252 1509q-57 0 -96 -40t-39 -140q0 -105 55.5 -177.5t136.5 -72.5q135 0 135 181q0 105 -55.5 177t-136.5 72z" />
    <glyph glyph-name="uni2080" unicode="&#x2080;" horiz-adv-x="628" 
d="M326 -524q-145 0 -215 109.5t-70 293.5q0 87 21 162t52 123t68 82.5t68 49.5t53 15q147 0 216 -111t69 -302q-1 -84 -22 -156.5t-52.5 -120t-68.5 -81.5t-67.5 -49t-51.5 -15zM342 -451q34 0 66 17.5t60.5 53.5t44.5 101t15 150q0 146 -72.5 255.5t-181.5 109.5
q-68 0 -121 -78.5t-53 -239.5q0 -142 71 -255.5t171 -113.5z" />
    <glyph glyph-name="uni2081" unicode="&#x2081;" horiz-adv-x="505" 
d="M305 -469l121 -31v-12h-326v12l117 31v705l-129 14v12l211 29h6v-760z" />
    <glyph glyph-name="uni2082" unicode="&#x2082;" horiz-adv-x="632" 
d="M545 -289h6v-217l-6 -6h-465v6l242 293q120 146 120 279q0 69 -34 113t-107 44q-56 0 -89.5 -44t-33.5 -134l-96 -43l-4 2q43 124 120 206.5t130 82.5q60 0 102 -17t61.5 -45t27 -54t7.5 -54q0 -69 -38.5 -149.5t-137.5 -198.5l-168 -203h262q46 0 60 21.5t41 117.5z" />
    <glyph glyph-name="uni2083" unicode="&#x2083;" horiz-adv-x="624" 
d="M555 287v-11l-279 -303l3 -4q129 30 202.5 -15.5t73.5 -143.5q0 -39 -17.5 -83t-55 -89t-90 -82t-128.5 -63t-164 -32v103h4h113q248 0 248 174q0 68 -26.5 115t-66.5 65.5t-87 16t-88 -26.5l-9 12l261 285h-254q-30 0 -44 -24t-32 -111h-13v213l5 4h444z" />
    <glyph glyph-name="uni2084" unicode="&#x2084;" horiz-adv-x="591" 
d="M571 -283v-30h-165v-152l108 -33v-12h-299v12l107 33v152h-302v6l320 588h96v-7l-362 -557h250v213l69 90h13v-303h165z" />
    <glyph glyph-name="uni2085" unicode="&#x2085;" horiz-adv-x="522" 
d="M469 201l-2 -2h-311l-33 -150l113 -45q126 -49 179.5 -98.5t53.5 -126.5q0 -43 -22.5 -89t-68.5 -91.5t-131.5 -78t-195.5 -38.5v100l2 4h131q222 0 222 146q0 62 -43.5 102.5t-145.5 81.5l-143 57l69 308h207q22 0 32.5 0.5t25 3.5t22 9.5t16 18.5t15.5 31h8v-143z" />
    <glyph glyph-name="uni2086" unicode="&#x2086;" horiz-adv-x="579" 
d="M305 -526q-102 0 -178 81t-76 214q0 75 25.5 147.5t59 123t86.5 103.5t86.5 80t80.5 62q13 10 19 14l10 -14q-86 -61 -162.5 -164.5t-99.5 -194.5l4 -2q25 36 65.5 59t67.5 23q99 0 168 -61.5t69 -186.5q0 -69 -27.5 -126.5t-66.5 -90t-74 -50t-57 -17.5zM328 -477
q57 0 96 40t39 140q0 105 -56 177.5t-137 72.5q-135 0 -135 -180q0 -105 56 -177.5t137 -72.5z" />
    <glyph glyph-name="uni2087" unicode="&#x2087;" horiz-adv-x="450" 
d="M29 27v254h426v-7l-27 -75l-197 -711h-102v12l268 699h-260q-46 0 -61 -28.5t-31 -119.5q-2 -15 -4 -24h-12z" />
    <glyph glyph-name="uni2088" unicode="&#x2088;" horiz-adv-x="567" 
d="M356 -100q79 -40 124.5 -85t45.5 -114q0 -50 -29 -96t-70 -75.5t-81.5 -47t-66.5 -17.5q-106 0 -172 48t-66 133q0 55 30 105.5t61.5 77t66.5 46.5q-123 72 -123 188q0 52 25.5 98t61.5 74t71 44t59 16q94 0 150.5 -51t56.5 -129q0 -68 -39.5 -119t-104.5 -96zM119 104
q0 -33 11 -58.5t41 -47.5t46.5 -31t63.5 -31l12 -6l37 -18q96 74 96 160q0 72 -45.5 116.5t-120.5 44.5q-65 0 -103 -33t-38 -96zM309 -469q82 0 125 37t43 94q0 14 -3 27t-11 25t-14.5 21t-20.5 19.5t-22.5 16.5t-27 15.5t-27 13.5t-30 14.5t-28.5 13.5l-39 18
q-5 2 -14.5 7.5t-14.5 7.5q-57 -32 -83.5 -69.5t-26.5 -88.5q0 -78 53 -125t141 -47z" />
    <glyph glyph-name="uni2089" unicode="&#x2089;" horiz-adv-x="579" 
d="M274 301q102 0 178 -81t76 -214q0 -75 -25 -147t-60 -124t-86 -103.5t-87.5 -81t-79.5 -61.5q-6 -4 -10 -7l-8 -6l-10 14q86 61 162.5 164t99.5 194l-4 2q-24 -36 -64.5 -58.5t-68.5 -22.5q-99 0 -168.5 61t-69.5 186q0 56 18.5 105t46 81t59.5 55t58 33.5t43 10.5z
M252 252q-57 0 -96 -40t-39 -140q0 -105 55.5 -177.5t136.5 -72.5q135 0 135 180q0 105 -55.5 177.5t-136.5 72.5z" />
    <glyph glyph-name="Euro" unicode="&#x20ac;" horiz-adv-x="1013" 
d="M895 424h14v-424h-196q-117 0 -215.5 30.5t-168.5 82.5t-122 124t-81.5 153t-41.5 171h-176v37h172q-4 54 -4 82q0 52 6 102h-174v37h178q37 253 198 408t394 155h201v-424h-15q-11 40 -29 108q-54 200 -78 238t-104 37q-176 -4 -293 -147.5t-147 -374.5h492v-37h-496
q-4 -66 -4 -102q0 -55 2 -82h498v-37h-494q25 -244 147 -379.5t322 -140.5q23 0 37.5 0.5t29.5 5.5t23.5 11.5t18.5 22t16.5 31.5t16.5 47t18.5 61.5t21.5 80.5q7 25 10.5 39t10 38.5t12.5 45.5z" />
    <glyph glyph-name="trademark" unicode="&#x2122;" horiz-adv-x="1005" 
d="M459 1346h-140q-24 0 -40.5 -3.5t-29.5 -16t-20.5 -25.5t-17 -42.5t-16 -56t-19.5 -77t-26 -95.5h-7v342l4 4h711l4 -4v-342h-8q-12 43 -25.5 95t-19.5 77.5t-16 56t-18 43t-21 25t-29.5 16t-40.5 3.5h-139v-574l127 -41v-8h-344v8l131 41v574zM885 715v-8l-29 -52v-655
h-213v8l125 45v584h-6l-260 -465h-8l-287 422h-6v-387q0 -33 4 -58.5t14 -43.5t18.5 -30t27.5 -22t30.5 -15t37 -14t38.5 -14v-10h-201v651l-49 56v8h112l287 -432h8l238 432h119z" />
    <glyph glyph-name="uni2153" unicode="&#x2153;" horiz-adv-x="1392" 
d="M100 584v12l117 31v704l-129 15v12l211 28h6v-759l121 -31v-12h-326zM678 723l321 659h84l-391 -669zM1323 819v-10l-279 -303l3 -4q129 30 202.5 -16t73.5 -144q0 -50 -29 -105.5t-83 -108t-144 -90t-199 -44.5v102h4h113q248 0 248 174q0 68 -26.5 115t-66.5 65.5
t-87 16t-88 -26.5l-9 13l261 284h-254q-30 0 -44 -24t-32 -111h-13v213l5 4h444zM338 0h-86l391 670l14 -11z" />
    <glyph glyph-name="uni2154" unicode="&#x2154;" horiz-adv-x="1437" 
d="M551 807v-217l-6 -6h-465v6l242 293q120 146 120 278q0 69 -34 113.5t-107 44.5q-56 0 -89.5 -44t-33.5 -134l-96 -43l-4 2q43 124 120 206.5t130 82.5q60 0 102 -17t61.5 -45t27 -54t7.5 -54q0 -69 -38.5 -150t-137.5 -199l-168 -202h262q46 0 60 21.5t41 117.5h6z
M723 723l321 659h84l-391 -669zM1368 819v-10l-278 -303l2 -4q129 30 202.5 -16t73.5 -144q0 -50 -29 -105.5t-83 -108t-144 -90t-199 -44.5v102h5h112q248 0 248 174q0 68 -26.5 115t-66.5 65.5t-87 16t-88 -26.5l-9 13l261 284h-254q-30 0 -44 -24t-32 -111h-12v213l4 4
h444zM383 0h-86l391 670l14 -11z" />
    <glyph glyph-name="oneeighth" unicode="&#x215b;" horiz-adv-x="1394" 
d="M100 584v12l117 31v704l-129 15v12l211 28h6v-759l121 -31v-12h-326zM698 723l322 659h84l-391 -669zM1145 412q79 -40 124.5 -85t45.5 -114q0 -50 -29 -96t-70.5 -75.5t-82 -47t-66.5 -17.5q-106 0 -172 48t-66 133q0 55 30 105.5t61.5 77t66.5 46.5q-123 72 -123 188
q0 52 25.5 98t61.5 74t71 44t59 16q94 0 150.5 -51t56.5 -129q0 -68 -39 -119t-104 -96zM907 616q0 -33 11 -58.5t41 -47.5t46.5 -31t63.5 -31l12 -6l37 -18q96 74 96 160q0 72 -45 116.5t-120 44.5q-65 0 -103.5 -33t-38.5 -96zM358 0h-86l392 670l14 -11zM1098 43
q82 0 125 37t43 94q0 14 -3 27t-11 25t-14.5 21t-20.5 19t-23 16.5t-27.5 16t-27 14t-30 14t-28.5 13.5l-39 18q-5 2 -14 7.5t-14 7.5q-58 -33 -84.5 -70.5t-26.5 -87.5q0 -78 53.5 -125t141.5 -47z" />
    <glyph glyph-name="threeeighths" unicode="&#x215c;" horiz-adv-x="1372" 
d="M715 723l321 659h84l-391 -669zM555 903q0 -50 -29 -105.5t-83 -108t-144 -90t-199 -44.5v102h4h113q248 0 248 174q0 68 -26.5 115t-66.5 65.5t-87 16t-88 -26.5l-9 13l261 284h-254q-30 0 -44 -24t-32 -111h-13v213l5 4h444v-10l-279 -303l3 -4q129 30 202.5 -16
t73.5 -144zM1161 412q79 -40 124.5 -85t45.5 -114q0 -50 -29 -96t-70.5 -75.5t-82 -47t-66.5 -17.5q-106 0 -171.5 48t-65.5 133q0 55 30 105.5t61.5 77t66.5 46.5q-123 72 -123 188q0 52 25.5 98t61.5 74t71 44t59 16q94 0 150.5 -51t56.5 -129q0 -68 -39.5 -119
t-104.5 -96zM924 616q0 -33 11 -58.5t41 -47.5t46.5 -31t63.5 -31l12 -6l37 -18q96 74 96 160q0 72 -45.5 116.5t-120.5 44.5q-65 0 -103 -33t-38 -96zM375 0h-86l391 670l14 -11zM1114 43q82 0 125 37t43 94q0 14 -3 27t-11 25t-14.5 21t-20.5 19.5t-22.5 16.5t-27 15.5
t-27 13.5t-30 14.5t-28.5 13.5l-39 18q-5 2 -14.5 7.5t-14.5 7.5q-57 -32 -83.5 -69.5t-26.5 -88.5q0 -78 53 -125t141 -47z" />
    <glyph glyph-name="fiveeighths" unicode="&#x215d;" horiz-adv-x="1269" 
d="M469 879q0 -43 -22.5 -89t-68.5 -91.5t-131.5 -78t-195.5 -38.5v100l2 4h131q222 0 222 145q0 62 -43.5 103t-145.5 82l-143 57l69 307h207q22 0 32.5 0.5t25 4t22 10t16 18.5t15.5 31h8v-144l-2 -2h-311l-33 -149l113 -45q126 -49 179.5 -98.5t53.5 -126.5zM612 723
l322 659h84l-391 -669zM1059 412q79 -40 124.5 -85t45.5 -114q0 -50 -29 -96t-70.5 -75.5t-82 -47t-66.5 -17.5q-106 0 -172 48t-66 133q0 55 30 105.5t61.5 77t66.5 46.5q-123 72 -123 188q0 52 25.5 98t61.5 74t71 44t59 16q94 0 150.5 -51t56.5 -129q0 -68 -39 -119
t-104 -96zM821 616q0 -33 11 -58.5t41 -47.5t46.5 -31t63.5 -31l12 -6l37 -18q96 74 96 160q0 72 -45 116.5t-120 44.5q-65 0 -103.5 -33t-38.5 -96zM272 0h-86l392 670l14 -11zM1012 43q82 0 125 37t43 94q0 14 -3 27t-11 25t-14.5 21t-20.5 19t-23 16.5t-27.5 16t-27 14
t-30 14t-28.5 13.5l-39 18q-5 2 -14 7.5t-14 7.5q-58 -33 -84.5 -70.5t-26.5 -87.5q0 -78 53.5 -125t141.5 -47z" />
    <glyph glyph-name="seveneighths" unicode="&#x215e;" horiz-adv-x="1198" 
d="M541 723l321 659h84l-391 -669zM129 600l268 698h-260q-46 0 -61 -28.5t-31 -119.5q-2 -15 -4 -24h-12v254h426v-6l-27 -76l-197 -710h-102v12zM987 412q79 -40 124.5 -85t45.5 -114q0 -50 -29 -96t-70.5 -75.5t-82 -47t-66.5 -17.5q-106 0 -171.5 48t-65.5 133
q0 42 16 81t42.5 67.5t50.5 47.5t48 33q-122 71 -122 188q0 52 25.5 98t61.5 74t71 44t59 16q93 0 149.5 -51t56.5 -129q0 -68 -39 -119t-104 -96zM750 616q0 -33 11 -58.5t41 -47.5t46.5 -31t63.5 -31l12 -6l37 -18q96 74 96 160q0 72 -45.5 116.5t-120.5 44.5
q-65 0 -103 -33t-38 -96zM201 0h-86l391 670l14 -11zM940 43q82 0 125 37t43 94q0 14 -3 27t-11 25t-14.5 21t-20.5 19.5t-22.5 16.5t-27 15.5t-27 13.5t-30 14.5t-28.5 13.5l-39 18q-5 2 -14.5 7.5t-14.5 7.5q-58 -33 -84.5 -70.5t-26.5 -87.5q0 -78 53.5 -125t141.5 -47z
" />
    <glyph glyph-name="arrowleft" unicode="&#x2190;" horiz-adv-x="1449" 
d="M223 561h1186v-39h-1182l475 -354l-4 -10l-690 383v6l690 383l4 -10z" />
    <glyph glyph-name="arrowup" unicode="&#x2191;" horiz-adv-x="956" 
d="M481 1401l383 -690l-10 -4l-354 475v-1182h-39v1186l-359 -479l-10 4l383 690h6z" />
    <glyph glyph-name="arrowright" unicode="&#x2192;" horiz-adv-x="1449" 
d="M748 920l4 10l690 -383v-6l-690 -383l-4 10l475 354h-1182v39h1186z" />
    <glyph glyph-name="arrowdown" unicode="&#x2193;" horiz-adv-x="956" 
d="M496 197l358 479l10 -4l-383 -690h-6l-383 690l10 4l355 -475v1181h39v-1185z" />
    <glyph glyph-name="minus" unicode="&#x2212;" horiz-adv-x="882" 
d="M61 547v37h760v-37h-760z" />
    <glyph glyph-name="notequal" unicode="&#x2260;" horiz-adv-x="882" 
d="M821 748v-37h-297l-162 -332h459v-37h-477l-80 -164h-43l80 164h-240v37h258l162 332h-420v37h439l80 165h43l-80 -165h278z" />
    <glyph glyph-name="lessequal" unicode="&#x2264;" horiz-adv-x="1013" 
d="M920 297v-41l-840 371v41l840 360v-41l-787 -338v-6zM98 154v36h834v-36h-834z" />
    <glyph glyph-name="greaterequal" unicode="&#x2265;" horiz-adv-x="1013" 
d="M934 627l-840 -371v41l787 346v6l-787 338v41l840 -360v-41zM82 190h833v-36h-833v36z" />
    <glyph glyph-name="uni273A" unicode="&#x273a;" horiz-adv-x="1519" 
d="M1473 754h6v-117h-6q-111 5 -364 24.5t-310 22.5q433 -203 608 -293l6 -4l-59 -100l-4 4q-103 66 -323.5 215.5t-238.5 161.5q22 -32 99.5 -144.5t155 -227t126.5 -190.5l2 -4l-100 -59l-2 6q-53 103 -164.5 336t-134.5 277q1 -12 22.5 -285t26.5 -395v-7h-117v7
q5 111 25 363.5t23 309.5q-203 -433 -293 -608l-4 -6l-101 59l4 4q66 103 215.5 323.5t161.5 238.5q-33 -22 -144.5 -99t-226 -155t-190.5 -127l-4 -2l-59 100l6 2q103 53 335.5 164.5t276.5 134.5q-12 -1 -285 -22.5t-395 -26.5h-6v117h6q111 -5 364 -24.5t310 -22.5
q-457 215 -608 292l-7 4l60 101l4 -4q102 -65 321.5 -214.5t239.5 -162.5q-22 33 -99 144.5t-155 226t-127 190.5l-2 4l101 60l2 -7q53 -103 164.5 -335.5t134.5 -276.5q-1 16 -23 287t-27 393v6h117v-6q-5 -111 -24.5 -364t-22.5 -310q203 433 293 608l4 7l100 -60l-4 -4
q-65 -102 -214.5 -321.5t-162.5 -239.5q32 22 144.5 99.5t227 155t190.5 126.5l4 2l59 -100l-6 -2q-103 -53 -335.5 -164.5t-276.5 -134.5q12 1 285 22.5t395 26.5z" />
    <glyph glyph-name="zero.slash" horiz-adv-x="997" 
d="M479 1401q99 0 177.5 -34.5t132.5 -96.5t89.5 -151t51.5 -194t16 -229q-1 -142 -35.5 -266t-86 -204t-111.5 -137.5t-110.5 -83t-84.5 -25.5q-121 0 -212 51.5t-146 144.5t-82 215.5t-27 272.5q0 149 34.5 277.5t85.5 210t111.5 140.5t111 84t85.5 25zM129 733
q0 -151 42.5 -290.5t117.5 -233.5l397 979q-106 112 -246 112q-43 0 -85 -18t-83.5 -61t-72.5 -106.5t-50.5 -162t-19.5 -219.5zM539 76q48 0 94 18t90 61t76.5 107t51.5 163t17 222q0 148 -41 283t-114 229l-398 -981q99 -102 224 -102z" />
    <glyph glyph-name="IJacute" horiz-adv-x="1277" 
d="M549 1759v-12l-279 -297h-14l133 309h160zM1038 1450l133 309h160v-12l-278 -297h-15zM20 1382h480v-12l-178 -61v-1235l178 -62v-12h-480v12l179 62v1235l-179 61v12zM809 1382h479v-12l-178 -61v-1010q0 -29 -27.5 -83.5t-68.5 -109t-95 -95t-100 -40.5
q-182 0 -272 160l110 238l11 -4q-29 -84 -8.5 -158.5t77.5 -126t119 -51.5q18 0 29.5 1.5t27.5 9.5t26.5 21.5t21.5 40t16.5 64t8.5 93.5t1 128v922l-178 61v12z" />
    <glyph glyph-name="i.loclTRK" horiz-adv-x="544" 
d="M276 1296q-38 0 -64 26t-26 64q0 34 26 60.5t64 26.5q35 0 60.5 -26.5t25.5 -60.5q0 -38 -25 -64t-61 -26zM350 61l185 -49v-12h-484v12l185 49v943l-185 53v12h299v-1008z" />
    <glyph glyph-name="guilsinglleft.case" horiz-adv-x="583" 
d="M481 195l-12 -2l-387 495v6l387 455l12 -2l-274 -453v-6z" />
    <glyph glyph-name="guilsinglright.case" horiz-adv-x="583" 
d="M502 688l-387 -495l-13 2l275 493v6l-275 453l13 2l387 -455v-6z" />
    <glyph glyph-name="guillemotleft.case" horiz-adv-x="911" 
d="M481 195l-12 -2l-387 495v6l387 455l12 -2l-274 -453v-6zM809 195l-12 -2l-387 495v6l387 455l12 -2l-274 -453v-6z" />
    <glyph glyph-name="guillemotright.case" horiz-adv-x="911" 
d="M481 688l-387 -495l-12 2l274 493v6l-274 453l12 2l387 -455v-6zM809 688l-387 -495l-12 2l274 493v6l-274 453l12 2l387 -455v-6z" />
    <glyph glyph-name="exclamdown.case" horiz-adv-x="432" 
d="M217 1393q38 0 65 -27.5t27 -67.5q0 -37 -27 -64.5t-65 -27.5q-39 0 -66.5 27.5t-27.5 64.5q0 40 27 67.5t67 27.5zM209 1116h16q0 -29 13 -218t28 -452t19 -450h-138q4 187 19.5 450t29 452.5t13.5 217.5z" />
    <glyph glyph-name="questiondown.case" horiz-adv-x="739" 
d="M420 1393q40 0 67 -27.5t27 -67.5q0 -37 -27.5 -64.5t-66.5 -27.5q-38 0 -65 27.5t-27 64.5q0 40 27 67.5t65 27.5zM412 1116h16q-20 -82 -61.5 -189t-77 -188t-64.5 -180.5t-32 -181.5q-2 -52 9.5 -100.5t35.5 -90.5t68.5 -67t103.5 -25q51 0 88.5 26.5t58 73.5t30 103
t9.5 123l160 100l4 -4q-41 -116 -97.5 -217.5t-110 -165t-99 -99.5t-72.5 -36q-79 0 -139 23t-93 56.5t-54 78.5t-27 82t-5 73q1 94 40 198.5t89.5 187t116 201.5t103.5 218z" />
    <glyph glyph-name="braceleft.case" horiz-adv-x="626" 
d="M-41 639v37q18 0 37.5 1t47 4t52.5 8t55 13.5t53 20t47.5 28t39 37.5t26.5 47.5t10 59t-10 72.5l-77 297q-22 84 -22.5 161.5t19 138.5t64 97.5t109.5 36.5q21 0 91.5 -33.5t125.5 -69.5l-11 -12q-1 1 -25 13t-34.5 16.5t-31.5 10t-40 5.5q-57 0 -94.5 -32t-51 -84.5
t-11 -116t21.5 -131.5l72 -260q16 -57 17 -105t-10.5 -82.5t-34.5 -61t-51 -43.5t-64.5 -28t-71 -16t-74.5 -6v-13q46 -1 86 -7.5t82 -21t69.5 -39t48.5 -62t20 -88.5t-17 -120l-72 -262q-18 -67 -21 -130t10 -115.5t50 -84.5t94 -32q15 0 30 3t31 9t25.5 10t26 12.5
t20.5 10.5l11 -11q-54 -37 -124.5 -71.5t-92.5 -34.5q-65 0 -109.5 37t-64 98t-19 138.5t22.5 160.5l77 299q8 39 9.5 71.5t-10.5 59t-26.5 47.5t-38.5 37.5t-47.5 28.5t-53 20t-54.5 13.5t-52.5 8.5t-47 4t-37.5 1z" />
    <glyph glyph-name="braceright.case" horiz-adv-x="626" 
d="M668 676v-37q-18 0 -37.5 -1t-47 -4t-52.5 -8.5t-54.5 -13.5t-53 -20t-48 -28.5t-39 -37.5t-26.5 -47.5t-10.5 -59t9.5 -71.5l78 -299q22 -83 22.5 -160.5t-19 -138.5t-64 -98t-109.5 -37q-22 0 -92.5 34.5t-124.5 71.5l10 11q4 -2 20.5 -10.5t26 -12.5t25.5 -10t31 -9
t30 -3q57 0 94 32t50 84.5t10 115.5t-21 130l-71 262q-16 69 -17 120t20 88.5t48.5 62t69.5 39t82 21t86 7.5v13q-40 1 -74.5 6t-71 16t-64.5 28t-51 43.5t-34.5 61t-10.5 82.5t17 105l71 260q19 68 21.5 131.5t-11 116t-51 84.5t-94.5 32q-19 0 -40 -5.5t-31.5 -10
t-34.5 -16.5t-25 -13l-10 12q55 36 125.5 69.5t91.5 33.5q65 0 109.5 -36.5t64 -97.5t19 -138.5t-22.5 -161.5l-78 -297q-14 -44 -9.5 -79.5t14.5 -63.5t33.5 -49.5t47.5 -37.5t56.5 -26.5t60.5 -17.5t59.5 -10.5t53.5 -5t43 -1.5z" />
    <glyph glyph-name="bracketleft.case" horiz-adv-x="487" 
d="M467 1677v-12l-178 -66l-6 -1888l184 -67v-13h-291v2046h291z" />
    <glyph glyph-name="bracketright.case" horiz-adv-x="487" 
d="M311 1677v-2046h-291v13l185 67l-6 1888l-179 66v12h291z" />
    <glyph glyph-name="parenleft.case" horiz-adv-x="544" 
d="M244 649q0 -179 20 -336.5t51.5 -267t72.5 -197.5t79.5 -138.5t77.5 -80.5l-8 -14q-414 343 -414 1034t414 1034l8 -14q-50 -38 -98.5 -113t-96 -195t-77 -305.5t-29.5 -406.5z" />
    <glyph glyph-name="parenright.case" horiz-adv-x="544" 
d="M0 1669l8 14q414 -343 414 -1034t-414 -1034l-8 14q39 30 77.5 80.5t79.5 138.5t72.5 197.5t51.5 267t20 336.5q0 221 -29.5 406.5t-77 305.5t-96 195t-98.5 113z" />
    <glyph glyph-name="emdash.case" horiz-adv-x="2048" 
d="M0 645v37h2048v-37h-2048z" />
    <glyph glyph-name="endash.case" horiz-adv-x="1024" 
d="M0 645v37h1024v-37h-1024z" />
    <glyph glyph-name="hyphen.case" horiz-adv-x="739" 
d="M61 645v37h617v-37h-617z" />
    <glyph glyph-name="at.case" horiz-adv-x="1687" 
d="M926 -125q39 0 77.5 7t68.5 15.5t68.5 29.5t61.5 34.5t64 45.5t60 47.5t66 55.5t66 56l8 -10q-81 -74 -140.5 -124.5t-145.5 -114.5t-162.5 -98t-138.5 -34q-230 0 -404.5 91t-271.5 264t-97 405q0 123 29 240.5t79 212.5t116 178.5t140.5 145t151.5 105.5t150 66.5
t135 22.5q143 0 269 -39t222.5 -111.5t152 -185t55.5 -250.5q0 -109 -29.5 -218.5t-78 -195.5t-107 -154t-119 -104.5t-111.5 -36.5q-68 0 -101 38t-52 120h-11q-117 -160 -288 -160q-78 0 -120 34.5t-42 86.5q0 50 28.5 102t86 105.5t108.5 92.5t131 95q18 13 39.5 28
t34 24t24.5 18q0 143 -27 199.5t-118 56.5q-104 0 -152.5 -64.5t-44.5 -199.5l-131 -74l-12 8q32 100 85 182.5t108 128.5t102.5 70.5t79.5 24.5q54 0 95.5 -15.5t66.5 -40t40.5 -57.5t20.5 -65t4 -66l-16 -426q-5 -172 96 -172q45 0 93 25.5t91 75.5t77.5 115.5t54.5 152.5
t20 180q0 130 -53 239t-143 181.5t-209 112.5t-250 40q-143 0 -267.5 -57.5t-215 -160.5t-142 -252.5t-51.5 -325.5q0 -353 197.5 -549.5t527.5 -196.5zM778 274q50 0 107.5 37t111.5 119l2 315v15q-169 -106 -245 -195t-76 -182q0 -47 28 -78t72 -31z" />
    <glyph glyph-name="zero.osf" horiz-adv-x="1007" 
d="M524 -20q-130 0 -228 42.5t-154.5 117.5t-83.5 167.5t-27 202.5q0 118 36 219.5t90 166.5t118 111.5t118 66.5t92 20q107 0 191.5 -29t140.5 -79t92.5 -121t52 -150.5t15.5 -171.5q0 -94 -25.5 -178.5t-66.5 -143.5t-91 -107t-101.5 -76.5t-95 -43t-73.5 -14.5zM545 76
q54 0 105 13.5t99.5 45t85 78.5t58.5 119.5t22 161.5q0 90 -33.5 178.5t-92.5 160t-149 116t-194 44.5q-49 0 -97 -13.5t-95 -44.5t-82.5 -77.5t-57.5 -118t-22 -159.5t33 -177t90 -162t144 -119t186 -46z" />
    <glyph glyph-name="one.osf" horiz-adv-x="786" 
d="M457 63l334 -51v-12h-781v12l328 51l-6 934h-301v13l411 63h15v-1010z" />
    <glyph glyph-name="two.osf" horiz-adv-x="962" 
d="M842 317h12v-307l-10 -10h-781v12l91 78q279 240 346 306q131 125 167 216q23 58 23 127q0 119 -63 192t-191 73q-122 0 -184 -86.5t-49 -239.5l-156 -88l-6 4q45 125 105 225.5t119.5 159.5t114 90t97.5 31q80 0 141.5 -19.5t97 -48.5t58 -67.5t30 -71t7.5 -64.5
q0 -44 -10.5 -86t-24 -76t-44.5 -76t-53 -68.5t-70 -72t-74.5 -69t-85.5 -75.5l-48 -42l-163 -143v-8h430h49.5t34 8.5t26.5 17t20 36.5t20.5 55.5t23.5 86.5z" />
    <glyph glyph-name="three.osf" horiz-adv-x="907" 
d="M823 1067v-12l-467 -514l4 -6q208 51 327.5 -27t119.5 -242q0 -70 -28.5 -145.5t-90 -150.5t-147.5 -136t-210.5 -103.5t-269.5 -52.5v125l9 9h188q62 0 119 8.5t117.5 32.5t104 62t71.5 102t28 147q0 92 -28 160t-75 103t-106.5 48t-123 1t-123.5 -44l-13 19l449 503
h-465q-36 0 -55.5 -16t-36 -62.5t-37.5 -148.5h-12v334l6 6h745z" />
    <glyph glyph-name="four.osf" horiz-adv-x="958" 
d="M655 37h293v-37h-293v-328h-123l3 328h-504v8l532 1061h144v-12l-613 -1020h441l2 369l104 149h14v-518z" />
    <glyph glyph-name="five.osf" horiz-adv-x="890" 
d="M145 657l215 -86q116 -46 184.5 -80.5t123 -78.5t76.5 -95t22 -120q0 -59 -22.5 -121.5t-77.5 -130t-135.5 -122t-207.5 -94t-282 -48.5v124l8 9h221q195 0 291 81t96 220q0 113 -70.5 188t-256.5 150l-250 100l119 516h360q32 0 48.5 0.5t38.5 4t34.5 10.5t27 19
t25.5 31t21 46h12l2 -219l-6 -5h-547z" />
    <glyph glyph-name="six.osf" horiz-adv-x="888" 
d="M467 -20q-87 0 -165.5 36t-139 102.5t-96 169t-35.5 226.5q0 101 23.5 199t62 177t92 155.5t107.5 134.5t115.5 113.5t110 93t95.5 73.5q3 2 5 3.5t4.5 3t4.5 3.5l11 -14q-152 -106 -286.5 -298.5t-176.5 -358.5l6 -4q44 64 117.5 104.5t123.5 40.5q65 0 123.5 -14.5
t112.5 -48.5t93 -84.5t62 -126.5t23 -170q0 -102 -32 -190.5t-79.5 -146.5t-103 -100t-101.5 -60.5t-77 -18.5zM498 57q37 0 71 8t71 32t63.5 61t43.5 101t17 147q0 190 -100.5 321t-247.5 131q-71 0 -123.5 -27t-83 -76t-45 -110t-14.5 -135q0 -190 100.5 -321.5
t247.5 -131.5z" />
    <glyph glyph-name="seven.osf" horiz-adv-x="798" 
d="M14 1063l6 6h779v-6l-54 -123l-426 -1253h-143v12l529 1257h-549q-36 0 -55.5 -16t-36 -62.5t-37.5 -148.5h-13v334z" />
    <glyph glyph-name="eight.osf" horiz-adv-x="954" 
d="M586 711q47 -22 76.5 -37.5t70.5 -40t65.5 -48t49 -54.5t36 -68t11.5 -80q0 -69 -33.5 -135t-84.5 -113.5t-110 -84t-111.5 -55t-88.5 -18.5q-184 0 -296 82.5t-112 227.5q0 61 22 120t53.5 102t73.5 82t74 61.5t62 39.5q-106 59 -164.5 131t-58.5 183q0 73 29 139
t72.5 111.5t95 80t97 50.5t77.5 16q163 0 259.5 -86.5t96.5 -222.5q0 -52 -16 -101t-40 -86.5t-61 -75.5t-69.5 -64t-75.5 -56zM195 1077q0 -49 16 -91t39.5 -71.5t64 -59t75.5 -49t89 -44.5l74 -35h2q178 142 178 305q0 125 -77.5 201t-206.5 76q-113 0 -183.5 -62
t-70.5 -170zM508 78q141 0 222 69.5t81 167.5q0 44 -19 83.5t-44 66.5t-72.5 57.5t-79.5 47.5t-90 44l-66 31l-63 31l2 -2q-207 -109 -207 -303q0 -133 92.5 -213t243.5 -80z" />
    <glyph glyph-name="nine.osf" horiz-adv-x="888" 
d="M422 1090q87 0 165.5 -36.5t139 -103t96 -169t35.5 -226.5q0 -101 -23.5 -199t-62 -177t-92 -155.5t-107.5 -134.5t-115.5 -113.5t-110 -93t-95.5 -73.5q-10 -7 -14 -10l-11 14q152 106 286.5 298.5t176.5 358.5l-6 4q-44 -64 -118 -104.5t-124 -40.5q-65 0 -123.5 14.5
t-112 48.5t-92.5 84.5t-62 126.5t-23 170q0 102 32 190.5t79.5 146.5t103 100.5t101.5 61t77 18.5zM391 1012q-37 0 -71 -8t-71 -31.5t-63.5 -60.5t-43.5 -101t-17 -147q0 -190 100.5 -321.5t247.5 -131.5q71 0 123.5 27t83 76t45 110t14.5 135q0 190 -100.5 321.5
t-247.5 131.5z" />
    <glyph glyph-name="zero.dnom" horiz-adv-x="628" 
d="M326 -20q-145 0 -215 109.5t-70 293.5q0 87 21 162t52 123t68 82.5t68 49.5t53 15q99 0 164.5 -54.5t93 -144.5t27.5 -215q-1 -84 -22 -156.5t-52.5 -119.5t-68.5 -81t-67.5 -49t-51.5 -15zM342 53q34 0 66 17.5t60.5 53.5t44.5 101t15 150q0 146 -72.5 255t-181.5 109
q-68 0 -121 -78t-53 -239q0 -142 71 -255.5t171 -113.5z" />
    <glyph glyph-name="one.dnom" horiz-adv-x="505" 
d="M305 43l121 -31v-12h-326v12l117 31v705l-129 14v12l211 29h6v-760z" />
    <glyph glyph-name="two.dnom" horiz-adv-x="632" 
d="M545 223h6v-217l-6 -6h-465v6l242 293q120 146 120 279q0 69 -34 113t-107 44q-56 0 -89.5 -44t-33.5 -134l-96 -43l-4 2q43 124 120 206.5t130 82.5q60 0 102 -17t61.5 -45t27 -54t7.5 -54q0 -69 -38.5 -149.5t-137.5 -198.5l-168 -203h262q46 0 60 21.5t41 117.5z" />
    <glyph glyph-name="three.dnom" horiz-adv-x="624" 
d="M555 819v-10l-279 -303l3 -4q129 30 202.5 -16t73.5 -144q0 -50 -29 -105.5t-83 -108t-144 -90t-199 -44.5v102h4h113q248 0 248 174q0 68 -26.5 115t-66.5 65.5t-87 16t-88 -26.5l-9 13l261 284h-254q-30 0 -44 -24t-32 -111h-13v213l5 4h444z" />
    <glyph glyph-name="four.dnom" horiz-adv-x="591" 
d="M571 227v-30h-165v-152l108 -33v-12h-299v12l107 33v152h-302v6l320 588h96v-7l-362 -557h250v213l69 90h13v-303h165z" />
    <glyph glyph-name="five.dnom" horiz-adv-x="522" 
d="M469 713l-2 -2h-311l-33 -150l113 -45q126 -49 179.5 -98.5t53.5 -126.5q0 -43 -22.5 -89t-68.5 -91.5t-131.5 -78t-195.5 -38.5v100l2 4h131q222 0 222 146q0 62 -43.5 102.5t-145.5 81.5l-143 57l69 308h207q22 0 32.5 0.5t25 3.5t22 9.5t16 18.5t15.5 31h8v-143z" />
    <glyph glyph-name="six.dnom" horiz-adv-x="579" 
d="M305 -20q-103 0 -178.5 80.5t-75.5 213.5q0 75 25.5 147.5t60.5 124.5t86 103.5t87.5 81t79.5 61.5q6 4 10 7l8 6l10 -14q-86 -61 -162.5 -164.5t-99.5 -194.5l4 -2q25 36 65.5 59t67.5 23q99 0 168 -61.5t69 -186.5q0 -69 -27.5 -126.5t-66.5 -90t-74 -50t-57 -17.5z
M328 29q57 0 96 40t39 140q0 105 -56 177.5t-137 72.5q-135 0 -135 -180q0 -105 56 -177.5t137 -72.5z" />
    <glyph glyph-name="seven.dnom" horiz-adv-x="450" 
d="M29 539v254h426v-7l-27 -75l-197 -711h-102v12l268 699h-260q-46 0 -61 -28.5t-31 -119.5q-1 -7 -2 -12.5t-2 -11.5h-12z" />
    <glyph glyph-name="eight.dnom" horiz-adv-x="567" 
d="M356 412q79 -40 124.5 -85t45.5 -114q0 -50 -29 -96t-70 -75.5t-81.5 -47t-66.5 -17.5q-106 0 -172 48t-66 133q0 55 30 105.5t61.5 77t66.5 46.5q-123 72 -123 188q0 52 25.5 98t61.5 74t71 44t59 16q94 0 150.5 -51t56.5 -129q0 -68 -39.5 -119t-104.5 -96zM119 616
q0 -33 11 -58.5t41 -47.5t46.5 -31t63.5 -31l12 -6l37 -18q96 74 96 160q0 72 -45.5 116.5t-120.5 44.5q-65 0 -103 -33t-38 -96zM309 43q82 0 125 37t43 94q0 14 -3 27t-11 25t-14.5 21t-20.5 19.5t-22.5 16.5t-27 15.5t-27 13.5t-30 14.5t-28.5 13.5l-39 18
q-5 2 -14.5 7.5t-14.5 7.5q-57 -32 -83.5 -69.5t-26.5 -88.5q0 -78 53 -125t141 -47z" />
    <glyph glyph-name="nine.dnom" horiz-adv-x="579" 
d="M274 811q102 0 178 -81t76 -214q0 -75 -25 -147t-60 -124t-86 -103.5t-87.5 -81t-79.5 -61.5q-12 -9 -18 -13l-10 14q86 61 162.5 164t99.5 194l-4 2q-24 -36 -64.5 -58.5t-68.5 -22.5q-99 0 -168.5 61t-69.5 186q0 56 18.5 105t46 81t59.5 55t58 33.5t43 10.5zM252 762
q-57 0 -96 -40t-39 -140q0 -105 55.5 -177.5t136.5 -72.5q135 0 135 180q0 105 -55.5 177.5t-136.5 72.5z" />
    <glyph glyph-name="zero.numr" horiz-adv-x="628" 
d="M326 561q-145 0 -215 110t-70 294q0 87 21 162t52 123t68 82.5t68 49.5t53 15q99 0 164.5 -54.5t93 -144.5t27.5 -215q-1 -84 -22 -156.5t-52.5 -120t-68.5 -81.5t-67.5 -49t-51.5 -15zM342 635q34 0 66 17.5t60.5 53t44.5 100.5t15 150q0 146 -72.5 255.5t-181.5 109.5
q-68 0 -121 -78t-53 -239q0 -142 71 -255.5t171 -113.5z" />
    <glyph glyph-name="one.numr" horiz-adv-x="505" 
d="M305 627l121 -31v-12h-326v12l117 31v704l-129 15v12l211 28h6v-759z" />
    <glyph glyph-name="two.numr" horiz-adv-x="632" 
d="M545 807h6v-217l-6 -6h-465v6l242 293q120 146 120 278q0 69 -34 113.5t-107 44.5q-56 0 -89.5 -44t-33.5 -134l-96 -43l-4 2q43 124 120 206.5t130 82.5q60 0 102 -17t61.5 -45t27 -54t7.5 -54q0 -69 -38.5 -150t-137.5 -199l-168 -202h262q46 0 60 21.5t41 117.5z" />
    <glyph glyph-name="three.numr" horiz-adv-x="624" 
d="M555 1380v-10l-279 -303l3 -4q129 30 202.5 -16t73.5 -144q0 -50 -29 -105.5t-83 -108t-144 -90t-199 -44.5v102h4h113q248 0 248 174q0 68 -26.5 115t-66.5 65.5t-87 16t-88 -26.5l-9 13l261 284h-254q-30 0 -44 -24t-32 -111h-13v213l5 4h444z" />
    <glyph glyph-name="four.numr" horiz-adv-x="591" 
d="M571 813v-31h-165v-151l108 -33v-12h-299v12l107 33v151h-302v6l320 588h96v-6l-362 -557h250v213l69 90h13v-303h165z" />
    <glyph glyph-name="five.numr" horiz-adv-x="522" 
d="M469 1300l-2 -2h-311l-33 -149l113 -45q126 -49 179.5 -98.5t53.5 -126.5q0 -43 -22.5 -89t-68.5 -91.5t-131.5 -78t-195.5 -38.5v100l2 4h131q222 0 222 145q0 62 -43.5 103t-145.5 82l-143 57l69 307h207q22 0 32.5 0.5t25 4t22 10t16 18.5t15.5 31h8v-144z" />
    </font>
</defs>
</svg>
