<?xml version="1.0" standalone="no"?>
<!DOCTYPE svg PUBLIC "-//W3C//DTD SVG 1.1//EN" "http://www.w3.org/Graphics/SVG/1.1/DTD/svg11.dtd" >
<svg xmlns="http://www.w3.org/2000/svg" xmlns:xlink="http://www.w3.org/1999/xlink" version="1.1">
<metadata>
Created by FontForge 20170731 at Wed Sep 23 00:09:13 2020
 By Aleksey,,,
Copyright (c) 2019 by Valerio Monopoli. All rights reserved.
</metadata>
<defs>
<font id="Migra-Extrabold" horiz-adv-x="0" >
  <font-face 
    font-family="Migra Extrabold"
    font-weight="800"
    font-stretch="normal"
    units-per-em="2048"
    panose-1="0 0 9 0 0 0 0 0 0 0"
    ascent="1536"
    descent="-512"
    x-height="1090"
    cap-height="1382"
    bbox="-950 -672 4116 2181"
    underline-thickness="40"
    underline-position="-163"
    unicode-range="U+0020-FB02"
  />
<missing-glyph horiz-adv-x="716" 
 />
    <glyph glyph-name="fi" unicode="fi" horiz-adv-x="1239" 
d="M1137 88l92 -76v-12h-553v12l94 78v922q-162 7 -276 18v-938l124 -80v-12h-579v12l96 80l-8 916l-123 69v13h123l2 65q2 88 28.5 160.5t66.5 119t93 82t102 54t99.5 30t80 14.5t48.5 3q154 0 263 -51t173 -131l-288 -293l-13 4q-47 151 -145 262t-182 111
q-48 0 -72.5 -28.5t-24.5 -68.5q0 -62 40.5 -156t95.5 -177h643v-1002z" />
    <glyph glyph-name="fl" unicode="fl" horiz-adv-x="1249" 
d="M1141 92h2l96 -80v-12h-553v12l90 76v922q-205 12 -282 20v-938l124 -80v-12h-579v12l96 80l-8 916l-123 69v13h123l2 65q2 88 28.5 160.5t66.5 119t93 82t102 54t99.5 30t80 14.5t48.5 3q245 0 387 -131l94 100h13v-1495zM494 1090h282v63q-49 150 -144 258.5
t-177 108.5q-48 0 -72.5 -28.5t-24.5 -68.5q0 -62 40.5 -156t95.5 -177z" />
    <glyph glyph-name="f_f" unicode="ff" horiz-adv-x="1269" 
d="M989 1505q-43 0 -63.5 -26t-20.5 -66q0 -61 59.5 -149t145.5 -174h238v-89q-19 0 -54 1t-88.5 2t-95.5 2l2 -914l121 -80v-12h-578v12l97 80l-9 926q-174 8 -249 14v-940l124 -80v-12h-579v12l94 80l-6 916l-123 69v13h123l-4 65q-5 81 13.5 149.5t50.5 114.5t75.5 83
t86.5 58t86 35t70.5 18.5t43.5 4.5q202 0 323 -121q73 62 161 91.5t132 29.5q119 0 212 -45t153 -121l-178 -291l-13 2q-59 138 -164.5 240t-185.5 102zM494 1090h249l-4 65v12l-4 -6l-12 2q-61 138 -166 240t-184 102q-43 0 -64.5 -26t-21.5 -66q0 -61 60.5 -149
t146.5 -174z" />
    <glyph glyph-name="f_f_i" unicode="ffi" horiz-adv-x="1894" 
d="M1792 90l92 -78v-12h-551v12l94 78v916l-276 6v-920l125 -80v-12h-580v12l95 80l-7 930q-185 7 -284 12l2 -942l123 -80v-12h-580v12l96 80l-8 912l-129 73v13h129l2 65q2 88 28.5 160.5t66.5 119t93 82t102 54t99.5 30t80 14.5t48.5 3q109 0 191.5 -29.5t128.5 -70.5
q60 40 137.5 64.5t121.5 30t73 5.5q154 0 263 -51t173 -131l-289 -293l-12 4q-47 151 -145.5 262t-182.5 111q-48 0 -73 -28.5t-25 -68.5q0 -62 41 -156.5t96 -176.5h641v-1000zM461 1520q-48 0 -72 -28t-24 -69q0 -62 40 -156t95 -177h284v63q-49 150 -145 258.5
t-178 108.5z" />
    <glyph glyph-name="f_f_l" unicode="ffl" horiz-adv-x="1912" 
d="M1800 92h4l97 -80v-12h-551v12l86 74v915q-26 0 -68.5 1t-106.5 2t-110 2l2 -914l125 -80v-12h-582v12l97 80l-7 926q-204 8 -286 14l2 -940l123 -80v-12h-580v12l96 80l-8 912l-129 73v13h129l2 65q2 88 28.5 160.5t66.5 119t93 82t102 54t99.5 30t80 14.5t48.5 3
q108 0 191.5 -30.5t130.5 -71.5q60 41 137.5 66t120.5 30.5t72 5.5q242 0 389 -133l94 102h12v-1495zM461 1520q-48 0 -72 -28t-24 -69q0 -62 40 -156t95 -177h286v57q-47 151 -144 262t-181 111zM1151 1090h285v63q-49 150 -144.5 258.5t-177.5 108.5q-48 0 -73 -28.5
t-25 -68.5q0 -62 40 -156t95 -177z" />
    <glyph glyph-name="g_f.liga" unicode="gf" horiz-adv-x="1703" 
d="M1425 1505q-44 0 -65 -26t-21 -66q0 -61 59.5 -149t145.5 -174h240v-89q-19 0 -54 1t-89.5 2t-96.5 2l2 -914l121 -80v-12h-577v12l96 80l-6 924q-341 15 -416 35l-8 -13q239 -88 239 -309q0 -77 -30.5 -141.5t-79 -106t-103 -72.5t-109 -46.5t-90 -23t-51.5 -7.5
q-155 0 -276 78q-16 -22 -16 -72q0 -20 2 -34t13.5 -35t32 -34.5t61 -23.5t97.5 -10l306 -2q160 0 245.5 -73.5t85.5 -188.5q0 -83 -45.5 -166.5t-123.5 -151t-192 -109.5t-241 -42q-87 0 -168.5 13.5t-156.5 41t-134.5 74t-93.5 108.5q-7 14 61 78.5t193 171.5
q-91 34 -141.5 99.5t-50.5 148.5q0 8 12.5 23.5t40.5 41.5t52 47t67 58.5t65 56.5q-143 114 -143 287q0 81 32 148t82 108.5t105.5 72t109.5 45t86 21t42 6.5q35 0 135 -14t172 -14h332l-6 65q-5 81 13.5 149.5t50.5 114.5t75.5 83t87 58t86.5 35t71 18.5t44 4.5
q231 0 362 -166l-178 -291l-12 2q-59 138 -164.5 240t-184.5 102zM645 393q127 3 14 316q-117 348 -239 342q-122 -3 -12 -318q116 -340 237 -340zM723 -86l-371 10q-82 3 -153 25q-15 -15 -15 -33q0 -63 58 -110t149 -70.5t177 -34t165 -10.5q116 0 190 30t74 80
q0 105 -274 113z" />
    <glyph glyph-name="g_i.liga" unicode="gi" horiz-adv-x="1660" 
d="M1382 1194q-92 0 -142 46.5t-50 131.5q0 84 50 130t142 46q89 0 137 -46t48 -130q0 -85 -48 -131.5t-137 -46.5zM1559 90l92 -78v-12h-551v12l94 78v922q-327 11 -430 39l-8 -13q239 -88 239 -309q0 -77 -30.5 -141.5t-79 -106t-103 -72.5t-109 -46.5t-90 -23t-51.5 -7.5
q-155 0 -276 78q-16 -22 -16 -72q0 -20 2 -34t13.5 -35t32 -34.5t61 -23.5t97.5 -10l306 -2q160 0 245.5 -73.5t85.5 -188.5q0 -83 -45.5 -166.5t-123.5 -151t-192 -109.5t-241 -42q-87 0 -168.5 13.5t-156.5 41t-134.5 74t-93.5 108.5q-7 14 61 78.5t193 171.5
q-91 34 -141.5 99.5t-50.5 148.5q0 8 12.5 23.5t40.5 41.5t52 47t67 58.5t65 56.5q-143 114 -143 287q0 81 32 148t82 108.5t105.5 72t109.5 45t86 21t42 6.5q35 0 135 -14t172 -14h711v-1000zM645 393q127 3 14 316q-117 348 -239 342q-122 -3 -12 -318q116 -340 237 -340z
M723 -86l-371 10q-82 3 -153 25q-15 -15 -15 -33q0 -63 58 -110t149 -70.5t177 -34t165 -10.5q116 0 190 30t74 80q0 105 -274 113z" />
    <glyph glyph-name="g_t.liga" unicode="gt" horiz-adv-x="1705" 
d="M1696 264l8 -10q-220 -285 -336 -285q-123 0 -184 78.5t-62 245.5l-6 725q-262 10 -352 33l-8 -13q239 -88 239 -309q0 -77 -30.5 -141.5t-79 -106t-103 -72.5t-109 -46.5t-90 -23t-51.5 -7.5q-155 0 -276 78q-16 -22 -16 -72q0 -20 2 -34t13.5 -35t32 -34.5t61 -23.5
t97.5 -10l306 -2q160 0 245.5 -73.5t85.5 -188.5q0 -83 -45.5 -166.5t-123.5 -151t-192 -109.5t-241 -42q-87 0 -168.5 13.5t-156.5 41t-134.5 74t-93.5 108.5q-7 14 61 78.5t193 171.5q-91 34 -141.5 99.5t-50.5 148.5q0 8 12.5 23.5t40.5 41.5t52 47t67 58.5t65 56.5
q-143 114 -143 287q0 81 32 148t82 108.5t105.5 72t109.5 45t86 21t42 6.5q35 0 135 -14t172 -14h307l301 346h14l-2 -346h224v-89q-19 0 -52 1t-83.5 2t-88.5 2l-2 -625q0 -78 30.5 -119t84.5 -41q53 0 115 43zM645 393q127 3 14 316q-117 348 -239 342q-122 -3 -12 -318
q116 -340 237 -340zM723 -86l-371 10q-82 3 -153 25q-15 -15 -15 -33q0 -63 58 -110t149 -70.5t177 -34t165 -10.5q116 0 190 30t74 80q0 105 -274 113z" />
    <glyph glyph-name=".notdef" horiz-adv-x="716" 
 />
    <glyph glyph-name=".null" 
 />
    <glyph glyph-name="nonmarkingreturn" horiz-adv-x="682" 
 />
    <glyph glyph-name="space" unicode=" " horiz-adv-x="333" 
 />
    <glyph glyph-name="exclam" unicode="!" horiz-adv-x="514" 
d="M262 406h-12q-38 125 -113 443t-104 535h448q-29 -219 -105 -539.5t-114 -438.5zM270 -12q-91 0 -141.5 46.5t-50.5 131.5q0 82 50.5 128t141.5 46q88 0 136.5 -46t48.5 -128q0 -85 -48.5 -131.5t-136.5 -46.5z" />
    <glyph glyph-name="quotedbl" unicode="&#x22;" horiz-adv-x="720" 
d="M201 754h-17q-3 14 -57.5 250t-79.5 368v10h289v-10q-23 -115 -76 -349t-59 -269zM539 754h-17q-3 14 -57.5 250t-79.5 368v10h289v-10q-23 -115 -76 -349t-59 -269z" />
    <glyph glyph-name="numbersign" unicode="#" horiz-adv-x="1355" 
d="M1315 987v-29h-328l-141 -544h344v-29h-350l-101 -385h-34l100 385h-422l-100 -385h-35l100 385h-307v29h313l142 544h-330v29h338l102 395h35l-102 -395h422l102 395h35l-103 -395h320zM389 414h422l141 544h-422z" />
    <glyph glyph-name="dollar" unicode="$" horiz-adv-x="1099" 
d="M573 932l213 -135q152 -94 224.5 -186t72.5 -216q0 -84 -32.5 -161t-93.5 -139t-160 -99t-222 -37h-2v-252h-41v254q-99 5 -266 44.5t-219 47.5l-33 631l13 2q97 -200 229 -330.5t276 -201.5v319l-172 111q-73 45 -119.5 80.5t-93 87.5t-68 117t-20.5 145q1 102 38 178.5
t102.5 122.5t148 69t184.5 25v223h41v-223q173 -3 306 -86l125 82h10v-594h-13q-99 138 -209.5 245.5t-218.5 172.5v-297zM213 1237q0 -58 62 -108.5t254 -168.5q2 -1 3 -2v293q-123 66 -221 66q-48 0 -73 -21.5t-25 -58.5zM821 74q61 0 87 23t26 57q0 19 -8.5 38t-28.5 39
t-40 36.5t-55.5 39.5t-62.5 39.5t-74 44.5t-77 47l-15 8v-311q138 -61 248 -61z" />
    <glyph glyph-name="percent" unicode="%" horiz-adv-x="1519" 
d="M356 565q-150 0 -245 119t-95 289q0 75 16 138.5t41.5 105.5t59 74.5t66 50.5t65 30t53 15.5t33.5 3.5q150 0 245 -120t95 -292q0 -85 -21 -155t-55.5 -113t-72.5 -73.5t-78 -45.5t-65.5 -21t-41.5 -6zM784 713l-14 10l262 659h262zM481 637q27 13 35 62.5t-8 137
t-57 195.5q-59 152 -119.5 226t-110.5 59q-25 -10 -34.5 -53t3.5 -124t50 -186q60 -163 126 -249.5t115 -67.5zM1171 -16q-150 0 -245 118.5t-95 288.5q0 75 16 138.5t41.5 105.5t59 74.5t66 50.5t65 30t53 15.5t33.5 3.5q150 0 245 -120t95 -292q0 -74 -16 -136
t-41.5 -103.5t-59 -74t-66 -50.5t-65 -30t-53 -15.5t-33.5 -3.5zM1296 55q27 13 35 62.5t-8 137.5t-57 196q-59 152 -119.5 225.5t-110.5 58.5q-25 -10 -34.5 -53t3.5 -123.5t50 -185.5q60 -163 126 -250t115 -68zM735 670l15 -11l-263 -659h-264z" />
    <glyph glyph-name="ampersand" unicode="&#x26;" horiz-adv-x="1427" 
d="M1106 872l360 89v-15q-132 -306 -340 -557l256 -387v-2h-542v12l80 47l-54 82q-232 -172 -450 -172q-129 0 -223.5 56t-140.5 145.5t-46 200.5q0 159 98.5 287t274.5 221l-328 495v8h1004l10 -10l4 -442h-12q-59 106 -120.5 184.5t-113.5 122t-108.5 69t-98.5 33t-90 7.5
h-37l611 -918q91 201 -2 434zM700 141q63 0 144 33l-449 678q-40 -46 -64 -113t-24 -127q0 -124 50 -231.5t141.5 -173.5t201.5 -66z" />
    <glyph glyph-name="quotesingle" unicode="'" horiz-adv-x="382" 
d="M201 754h-17q-3 14 -57.5 250t-79.5 368v10h289v-10q-23 -115 -76 -349t-59 -269z" />
    <glyph glyph-name="parenleft" unicode="(" horiz-adv-x="612" 
d="M412 518q0 -220 25.5 -405.5t66 -305.5t80.5 -195t80 -114l-9 -14q-126 75 -189 126q-388 311 -388 908q0 143 23 269.5t58.5 219t88 174.5t101 135.5t108 101.5t99 73.5t83.5 51.5l6 3t5 3t5 3l9 -14q-40 -39 -80 -113.5t-80.5 -194.5t-66 -306t-25.5 -406z" />
    <glyph glyph-name="parenright" unicode=")" horiz-adv-x="612" 
d="M-51 1538l8 14q126 -75 189 -126q389 -311 389 -908q0 -143 -23 -269.5t-59 -219t-88 -174.5t-100.5 -135t-108.5 -101.5t-99.5 -74t-83.5 -51.5q-11 -6 -16 -9l-8 14q40 39 80 114t80.5 195t66 305.5t25.5 405.5t-25.5 406t-66 306t-80.5 194.5t-80 113.5z" />
    <glyph glyph-name="asterisk" unicode="*" horiz-adv-x="983" 
d="M944 1092l-10 -11q-68 28 -155 16.5t-164.5 -42t-114.5 -64.5q57 7 147.5 -3t159.5 -39t53 -68l-129 -314l-14 6q11 97 -68 221t-149 164q24 -54 41.5 -141.5t11 -161.5t-48.5 -71l-338 26l2 15q95 20 188 132t111 193q-45 -41 -124.5 -84.5t-147.5 -60.5t-84 24l-80 332
l16 2q48 -85 184 -138t220 -46q-89 49 -185 159.5t-43 143.5l289 176l8 -12q-46 -49 -65 -140t-13 -172t27 -128q12 59 49.5 140.5t86.5 136.5t81 30z" />
    <glyph glyph-name="plus" unicode="+" horiz-adv-x="827" 
d="M432 586h363v-37h-363v-363h-37v363h-360v37h360v360h37v-360z" />
    <glyph glyph-name="comma" unicode="," horiz-adv-x="468" 
d="M420 168v-2q0 -21 -2 -29q-8 -95 -152 -506h-194v13l258 352l-8 6q-35 -14 -86 -14q-92 0 -142.5 46.5t-50.5 131.5q0 82 50.5 128t142.5 46q87 0 135.5 -46t48.5 -126z" />
    <glyph glyph-name="hyphen" unicode="-" horiz-adv-x="774" 
d="M35 547v37h704v-37h-704z" />
    <glyph glyph-name="period" unicode="." horiz-adv-x="477" 
d="M242 -12q-91 0 -142 47t-51 131q0 82 51 128t142 46q89 0 136.5 -46t47.5 -128q0 -85 -47.5 -131.5t-136.5 -46.5z" />
    <glyph glyph-name="slash" unicode="/" horiz-adv-x="722" 
d="M41 -512l598 2048h43l-598 -2048h-43z" />
    <glyph glyph-name="zero" unicode="0" horiz-adv-x="1220" 
d="M616 -31q-171 0 -307 98t-209 260.5t-73 356.5q0 130 28 239.5t72 182.5t102 130t114 89t112.5 52.5t92.5 27t58 6.5q171 0 307.5 -98.5t209.5 -262t73 -358.5q0 -129 -28 -238t-72.5 -181.5t-103 -129.5t-114.5 -88.5t-112.5 -52t-92 -27t-57.5 -6.5zM834 92
q48 21 62.5 108.5t-14 241.5t-100.5 344q-103 266 -209 397.5t-190 102.5q-46 -18 -63 -93t5 -216.5t87 -325.5q104 -285 219.5 -437.5t202.5 -121.5z" />
    <glyph glyph-name="one" unicode="1" horiz-adv-x="696" 
d="M555 127l104 -115v-12h-610v12l105 115l2 1053l-146 26v13l533 190h12v-1282z" />
    <glyph glyph-name="two" unicode="2" horiz-adv-x="1079" 
d="M297 326h463q187 0 244 196h12v-508l-15 -14h-1009v12l297 381q70 92 111.5 150t90 136t72.5 138.5t38.5 131t8.5 138.5q-9 101 -51.5 154.5t-109.5 46.5q-43 -5 -64 -43t-19 -94.5t18 -121.5t44 -128l-446 -125l-7 10q63 123 134.5 225.5t136 168t125.5 113.5t112 73
t86.5 36t57.5 11q80 0 148 -17.5t125 -53.5t89.5 -99t32.5 -147q0 -197 -151 -365.5t-410 -290.5l-164 -104v-10z" />
    <glyph glyph-name="three" unicode="3" horiz-adv-x="1083" 
d="M1079 1382v-10l-454 -485v-10q201 9 326.5 -79t125.5 -251q0 -50 -15.5 -106t-50.5 -118.5t-91 -117t-136 -102.5t-186.5 -74t-242.5 -32t-304 23l2 449l13 2q180 -158 349.5 -235.5t289.5 -77.5q37 0 69 6t63.5 20.5t49.5 43.5t18 71q0 32 -12 62.5t-50.5 66.5t-101 63
t-174 47t-258.5 23l-8 17l424 479h-401q-184 0 -236 -193h-12v506l10 12h993z" />
    <glyph glyph-name="four" unicode="4" horiz-adv-x="1077" 
d="M1124 344v-37h-256v-180h2l105 -115v-12h-610v12l104 115v180h-479v33l461 1042h497v-12l-901 -1026h422v328l379 346l18 2l2 -676h256z" />
    <glyph glyph-name="five" unicode="5" horiz-adv-x="1073" 
d="M172 930l379 -64q285 -48 397.5 -130.5t112.5 -250.5q0 -32 -5.5 -65t-22 -81.5t-48 -89t-83.5 -88t-127.5 -77.5t-181 -58.5t-243.5 -31t-315 5.5v451h10q84 -99 305.5 -203.5t372.5 -104.5q87 0 136.5 34.5t49.5 101.5q0 75 -78.5 125t-269.5 94l-506 110l178 774h486
q122 0 189.5 31.5t97.5 99.5h16v-450l-12 -12h-809z" />
    <glyph glyph-name="six" unicode="6" horiz-adv-x="1124" 
d="M561 -20q-80 0 -157.5 23.5t-146 71.5t-121 116t-83 163t-30.5 205q0 217 112.5 399t310 301.5t453.5 163.5l6 -14q-107 -32 -194.5 -96t-146 -145.5t-96.5 -166t-58 -174.5l10 -6q65 71 162.5 112.5t146.5 41.5q73 0 141.5 -33t122.5 -92t86.5 -148t32.5 -192
q0 -229 -152 -379.5t-399 -150.5zM707 37q63 12 72 101.5t-40 299.5q-52 194 -117 293t-137 86q-68 -14 -71 -123t49 -293q53 -201 113.5 -289.5t130.5 -74.5z" />
    <glyph glyph-name="seven" unicode="7" horiz-adv-x="1044" 
d="M8 1370l12 12h1029v-10l-160 -319l-262 -1053h-492v12l705 1045h-582q-183 0 -238 -193h-12v506z" />
    <glyph glyph-name="eight" unicode="8" horiz-adv-x="1179" 
d="M1151 403q2 -77 -27.5 -143.5t-80 -112.5t-111.5 -81.5t-127 -56t-122.5 -30.5t-100.5 -10q-49 0 -112 8t-143 32t-144.5 59.5t-109 98t-44.5 140.5q0 126 106 206.5t266 86.5l-8 6q-65 44 -109 80.5t-89 88t-68 113t-23 132.5q0 69 23.5 126.5t61.5 96.5t90 69.5
t104 47.5t108 28.5t98 15t79 3.5q81 0 155 -17t137 -51.5t100.5 -94t37.5 -136.5q0 -38 -13 -74t-44.5 -76t-93.5 -78t-150 -67q20 -13 57 -36.5t60.5 -38.5t57 -40t56 -45t47.5 -49.5t39.5 -58t25 -65.5t11.5 -77zM569 1350q-62 0 -97.5 -39.5t-35.5 -104.5
q0 -78 53 -140.5t166 -145.5l86 -66q39 119 39 201q0 134 -60 214.5t-151 80.5zM649 29q57 0 100 32t42 107q-2 83 -55 157.5t-169 153.5l-121 88q-45 -67 -45 -202q0 -79 17 -140.5t43 -97.5t60.5 -59t65.5 -31t62 -8z" />
    <glyph glyph-name="nine" unicode="9" horiz-adv-x="1124" 
d="M563 1401q101 0 196 -38t172 -109t124 -183.5t47 -249.5q0 -217 -112.5 -399t-310.5 -301.5t-454 -163.5l-6 14q86 27 160.5 74.5t128 105t96 127t69 137t42.5 138.5l-10 6q-65 -71 -162 -112t-146 -41q-153 0 -268 130t-115 334q0 229 152 380t397 151zM418 1343
q-64 -12 -72.5 -101.5t41.5 -299.5q50 -194 115 -293t137 -86q69 14 72 123t-47 293q-53 201 -114.5 289.5t-131.5 74.5z" />
    <glyph glyph-name="colon" unicode=":" horiz-adv-x="477" 
d="M242 727q-91 0 -142 47t-51 131q0 83 51 128.5t142 45.5q89 0 136.5 -45t47.5 -129q0 -85 -47.5 -131.5t-136.5 -46.5zM242 -12q-91 0 -142 47t-51 131q0 82 51 128t142 46q89 0 136.5 -46t47.5 -128q0 -85 -47.5 -131.5t-136.5 -46.5z" />
    <glyph glyph-name="semicolon" unicode=";" horiz-adv-x="471" 
d="M236 727q-91 0 -142 47t-51 131q0 83 51 128.5t142 45.5q88 0 136 -45.5t48 -128.5q0 -85 -48 -131.5t-136 -46.5zM420 168v-2q0 -21 -2 -29q-8 -95 -152 -506h-194v13l258 352l-8 6q-35 -14 -86 -14q-92 0 -142.5 46.5t-50.5 131.5q0 82 50.5 128t142.5 46
q87 0 135.5 -46t48.5 -126z" />
    <glyph glyph-name="less" unicode="&#x3c;" horiz-adv-x="892" 
d="M846 221v-41l-842 371v41l842 360v-41l-787 -338v-6z" />
    <glyph glyph-name="equal" unicode="=" horiz-adv-x="827" 
d="M35 711v37h760v-37h-760zM35 342v37h760v-37h-760z" />
    <glyph glyph-name="greater" unicode="&#x3e;" horiz-adv-x="892" 
d="M889 551l-840 -371v41l787 346v6l-787 338v41l840 -360v-41z" />
    <glyph glyph-name="question" unicode="?" horiz-adv-x="940" 
d="M496 408h-21q98 344 98 569q2 129 -34 210t-105 81q-31 0 -51.5 -11t-32 -35t-15.5 -56t-1 -82t10.5 -103t20.5 -129l-371 -104l-6 10q70 161 154.5 288.5t167.5 204.5t161 116.5t145 39.5q74 0 133.5 -19.5t97.5 -51.5t64 -75.5t36.5 -89t10.5 -94.5q0 -64 -19 -125.5
t-46 -108t-77 -106t-91 -100t-112 -110.5t-117 -119zM481 -12q-91 0 -140.5 46.5t-49.5 131.5q0 82 50 128t140 46q89 0 137 -46t48 -128q0 -85 -48 -131.5t-137 -46.5z" />
    <glyph glyph-name="at" unicode="@" horiz-adv-x="1792" 
d="M1051 -158q157 0 276.5 53t235.5 156l14 -16q-127 -129 -359.5 -277.5t-334.5 -144.5q-374 19 -598 230t-224 534q0 188 60 355.5t160.5 289t230 211t272.5 134t283 44.5q154 0 281.5 -48.5t211.5 -132.5t129.5 -196t45.5 -241t-35.5 -243t-93 -193.5t-129.5 -137.5
t-145 -85.5t-140 -27.5q-113 0 -179.5 67.5t-60.5 170.5h-6q-97 -229 -287 -229q-87 0 -139.5 47t-52.5 129q0 38 11 72t35.5 64t47.5 52.5t63.5 49t65 41.5t70.5 40l182 95q-1 159 -28 215.5t-80 54.5q-34 -3 -53 -27t-23.5 -68.5t-2 -92t12.5 -113.5l-313 -58l-4 11
q50 92 110.5 166.5t118 118.5t110.5 75.5t98.5 45t71 19t37.5 5.5q78 0 130.5 -19.5t79 -57.5t36.5 -84t8 -110l-10 -340q-6 -229 115 -229q77 0 124.5 74.5t47.5 210.5q0 149 -52 285t-145 239t-231 164t-299 61q-251 0 -397 -160.5t-146 -445.5q0 -167 55 -313.5
t155 -255.5t250.5 -171.5t332.5 -62.5zM827 313q29 0 59.5 21t53.5 67l2 265q-188 -131 -188 -263q0 -45 22.5 -67.5t50.5 -22.5z" />
    <glyph glyph-name="A" unicode="A" horiz-adv-x="1292" 
d="M401 1382h420l467 -1362v-20h-557v12l103 115l-119 352h-342q3 -144 44 -266t111 -201v-12h-524v12l485 1110l-88 248v12zM373 516h329l-184 549h-12l-47 -133q-83 -205 -86 -416z" />
    <glyph glyph-name="B" unicode="B" horiz-adv-x="1282" 
d="M743 719l-2 -14q148 15 256 -3t167.5 -62t86.5 -100.5t27 -127.5q0 -76 -42.5 -148t-122.5 -131.5t-211.5 -96t-293.5 -36.5h-596v12l107 119v1120l-107 119v12h633q561 0 561 -301q0 -142 -119 -236t-344 -126zM582 1348h-66v-619h62q132 1 179.5 74t47.5 233
q0 56 -3.5 95t-16.5 83t-36 71t-65.5 45t-101.5 18zM582 35q137 5 202.5 85t65.5 251q0 175 -66.5 248t-199.5 73h-68v-655q29 -4 66 -2z" />
    <glyph glyph-name="C" unicode="C" horiz-adv-x="1177" 
d="M727 -23q-147 5 -274 57.5t-221.5 144.5t-148.5 227.5t-54 298.5q0 118 30 219.5t77.5 172t110 127.5t126 91t127.5 56.5t112 31t82 8.5q177 0 316.5 -70t197.5 -163l-372 -449l-11 4q-29 142 -66 248.5t-72 168t-75 99t-71.5 50t-65.5 12.5q-61 0 -106 -59t-45 -173
q-1 -79 15.5 -165t49 -177t88 -172t127.5 -145.5t174.5 -102.5t220.5 -38q90 0 193 36l8 -12q-119 -99 -278.5 -212.5t-194.5 -113.5z" />
    <glyph glyph-name="D" unicode="D" horiz-adv-x="1308" 
d="M522 1382q756 0 756 -657q0 -105 -21 -202t-75.5 -194.5t-137 -168.5t-216 -115.5t-302.5 -44.5h-514v12l105 117v1124l-105 117v12h510zM518 41h41q114 0 178.5 63t92.5 202.5t28 385.5q0 143 -9 245t-31.5 183t-60 129t-93.5 72.5t-134 24.5h-12v-1305z" />
    <glyph glyph-name="E" unicode="E" horiz-adv-x="1185" 
d="M1139 582h12v-582h-1139v12l105 117v1124l-105 117v12h1127v-581h-13q-19 28 -58 89t-58 89q-41 67 -63 101.5t-53 80t-49.5 66t-47 46.5t-51 36t-56 20.5t-68.5 13.5t-81 3h-23v-631h21q46 0 79.5 9t72.5 37.5t80 86t89 149.5h10v-600h-10q-92 167 -162.5 225t-158.5 58
h-21v-643h35q41 0 73.5 3.5t60.5 8t53.5 18t46 25t44 37.5t41.5 46.5t45.5 62t48 74.5t56.5 91q19 28 59 90t58 89z" />
    <glyph glyph-name="F" unicode="F" horiz-adv-x="1148" 
d="M1135 1382v-581h-13q-26 39 -65.5 101t-48.5 77q-42 68 -63.5 102t-53.5 79.5t-50 66t-47 46.5t-51.5 36t-56 21t-68.5 13.5t-81 2.5h-19v-654h37q48 0 83 10.5t75.5 41.5t83 93.5t92.5 161.5h12v-653h-12q-95 181 -169 245t-165 64h-37v-528l107 -115v-12h-613v12
l107 115v1126l-103 117v12h1119z" />
    <glyph glyph-name="G" unicode="G" horiz-adv-x="1277" 
d="M547 725v12h674l10 -10l-8 -760h-13l-292 287h-11q-22 -30 -58.5 -82.5t-56.5 -79.5t-45 -58.5t-42.5 -45t-30.5 -13.5q-185 2 -333.5 98.5t-230 258t-81.5 354.5q0 129 33.5 238t86 181.5t121.5 129.5t135.5 89t133.5 53t109.5 27.5t68.5 6.5q183 0 324 -77t198 -191
l-405 -332l-11 4q-19 113 -63 222.5t-115.5 189.5t-148.5 80q-71 0 -114.5 -62t-43.5 -180q0 -132 41 -277t106.5 -263.5t157.5 -195.5t186 -77q17 0 23 2v389z" />
    <glyph glyph-name="H" unicode="H" horiz-adv-x="1333" 
d="M1323 1382v-12l-106 -115v-1128l106 -115v-12h-612v12l106 115v522h-299v-522l105 -115v-12h-611v12l105 115v1128l-105 115v12h611v-12l-105 -115v-565h299v565l-106 115v12h612z" />
    <glyph glyph-name="I" unicode="I" horiz-adv-x="634" 
d="M623 1382v-12l-105 -115v-1128l105 -115v-12h-611v12l105 115v1128l-105 115v12h611z" />
    <glyph glyph-name="J" unicode="J" horiz-adv-x="1019" 
d="M1020 1382v-12l-105 -115v-821q0 -45 -56 -123.5t-135 -153.5t-175.5 -130.5t-167.5 -55.5q-125 0 -222 58.5t-169 191.5l327 492l13 -6q-10 -72 -11 -183.5t8.5 -228t41.5 -199t82 -82.5q44 0 53.5 77t9.5 339v825l-104 115v12h610z" />
    <glyph glyph-name="K" unicode="K" horiz-adv-x="1327" 
d="M756 1382h565v-12l-707 -682l293 158l410 -828v-18h-537v12l74 86l-283 549l-53 -51v-469l105 -115v-12h-611v12l105 115v1128l-105 115v12h611v-12l-105 -115v-610l121 125q78 84 118.5 192.5t39 214.5t-40.5 193v12z" />
    <glyph glyph-name="L" unicode="L" horiz-adv-x="1122" 
d="M1096 666h12v-666h-1092v12l103 117v1126l-105 115v12h611v-12l-105 -115h-2v-1218h68q117 0 221 128q71 88 196 325q11 21 34 65z" />
    <glyph glyph-name="M" unicode="M" horiz-adv-x="1480" 
d="M1448 1382v-12l-84 -119v-1251h-502v12l105 119l2 -4v924h-13l-333 -820h-23l-414 836h-10v-137q0 -321 96.5 -540.5t292.5 -379.5v-10h-434v1147l-117 223v12l445 4l309 -663h8l264 659h408z" />
    <glyph glyph-name="N" unicode="N" horiz-adv-x="1306" 
d="M750 1370v12h467v-1386h-345l-669 1077h-10v-137q0 -503 428 -924v-12h-476v1130l-141 242v10h490l669 -1095l-2 4h13v121q0 253 -118.5 509.5t-305.5 448.5z" />
    <glyph glyph-name="O" unicode="O" horiz-adv-x="1333" 
d="M670 -31q-136 0 -256 56.5t-204 153t-132.5 229t-48.5 280.5q0 123 31 228.5t79.5 177.5t112 130t126 92t123.5 56.5t101.5 30.5t63.5 8q179 0 326 -96t230 -261t83 -362q0 -123 -31 -228.5t-79.5 -177.5t-112 -130t-125.5 -92t-123 -56.5t-101 -30.5t-63 -8zM909 90
q57 19 74 107t-13 242t-108 347q-106 265 -224 398.5t-216 105.5q-85 -28 -85.5 -188t103.5 -449q108 -285 238 -439.5t231 -123.5z" />
    <glyph glyph-name="P" unicode="P" horiz-adv-x="1208" 
d="M596 477h-80v-350h2l107 -115v-12h-613v12l103 111v1132l-103 115v12h527q134 0 233.5 -10.5t186 -38.5t140.5 -75t84.5 -121t30.5 -176q0 -226 -161.5 -355t-456.5 -129zM559 1346h-43v-832h55q50 0 85.5 10t67 37.5t50.5 74.5t30 122t11 180q0 162 -28.5 252t-81.5 123
t-146 33z" />
    <glyph glyph-name="Q" unicode="Q" horiz-adv-x="1333" 
d="M1126 -410h-923v17l540 364l-2 6q-47 -8 -71 -8q-136 0 -256 56.5t-204 153t-132.5 229t-48.5 280.5q0 123 31 228.5t79.5 177.5t112 130t126 92t123.5 56.5t101.5 30.5t63.5 8q179 0 326 -96t230 -261t83 -362q0 -120 -29 -221.5t-82 -177.5t-109 -129.5t-127 -100.5
l-329 -217v-4l280 -2q38 0 68.5 6.5t52 21.5t36 27t27 36t16.5 33.5t13 33.5h13l2 -395zM907 86q58 21 75.5 110t-12.5 243t-108 347q-106 265 -223.5 399t-212.5 107q-57 -19 -78.5 -95.5t0.5 -217.5t92 -326q107 -284 237 -439.5t230 -127.5z" />
    <glyph glyph-name="R" unicode="R" horiz-adv-x="1304" 
d="M643 655l311 21l346 -658v-18h-565v12l94 109l-264 555h-47v-549l107 -115v-12h-613v12l107 115v1126l-103 117v12h646q124 0 221.5 -14.5t178.5 -48t125 -95t44 -149.5q0 -69 -30.5 -129.5t-96 -115.5t-183.5 -95.5t-278 -58.5v-21zM518 1346v-633h62q60 0 104 21.5
t68 53.5t38 80.5t17.5 90t3.5 94.5q0 65 -9 113.5t-31 91.5t-65 65.5t-106 22.5h-82z" />
    <glyph glyph-name="S" unicode="S" horiz-adv-x="1150" 
d="M573 946l246 -149q161 -94 237.5 -186t76.5 -216q0 -84 -34.5 -161t-98.5 -139t-168 -99t-232 -37q-88 0 -181.5 17t-197.5 42t-170 35l-37 631l15 2q71 -140 166.5 -251.5t186.5 -177t187 -109t165 -59t122 -15.5q65 0 92 23t27 57q0 19 -9 38t-29.5 39t-42 36.5
t-58.5 39.5t-65.5 39.5t-77.5 44.5t-81 47l-235 146q-60 35 -101 63t-85.5 68t-70.5 81t-43 97t-16 121q1 106 42 184t114 123t164 66.5t203 21.5q192 0 331 -86l132 82h12v-594h-12q-173 231 -370 368.5t-351 137.5q-51 0 -78 -22t-27 -58q0 -56 60.5 -104.5t244.5 -158.5
q31 -18 47 -28z" />
    <glyph glyph-name="T" unicode="T" horiz-adv-x="1218" 
d="M1208 1382v-581h-12q-200 345 -259.5 441t-78.5 104h-45v-1219l105 -115v-12h-611v12l105 115v1219h-43q-13 -4 -39.5 -40.5t-100.5 -157.5t-204 -347h-13v581h1196z" />
    <glyph glyph-name="U" unicode="U" horiz-adv-x="1318" 
d="M1217 1382v-1251l104 -119v-12h-506v225q-151 -144 -224 -200t-114 -56q-360 0 -360 424v862l-2 -4l-107 119v12h510v-872q0 -50 1.5 -86t6.5 -74t14.5 -63.5t24.5 -46.5t37.5 -31t52.5 -10q91 0 160 86v966l-106 119v12h508z" />
    <glyph glyph-name="V" unicode="V" horiz-adv-x="1251" 
d="M680 1370v12h569v-12l-602 -1401h-24l-619 1401v12h596v-12l-102 -117l315 -774h10l45 129q27 60 30.5 159.5t-15.5 208t-72.5 217t-130.5 177.5z" />
    <glyph glyph-name="W" unicode="W" horiz-adv-x="1640" 
d="M1098 1370v12h540v-12l-483 -1411h-22l-287 723h-8l-324 -723h-20l-490 1411v12h561v-12l-102 -115l235 -739h13l24 92q101 256 -61 469v13h534v-13l-98 -108l166 -455h10l43 148q47 131 27.5 268t-90.5 257t-168 183z" />
    <glyph glyph-name="X" unicode="X" horiz-adv-x="1267" 
d="M1251 1362l-452 -574l461 -776v-12h-590v12l88 99l-287 481q-50 -80 -63.5 -167.5t6.5 -164t57 -140t86 -108.5v-12h-551v12l449 609l-447 749v12h602v-12l-94 -106l264 -445q49 74 62.5 156t-4 154t-53.5 134t-87 107v12h553v-20z" />
    <glyph glyph-name="Y" unicode="Y" horiz-adv-x="1257" 
d="M1257 1382v-12l-423 -827v-416l104 -115v-12h-610v12l104 115v397l-416 846v12h580v-12l-94 -110l305 -660l33 59q31 55 41.5 147.5t-1 195t-61.5 204.5t-131 164v12h569z" />
    <glyph glyph-name="Z" unicode="Z" horiz-adv-x="1138" 
d="M1126 1382v-14l-682 -1331h29q48 0 84.5 3t71 13.5t59 20.5t53.5 35.5t49 46.5t52 65.5t55.5 80t65.5 101.5q21 29 62.5 91t59.5 88h13v-582h-1086v14l674 1332h-14q-38 0 -69 -1.5t-60 -8.5t-50.5 -12.5t-46.5 -21.5t-41.5 -27.5t-40.5 -38.5t-39.5 -46t-43.5 -59
t-47 -69t-54 -83q-90 -131 -121 -178h-12v581h1079z" />
    <glyph glyph-name="bracketleft" unicode="[" horiz-adv-x="573" 
d="M549 1536v-12l-105 -117l-2 -1788l107 -119v-12h-428v2048h428z" />
    <glyph glyph-name="backslash" unicode="\" horiz-adv-x="722" 
d="M41 1536h43l598 -2048h-43z" />
    <glyph glyph-name="bracketright" unicode="]" horiz-adv-x="573" 
d="M453 1536v-2048h-428v12l106 119l-2 1788l-104 117v12h428z" />
    <glyph glyph-name="asciicircum" unicode="^" horiz-adv-x="897" 
d="M76 815h-15l390 758h6l379 -758h-15l-370 363h-7z" />
    <glyph glyph-name="underscore" unicode="_" horiz-adv-x="1024" 
d="M0 -109v37h1024v-37h-1024z" />
    <glyph glyph-name="grave" unicode="`" horiz-adv-x="518" 
d="M-4 1524v12h407l56 -387h-19z" />
    <glyph glyph-name="a" unicode="a" horiz-adv-x="1081" 
d="M963 233l151 78l8 -10q-15 -21 -50.5 -72t-50 -71t-44 -58t-47.5 -53.5t-44 -36t-50.5 -28t-51.5 -7.5q-81 0 -123.5 64.5t-31.5 222.5h-11q-28 -63 -58.5 -110.5t-72 -90t-96.5 -65.5t-121 -23q-106 0 -171.5 59.5t-65.5 160.5q0 56 21.5 106.5t54 87.5t83 73.5
t94.5 60.5t103 52l227 101q0 156 -44 247t-117 85q-33 -2 -54.5 -21t-32.5 -56.5t-3.5 -102t34.5 -150.5l-379 -109l-6 13q49 107 111.5 194.5t120 142.5t121 96.5t112 61.5t96 32t69 14.5t34.5 2.5q54 0 97 -8t75 -21t55.5 -36.5t39 -46t25 -60t13.5 -67t4.5 -78t-1 -83
t-5.5 -91.5l-18 -369v-31zM471 221q35 0 73.5 27.5t67.5 83.5l4 295q-125 -84 -180 -154.5t-55 -138.5q0 -57 28 -85t62 -28z" />
    <glyph glyph-name="b" unicode="b" horiz-adv-x="1116" 
d="M694 1114q133 -17 222 -92.5t128 -186.5t39 -255q0 -106 -23 -195.5t-59.5 -150.5t-86 -109t-98.5 -76t-101 -46t-90 -24t-68 -6q-187 0 -315 111l-133 -172h-13l-8 1474l-127 46v12l479 145h13v-721q27 30 68.5 77t62.5 70.5t46.5 50.5t40.5 38t23 10zM592 25
q29 0 51.5 14.5t41.5 51t29.5 107t10.5 173.5q0 497 -174 497q-59 0 -98 -45l-2 -547q3 -129 43 -190t98 -61z" />
    <glyph glyph-name="c" unicode="c" horiz-adv-x="954" 
d="M598 -31q-165 0 -293.5 66t-203 195t-74.5 302q0 98 24.5 183t64.5 143.5t92 105.5t104.5 75.5t106 47.5t92.5 26t67 7q90 0 167.5 -25.5t124 -63t73.5 -71t34 -57.5l-340 -291l-12 6q-12 103 -44.5 195.5t-82.5 152.5t-103 60q-49 0 -78.5 -40t-29.5 -122
q0 -70 23 -152.5t68 -163.5t104.5 -148t140.5 -108.5t168 -41.5q91 0 200 57l10 -12q-135 -148 -243.5 -237t-159.5 -89z" />
    <glyph glyph-name="d" unicode="d" horiz-adv-x="1146" 
d="M1030 229l150 76l8 -10l-39 -57t-39 -56t-35.5 -49.5t-36.5 -47t-35 -38t-37 -33.5t-36 -23.5t-39.5 -17t-40.5 -4.5q-77 0 -119.5 57t-38.5 199h-16q-17 -19 -41.5 -46.5t-39.5 -44t-35.5 -39.5t-33.5 -36.5t-29 -30t-26 -25.5t-20.5 -17.5t-17.5 -12t-11 -2.5
q-197 24 -292 160.5t-95 351.5q0 107 23 197.5t60 152t86.5 110t99 76.5t101.5 46t90 24.5t68 6.5q57 0 103 -9v299l-129 46v12l479 145h2l12 4v-1364zM559 203q61 0 107 55v590q-10 102 -46.5 148t-84.5 46q-32 0 -56 -15t-45 -51t-32 -106t-11 -172q0 -495 168 -495z" />
    <glyph glyph-name="e" unicode="e" horiz-adv-x="1009" 
d="M993 307l11 -12q-299 -326 -396 -326q-164 0 -295.5 66.5t-208.5 195t-77 297.5q0 100 25 185.5t65.5 144.5t93.5 106.5t106.5 75.5t107.5 47t93.5 26t67.5 7q186 0 286 -101t113 -265q0 -27 -72 -71.5t-158.5 -78t-127.5 -33.5h-256q65 -141 174 -231t256 -90
q83 0 192 57zM414 1026q-47 0 -77 -45t-30 -133q0 -118 49 -240h262q-5 179 -63 298.5t-141 119.5z" />
    <glyph glyph-name="f" unicode="f" horiz-adv-x="653" 
d="M373 1505q-43 0 -64.5 -26t-21.5 -66q0 -61 60.5 -149t146.5 -174h239v-89q-128 0 -239 21v-930l122 -80v-12h-577v12l94 80l-6 916l-123 69v13h123l-4 65q-5 81 13.5 149.5t50.5 114.5t75.5 83t86.5 58t86 35t70.5 18.5t43.5 4.5q229 0 364 -166l-178 -291l-12 2
q-59 138 -164.5 240t-185.5 102z" />
    <glyph glyph-name="g" unicode="g" horiz-adv-x="1097" 
d="M1176 1090v-89q-238 3 -412 50l-8 -13q239 -88 239 -309q0 -77 -30.5 -141.5t-79 -106t-103 -72.5t-109 -46.5t-90 -23t-51.5 -7.5q-155 0 -276 78q-16 -22 -16 -72q0 -20 2 -34t13.5 -35t32 -34.5t61 -23.5t97.5 -10l306 -2q160 0 245.5 -73.5t85.5 -188.5
q0 -83 -45.5 -166.5t-123.5 -151t-192 -109.5t-241 -42q-87 0 -168.5 13.5t-156.5 41t-134.5 74t-93.5 108.5q-7 14 61 78.5t193 171.5q-91 34 -141.5 99.5t-50.5 148.5q0 8 12.5 23.5t40.5 41.5t52 47t67 58.5t65 56.5q-143 114 -143 287q0 81 32 148t82 108.5t105.5 72
t109.5 45t86 21t42 6.5q35 0 135 -14t172 -14h328zM645 393q127 3 14 316q-117 348 -239 342q-122 -3 -12 -318q116 -340 237 -340zM723 -86l-371 10q-82 3 -153 25q-15 -15 -15 -33q0 -63 58 -110t149 -70.5t177 -34t165 -10.5q116 0 190 30t74 80q0 105 -274 113z" />
    <glyph glyph-name="h" unicode="h" horiz-adv-x="1189" 
d="M1087 760v-670l95 -78v-12h-551v12l94 80v643q0 133 -113 133q-84 0 -141 -102v-674l96 -80v-12h-551v12l93 78v1296l-127 46v12l477 145h12v-758q213 287 303 287q83 0 145 -28t98 -78t53 -112.5t17 -139.5z" />
    <glyph glyph-name="i" unicode="i" horiz-adv-x="579" 
d="M299 1194q-91 0 -142 47t-51 131q0 83 51 129.5t142 46.5q89 0 137.5 -46t48.5 -130q0 -85 -48.5 -131.5t-137.5 -46.5zM477 88l92 -76v-12h-553v12l95 78v922l-93 65v13h459v-1002z" />
    <glyph glyph-name="j" unicode="j" horiz-adv-x="528" 
d="M262 1194q-92 0 -142 47t-50 133q0 82 50 128t142 46q87 0 135.5 -46t48.5 -128q0 -86 -48 -133t-136 -47zM-2 1077v13h457v-1039q0 -62 -57 -150t-140.5 -171t-168 -152.5t-148.5 -109.5l-13 14q85 94 124.5 241t39.5 363v926z" />
    <glyph glyph-name="k" unicode="k" horiz-adv-x="1132" 
d="M526 553l314 115l321 -656v-12h-499v12l69 80l-221 449l-39 -33v-416l96 -80v-12h-551v12l93 78v1296l-127 46v12l477 145h12v-1040l57 55q73 58 114.5 132t47 139.5t-7.5 119.5t-41 82v13h516v-11z" />
    <glyph glyph-name="l" unicode="l" horiz-adv-x="579" 
d="M471 92l96 -80v-12h-551v12l93 78v1296l-127 46v12l477 145h12v-1497z" />
    <glyph glyph-name="m" unicode="m" horiz-adv-x="1798" 
d="M1696 760v-670l94 -78v-12h-553v12l94 78v645q0 133 -110 133q-68 0 -117 -63q2 -14 2 -45v-672l90 -76v-12h-551v12l94 80h2v643q0 133 -110 133q-74 0 -123 -73v-703l96 -80v-12h-551v12l94 80v766l-151 -76l-8 11q14 19 39.5 56t38.5 55.5t35.5 49t36.5 46.5t34.5 38
t37 33.5t36.5 23.5t39.5 16.5t40.5 4.5q39 0 68.5 -13.5t52.5 -45t32 -91t2 -143.5h2q215 295 310 295q135 0 210 -70.5t95 -191.5q198 262 284 262q83 0 144.5 -28t98 -77.5t54 -113t17.5 -139.5z" />
    <glyph glyph-name="n" unicode="n" horiz-adv-x="1204" 
d="M1106 760v-672l90 -76v-12h-551v12l94 80h2v643q0 133 -110 133q-74 0 -123 -73v-703l96 -80v-12h-551v12l94 80v766l-151 -76l-8 11q14 19 39.5 56t38.5 55.5t35.5 49t36.5 46.5t34.5 38t37 33.5t36.5 23.5t39.5 16.5t40.5 4.5q39 0 68.5 -13.5t52.5 -45t32 -91
t2 -143.5h2q215 295 310 295q83 0 144.5 -28t97.5 -77.5t53.5 -113t17.5 -139.5z" />
    <glyph glyph-name="o" unicode="o" horiz-adv-x="1110" 
d="M557 -31q-158 0 -280.5 76t-186 201.5t-63.5 275.5q0 103 25.5 191t66 147.5t93 106.5t104 74.5t102 45.5t83.5 24.5t52 6.5q159 0 281 -76t185.5 -202.5t63.5 -280.5q0 -102 -25.5 -188.5t-66 -145.5t-93 -106t-104 -74.5t-102 -45t-83.5 -24t-52 -6.5zM737 70
q36 15 44.5 68t-13.5 158.5t-78 268.5q-90 256 -166 367t-149 88q-38 -14 -47.5 -67t11 -159t75.5 -270q88 -255 166.5 -366t156.5 -88z" />
    <glyph glyph-name="p" unicode="p" horiz-adv-x="1142" 
d="M723 1104q196 -24 291.5 -160.5t95.5 -351.5q0 -107 -23 -197.5t-60 -151.5t-87 -109.5t-99.5 -76.5t-102 -46t-90.5 -24.5t-68 -6.5q-60 0 -101 8v-408l94 -80v-12h-550v12l94 78v1276l-154 -78l-8 10q14 20 44.5 63.5t44 62.5t40 53.5t41.5 50.5t39 38.5t42.5 32.5
t42 17.5t46.5 7.5q79 0 121.5 -58.5t36.5 -203.5h14q23 25 53.5 59t50 55t43 46.5t38.5 40.5t30 29t25 19.5t16 4.5zM608 33q32 0 56 15t45 51t32 106t11 172q0 495 -168 495q-58 0 -105 -53v-606q13 -94 48.5 -137t80.5 -43z" />
    <glyph glyph-name="q" unicode="q" horiz-adv-x="1083" 
d="M1030 -420l96 -80v-12h-551v12l93 78v653q-27 -30 -69.5 -78t-64 -72t-47.5 -51.5t-40.5 -38t-22.5 -9.5q-133 17 -222 92.5t-128 186.5t-39 255q0 106 23 195.5t59.5 150.5t85.5 109t98 75.5t100.5 45.5t89.5 24t68 6q165 0 285 -86l166 119h12l4 -383zM565 227
q59 0 103 47v525q0 139 -41 204.5t-103 65.5q-29 0 -51 -14.5t-41 -50t-29 -106t-10 -173.5q0 -239 40 -368.5t132 -129.5z" />
    <glyph glyph-name="r" unicode="r" horiz-adv-x="946" 
d="M981 1006l10 -7q-129 -280 -239 -280q-27 0 -54 18t-46 39.5t-44.5 39.5t-48.5 18q-10 0 -25.5 -15t-25.5 -37v-690l96 -80v-12h-551v12l94 80v766l-151 -76l-8 11q14 19 39.5 56t38.5 55.5t35.5 49t36.5 46.5t34.5 38t37 33.5t36.5 23.5t39.5 16.5t40.5 4.5
q39 0 67.5 -13t51.5 -44t32.5 -88.5t3.5 -139.5h17q14 19 47 66.5t56 79t50.5 68t47 55t30.5 18.5q20 0 56.5 -33t77 -66.5t71.5 -33.5q29 0 47 21z" />
    <glyph glyph-name="s" unicode="s" horiz-adv-x="956" 
d="M395 860l273 -188q55 -36 87.5 -59t73 -59t62.5 -68t37.5 -75.5t15.5 -91.5q0 -46 -12.5 -91t-45 -92t-81.5 -82.5t-128.5 -58t-180.5 -22.5q-80 0 -168 15.5t-133 24.5t-138 -1l-43 572h13q62 -117 152.5 -221t180.5 -172.5t175 -108t145 -39.5q30 0 49 15.5t19 47.5
q0 35 -41 73t-164 116l-248 160q-119 73 -176.5 150.5t-57.5 176.5q0 153 116.5 246.5t303.5 93.5q165 0 297 -69l101 80h12l-2 -527h-12q-98 149 -210 255.5t-196 151t-141 44.5q-68 0 -68 -56q0 -34 30.5 -65t102.5 -76z" />
    <glyph glyph-name="t" unicode="t" horiz-adv-x="667" 
d="M655 264l9 -10q-217 -285 -334 -285q-123 0 -184 78.5t-62 245.5l-8 715l-119 69v13h158l303 346h12v-346h225v-89q-114 0 -225 19l-4 -639q0 -78 31.5 -119t85.5 -41q52 0 112 43z" />
    <glyph glyph-name="u" unicode="u" horiz-adv-x="1171" 
d="M1059 229l151 76l9 -10l-39 -57t-39 -56t-35.5 -49.5t-36.5 -47t-35 -38t-37 -33.5t-36 -23.5t-39.5 -17t-40.5 -4.5q-83 0 -126 66.5t-30 230.5q-217 -295 -309 -295q-83 -1 -145 27t-98 78.5t-53.5 113.5t-17.5 140v682l-94 65v13h459v-80h-2v-656q0 -72 31 -103.5
t82 -31.5q67 0 118 68v723l-96 67v13h459v-861z" />
    <glyph glyph-name="v" unicode="v" horiz-adv-x="929" 
d="M516 1077v13h467v-13l-504 -1108h-22l-512 1108v13h514v-13l-105 -73l275 -617h14l29 80q51 174 3.5 350t-159.5 260z" />
    <glyph glyph-name="w" unicode="w" horiz-adv-x="1462" 
d="M1061 1077v13h457v-13l-502 -1108h-23l-254 617h-14l-238 -617h-22l-520 1108v13h510v-13l-107 -76l262 -585h13l24 76q87 376 -153 585v13h524v-13l-105 -73l258 -588h13l24 76q20 56 24 127.5t-9.5 151t-55 161t-106.5 145.5z" />
    <glyph glyph-name="x" unicode="x" horiz-adv-x="1044" 
d="M1032 1077l-362 -456l383 -611v-10h-521v12l89 66l-228 366q-27 -40 -41.5 -97.5t-13 -119.5t34.5 -120t96 -91v-16h-477v12l385 457l-377 608v13h158l-6 2h364v-13l-92 -67l229 -367q21 41 32 98.5t10 121t-31 121.5t-86 89v15h454v-13z" />
    <glyph glyph-name="y" unicode="y" horiz-adv-x="937" 
d="M524 1090h469v-13l-32 -73l32 65l-702 -1581h-373v12l528 508l-493 1069v13h514v-13l-105 -73l275 -617h6l29 57l8 23q51 174 3.5 350t-159.5 260v13z" />
    <glyph glyph-name="z" unicode="z" horiz-adv-x="960" 
d="M950 1090v-13l-557 -1038q36 0 65 3.5t57.5 14t50.5 21t47 34t43.5 43t44 59t44 70t49 88t53 101.5t60.5 121h13l2 -584l-7 -14l-905 4v12l533 1041q-53 -1 -88 -7t-73.5 -26.5t-68.5 -52t-71 -92t-82.5 -137.5t-102.5 -197h-14l-2 538l8 11h901z" />
    <glyph glyph-name="braceleft" unicode="{" horiz-adv-x="606" 
d="M-33 494v43q58 0 95 6t66.5 23t40.5 49t8.5 83t-21.5 125l-50 187q-25 96 -28 177t11.5 134.5t41.5 96t58 65.5t64 38t56 20t39 5q14 0 31.5 -3.5t33 -8.5t37.5 -14.5t36.5 -16.5t39 -20.5t36.5 -20.5t36.5 -22.5t31.5 -20t30 -19.5t24 -16l-10 -18q-1 1 -25 13
t-34.5 16.5t-31.5 10t-40 5.5q-218 0 -135 -299l51 -180q22 -81 23 -145.5t-18 -109t-51 -75.5t-79.5 -48.5t-99.5 -25t-115 -6.5v-16q64 0 115.5 -7.5t99 -24.5t79.5 -48t51 -74.5t18 -108t-23 -145.5l-51 -180q-80 -299 135 -299q19 0 40 5.5t31.5 10t34.5 16.5t25 13
l10 -18q-1 -1 -24 -16t-30 -19.5t-31.5 -20t-36.5 -22.5t-36.5 -20.5t-39 -20.5t-36.5 -16.5t-37.5 -14.5t-33 -8.5t-31.5 -3.5q-16 0 -39 5t-56 20t-64 38t-58 65.5t-41.5 96t-11.5 134.5t28 177l50 187q20 75 22 126.5t-9 83t-41 49t-66.5 23t-94.5 5.5z" />
    <glyph glyph-name="bar" unicode="|" horiz-adv-x="454" 
d="M246 -514h-37v2058h37v-2058z" />
    <glyph glyph-name="braceright" unicode="}" horiz-adv-x="606" 
d="M639 537v-43q-57 0 -93.5 -5.5t-66.5 -23t-41 -49t-9 -83t22 -126.5l49 -187q25 -96 28 -177t-11.5 -134.5t-41.5 -96t-58 -65.5t-64 -38t-56 -20t-39 -5q-14 0 -31.5 3.5t-33 8.5t-37.5 14.5t-36.5 16.5t-39 20.5t-36.5 20.5t-36.5 22.5t-31.5 20t-30 19.5t-24 16l10 18
q1 -1 25 -13t34.5 -16.5t31.5 -10t40 -5.5q77 0 116.5 38.5t41 105t-21.5 155.5l-49 180q-22 81 -23.5 145.5t17 108t50 74.5t79.5 48t100 24.5t116 7.5v16q-64 -1 -116 6.5t-99.5 25t-79.5 48.5t-50.5 75.5t-17 109t23.5 145.5l49 180q23 89 21.5 155.5t-41 105
t-116.5 38.5q-19 0 -40 -5.5t-31.5 -10t-34.5 -16.5t-25 -13l-10 18q1 1 24 16t30 19.5t31.5 20t36.5 22.5t36.5 20.5t39 20.5t36.5 16.5t37.5 14.5t33 8.5t31.5 3.5q16 0 39 -5t56 -20t64 -38t58 -65.5t41.5 -96t11.5 -134.5t-28 -177l-49 -187q-19 -74 -21.5 -125t8 -83
t40 -49t66.5 -23t95 -6z" />
    <glyph glyph-name="asciitilde" unicode="~" horiz-adv-x="1036" 
d="M1020 725l12 -6q-31 -64 -63.5 -117.5t-73.5 -104t-87.5 -79.5t-92.5 -29q-68 0 -171.5 40t-203.5 80t-160 40q-92 0 -166 -100l-10 6q6 12 18 35q24 47 37.5 71.5t37.5 65t43.5 62.5t45.5 46t55 34.5t60 10.5q57 0 139 -24.5t151 -54t145.5 -54t123.5 -24.5q24 0 43 4.5
t52 29t65 68.5z" />
    <glyph glyph-name="exclamdown" unicode="&#xa1;" horiz-adv-x="514" 
d="M270 1092q88 0 136.5 -47t48.5 -132q0 -82 -48.5 -128t-136.5 -46q-91 0 -141.5 46t-50.5 128q0 85 50.5 132t141.5 47zM250 674h12q37 -117 113 -439t106 -540h-448q29 216 104 535.5t113 443.5z" />
    <glyph glyph-name="cent" unicode="&#xa2;" horiz-adv-x="954" 
d="M991 307l10 -12q-135 -148 -243.5 -237t-159.5 -89h-23v-331h-40v333q-227 21 -367.5 169.5t-140.5 391.5q0 89 20.5 167t53.5 134.5t78 103.5t91.5 77t97 52.5t91 33.5t76.5 16v338h40v-334h3q90 0 167.5 -25.5t124 -63t73.5 -71t34 -57.5l-340 -291l-12 6
q-12 103 -44.5 195.5t-82.5 152.5t-103 60q-49 0 -78.5 -40t-29.5 -122q0 -70 23 -152.5t68 -163.5t104.5 -148t140.5 -108.5t168 -41.5q91 0 200 57z" />
    <glyph glyph-name="sterling" unicode="&#xa3;" horiz-adv-x="1079" 
d="M285 326h487q184 0 244 196h12v-508l-14 -14h-977v12l125 168q100 133 100 228q0 29 -5.5 54.5t-18.5 52.5t-23 43.5t-31 48t-30 44.5h-211v37h188q-55 98 -55 207q0 95 38.5 180t99.5 144.5t135.5 103.5t148.5 65t137 21q90 0 164.5 -21.5t123.5 -57.5t80 -74t48 -80
l-324 -347l-12 9q-12 136 -37.5 235t-59.5 151t-67.5 75.5t-69.5 23.5q-49 0 -79.5 -40.5t-30.5 -119.5q0 -44 12 -94t25 -86.5t42 -90.5t41.5 -75t46.5 -74t35 -55h297v-37h-276q10 -20 10 -26q0 -17 -44.5 -58.5t-132.5 -115t-142 -125.5z" />
    <glyph glyph-name="yen" unicode="&#xa5;" horiz-adv-x="1280" 
d="M700 1382h568v-12l-338 -663h264v-37h-283l-67 -131v-68h350v-37h-350v-307l106 -115v-12h-612v12l106 115v307h-366v37h366v53l-71 146h-295v37h276l-325 663v12h579v-12l-94 -110l305 -660l33 59q31 55 41.5 147.5t-1.5 195t-61.5 204.5t-130.5 164v12z" />
    <glyph glyph-name="brokenbar" unicode="&#xa6;" horiz-adv-x="454" 
d="M246 692h-37v852h37v-852zM209 324h37v-838h-37v838z" />
    <glyph glyph-name="section" unicode="&#xa7;" horiz-adv-x="1075" 
d="M836 326q151 -110 151 -301q0 -46 -13 -91t-45.5 -91t-82 -81t-129.5 -57t-180 -22q-89 0 -225 25.5t-216 17.5l-43 503l13 2q84 -149 207 -256.5t240.5 -155.5t219.5 -48q41 0 67.5 17.5t26.5 49.5q0 42 -43 83.5t-147 90.5l-358 166q-130 59 -197.5 137t-67.5 189
q0 114 63 199t183 124q-168 120 -168 291q0 156 114 247t308 91q180 0 307 -74l90 86h13l-2 -503h-13q-150 218 -289.5 317.5t-248.5 99.5q-97 0 -97 -73q0 -37 32 -71.5t110 -72.5l385 -190q264 -122 264 -336q0 -38 -10.5 -78t-34.5 -84.5t-71.5 -84.5t-112.5 -66z
M231 702q0 -40 33.5 -77.5t124.5 -79.5l334 -156q24 -10 61 -31q41 3 64.5 30.5t23.5 60.5q0 19 -6 35t-25 33.5t-35 29.5t-55 33t-65.5 34t-85.5 41l-231 111l-50 25q-41 -1 -64.5 -27t-23.5 -62z" />
    <glyph glyph-name="dieresis" unicode="&#xa8;" horiz-adv-x="837" 
d="M203 1247q-72 0 -113 37.5t-41 104.5q0 66 41 102.5t113 36.5q70 0 108.5 -36.5t38.5 -102.5q0 -68 -38.5 -105t-108.5 -37zM639 1247q-72 0 -112 37.5t-40 104.5q0 66 40 102.5t112 36.5q70 0 108.5 -36.5t38.5 -102.5q0 -68 -38.5 -105t-108.5 -37z" />
    <glyph glyph-name="copyright" unicode="&#xa9;" horiz-adv-x="1445" 
d="M723 -16q-202 0 -364 88.5t-255.5 251t-93.5 368.5q0 188 92.5 350t257.5 259.5t363 97.5q202 0 364 -88.5t255.5 -250.5t93.5 -368q0 -140 -55 -269.5t-149 -226t-227 -154.5t-282 -58zM723 57q131 0 247.5 48.5t199 132.5t130.5 202t48 252t-48 251.5t-130.5 201
t-198.5 132t-248 48.5t-248 -48.5t-198.5 -132t-130.5 -201t-48 -251.5t48 -252t130.5 -202t199 -132.5t247.5 -48.5zM754 229q-187 6 -309.5 137t-122.5 341q1 105 37.5 190t87.5 134t112 82.5t106 45.5t74 12q114 0 198 -43.5t118 -103.5l-183 -248l-16 8
q-36 322 -217 322q-25 0 -50 -9.5t-52 -31t-45 -67.5t-19 -109q0 -87 24.5 -173t72 -161.5t129 -122.5t184.5 -47q57 0 149 39l6 -16q-74 -58 -167 -118.5t-117 -60.5z" />
    <glyph glyph-name="ordfeminine" unicode="&#xaa;" horiz-adv-x="796" 
d="M283 997l157 72q1 106 -30 170t-82 59q-108 -11 -41 -231l-264 -74l-7 15q35 75 79 136t84.5 99t85.5 66t78.5 41.5t67.5 21.5t48 9t24 1q81 0 129.5 -26t65 -72t20.5 -109t-4 -137l-14 -260v-18l106 61l9 -16q-11 -16 -35.5 -50t-35.5 -49t-31.5 -40.5t-33.5 -37
t-31 -25.5t-35.5 -19.5t-35.5 -5.5q-52 0 -83 54t-25 144h-9q-42 -90 -98.5 -144t-142.5 -54q-75 0 -120.5 40t-45.5 111q0 48 20.5 89.5t59.5 74t78 56.5t92 48zM338 750q58 0 100 79l2 207q-90 -62 -129 -111.5t-39 -97.5q0 -40 20 -58.5t46 -18.5zM723 477h-668v33h668
v-33z" />
    <glyph glyph-name="guillemotleft" unicode="&#xab;" horiz-adv-x="954" 
d="M498 -4l-13 -2l-489 530v6l489 490l13 -2l-205 -488v-6zM895 -4l-12 -2l-490 530v6l490 490l12 -2l-207 -488v-6z" />
    <glyph glyph-name="logicalnot" unicode="&#xac;" horiz-adv-x="933" 
d="M35 608v37h760v-440h-43v403h-717z" />
    <glyph glyph-name="registered" unicode="&#xae;" horiz-adv-x="1445" 
d="M723 1399q202 0 364 -88.5t255.5 -250.5t93.5 -368q0 -140 -55 -269.5t-149 -226t-227 -154.5t-282 -58q-202 0 -364 88.5t-255.5 251t-93.5 368.5q0 188 92.5 350t257.5 259.5t363 97.5zM723 57q131 0 247.5 48.5t199 132.5t130.5 202t48 252t-48 251.5t-130.5 201
t-198.5 132t-248 48.5t-248 -48.5t-198.5 -132t-130.5 -201t-48 -251.5t48 -252t130.5 -202t199 -132.5t247.5 -48.5zM737 690v-14l137 14l240 -409v-19h-303v14l70 50l-195 364h-63v-358l82 -56v-14h-355v14l82 56v735l-84 57v13h389q334 0 334 -195q0 -192 -321 -252h-13z
M623 1102v-381h71q174 0 174 201q0 87 -36 133.5t-127 46.5h-82z" />
    <glyph glyph-name="macron" unicode="&#xaf;" horiz-adv-x="862" 
d="M72 1229v112h719v-112h-719z" />
    <glyph glyph-name="degree" unicode="&#xb0;" horiz-adv-x="626" 
d="M313 807q-127 0 -211 83.5t-84 211.5q0 117 85.5 206t209.5 89q128 0 211.5 -83t83.5 -212q0 -116 -85.5 -205.5t-209.5 -89.5zM313 866q99 0 165.5 67.5t66.5 168.5q0 103 -66.5 170t-165.5 67t-165 -67t-66 -170q0 -101 66.5 -168.5t164.5 -67.5z" />
    <glyph glyph-name="plusminus" unicode="&#xb1;" horiz-adv-x="862" 
d="M426 971v-258h360v-37h-360v-260h-39v260h-360v37h360v258h39zM786 307h-759v37h759v-37z" />
    <glyph glyph-name="uni00B2" unicode="&#xb2;" horiz-adv-x="651" 
d="M209 934h254q55 0 87.5 26.5t49.5 83.5h10v-294l-8 -9h-579v13l172 215q102 131 146 214.5t36 174.5q-5 59 -29 90t-61 25q-24 -3 -36 -24t-11.5 -54.5t7.5 -69t19 -74.5l-250 -65l-4 8q54 104 116 180.5t114 112t87.5 50.5t57.5 15q98 0 162.5 -43.5t64.5 -136.5
q0 -207 -319 -379z" />
    <glyph glyph-name="uni00B3" unicode="&#xb3;" horiz-adv-x="632" 
d="M645 1536v-6l-266 -285v-8q118 8 192 -43.5t74 -146.5q0 -35 -12.5 -73t-41 -81t-74.5 -77t-113 -59.5t-156.5 -30t-204.5 12.5l2 267h12q106 -94 202.5 -139.5t166.5 -45.5q28 0 52 6t43.5 24.5t19.5 47.5q0 24 -15 47.5t-50.5 48.5t-111.5 41.5t-182 18.5l-4 10
l248 278h-223q-103 0 -131 -114h-15v301l6 6h582z" />
    <glyph glyph-name="acute" unicode="&#xb4;" horiz-adv-x="518" 
d="M115 1536h405v-12l-442 -375h-21z" />
    <glyph glyph-name="paragraph" unicode="&#xb6;" horiz-adv-x="1126" 
d="M1094 1382v-12l-107 -119v-1120l107 -119v-12h-308v1346h-227v-1346h-305v12l104 119v584h-16q-144 0 -241 94.5t-97 234.5q0 141 94.5 237t235.5 101h760z" />
    <glyph glyph-name="periodcentered" unicode="&#xb7;" horiz-adv-x="528" 
d="M276 469q-92 0 -142 46.5t-50 131.5q0 82 50 128t142 46q88 0 136.5 -46t48.5 -128q0 -85 -48.5 -131.5t-136.5 -46.5z" />
    <glyph glyph-name="cedilla" unicode="&#xb8;" horiz-adv-x="387" 
d="M23 -287l194 312h41l-65 -117q39 -7 83.5 -30t82.5 -69.5t38 -101.5q0 -84 -86.5 -164t-236.5 -137l-6 12q127 68 127 158q0 57 -47.5 92t-122.5 33z" />
    <glyph glyph-name="uni00B9" unicode="&#xb9;" horiz-adv-x="458" 
d="M350 1518l-2 -705l64 -59v-13h-357v13l62 59l2 600l-86 14v13l309 106h8v-28z" />
    <glyph glyph-name="ordmasculine" unicode="&#xba;" horiz-adv-x="788" 
d="M395 580q-169 0 -274 114t-105 279q0 101 34.5 181t82.5 124t105 73.5t95 38.5t60 9q169 0 274 -115.5t105 -282.5q0 -73 -18.5 -135t-47.5 -104t-66.5 -75.5t-74.5 -52.5t-73 -32t-60 -17.5t-37 -4.5zM518 657q39 10 33.5 94.5t-59.5 252.5q-59 179 -112.5 257.5
t-107.5 61.5q-39 -10 -34.5 -94t57.5 -254q53 -176 110 -255.5t113 -62.5zM57 477v33h660v-33h-660z" />
    <glyph glyph-name="guillemotright" unicode="&#xbb;" horiz-adv-x="954" 
d="M561 524l-489 -530l-13 2l207 528v6l-207 488l13 2l489 -490v-6zM958 524l-489 -530l-12 2l205 528v6l-205 488l12 2l489 -490v-6z" />
    <glyph glyph-name="onequarter" unicode="&#xbc;" horiz-adv-x="1388" 
d="M55 596l62 59l2 600l-86 15v12l309 107h8v-29l-2 -705l64 -59v-12h-357v12zM639 723l262 659h262l-510 -669zM1341 211v-33h-147v-106l63 -60v-12h-354v12l60 60v106h-275v29l264 586h289v-13l-518 -569h240v178l217 199h12l2 -377h147zM356 0h-262l510 670l14 -11z" />
    <glyph glyph-name="onehalf" unicode="&#xbd;" horiz-adv-x="1351" 
d="M55 596l62 59l2 600l-86 15v12l309 107h8v-29l-2 -705l64 -59v-12h-357v12zM639 723l262 659h262l-510 -669zM893 193h254q55 0 87.5 26.5t49.5 83.5h10v-295l-6 -8h-579v12l170 215q102 131 146.5 214.5t37.5 174.5q-6 59 -30.5 90t-61.5 25q-24 -3 -36 -24t-11.5 -54
t7.5 -68.5t19 -74.5l-250 -66l-4 9q44 85 94 151.5t92 104t82.5 62t65.5 32.5t41 8q99 0 164 -43.5t65 -136.5q0 -206 -321 -379zM356 0h-262l510 670l14 -11z" />
    <glyph glyph-name="threequarters" unicode="&#xbe;" horiz-adv-x="1402" 
d="M696 723l262 659h263l-510 -669zM645 887q0 -35 -12.5 -73t-41 -81t-74.5 -76.5t-113 -59.5t-156.5 -30t-204.5 13l2 266h12q106 -94 202 -139t167 -45q46 0 80.5 17.5t34.5 59.5q0 24 -15 47.5t-50.5 48.5t-111.5 41.5t-182 18.5l-4 10l248 279h-223q-102 0 -131 -115
h-15v301l6 6h582v-6l-266 -285v-6q118 6 192 -45.5t74 -146.5zM1399 211v-33h-148v-106l62 -60v-12h-352v12l59 60v106h-275v29l265 586h288v-13l-518 -569h240v178l217 199h12l2 -377h148zM414 0h-264l512 670l14 -11z" />
    <glyph glyph-name="questiondown" unicode="&#xbf;" horiz-adv-x="940" 
d="M457 1075q92 0 142 -46t50 -132q0 -82 -50 -128t-142 -46q-88 0 -136.5 46t-48.5 128q0 86 48.5 132t136.5 46zM444 655h21q-98 -342 -100 -567q0 -131 36 -212t105 -81q23 0 40 6t29 19.5t19.5 31.5t9.5 46t1.5 58t-5 72t-11 84t-16.5 99l373 104l4 -10
q-69 -161 -153 -288.5t-167.5 -204.5t-161.5 -116.5t-144 -39.5q-74 0 -133.5 19.5t-97.5 51.5t-64 75.5t-36.5 89t-10.5 94.5q0 64 18.5 125.5t45 108t77 106t91 100t112.5 111t118 118.5z" />
    <glyph glyph-name="Agrave" unicode="&#xc0;" horiz-adv-x="1292" 
d="M567 1759l88 -323h-14l-500 311v12h426zM401 1382h420l467 -1362v-20h-557v12l103 115l-119 352h-342q3 -144 44 -266t111 -201v-12h-524v12l485 1110l-88 248v12zM373 516h329l-184 549h-12l-47 -133q-83 -205 -86 -416z" />
    <glyph glyph-name="Aacute" unicode="&#xc1;" horiz-adv-x="1292" 
d="M1130 1759v-12l-499 -311h-15l91 323h423zM401 1382h420l467 -1362v-20h-557v12l103 115l-119 352h-342q3 -144 44 -266t111 -201v-12h-524v12l485 1110l-88 248v12zM373 516h329l-184 549h-12l-47 -133q-83 -205 -86 -416z" />
    <glyph glyph-name="Acircumflex" unicode="&#xc2;" horiz-adv-x="1292" 
d="M958 1440l-327 90h-6l-324 -90v12l328 334h10l319 -334v-12zM401 1382h420l467 -1362v-20h-557v12l103 115l-119 352h-342q3 -144 44 -266t111 -201v-12h-524v12l485 1110l-88 248v12zM373 516h329l-184 549h-12l-47 -133q-83 -205 -86 -416z" />
    <glyph glyph-name="Atilde" unicode="&#xc3;" horiz-adv-x="1292" 
d="M387 1550q-102 0 -170 -100l-10 6q10 20 28.5 56.5t29 57.5t28 52.5t30.5 50t32.5 40.5t38 33.5t41.5 19.5t48 8q79 0 227.5 -51.5t213.5 -51.5q43 0 81.5 19t84.5 82l10 -7q-33 -67 -61 -115.5t-66.5 -99t-81.5 -77.5t-88 -27q-67 0 -142 26t-146 52t-128 26zM401 1382
h420l467 -1362v-20h-557v12l103 115l-119 352h-342q3 -144 44 -266t111 -201v-12h-524v12l485 1110l-88 248v12zM373 516h329l-184 549h-12l-47 -133q-83 -205 -86 -416z" />
    <glyph glyph-name="Adieresis" unicode="&#xc4;" horiz-adv-x="1292" 
d="M422 1468q-72 0 -113 38.5t-41 105.5q0 65 41 102t113 37q70 0 108.5 -37t38.5 -102q0 -68 -38.5 -106t-108.5 -38zM858 1468q-72 0 -111.5 38t-39.5 106q0 65 39.5 102t111.5 37q70 0 109 -37t39 -102q0 -68 -39 -106t-109 -38zM401 1382h420l467 -1362v-20h-557v12
l103 115l-119 352h-342q3 -144 44 -266t111 -201v-12h-524v12l485 1110l-88 248v12zM373 516h329l-184 549h-12l-47 -133q-83 -205 -86 -416z" />
    <glyph glyph-name="Aring" unicode="&#xc5;" horiz-adv-x="1292" 
d="M631 1409q-101 0 -171.5 70.5t-70.5 171.5q0 100 70.5 170.5t171.5 70.5q100 0 170.5 -70.5t70.5 -170.5q0 -101 -70.5 -171.5t-170.5 -70.5zM631 1786q-56 0 -94.5 -39t-38.5 -96t38.5 -96t94.5 -39t94.5 39t38.5 96t-38.5 96t-94.5 39zM401 1382h420l467 -1362v-20
h-557v12l103 115l-119 352h-342q3 -144 44 -266t111 -201v-12h-524v12l485 1110l-88 248v12zM373 516h329l-184 549h-12l-47 -133q-83 -205 -86 -416z" />
    <glyph glyph-name="AE" unicode="&#xc6;" horiz-adv-x="1914" 
d="M1866 582h12v-582h-1139v12l105 117v350h-309q-60 -281 -7 -467l-2 -12h-524l4 20l838 1223v10l-105 117v12h1127v-581h-13l-114 178q-42 68 -63.5 102t-53.5 79.5t-50 66t-47 46.5t-51.5 36t-56 21t-68.5 13.5t-81 2.5h-23v-631h23q45 0 78 9.5t72 37.5t80 85.5
t89 149.5h12v-600h-12q-92 167 -162 225t-157 58h-23v-643h35q37 0 66.5 1.5t57.5 8.5t48.5 12.5t44 21t39.5 27.5t39 38.5t38 46t41.5 59t45 68.5t51.5 83zM543 516h301v662l-74 -123q-162 -257 -227 -539z" />
    <glyph glyph-name="Ccedilla" unicode="&#xc7;" horiz-adv-x="1177" 
d="M727 -23q-7 0 -21.5 1.5t-21.5 1.5l-41 -72q39 -7 83.5 -30t83 -69.5t38.5 -101.5q0 -84 -86.5 -163.5t-237.5 -137.5l-6 12q127 68 127 158q0 57 -47.5 92t-122.5 33l-2 12l170 273q-132 18 -244 75t-194.5 147t-129 218t-46.5 279q0 118 30 219.5t77.5 172t110 127.5
t126 91t127.5 56.5t112 31t82 8.5q177 0 316.5 -70t197.5 -163l-372 -449l-11 4q-29 142 -66 248.5t-72 168t-75 99t-71.5 50t-65.5 12.5q-61 0 -106 -59t-45 -173q-1 -79 15.5 -165t49 -177t88 -172t127.5 -145.5t174.5 -102.5t220.5 -38q90 0 193 36l8 -12
q-119 -99 -278.5 -212.5t-194.5 -113.5z" />
    <glyph glyph-name="Egrave" unicode="&#xc8;" horiz-adv-x="1185" 
d="M535 1759l88 -323h-15l-499 311v12h426zM1139 582h12v-582h-1139v12l105 117v1124l-105 117v12h1127v-581h-13q-19 28 -58 89t-58 89q-41 67 -63 101.5t-53 80t-49.5 66t-47 46.5t-51 36t-56 20.5t-68.5 13.5t-81 3h-23v-631h21q46 0 79.5 9t72.5 37.5t80 86t89 149.5h10
v-600h-10q-92 167 -162.5 225t-158.5 58h-21v-643h35q41 0 73.5 3.5t60.5 8t53.5 18t46 25t44 37.5t41.5 46.5t45.5 62t48 74.5t56.5 91q19 28 59 90t58 89z" />
    <glyph glyph-name="Eacute" unicode="&#xc9;" horiz-adv-x="1185" 
d="M1096 1759v-12l-500 -311h-14l90 323h424zM1139 582h12v-582h-1139v12l105 117v1124l-105 117v12h1127v-581h-13q-19 28 -58 89t-58 89q-41 67 -63 101.5t-53 80t-49.5 66t-47 46.5t-51 36t-56 20.5t-68.5 13.5t-81 3h-23v-631h21q46 0 79.5 9t72.5 37.5t80 86t89 149.5
h10v-600h-10q-92 167 -162.5 225t-158.5 58h-21v-643h35q41 0 73.5 3.5t60.5 8t53.5 18t46 25t44 37.5t41.5 46.5t45.5 62t48 74.5t56.5 91q19 28 59 90t58 89z" />
    <glyph glyph-name="Ecircumflex" unicode="&#xca;" horiz-adv-x="1185" 
d="M924 1440l-328 90h-6l-324 -90v12l328 334h10l320 -334v-12zM1139 582h12v-582h-1139v12l105 117v1124l-105 117v12h1127v-581h-13q-19 28 -58 89t-58 89q-41 67 -63 101.5t-53 80t-49.5 66t-47 46.5t-51 36t-56 20.5t-68.5 13.5t-81 3h-23v-631h21q46 0 79.5 9
t72.5 37.5t80 86t89 149.5h10v-600h-10q-92 167 -162.5 225t-158.5 58h-21v-643h35q41 0 73.5 3.5t60.5 8t53.5 18t46 25t44 37.5t41.5 46.5t45.5 62t48 74.5t56.5 91q19 28 59 90t58 89z" />
    <glyph glyph-name="Edieresis" unicode="&#xcb;" horiz-adv-x="1185" 
d="M389 1468q-72 0 -112.5 38t-40.5 106q0 65 40.5 102t112.5 37q70 0 109 -37t39 -102q0 -68 -39 -106t-109 -38zM825 1468q-72 0 -111.5 38t-39.5 106q0 65 39.5 102t111.5 37q70 0 109 -37t39 -102q0 -68 -39 -106t-109 -38zM1139 582h12v-582h-1139v12l105 117v1124
l-105 117v12h1127v-581h-13q-19 28 -58 89t-58 89q-41 67 -63 101.5t-53 80t-49.5 66t-47 46.5t-51 36t-56 20.5t-68.5 13.5t-81 3h-23v-631h21q46 0 79.5 9t72.5 37.5t80 86t89 149.5h10v-600h-10q-92 167 -162.5 225t-158.5 58h-21v-643h35q41 0 73.5 3.5t60.5 8t53.5 18
t46 25t44 37.5t41.5 46.5t45.5 62t48 74.5t56.5 91q19 28 59 90t58 89z" />
    <glyph glyph-name="Igrave" unicode="&#xcc;" horiz-adv-x="634" 
d="M256 1759l88 -323h-14l-500 311v12h426zM623 1382v-12l-105 -115v-1128l105 -115v-12h-611v12l105 115v1128l-105 115v12h611z" />
    <glyph glyph-name="Iacute" unicode="&#xcd;" horiz-adv-x="634" 
d="M305 1436l90 323h424v-12l-500 -311h-14zM117 1255l-105 115v12h611v-12l-105 -115v-1128l105 -115v-12h-611v12l105 115v1128z" />
    <glyph glyph-name="Icircumflex" unicode="&#xce;" horiz-adv-x="634" 
d="M317 1786h11l319 -334v-12l-328 90h-6l-323 -90v12zM117 1255l-105 115v12h611v-12l-105 -115v-1128l105 -115v-12h-611v12l105 115v1128z" />
    <glyph glyph-name="Idieresis" unicode="&#xcf;" horiz-adv-x="634" 
d="M258 1612q0 -68 -38.5 -106t-108.5 -38q-72 0 -113 38.5t-41 105.5q0 65 41 102t113 37q70 0 108.5 -37t38.5 -102zM547 1751q70 0 108.5 -37t38.5 -102q0 -68 -38.5 -106t-108.5 -38q-72 0 -112 38t-40 106q0 65 40 102t112 37zM117 1255l-105 115v12h611v-12l-105 -115
v-1128l105 -115v-12h-611v12l105 115v1128z" />
    <glyph glyph-name="Eth" unicode="&#xd0;" horiz-adv-x="1339" 
d="M553 1382q758 0 758 -657q0 -105 -21 -202t-75.5 -194.5t-137 -168.5t-216 -115.5t-302.5 -44.5h-514v12l105 119v535h-138v36h138v549l-105 119v12h508zM551 41h41q114 0 178.5 63t92.5 202.5t28 385.5q0 356 -70 505t-260 149h-10v-644h156v-36h-156v-625z" />
    <glyph glyph-name="Ntilde" unicode="&#xd1;" horiz-adv-x="1306" 
d="M416 1550q-102 0 -170 -100l-10 6q10 20 28.5 56.5t29 57.5t28 52.5t30.5 50t32.5 40.5t38 33.5t41.5 19.5t48 8q79 0 227 -51.5t213 -51.5q43 0 81.5 19t84.5 82l10 -7q-33 -67 -61 -115.5t-66.5 -99t-81.5 -77.5t-88 -27q-67 0 -142 26t-145.5 52t-127.5 26zM750 1370
v12h467v-1386h-345l-669 1077h-10v-137q0 -503 428 -924v-12h-476v1130l-141 242v10h490l669 -1095l-2 4h13v121q0 253 -118.5 509.5t-305.5 448.5z" />
    <glyph glyph-name="Ograve" unicode="&#xd2;" horiz-adv-x="1333" 
d="M180 1747v12h426l88 -323h-14zM670 -31q-136 0 -256 56.5t-204 153t-132.5 229t-48.5 280.5q0 123 31 228.5t79.5 177.5t112 130t126 92t123.5 56.5t101.5 30.5t63.5 8q179 0 326 -96t230 -261t83 -362q0 -123 -31 -228.5t-79.5 -177.5t-112 -130t-125.5 -92t-123 -56.5
t-101 -30.5t-63 -8zM909 90q57 19 74 107t-13 242t-108 347q-106 265 -224 398.5t-216 105.5q-85 -28 -85.5 -188t103.5 -449q108 -285 238 -439.5t231 -123.5z" />
    <glyph glyph-name="Oacute" unicode="&#xd3;" horiz-adv-x="1333" 
d="M745 1759h424v-12l-499 -311h-15zM670 -31q-136 0 -256 56.5t-204 153t-132.5 229t-48.5 280.5q0 123 31 228.5t79.5 177.5t112 130t126 92t123.5 56.5t101.5 30.5t63.5 8q179 0 326 -96t230 -261t83 -362q0 -123 -31 -228.5t-79.5 -177.5t-112 -130t-125.5 -92
t-123 -56.5t-101 -30.5t-63 -8zM909 90q57 19 74 107t-13 242t-108 347q-106 265 -224 398.5t-216 105.5q-85 -28 -85.5 -188t103.5 -449q108 -285 238 -439.5t231 -123.5z" />
    <glyph glyph-name="Ocircumflex" unicode="&#xd4;" horiz-adv-x="1333" 
d="M340 1440v12l328 334h10l319 -334v-12l-327 90h-6zM670 -31q-136 0 -256 56.5t-204 153t-132.5 229t-48.5 280.5q0 123 31 228.5t79.5 177.5t112 130t126 92t123.5 56.5t101.5 30.5t63.5 8q179 0 326 -96t230 -261t83 -362q0 -123 -31 -228.5t-79.5 -177.5t-112 -130
t-125.5 -92t-123 -56.5t-101 -30.5t-63 -8zM909 90q57 19 74 107t-13 242t-108 347q-106 265 -224 398.5t-216 105.5q-85 -28 -85.5 -188t103.5 -449q108 -285 238 -439.5t231 -123.5z" />
    <glyph glyph-name="Otilde" unicode="&#xd5;" horiz-adv-x="1333" 
d="M1126 1772l11 -7q-33 -67 -61 -115.5t-66.5 -99t-81.5 -77.5t-88 -27q-67 0 -142 26t-146 52t-128 26q-102 0 -170 -100l-10 6q10 20 28.5 56.5t29 57.5t28 52.5t30.5 50t32.5 40.5t38 33.5t41.5 19.5t48 8q79 0 227.5 -51.5t213.5 -51.5q43 0 81 19t84 82zM670 -31
q-136 0 -256 56.5t-204 153t-132.5 229t-48.5 280.5q0 123 31 228.5t79.5 177.5t112 130t126 92t123.5 56.5t101.5 30.5t63.5 8q179 0 326 -96t230 -261t83 -362q0 -123 -31 -228.5t-79.5 -177.5t-112 -130t-125.5 -92t-123 -56.5t-101 -30.5t-63 -8zM909 90q57 19 74 107
t-13 242t-108 347q-106 265 -224 398.5t-216 105.5q-85 -28 -85.5 -188t103.5 -449q108 -285 238 -439.5t231 -123.5z" />
    <glyph glyph-name="Odieresis" unicode="&#xd6;" horiz-adv-x="1333" 
d="M461 1468q-72 0 -113 38.5t-41 105.5q0 65 41 102t113 37q70 0 108.5 -37t38.5 -102q0 -68 -38.5 -106t-108.5 -38zM897 1468q-72 0 -112 38t-40 106q0 65 40 102t112 37q70 0 108.5 -37t38.5 -102q0 -68 -38.5 -106t-108.5 -38zM670 -31q-136 0 -256 56.5t-204 153
t-132.5 229t-48.5 280.5q0 123 31 228.5t79.5 177.5t112 130t126 92t123.5 56.5t101.5 30.5t63.5 8q179 0 326 -96t230 -261t83 -362q0 -123 -31 -228.5t-79.5 -177.5t-112 -130t-125.5 -92t-123 -56.5t-101 -30.5t-63 -8zM909 90q57 19 74 107t-13 242t-108 347
q-106 265 -224 398.5t-216 105.5q-85 -28 -85.5 -188t103.5 -449q108 -285 238 -439.5t231 -123.5z" />
    <glyph glyph-name="multiply" unicode="&#xd7;" horiz-adv-x="681" 
d="M582 862l26 -26l-256 -256l256 -256l-24 -27l-258 258l-256 -256l-25 25l256 256l-256 256l27 24l254 -254z" />
    <glyph glyph-name="Oslash" unicode="&#xd8;" horiz-adv-x="1333" 
d="M1149 1382l-84 -125q112 -100 176 -247.5t64 -317.5q0 -123 -31 -228.5t-79.5 -177.5t-112 -130t-125.5 -92t-123 -56.5t-101 -30.5t-63 -8q-215 0 -377 131l-66 -100h-39l80 121q-113 99 -176 247t-63 320q0 123 31 228.5t79.5 177.5t112 130t126 92t123.5 56.5
t101.5 30.5t63.5 8q212 0 374 -133l70 104h39zM440 653q40 -103 72 -168l291 437q-96 200 -196.5 296.5t-184.5 71.5q-85 -28 -85.5 -188t103.5 -449zM909 90q57 19 74 107t-13 242t-108 347q-20 51 -43 101l-291 -436q97 -193 198.5 -289.5t182.5 -71.5z" />
    <glyph glyph-name="Ugrave" unicode="&#xd9;" horiz-adv-x="1318" 
d="M598 1759l88 -323h-14l-500 311v12h426zM1217 1382v-1251l104 -119v-12h-506v225q-151 -144 -224 -200t-114 -56q-360 0 -360 424v862l-2 -4l-107 119v12h510v-872q0 -50 1.5 -86t6.5 -74t14.5 -63.5t24.5 -46.5t37.5 -31t52.5 -10q91 0 160 86v966l-106 119v12h508z" />
    <glyph glyph-name="Uacute" unicode="&#xda;" horiz-adv-x="1318" 
d="M1159 1759v-12l-500 -311h-14l90 323h424zM1217 1382v-1251l104 -119v-12h-506v225q-151 -144 -224 -200t-114 -56q-360 0 -360 424v862l-2 -4l-107 119v12h510v-872q0 -50 1.5 -86t6.5 -74t14.5 -63.5t24.5 -46.5t37.5 -31t52.5 -10q91 0 160 86v966l-106 119v12h508z
" />
    <glyph glyph-name="Ucircumflex" unicode="&#xdb;" horiz-adv-x="1318" 
d="M987 1440l-328 90h-6l-323 -90v12l327 334h11l319 -334v-12zM1217 1382v-1251l104 -119v-12h-506v225q-151 -144 -224 -200t-114 -56q-360 0 -360 424v862l-2 -4l-107 119v12h510v-872q0 -50 1.5 -86t6.5 -74t14.5 -63.5t24.5 -46.5t37.5 -31t52.5 -10q91 0 160 86v966
l-106 119v12h508z" />
    <glyph glyph-name="Udieresis" unicode="&#xdc;" horiz-adv-x="1318" 
d="M453 1468q-72 0 -113 38.5t-41 105.5q0 65 41 102t113 37q70 0 108.5 -37t38.5 -102q0 -68 -38.5 -106t-108.5 -38zM889 1468q-72 0 -112 38t-40 106q0 65 40 102t112 37q70 0 108.5 -37t38.5 -102q0 -68 -38.5 -106t-108.5 -38zM1217 1382v-1251l104 -119v-12h-506v225
q-151 -144 -224 -200t-114 -56q-360 0 -360 424v862l-2 -4l-107 119v12h510v-872q0 -50 1.5 -86t6.5 -74t14.5 -63.5t24.5 -46.5t37.5 -31t52.5 -10q91 0 160 86v966l-106 119v12h508z" />
    <glyph glyph-name="Yacute" unicode="&#xdd;" horiz-adv-x="1257" 
d="M1141 1759v-12l-500 -311h-14l90 323h424zM1257 1382v-12l-423 -827v-416l104 -115v-12h-610v12l104 115v397l-416 846v12h580v-12l-94 -110l305 -660l33 59q31 55 41.5 147.5t-1 195t-61.5 204.5t-131 164v12h569z" />
    <glyph glyph-name="Thorn" unicode="&#xde;" horiz-adv-x="1206" 
d="M596 240h-80v-113h2l105 -115v-12h-611v12l103 113v1132l-103 113v12h611v-12l-105 -115h-2v-108h21q145 0 248 -11t189 -38.5t137 -75.5t78.5 -121t27.5 -176q0 -235 -153 -360t-468 -125zM559 1110h-43v-834h53q51 1 85.5 7.5t63.5 25t46 48t28.5 78.5t16 112.5
t4.5 154.5q0 86 -4 145.5t-15.5 107.5t-29 76t-47 46.5t-67 25.5t-91.5 7z" />
    <glyph glyph-name="germandbls" unicode="&#xdf;" horiz-adv-x="1335" 
d="M1114 768l96 -111q154 -174 154 -333q0 -76 -32 -142t-83.5 -110.5t-118 -69.5t-135.5 -25q-57 0 -198 26t-201 26l-27 663l13 2q120 -322 230.5 -501t201.5 -179q38 0 61 21.5t23 58.5q0 66 -86 174l-172 215q-92 115 -123 185t-31 141q0 39 10 73.5t22 57t36.5 47.5
t37 35.5t43 31.5t35.5 25l9 8q77 62 77 144q0 105 -121 196t-274 91q-205 0 -205 -158q0 -43 19.5 -93t43 -85t42.5 -67.5t18 -45.5v-1069h-456v12l96 80h2v909l-162 78v11h160v20q-4 90 23 163.5t71.5 121t108 83.5t123 54.5t128 30t111.5 14t84 2.5q87 0 168.5 -14
t152 -42t113.5 -76t43 -110q0 -53 -32.5 -91t-79 -59t-94 -39.5t-81.5 -43t-36 -57.5l-2 -7q-3 -21 3 -42t26 -47t40 -47.5t58 -62t67 -73.5z" />
    <glyph glyph-name="agrave" unicode="&#xe0;" horiz-adv-x="1081" 
d="M526 1536l56 -387h-19l-444 375v12h407zM963 233l151 78l8 -10q-15 -21 -50.5 -72t-50 -71t-44 -58t-47.5 -53.5t-44 -36t-50.5 -28t-51.5 -7.5q-81 0 -123.5 64.5t-31.5 222.5h-11q-28 -63 -58.5 -110.5t-72 -90t-96.5 -65.5t-121 -23q-106 0 -171.5 59.5t-65.5 160.5
q0 56 21.5 106.5t54 87.5t83 73.5t94.5 60.5t103 52l227 101q0 156 -44 247t-117 85q-33 -2 -54.5 -21t-32.5 -56.5t-3.5 -102t34.5 -150.5l-379 -109l-6 13q49 107 111.5 194.5t120 142.5t121 96.5t112 61.5t96 32t69 14.5t34.5 2.5q54 0 97 -8t75 -21t55.5 -36.5t39 -46
t25 -60t13.5 -67t4.5 -78t-1 -83t-5.5 -91.5l-18 -369v-31zM471 221q35 0 73.5 27.5t67.5 83.5l4 295q-125 -84 -180 -154.5t-55 -138.5q0 -57 28 -85t62 -28z" />
    <glyph glyph-name="aacute" unicode="&#xe1;" horiz-adv-x="1081" 
d="M1026 1536v-12l-442 -375h-21l58 387h405zM963 233l151 78l8 -10q-15 -21 -50.5 -72t-50 -71t-44 -58t-47.5 -53.5t-44 -36t-50.5 -28t-51.5 -7.5q-81 0 -123.5 64.5t-31.5 222.5h-11q-28 -63 -58.5 -110.5t-72 -90t-96.5 -65.5t-121 -23q-106 0 -171.5 59.5t-65.5 160.5
q0 56 21.5 106.5t54 87.5t83 73.5t94.5 60.5t103 52l227 101q0 156 -44 247t-117 85q-33 -2 -54.5 -21t-32.5 -56.5t-3.5 -102t34.5 -150.5l-379 -109l-6 13q49 107 111.5 194.5t120 142.5t121 96.5t112 61.5t96 32t69 14.5t34.5 2.5q54 0 97 -8t75 -21t55.5 -36.5t39 -46
t25 -60t13.5 -67t4.5 -78t-1 -83t-5.5 -91.5l-18 -369v-31zM471 221q35 0 73.5 27.5t67.5 83.5l4 295q-125 -84 -180 -154.5t-55 -138.5q0 -57 28 -85t62 -28z" />
    <glyph glyph-name="acircumflex" unicode="&#xe2;" horiz-adv-x="1081" 
d="M895 1145l-317 110h-7l-313 -110v12l317 387h15l305 -387v-12zM963 233l151 78l8 -10q-15 -21 -50.5 -72t-50 -71t-44 -58t-47.5 -53.5t-44 -36t-50.5 -28t-51.5 -7.5q-81 0 -123.5 64.5t-31.5 222.5h-11q-28 -63 -58.5 -110.5t-72 -90t-96.5 -65.5t-121 -23
q-106 0 -171.5 59.5t-65.5 160.5q0 56 21.5 106.5t54 87.5t83 73.5t94.5 60.5t103 52l227 101q0 156 -44 247t-117 85q-33 -2 -54.5 -21t-32.5 -56.5t-3.5 -102t34.5 -150.5l-379 -109l-6 13q49 107 111.5 194.5t120 142.5t121 96.5t112 61.5t96 32t69 14.5t34.5 2.5
q54 0 97 -8t75 -21t55.5 -36.5t39 -46t25 -60t13.5 -67t4.5 -78t-1 -83t-5.5 -91.5l-18 -369v-31zM471 221q35 0 73.5 27.5t67.5 83.5l4 295q-125 -84 -180 -154.5t-55 -138.5q0 -57 28 -85t62 -28z" />
    <glyph glyph-name="atilde" unicode="&#xe3;" horiz-adv-x="1081" 
d="M315 1282q-21 0 -37.5 -2.5t-40 -11.5t-48 -30t-48.5 -54l-10 6q10 19 32 63.5t33.5 66t32.5 57t38 54t40.5 39t49.5 29t55 8.5q72 0 157.5 -25t164.5 -50t134 -25q28 0 49 4.5t53.5 28.5t65.5 69l13 -6q-32 -66 -61.5 -116t-67.5 -99.5t-82 -76.5t-90 -27q-83 0 -225 49
t-208 49zM963 233l151 78l8 -10q-15 -21 -50.5 -72t-50 -71t-44 -58t-47.5 -53.5t-44 -36t-50.5 -28t-51.5 -7.5q-81 0 -123.5 64.5t-31.5 222.5h-11q-28 -63 -58.5 -110.5t-72 -90t-96.5 -65.5t-121 -23q-106 0 -171.5 59.5t-65.5 160.5q0 56 21.5 106.5t54 87.5t83 73.5
t94.5 60.5t103 52l227 101q0 156 -44 247t-117 85q-33 -2 -54.5 -21t-32.5 -56.5t-3.5 -102t34.5 -150.5l-379 -109l-6 13q49 107 111.5 194.5t120 142.5t121 96.5t112 61.5t96 32t69 14.5t34.5 2.5q54 0 97 -8t75 -21t55.5 -36.5t39 -46t25 -60t13.5 -67t4.5 -78t-1 -83
t-5.5 -91.5l-18 -369v-31zM471 221q35 0 73.5 27.5t67.5 83.5l4 295q-125 -84 -180 -154.5t-55 -138.5q0 -57 28 -85t62 -28z" />
    <glyph glyph-name="adieresis" unicode="&#xe4;" horiz-adv-x="1081" 
d="M367 1176q-72 0 -113 38t-41 105q0 65 41 102t113 37q70 0 108.5 -37t38.5 -102q0 -68 -38.5 -105.5t-108.5 -37.5zM803 1176q-72 0 -112 37.5t-40 105.5q0 65 40 102t112 37q70 0 108.5 -37t38.5 -102q0 -68 -38.5 -105.5t-108.5 -37.5zM963 233l151 78l8 -10
q-15 -21 -50.5 -72t-50 -71t-44 -58t-47.5 -53.5t-44 -36t-50.5 -28t-51.5 -7.5q-81 0 -123.5 64.5t-31.5 222.5h-11q-28 -63 -58.5 -110.5t-72 -90t-96.5 -65.5t-121 -23q-106 0 -171.5 59.5t-65.5 160.5q0 56 21.5 106.5t54 87.5t83 73.5t94.5 60.5t103 52l227 101
q0 156 -44 247t-117 85q-33 -2 -54.5 -21t-32.5 -56.5t-3.5 -102t34.5 -150.5l-379 -109l-6 13q49 107 111.5 194.5t120 142.5t121 96.5t112 61.5t96 32t69 14.5t34.5 2.5q54 0 97 -8t75 -21t55.5 -36.5t39 -46t25 -60t13.5 -67t4.5 -78t-1 -83t-5.5 -91.5l-18 -369v-31z
M471 221q35 0 73.5 27.5t67.5 83.5l4 295q-125 -84 -180 -154.5t-55 -138.5q0 -57 28 -85t62 -28z" />
    <glyph glyph-name="aring" unicode="&#xe5;" horiz-adv-x="1081" 
d="M573 1163q-101 0 -171 70.5t-70 171.5q0 100 70 171t171 71q100 0 171 -71t71 -171q0 -101 -71 -171.5t-171 -70.5zM573 1540q-56 0 -94.5 -39t-38.5 -96t38.5 -96t94.5 -39t95 39t39 96t-39 96t-95 39zM963 233l151 78l8 -10q-15 -21 -50.5 -72t-50 -71t-44 -58
t-47.5 -53.5t-44 -36t-50.5 -28t-51.5 -7.5q-81 0 -123.5 64.5t-31.5 222.5h-11q-28 -63 -58.5 -110.5t-72 -90t-96.5 -65.5t-121 -23q-106 0 -171.5 59.5t-65.5 160.5q0 56 21.5 106.5t54 87.5t83 73.5t94.5 60.5t103 52l227 101q0 156 -44 247t-117 85q-33 -2 -54.5 -21
t-32.5 -56.5t-3.5 -102t34.5 -150.5l-379 -109l-6 13q49 107 111.5 194.5t120 142.5t121 96.5t112 61.5t96 32t69 14.5t34.5 2.5q54 0 97 -8t75 -21t55.5 -36.5t39 -46t25 -60t13.5 -67t4.5 -78t-1 -83t-5.5 -91.5l-18 -369v-31zM471 221q35 0 73.5 27.5t67.5 83.5l4 295
q-125 -84 -180 -154.5t-55 -138.5q0 -57 28 -85t62 -28z" />
    <glyph glyph-name="ae" unicode="&#xe6;" horiz-adv-x="1607" 
d="M1591 303l8 -10q-132 -146 -241 -235t-160 -89q-404 0 -528 312h-11q-114 -308 -391 -308q-104 0 -169.5 58.5t-65.5 158.5q0 47 13 86.5t51.5 79.5t73.5 69t117.5 75t141.5 76t184 92q-3 169 -48 260.5t-117 85.5q-31 -2 -52 -20.5t-32 -56t-3 -104.5t37 -157l-379 -109
l-6 13q50 107 112 194.5t120 142.5t121.5 96.5t112 61.5t95.5 32t68.5 14.5t34.5 2.5q142 0 217 -102q60 43 148 70.5t135 27.5q185 0 288 -101.5t117 -264.5q0 -27 -74.5 -71.5t-164 -78t-130.5 -33.5h-239q28 -66 65 -121t87.5 -102t118 -73.5t145.5 -26.5q95 0 200 55z
M1008 1022q-45 0 -72.5 -44t-24.5 -138q7 -120 52 -234h243q-3 167 -58.5 291.5t-139.5 124.5zM477 221q44 0 89 32t79 101q-31 121 -31 271q-123 -83 -177 -153.5t-54 -139.5q0 -56 28.5 -83.5t65.5 -27.5z" />
    <glyph glyph-name="ccedilla" unicode="&#xe7;" horiz-adv-x="954" 
d="M598 -31h-25l-34 -61q39 -7 83.5 -30t82.5 -69.5t38 -101.5q0 -84 -86.5 -164t-236.5 -137l-6 12q127 68 127 158q0 57 -47.5 92t-122.5 33l-2 12l161 258q-226 22 -364.5 170.5t-138.5 390.5q0 98 24.5 183t64.5 143.5t92 105.5t104.5 75.5t106 47.5t92.5 26t67 7
q90 0 167.5 -25.5t124 -63t73.5 -71t34 -57.5l-340 -291l-12 6q-12 103 -44.5 195.5t-82.5 152.5t-103 60q-49 0 -78.5 -40t-29.5 -122q0 -70 23 -152.5t68 -163.5t104.5 -148t140.5 -108.5t168 -41.5q91 0 200 57l10 -12q-135 -148 -243.5 -237t-159.5 -89z" />
    <glyph glyph-name="egrave" unicode="&#xe8;" horiz-adv-x="1009" 
d="M492 1536l55 -387h-19l-444 375v12h408zM993 307l11 -12q-299 -326 -396 -326q-164 0 -295.5 66.5t-208.5 195t-77 297.5q0 100 25 185.5t65.5 144.5t93.5 106.5t106.5 75.5t107.5 47t93.5 26t67.5 7q186 0 286 -101t113 -265q0 -27 -72 -71.5t-158.5 -78t-127.5 -33.5
h-256q65 -141 174 -231t256 -90q83 0 192 57zM414 1026q-47 0 -77 -45t-30 -133q0 -118 49 -240h262q-5 179 -63 298.5t-141 119.5z" />
    <glyph glyph-name="eacute" unicode="&#xe9;" horiz-adv-x="1009" 
d="M991 1536v-12l-442 -375h-21l58 387h405zM993 307l11 -12q-299 -326 -396 -326q-164 0 -295.5 66.5t-208.5 195t-77 297.5q0 100 25 185.5t65.5 144.5t93.5 106.5t106.5 75.5t107.5 47t93.5 26t67.5 7q186 0 286 -101t113 -265q0 -27 -72 -71.5t-158.5 -78t-127.5 -33.5
h-256q65 -141 174 -231t256 -90q83 0 192 57zM414 1026q-47 0 -77 -45t-30 -133q0 -118 49 -240h262q-5 179 -63 298.5t-141 119.5z" />
    <glyph glyph-name="ecircumflex" unicode="&#xea;" horiz-adv-x="1009" 
d="M860 1145l-317 110h-6l-314 -110v12l318 387h14l305 -387v-12zM993 307l11 -12q-299 -326 -396 -326q-164 0 -295.5 66.5t-208.5 195t-77 297.5q0 100 25 185.5t65.5 144.5t93.5 106.5t106.5 75.5t107.5 47t93.5 26t67.5 7q186 0 286 -101t113 -265q0 -27 -72 -71.5
t-158.5 -78t-127.5 -33.5h-256q65 -141 174 -231t256 -90q83 0 192 57zM414 1026q-47 0 -77 -45t-30 -133q0 -118 49 -240h262q-5 179 -63 298.5t-141 119.5z" />
    <glyph glyph-name="edieresis" unicode="&#xeb;" horiz-adv-x="1009" 
d="M332 1176q-72 0 -113 38t-41 105q0 65 41 102t113 37q70 0 108.5 -37t38.5 -102q0 -68 -38.5 -105.5t-108.5 -37.5zM768 1176q-72 0 -112 37.5t-40 105.5q0 65 40 102t112 37q70 0 108.5 -37t38.5 -102q0 -68 -38.5 -105.5t-108.5 -37.5zM993 307l11 -12
q-299 -326 -396 -326q-164 0 -295.5 66.5t-208.5 195t-77 297.5q0 100 25 185.5t65.5 144.5t93.5 106.5t106.5 75.5t107.5 47t93.5 26t67.5 7q186 0 286 -101t113 -265q0 -27 -72 -71.5t-158.5 -78t-127.5 -33.5h-256q65 -141 174 -231t256 -90q83 0 192 57zM414 1026
q-47 0 -77 -45t-30 -133q0 -118 49 -240h262q-5 179 -63 298.5t-141 119.5z" />
    <glyph glyph-name="igrave" unicode="&#xec;" horiz-adv-x="579" 
d="M242 1536l55 -387h-18l-445 375v12h408zM477 88l92 -76v-12h-553v12l95 78v922l-93 65v13h459v-1002z" />
    <glyph glyph-name="iacute" unicode="&#xed;" horiz-adv-x="579" 
d="M281 1149l57 387h405v-12l-442 -375h-20zM477 88l92 -76v-12h-553v12l95 78v922l-93 65v13h459v-1002z" />
    <glyph glyph-name="icircumflex" unicode="&#xee;" horiz-adv-x="579" 
d="M293 1544h14l305 -387v-12l-317 110h-6l-314 -110v12zM477 88l92 -76v-12h-553v12l95 78v922l-93 65v13h459v-1002z" />
    <glyph glyph-name="idieresis" unicode="&#xef;" horiz-adv-x="579" 
d="M229 1319q0 -68 -38.5 -105.5t-108.5 -37.5q-72 0 -113 38t-41 105q0 65 41 102t113 37q70 0 108.5 -37t38.5 -102zM518 1458q70 0 109 -37t39 -102q0 -68 -39 -105.5t-109 -37.5q-72 0 -111.5 37.5t-39.5 105.5q0 65 39.5 102t111.5 37zM477 88l92 -76v-12h-553v12
l95 78v922l-93 65v13h459v-1002z" />
    <glyph glyph-name="eth" unicode="&#xf0;" horiz-adv-x="1095" 
d="M950 1481l-248 -138q182 -152 277 -347.5t92 -399.5q-2 -125 -39.5 -231.5t-93.5 -176t-124.5 -119t-132.5 -71t-118 -21.5q-79 0 -151.5 16t-144 56.5t-123.5 103.5t-84.5 164.5t-32.5 231.5q0 110 29.5 201t74.5 147t100.5 94.5t105 54t91.5 15.5q129 0 248 -119l12 2
q-55 175 -131 318l-252 -142l-22 35l254 141q-78 136 -175 230l15 12q163 -67 291 -168l258 143zM733 74q115 49 -41 491q-86 238 -162.5 350t-148.5 91q-115 -43 39 -482q86 -244 163.5 -357t149.5 -93z" />
    <glyph glyph-name="ntilde" unicode="&#xf1;" horiz-adv-x="1204" 
d="M346 1282q-21 0 -37.5 -2.5t-40 -11.5t-48 -30t-48.5 -54l-10 6q10 20 32 63.5t33.5 66t32.5 57.5t38 53.5t40 39t49 29t55 8.5q72 0 158 -25t165 -50t134 -25q28 0 49 4.5t53.5 28.5t65.5 69l12 -6q-32 -66 -61.5 -116t-67.5 -99.5t-82 -76.5t-90 -27q-83 0 -224.5 49
t-207.5 49zM1106 760v-672l90 -76v-12h-551v12l94 80h2v643q0 133 -110 133q-74 0 -123 -73v-703l96 -80v-12h-551v12l94 80v766l-151 -76l-8 11q14 19 39.5 56t38.5 55.5t35.5 49t36.5 46.5t34.5 38t37 33.5t36.5 23.5t39.5 16.5t40.5 4.5q39 0 68.5 -13.5t52.5 -45t32 -91
t2 -143.5h2q215 295 310 295q83 0 144.5 -28t97.5 -77.5t53.5 -113t17.5 -139.5z" />
    <glyph glyph-name="ograve" unicode="&#xf2;" horiz-adv-x="1110" 
d="M90 1524v12h408l55 -387h-18zM557 -31q-158 0 -280.5 76t-186 201.5t-63.5 275.5q0 103 25.5 191t66 147.5t93 106.5t104 74.5t102 45.5t83.5 24.5t52 6.5q159 0 281 -76t185.5 -202.5t63.5 -280.5q0 -102 -25.5 -188.5t-66 -145.5t-93 -106t-104 -74.5t-102 -45
t-83.5 -24t-52 -6.5zM737 70q36 15 44.5 68t-13.5 158.5t-78 268.5q-90 256 -166 367t-149 88q-38 -14 -47.5 -67t11 -159t75.5 -270q88 -255 166.5 -366t156.5 -88z" />
    <glyph glyph-name="oacute" unicode="&#xf3;" horiz-adv-x="1110" 
d="M594 1536h405v-12l-442 -375h-20zM557 -31q-158 0 -280.5 76t-186 201.5t-63.5 275.5q0 103 25.5 191t66 147.5t93 106.5t104 74.5t102 45.5t83.5 24.5t52 6.5q159 0 281 -76t185.5 -202.5t63.5 -280.5q0 -102 -25.5 -188.5t-66 -145.5t-93 -106t-104 -74.5t-102 -45
t-83.5 -24t-52 -6.5zM737 70q36 15 44.5 68t-13.5 158.5t-78 268.5q-90 256 -166 367t-149 88q-38 -14 -47.5 -67t11 -159t75.5 -270q88 -255 166.5 -366t156.5 -88z" />
    <glyph glyph-name="ocircumflex" unicode="&#xf4;" horiz-adv-x="1110" 
d="M231 1145v12l318 387h14l305 -387v-12l-317 110h-6zM557 -31q-158 0 -280.5 76t-186 201.5t-63.5 275.5q0 103 25.5 191t66 147.5t93 106.5t104 74.5t102 45.5t83.5 24.5t52 6.5q159 0 281 -76t185.5 -202.5t63.5 -280.5q0 -102 -25.5 -188.5t-66 -145.5t-93 -106
t-104 -74.5t-102 -45t-83.5 -24t-52 -6.5zM737 70q36 15 44.5 68t-13.5 158.5t-78 268.5q-90 256 -166 367t-149 88q-38 -14 -47.5 -67t11 -159t75.5 -270q88 -255 166.5 -366t156.5 -88z" />
    <glyph glyph-name="otilde" unicode="&#xf5;" horiz-adv-x="1110" 
d="M1010 1509l12 -6q-32 -66 -61.5 -116t-67.5 -99.5t-82 -76.5t-90 -27q-83 0 -224.5 49t-207.5 49q-21 0 -37.5 -2.5t-40 -11.5t-48 -30t-48.5 -54l-11 6q10 19 32 63.5t33.5 66t32.5 57t38 54t40.5 39t49.5 29t55 8.5q72 0 158 -25t165 -50t134 -25q28 0 49 4.5
t53.5 28.5t65.5 69zM557 -31q-158 0 -280.5 76t-186 201.5t-63.5 275.5q0 103 25.5 191t66 147.5t93 106.5t104 74.5t102 45.5t83.5 24.5t52 6.5q159 0 281 -76t185.5 -202.5t63.5 -280.5q0 -102 -25.5 -188.5t-66 -145.5t-93 -106t-104 -74.5t-102 -45t-83.5 -24t-52 -6.5z
M737 70q36 15 44.5 68t-13.5 158.5t-78 268.5q-90 256 -166 367t-149 88q-38 -14 -47.5 -67t11 -159t75.5 -270q88 -255 166.5 -366t156.5 -88z" />
    <glyph glyph-name="odieresis" unicode="&#xf6;" horiz-adv-x="1110" 
d="M340 1176q-72 0 -113 38t-41 105q0 65 41 102t113 37q70 0 108.5 -37t38.5 -102q0 -68 -38.5 -105.5t-108.5 -37.5zM776 1176q-72 0 -111.5 37.5t-39.5 105.5q0 65 39.5 102t111.5 37q70 0 109 -37t39 -102q0 -68 -39 -105.5t-109 -37.5zM557 -31q-158 0 -280.5 76
t-186 201.5t-63.5 275.5q0 103 25.5 191t66 147.5t93 106.5t104 74.5t102 45.5t83.5 24.5t52 6.5q159 0 281 -76t185.5 -202.5t63.5 -280.5q0 -102 -25.5 -188.5t-66 -145.5t-93 -106t-104 -74.5t-102 -45t-83.5 -24t-52 -6.5zM737 70q36 15 44.5 68t-13.5 158.5t-78 268.5
q-90 256 -166 367t-149 88q-38 -14 -47.5 -67t11 -159t75.5 -270q88 -255 166.5 -366t156.5 -88z" />
    <glyph glyph-name="divide" unicode="&#xf7;" horiz-adv-x="827" 
d="M416 745q-53 0 -82 27t-29 76q0 47 29.5 74.5t81.5 27.5t80 -27t28 -75q0 -50 -28 -76.5t-80 -26.5zM35 547v37h760v-37h-760zM416 176q-52 0 -81.5 27.5t-29.5 77.5q0 47 29.5 73.5t81.5 26.5t80 -26t28 -74q0 -50 -28 -77.5t-80 -27.5z" />
    <glyph glyph-name="oslash" unicode="&#xf8;" horiz-adv-x="1110" 
d="M1014 1137l-109 -148q86 -78 132 -189.5t46 -240.5q0 -102 -25.5 -188.5t-66 -145.5t-93 -106t-104 -74.5t-102 -45t-83.5 -24t-52 -6.5q-178 0 -319 103l-91 -125h-32l102 141q-91 76 -140.5 189.5t-49.5 244.5q0 103 25.5 191t66 147.5t93 106.5t104 74.5t102 45.5
t83.5 24.5t52 6.5q195 0 332 -112l94 131h35zM414 524q26 -73 41 -110l192 266q-76 193 -142 276.5t-130 63.5q-38 -14 -47.5 -67t11 -159t75.5 -270zM737 70q36 15 44.5 68t-13.5 158.5t-78 268.5l-31 84l-194 -266q72 -179 139 -256t133 -57z" />
    <glyph glyph-name="ugrave" unicode="&#xf9;" horiz-adv-x="1171" 
d="M530 1536l56 -387h-19l-444 375v12h407zM1059 229l151 76l9 -10l-39 -57t-39 -56t-35.5 -49.5t-36.5 -47t-35 -38t-37 -33.5t-36 -23.5t-39.5 -17t-40.5 -4.5q-83 0 -126 66.5t-30 230.5q-217 -295 -309 -295q-83 -1 -145 27t-98 78.5t-53.5 113.5t-17.5 140v682l-94 65
v13h459v-80h-2v-656q0 -72 31 -103.5t82 -31.5q67 0 118 68v723l-96 67v13h459v-861z" />
    <glyph glyph-name="uacute" unicode="&#xfa;" horiz-adv-x="1171" 
d="M1030 1536v-12l-442 -375h-21l58 387h405zM1059 229l151 76l9 -10l-39 -57t-39 -56t-35.5 -49.5t-36.5 -47t-35 -38t-37 -33.5t-36 -23.5t-39.5 -17t-40.5 -4.5q-83 0 -126 66.5t-30 230.5q-217 -295 -309 -295q-83 -1 -145 27t-98 78.5t-53.5 113.5t-17.5 140v682
l-94 65v13h459v-80h-2v-656q0 -72 31 -103.5t82 -31.5q67 0 118 68v723l-96 67v13h459v-861z" />
    <glyph glyph-name="ucircumflex" unicode="&#xfb;" horiz-adv-x="1171" 
d="M899 1145l-317 110h-7l-313 -110v12l318 387h14l305 -387v-12zM1059 229l151 76l9 -10l-39 -57t-39 -56t-35.5 -49.5t-36.5 -47t-35 -38t-37 -33.5t-36 -23.5t-39.5 -17t-40.5 -4.5q-83 0 -126 66.5t-30 230.5q-217 -295 -309 -295q-83 -1 -145 27t-98 78.5t-53.5 113.5
t-17.5 140v682l-94 65v13h459v-80h-2v-656q0 -72 31 -103.5t82 -31.5q67 0 118 68v723l-96 67v13h459v-861z" />
    <glyph glyph-name="udieresis" unicode="&#xfc;" horiz-adv-x="1171" 
d="M371 1176q-72 0 -113 38t-41 105q0 65 41 102t113 37q70 0 108.5 -37t38.5 -102q0 -68 -38.5 -105.5t-108.5 -37.5zM807 1176q-72 0 -112 37.5t-40 105.5q0 65 40 102t112 37q70 0 108.5 -37t38.5 -102q0 -68 -38.5 -105.5t-108.5 -37.5zM1059 229l151 76l9 -10l-39 -57
t-39 -56t-35.5 -49.5t-36.5 -47t-35 -38t-37 -33.5t-36 -23.5t-39.5 -17t-40.5 -4.5q-83 0 -126 66.5t-30 230.5q-217 -295 -309 -295q-83 -1 -145 27t-98 78.5t-53.5 113.5t-17.5 140v682l-94 65v13h459v-80h-2v-656q0 -72 31 -103.5t82 -31.5q67 0 118 68v723l-96 67v13
h459v-861z" />
    <glyph glyph-name="yacute" unicode="&#xfd;" horiz-adv-x="937" 
d="M942 1536v-12l-442 -375h-21l58 387h405zM524 1090h469v-13l-32 -73l32 65l-702 -1581h-373v12l528 508l-493 1069v13h514v-13l-105 -73l275 -617h6l29 57l8 23q51 174 3.5 350t-159.5 260v13z" />
    <glyph glyph-name="thorn" unicode="&#xfe;" horiz-adv-x="1155" 
d="M733 1104q197 -24 292 -160.5t95 -351.5q0 -107 -23 -197.5t-60 -151.5t-86.5 -109.5t-99 -76.5t-101.5 -46t-90 -24.5t-68 -6.5q-61 0 -105 8v-410l95 -78v-12h-551v12l94 80v1806l-129 46v12l479 145h12v-731q16 18 40 44.5t38.5 43t34.5 38.5t32.5 35.5t27.5 29
t25 24.5t20 17t17 11.5t11 2.5zM621 33q32 0 56 15t44.5 51t31.5 106t11 172q0 495 -168 495q-26 0 -56 -15t-53 -40v-561q6 -116 44 -169.5t90 -53.5z" />
    <glyph glyph-name="ydieresis" unicode="&#xff;" horiz-adv-x="937" 
d="M283 1176q-72 0 -113 38t-41 105q0 65 41 102t113 37q70 0 108.5 -37t38.5 -102q0 -68 -38.5 -105.5t-108.5 -37.5zM719 1176q-72 0 -112 37.5t-40 105.5q0 65 40 102t112 37q70 0 108.5 -37t38.5 -102q0 -68 -38.5 -105.5t-108.5 -37.5zM524 1090h469v-13l-32 -73l32 65
l-702 -1581h-373v12l528 508l-493 1069v13h514v-13l-105 -73l275 -617h6l29 57l8 23q51 174 3.5 350t-159.5 260v13z" />
    <glyph glyph-name="Amacron" unicode="&#x100;" horiz-adv-x="1292" 
d="M276 1651h707v-135h-707v135zM401 1382h420l467 -1362v-20h-557v12l103 115l-119 352h-342q3 -144 44 -266t111 -201v-12h-524v12l485 1110l-88 248v12zM373 516h329l-184 549h-12l-47 -133q-83 -205 -86 -416z" />
    <glyph glyph-name="amacron" unicode="&#x101;" horiz-adv-x="1081" 
d="M213 1352h719v-113h-719v113zM963 233l151 78l8 -10q-15 -21 -50.5 -72t-50 -71t-44 -58t-47.5 -53.5t-44 -36t-50.5 -28t-51.5 -7.5q-81 0 -123.5 64.5t-31.5 222.5h-11q-28 -63 -58.5 -110.5t-72 -90t-96.5 -65.5t-121 -23q-106 0 -171.5 59.5t-65.5 160.5
q0 56 21.5 106.5t54 87.5t83 73.5t94.5 60.5t103 52l227 101q0 156 -44 247t-117 85q-33 -2 -54.5 -21t-32.5 -56.5t-3.5 -102t34.5 -150.5l-379 -109l-6 13q49 107 111.5 194.5t120 142.5t121 96.5t112 61.5t96 32t69 14.5t34.5 2.5q54 0 97 -8t75 -21t55.5 -36.5t39 -46
t25 -60t13.5 -67t4.5 -78t-1 -83t-5.5 -91.5l-18 -369v-31zM471 221q35 0 73.5 27.5t67.5 83.5l4 295q-125 -84 -180 -154.5t-55 -138.5q0 -57 28 -85t62 -28z" />
    <glyph glyph-name="Abreve" unicode="&#x102;" horiz-adv-x="1292" 
d="M629 1444q-128 0 -209.5 82t-81.5 227h14q17 -47 96 -68.5t181 -21.5q103 0 182 21.5t96 68.5h15q0 -145 -81.5 -227t-211.5 -82zM401 1382h420l467 -1362v-20h-557v12l103 115l-119 352h-342q3 -144 44 -266t111 -201v-12h-524v12l485 1110l-88 248v12zM373 516h329
l-184 549h-12l-47 -133q-83 -205 -86 -416z" />
    <glyph glyph-name="abreve" unicode="&#x103;" horiz-adv-x="1081" 
d="M573 1182q-126 0 -197 91t-71 251h14q14 -57 86.5 -89t167.5 -32q94 0 166 32t86 89h15q0 -160 -71 -251t-196 -91zM963 233l151 78l8 -10q-15 -21 -50.5 -72t-50 -71t-44 -58t-47.5 -53.5t-44 -36t-50.5 -28t-51.5 -7.5q-81 0 -123.5 64.5t-31.5 222.5h-11
q-28 -63 -58.5 -110.5t-72 -90t-96.5 -65.5t-121 -23q-106 0 -171.5 59.5t-65.5 160.5q0 56 21.5 106.5t54 87.5t83 73.5t94.5 60.5t103 52l227 101q0 156 -44 247t-117 85q-33 -2 -54.5 -21t-32.5 -56.5t-3.5 -102t34.5 -150.5l-379 -109l-6 13q49 107 111.5 194.5
t120 142.5t121 96.5t112 61.5t96 32t69 14.5t34.5 2.5q54 0 97 -8t75 -21t55.5 -36.5t39 -46t25 -60t13.5 -67t4.5 -78t-1 -83t-5.5 -91.5l-18 -369v-31zM471 221q35 0 73.5 27.5t67.5 83.5l4 295q-125 -84 -180 -154.5t-55 -138.5q0 -57 28 -85t62 -28z" />
    <glyph glyph-name="Aogonek" unicode="&#x104;" horiz-adv-x="1292" 
d="M1288 20v-20q-54 0 -89 -0.5t-82 -2.5t-78 -7t-67.5 -12.5t-61 -19.5t-48.5 -28t-40 -39t-25 -51q-33 -99 5.5 -170t131.5 -71q34 0 65 22l9 -14q-88 -87 -151.5 -131.5t-88.5 -44.5q-31 0 -62.5 8.5t-62.5 26.5t-50.5 52t-19.5 79q0 79 57 154.5t183 187.5q66 58 23 184
l-121 356h-342q3 -144 44 -266t111 -201v-12h-524v12l485 1110l-88 248v12h420zM373 516h329l-184 549h-12l-47 -133q-83 -205 -86 -416z" />
    <glyph glyph-name="aogonek" unicode="&#x105;" horiz-adv-x="1081" 
d="M905 -422q30 0 66 25l8 -17q-185 -176 -242 -176q-23 0 -48 5t-51.5 17.5t-47 31t-34 48.5t-13.5 66q0 79 66 174t216 228q-35 -5 -41 -5q-81 0 -123.5 64.5t-31.5 222.5h-11q-28 -63 -58.5 -110.5t-72 -90t-96.5 -65.5t-121 -23q-106 0 -171.5 59.5t-65.5 160.5
q0 56 21.5 106.5t54 87.5t83 73.5t94.5 60.5t103 52l227 101q0 156 -44 247t-117 85q-33 -2 -54.5 -21t-32.5 -56.5t-3.5 -102t34.5 -150.5l-379 -109l-6 13q49 107 111.5 194.5t120 142.5t121 96.5t112 61.5t96 32t69 14.5t34.5 2.5q54 0 97 -8t75 -21t55.5 -36.5t39 -46
t25 -60t13.5 -67t4.5 -78t-1 -83t-5.5 -91.5l-18 -369v-31l151 78l8 -10q-228 -316 -298 -460q-110 -224 23 -257q25 -6 58 -6zM471 221q35 0 73.5 27.5t67.5 83.5l4 295q-125 -84 -180 -154.5t-55 -138.5q0 -57 28 -85t62 -28z" />
    <glyph glyph-name="Cacute" unicode="&#x106;" horiz-adv-x="1177" 
d="M752 1759h424v-12l-500 -311h-14zM727 -23q-147 5 -274 57.5t-221.5 144.5t-148.5 227.5t-54 298.5q0 118 30 219.5t77.5 172t110 127.5t126 91t127.5 56.5t112 31t82 8.5q177 0 316.5 -70t197.5 -163l-372 -449l-11 4q-29 142 -66 248.5t-72 168t-75 99t-71.5 50
t-65.5 12.5q-61 0 -106 -59t-45 -173q-1 -79 15.5 -165t49 -177t88 -172t127.5 -145.5t174.5 -102.5t220.5 -38q90 0 193 36l8 -12q-119 -99 -278.5 -212.5t-194.5 -113.5z" />
    <glyph glyph-name="cacute" unicode="&#x107;" horiz-adv-x="954" 
d="M586 1536h405v-12l-442 -375h-21zM598 -31q-165 0 -293.5 66t-203 195t-74.5 302q0 98 24.5 183t64.5 143.5t92 105.5t104.5 75.5t106 47.5t92.5 26t67 7q90 0 167.5 -25.5t124 -63t73.5 -71t34 -57.5l-340 -291l-12 6q-12 103 -44.5 195.5t-82.5 152.5t-103 60
q-49 0 -78.5 -40t-29.5 -122q0 -70 23 -152.5t68 -163.5t104.5 -148t140.5 -108.5t168 -41.5q91 0 200 57l10 -12q-135 -148 -243.5 -237t-159.5 -89z" />
    <glyph glyph-name="Ccircumflex" unicode="&#x108;" horiz-adv-x="1177" 
d="M346 1440v12l328 334h10l320 -334v-12l-328 90h-6zM727 -23q-147 5 -274 57.5t-221.5 144.5t-148.5 227.5t-54 298.5q0 118 30 219.5t77.5 172t110 127.5t126 91t127.5 56.5t112 31t82 8.5q177 0 316.5 -70t197.5 -163l-372 -449l-11 4q-29 142 -66 248.5t-72 168t-75 99
t-71.5 50t-65.5 12.5q-61 0 -106 -59t-45 -173q-1 -79 15.5 -165t49 -177t88 -172t127.5 -145.5t174.5 -102.5t220.5 -38q90 0 193 36l8 -12q-119 -99 -278.5 -212.5t-194.5 -113.5z" />
    <glyph glyph-name="ccircumflex" unicode="&#x109;" horiz-adv-x="954" 
d="M223 1145v12l318 387h14l305 -387v-12l-317 110h-6zM598 -31q-165 0 -293.5 66t-203 195t-74.5 302q0 98 24.5 183t64.5 143.5t92 105.5t104.5 75.5t106 47.5t92.5 26t67 7q90 0 167.5 -25.5t124 -63t73.5 -71t34 -57.5l-340 -291l-12 6q-12 103 -44.5 195.5t-82.5 152.5
t-103 60q-49 0 -78.5 -40t-29.5 -122q0 -70 23 -152.5t68 -163.5t104.5 -148t140.5 -108.5t168 -41.5q91 0 200 57l10 -12q-135 -148 -243.5 -237t-159.5 -89z" />
    <glyph glyph-name="Cdotaccent" unicode="&#x10a;" horiz-adv-x="1177" 
d="M686 1460q-74 0 -115 38.5t-41 107.5q0 66 41.5 103.5t114.5 37.5q72 0 111 -37.5t39 -103.5q0 -69 -39 -107.5t-111 -38.5zM727 -23q-147 5 -274 57.5t-221.5 144.5t-148.5 227.5t-54 298.5q0 118 30 219.5t77.5 172t110 127.5t126 91t127.5 56.5t112 31t82 8.5
q177 0 316.5 -70t197.5 -163l-372 -449l-11 4q-29 142 -66 248.5t-72 168t-75 99t-71.5 50t-65.5 12.5q-61 0 -106 -59t-45 -173q-1 -79 15.5 -165t49 -177t88 -172t127.5 -145.5t174.5 -102.5t220.5 -38q90 0 193 36l8 -12q-119 -99 -278.5 -212.5t-194.5 -113.5z" />
    <glyph glyph-name="cdotaccent" unicode="&#x10b;" horiz-adv-x="954" 
d="M551 1167q-74 0 -115 38.5t-41 107.5q0 66 41.5 103.5t114.5 37.5q71 0 110 -37t39 -104q0 -69 -38.5 -107.5t-110.5 -38.5zM598 -31q-165 0 -293.5 66t-203 195t-74.5 302q0 98 24.5 183t64.5 143.5t92 105.5t104.5 75.5t106 47.5t92.5 26t67 7q90 0 167.5 -25.5
t124 -63t73.5 -71t34 -57.5l-340 -291l-12 6q-12 103 -44.5 195.5t-82.5 152.5t-103 60q-49 0 -78.5 -40t-29.5 -122q0 -70 23 -152.5t68 -163.5t104.5 -148t140.5 -108.5t168 -41.5q91 0 200 57l10 -12q-135 -148 -243.5 -237t-159.5 -89z" />
    <glyph glyph-name="Ccaron" unicode="&#x10c;" horiz-adv-x="1177" 
d="M674 1454l-328 334v12l324 -90h6l328 90v-12l-320 -334h-10zM727 -23q-147 5 -274 57.5t-221.5 144.5t-148.5 227.5t-54 298.5q0 118 30 219.5t77.5 172t110 127.5t126 91t127.5 56.5t112 31t82 8.5q177 0 316.5 -70t197.5 -163l-372 -449l-11 4q-29 142 -66 248.5
t-72 168t-75 99t-71.5 50t-65.5 12.5q-61 0 -106 -59t-45 -173q-1 -79 15.5 -165t49 -177t88 -172t127.5 -145.5t174.5 -102.5t220.5 -38q90 0 193 36l8 -12q-119 -99 -278.5 -212.5t-194.5 -113.5z" />
    <glyph glyph-name="ccaron" unicode="&#x10d;" horiz-adv-x="954" 
d="M537 1143l-318 387v12l313 -110h7l317 110v-12l-305 -387h-14zM598 -31q-165 0 -293.5 66t-203 195t-74.5 302q0 98 24.5 183t64.5 143.5t92 105.5t104.5 75.5t106 47.5t92.5 26t67 7q90 0 167.5 -25.5t124 -63t73.5 -71t34 -57.5l-340 -291l-12 6q-12 103 -44.5 195.5
t-82.5 152.5t-103 60q-49 0 -78.5 -40t-29.5 -122q0 -70 23 -152.5t68 -163.5t104.5 -148t140.5 -108.5t168 -41.5q91 0 200 57l10 -12q-135 -148 -243.5 -237t-159.5 -89z" />
    <glyph glyph-name="Dcaron" unicode="&#x10e;" horiz-adv-x="1308" 
d="M975 1788l-320 -334h-10l-328 334v12l324 -90h6l328 90v-12zM522 1382q756 0 756 -657q0 -105 -21 -202t-75.5 -194.5t-137 -168.5t-216 -115.5t-302.5 -44.5h-514v12l105 117v1124l-105 117v12h510zM518 41h41q114 0 178.5 63t92.5 202.5t28 385.5q0 143 -9 245
t-31.5 183t-60 129t-93.5 72.5t-134 24.5h-12v-1305z" />
    <glyph glyph-name="dcaron" unicode="&#x10f;" horiz-adv-x="1425" 
d="M1030 1593v-1364l150 76l8 -10l-39 -57t-39 -56t-35.5 -49.5t-36.5 -47t-35 -38t-37 -33.5t-36 -23.5t-39.5 -17t-40.5 -4.5q-77 0 -119.5 57t-38.5 199h-16q-17 -19 -41.5 -46.5t-39.5 -44t-35.5 -39.5t-33.5 -36.5t-29 -30t-26 -25.5t-20.5 -17.5t-17.5 -12t-11 -2.5
q-197 24 -292 160.5t-95 351.5q0 107 23 197.5t60 152t86.5 110t99 76.5t101.5 46t90 24.5t68 6.5q57 0 103 -9v299l-129 46v12l479 145h2zM1448 1403v-4q0 -25 -2 -37q-18 -101 -131 -432h-172v10l227 311l-8 4q-30 -12 -76 -12q-79 0 -123.5 41t-44.5 115q0 72 44.5 112.5
t123.5 40.5q76 0 118 -39t44 -110zM559 203q61 0 107 55v590q-10 102 -46.5 148t-84.5 46q-32 0 -56 -15t-45 -51t-32 -106t-11 -172q0 -495 168 -495z" />
    <glyph glyph-name="Dcroat" unicode="&#x110;" horiz-adv-x="1339" 
d="M553 1382q758 0 758 -657q0 -105 -21 -202t-75.5 -194.5t-137 -168.5t-216 -115.5t-302.5 -44.5h-514v12l105 119v535h-138v36h138v549l-105 119v12h508zM551 41h41q114 0 178.5 63t92.5 202.5t28 385.5q0 356 -70 505t-260 149h-10v-644h156v-36h-156v-625z" />
    <glyph glyph-name="dcroat" unicode="&#x111;" horiz-adv-x="1146" 
d="M1030 229l150 76l8 -10l-39 -57t-39 -56t-35.5 -49.5t-36.5 -47t-35 -38t-37 -33.5t-36 -23.5t-39.5 -17t-40.5 -4.5q-77 0 -119.5 57t-38.5 199h-16q-17 -19 -41.5 -46.5t-39.5 -44t-35.5 -39.5t-33.5 -36.5t-29 -30t-26 -25.5t-20.5 -17.5t-17.5 -12t-11 -2.5
q-197 24 -292 160.5t-95 351.5q0 107 23 197.5t60 152t86.5 110t99 76.5t101.5 46t90 24.5t68 6.5q57 0 103 -9v152h-189v37h189v110l-129 46v12l479 145h2l12 4v-317h141v-37h-141v-1010zM559 203q61 0 107 55v590q-10 102 -46.5 148t-84.5 46q-32 0 -56 -15t-45 -51
t-32 -106t-11 -172q0 -495 168 -495z" />
    <glyph glyph-name="Emacron" unicode="&#x112;" horiz-adv-x="1185" 
d="M242 1651h706v-135h-706v135zM1139 582h12v-582h-1139v12l105 117v1124l-105 117v12h1127v-581h-13q-19 28 -58 89t-58 89q-41 67 -63 101.5t-53 80t-49.5 66t-47 46.5t-51 36t-56 20.5t-68.5 13.5t-81 3h-23v-631h21q46 0 79.5 9t72.5 37.5t80 86t89 149.5h10v-600h-10
q-92 167 -162.5 225t-158.5 58h-21v-643h35q41 0 73.5 3.5t60.5 8t53.5 18t46 25t44 37.5t41.5 46.5t45.5 62t48 74.5t56.5 91q19 28 59 90t58 89z" />
    <glyph glyph-name="emacron" unicode="&#x113;" horiz-adv-x="1009" 
d="M178 1352h719v-113h-719v113zM993 307l11 -12q-299 -326 -396 -326q-164 0 -295.5 66.5t-208.5 195t-77 297.5q0 100 25 185.5t65.5 144.5t93.5 106.5t106.5 75.5t107.5 47t93.5 26t67.5 7q186 0 286 -101t113 -265q0 -27 -72 -71.5t-158.5 -78t-127.5 -33.5h-256
q65 -141 174 -231t256 -90q83 0 192 57zM414 1026q-47 0 -77 -45t-30 -133q0 -118 49 -240h262q-5 179 -63 298.5t-141 119.5z" />
    <glyph glyph-name="Ebreve" unicode="&#x114;" horiz-adv-x="1185" 
d="M594 1444q-128 0 -209.5 82t-81.5 227h14q17 -47 96 -68.5t181 -21.5q103 0 182 21.5t96 68.5h15q0 -145 -81.5 -227t-211.5 -82zM1139 582h12v-582h-1139v12l105 117v1124l-105 117v12h1127v-581h-13q-19 28 -58 89t-58 89q-41 67 -63 101.5t-53 80t-49.5 66t-47 46.5
t-51 36t-56 20.5t-68.5 13.5t-81 3h-23v-631h21q46 0 79.5 9t72.5 37.5t80 86t89 149.5h10v-600h-10q-92 167 -162.5 225t-158.5 58h-21v-643h35q41 0 73.5 3.5t60.5 8t53.5 18t46 25t44 37.5t41.5 46.5t45.5 62t48 74.5t56.5 91q19 28 59 90t58 89z" />
    <glyph glyph-name="ebreve" unicode="&#x115;" horiz-adv-x="1009" 
d="M539 1182q-126 0 -197.5 91t-71.5 251h15q14 -57 86.5 -89t167.5 -32q94 0 166 32t86 89h14q0 -160 -71 -251t-195 -91zM993 307l11 -12q-299 -326 -396 -326q-164 0 -295.5 66.5t-208.5 195t-77 297.5q0 100 25 185.5t65.5 144.5t93.5 106.5t106.5 75.5t107.5 47
t93.5 26t67.5 7q186 0 286 -101t113 -265q0 -27 -72 -71.5t-158.5 -78t-127.5 -33.5h-256q65 -141 174 -231t256 -90q83 0 192 57zM414 1026q-47 0 -77 -45t-30 -133q0 -118 49 -240h262q-5 179 -63 298.5t-141 119.5z" />
    <glyph glyph-name="Edotaccent" unicode="&#x116;" horiz-adv-x="1185" 
d="M606 1460q-73 0 -114 38.5t-41 107.5q0 66 41 103.5t114 37.5q72 0 111 -37.5t39 -103.5q0 -69 -39 -107.5t-111 -38.5zM1139 582h12v-582h-1139v12l105 117v1124l-105 117v12h1127v-581h-13q-19 28 -58 89t-58 89q-41 67 -63 101.5t-53 80t-49.5 66t-47 46.5t-51 36
t-56 20.5t-68.5 13.5t-81 3h-23v-631h21q46 0 79.5 9t72.5 37.5t80 86t89 149.5h10v-600h-10q-92 167 -162.5 225t-158.5 58h-21v-643h35q41 0 73.5 3.5t60.5 8t53.5 18t46 25t44 37.5t41.5 46.5t45.5 62t48 74.5t56.5 91q19 28 59 90t58 89z" />
    <glyph glyph-name="edotaccent" unicode="&#x117;" horiz-adv-x="1009" 
d="M549 1167q-74 0 -115 38.5t-41 107.5q0 66 41.5 103.5t114.5 37.5q71 0 110 -37t39 -104q0 -69 -38.5 -107.5t-110.5 -38.5zM993 307l11 -12q-299 -326 -396 -326q-164 0 -295.5 66.5t-208.5 195t-77 297.5q0 100 25 185.5t65.5 144.5t93.5 106.5t106.5 75.5t107.5 47
t93.5 26t67.5 7q186 0 286 -101t113 -265q0 -27 -72 -71.5t-158.5 -78t-127.5 -33.5h-256q65 -141 174 -231t256 -90q83 0 192 57zM414 1026q-47 0 -77 -45t-30 -133q0 -118 49 -240h262q-5 179 -63 298.5t-141 119.5z" />
    <glyph glyph-name="Eogonek" unicode="&#x118;" horiz-adv-x="1185" 
d="M1139 582h12v-582h-315q-47 -73 -73.5 -144t-28.5 -128.5t30 -93t96 -35.5q35 0 66 22l8 -14q-89 -88 -152.5 -133t-87.5 -45q-30 0 -62 9t-62.5 27t-50 52.5t-19.5 79.5q0 79 65.5 174.5t214.5 228.5h-768v12l105 117v1124l-105 117v12h1127v-581h-13q-19 28 -58 89
t-58 89q-41 67 -63 101.5t-53 80t-49.5 66t-47 46.5t-51 36t-56 20.5t-68.5 13.5t-81 3h-23v-631h21q46 0 79.5 9t72.5 37.5t80 86t89 149.5h10v-600h-10q-92 167 -162.5 225t-158.5 58h-21v-643h35q41 0 73.5 3.5t60.5 8t53.5 18t46 25t44 37.5t41.5 46.5t45.5 62t48 74.5
t56.5 91q19 28 59 90t58 89z" />
    <glyph glyph-name="eogonek" unicode="&#x119;" horiz-adv-x="1009" 
d="M702 -397q16 0 68 18l8 -14q-90 -89 -152 -133.5t-87 -44.5q-23 0 -52.5 8t-63.5 26t-56.5 54t-22.5 84q0 79 70 162.5t256 226.5q-44 -21 -62 -21q-164 0 -295.5 66.5t-208.5 195t-77 297.5q0 100 25 185.5t65.5 144.5t93.5 106.5t106.5 75.5t107.5 47t93.5 26t67.5 7
q186 0 286 -101t113 -265q0 -27 -72 -71.5t-158.5 -78t-127.5 -33.5h-256q65 -141 174 -231t256 -90q83 0 192 57l11 -12q-8 -9 -52 -53q-124 -141 -198.5 -235.5t-106.5 -152t-39.5 -85.5t-7.5 -64q0 -49 26 -75.5t76 -26.5zM414 1026q-47 0 -77 -45t-30 -133
q0 -118 49 -240h262q-5 179 -63 298.5t-141 119.5z" />
    <glyph glyph-name="Ecaron" unicode="&#x11a;" horiz-adv-x="1185" 
d="M924 1788l-320 -334h-10l-328 334v12l324 -90h6l328 90v-12zM1139 582h12v-582h-1139v12l105 117v1124l-105 117v12h1127v-581h-13q-19 28 -58 89t-58 89q-41 67 -63 101.5t-53 80t-49.5 66t-47 46.5t-51 36t-56 20.5t-68.5 13.5t-81 3h-23v-631h21q46 0 79.5 9
t72.5 37.5t80 86t89 149.5h10v-600h-10q-92 167 -162.5 225t-158.5 58h-21v-643h35q41 0 73.5 3.5t60.5 8t53.5 18t46 25t44 37.5t41.5 46.5t45.5 62t48 74.5t56.5 91q19 28 59 90t58 89z" />
    <glyph glyph-name="ecaron" unicode="&#x11b;" horiz-adv-x="1009" 
d="M856 1530l-305 -387h-14l-318 387v12l313 -110h7l317 110v-12zM993 307l11 -12q-299 -326 -396 -326q-164 0 -295.5 66.5t-208.5 195t-77 297.5q0 100 25 185.5t65.5 144.5t93.5 106.5t106.5 75.5t107.5 47t93.5 26t67.5 7q186 0 286 -101t113 -265q0 -27 -72 -71.5
t-158.5 -78t-127.5 -33.5h-256q65 -141 174 -231t256 -90q83 0 192 57zM414 1026q-47 0 -77 -45t-30 -133q0 -118 49 -240h262q-5 179 -63 298.5t-141 119.5z" />
    <glyph glyph-name="Gcircumflex" unicode="&#x11c;" horiz-adv-x="1277" 
d="M1030 1440l-328 90h-6l-323 -90v12l327 334h11l319 -334v-12zM547 725v12h674l10 -10l-8 -760h-13l-292 287h-11q-22 -30 -58.5 -82.5t-56.5 -79.5t-45 -58.5t-42.5 -45t-30.5 -13.5q-185 2 -333.5 98.5t-230 258t-81.5 354.5q0 129 33.5 238t86 181.5t121.5 129.5
t135.5 89t133.5 53t109.5 27.5t68.5 6.5q183 0 324 -77t198 -191l-405 -332l-11 4q-19 113 -63 222.5t-115.5 189.5t-148.5 80q-71 0 -114.5 -62t-43.5 -180q0 -132 41 -277t106.5 -263.5t157.5 -195.5t186 -77q17 0 23 2v389z" />
    <glyph glyph-name="gcircumflex" unicode="&#x11d;" horiz-adv-x="1097" 
d="M864 1169l-317 111h-6l-314 -111v13l318 387h14l305 -387v-13zM1176 1090v-89q-238 3 -412 50l-8 -13q239 -88 239 -309q0 -77 -30.5 -141.5t-79 -106t-103 -72.5t-109 -46.5t-90 -23t-51.5 -7.5q-155 0 -276 78q-16 -22 -16 -72q0 -20 2 -34t13.5 -35t32 -34.5t61 -23.5
t97.5 -10l306 -2q160 0 245.5 -73.5t85.5 -188.5q0 -83 -45.5 -166.5t-123.5 -151t-192 -109.5t-241 -42q-87 0 -168.5 13.5t-156.5 41t-134.5 74t-93.5 108.5q-7 14 61 78.5t193 171.5q-91 34 -141.5 99.5t-50.5 148.5q0 8 12.5 23.5t40.5 41.5t52 47t67 58.5t65 56.5
q-143 114 -143 287q0 81 32 148t82 108.5t105.5 72t109.5 45t86 21t42 6.5q35 0 135 -14t172 -14h328zM645 393q127 3 14 316q-117 348 -239 342q-122 -3 -12 -318q116 -340 237 -340zM723 -86l-371 10q-82 3 -153 25q-15 -15 -15 -33q0 -63 58 -110t149 -70.5t177 -34
t165 -10.5q116 0 190 30t74 80q0 105 -274 113z" />
    <glyph glyph-name="Gbreve" unicode="&#x11e;" horiz-adv-x="1277" 
d="M700 1444q-128 0 -209 82t-81 227h14q17 -47 95.5 -68.5t180.5 -21.5q103 0 182.5 21.5t96.5 68.5h14q0 -145 -81.5 -227t-211.5 -82zM547 725v12h674l10 -10l-8 -760h-13l-292 287h-11q-22 -30 -58.5 -82.5t-56.5 -79.5t-45 -58.5t-42.5 -45t-30.5 -13.5
q-185 2 -333.5 98.5t-230 258t-81.5 354.5q0 129 33.5 238t86 181.5t121.5 129.5t135.5 89t133.5 53t109.5 27.5t68.5 6.5q183 0 324 -77t198 -191l-405 -332l-11 4q-19 113 -63 222.5t-115.5 189.5t-148.5 80q-71 0 -114.5 -62t-43.5 -180q0 -132 41 -277t106.5 -263.5
t157.5 -195.5t186 -77q17 0 23 2v389z" />
    <glyph glyph-name="gbreve" unicode="&#x11f;" horiz-adv-x="1097" 
d="M543 1206q-126 0 -197.5 91t-71.5 251h15q14 -57 86.5 -89t167.5 -32q94 0 166 32t86 89h14q0 -160 -71 -251t-195 -91zM1176 1090v-89q-238 3 -412 50l-8 -13q239 -88 239 -309q0 -77 -30.5 -141.5t-79 -106t-103 -72.5t-109 -46.5t-90 -23t-51.5 -7.5q-155 0 -276 78
q-16 -22 -16 -72q0 -20 2 -34t13.5 -35t32 -34.5t61 -23.5t97.5 -10l306 -2q160 0 245.5 -73.5t85.5 -188.5q0 -83 -45.5 -166.5t-123.5 -151t-192 -109.5t-241 -42q-87 0 -168.5 13.5t-156.5 41t-134.5 74t-93.5 108.5q-7 14 61 78.5t193 171.5q-91 34 -141.5 99.5
t-50.5 148.5q0 8 12.5 23.5t40.5 41.5t52 47t67 58.5t65 56.5q-143 114 -143 287q0 81 32 148t82 108.5t105.5 72t109.5 45t86 21t42 6.5q35 0 135 -14t172 -14h328zM645 393q127 3 14 316q-117 348 -239 342q-122 -3 -12 -318q116 -340 237 -340zM723 -86l-371 10
q-82 3 -153 25q-15 -15 -15 -33q0 -63 58 -110t149 -70.5t177 -34t165 -10.5q116 0 190 30t74 80q0 105 -274 113z" />
    <glyph glyph-name="Gdotaccent" unicode="&#x120;" horiz-adv-x="1277" 
d="M713 1460q-74 0 -115 38.5t-41 107.5q0 66 41.5 103.5t114.5 37.5q71 0 110 -37t39 -104q0 -69 -38.5 -107.5t-110.5 -38.5zM547 725v12h674l10 -10l-8 -760h-13l-292 287h-11q-22 -30 -58.5 -82.5t-56.5 -79.5t-45 -58.5t-42.5 -45t-30.5 -13.5q-185 2 -333.5 98.5
t-230 258t-81.5 354.5q0 129 33.5 238t86 181.5t121.5 129.5t135.5 89t133.5 53t109.5 27.5t68.5 6.5q183 0 324 -77t198 -191l-405 -332l-11 4q-19 113 -63 222.5t-115.5 189.5t-148.5 80q-71 0 -114.5 -62t-43.5 -180q0 -132 41 -277t106.5 -263.5t157.5 -195.5t186 -77
q17 0 23 2v389z" />
    <glyph glyph-name="gdotaccent" unicode="&#x121;" horiz-adv-x="1097" 
d="M555 1192q-74 0 -115 38t-41 107q0 66 41.5 104t114.5 38q71 0 110.5 -37.5t39.5 -104.5q0 -69 -39 -107t-111 -38zM1176 1090v-89q-238 3 -412 50l-8 -13q239 -88 239 -309q0 -77 -30.5 -141.5t-79 -106t-103 -72.5t-109 -46.5t-90 -23t-51.5 -7.5q-155 0 -276 78
q-16 -22 -16 -72q0 -20 2 -34t13.5 -35t32 -34.5t61 -23.5t97.5 -10l306 -2q160 0 245.5 -73.5t85.5 -188.5q0 -83 -45.5 -166.5t-123.5 -151t-192 -109.5t-241 -42q-87 0 -168.5 13.5t-156.5 41t-134.5 74t-93.5 108.5q-7 14 61 78.5t193 171.5q-91 34 -141.5 99.5
t-50.5 148.5q0 8 12.5 23.5t40.5 41.5t52 47t67 58.5t65 56.5q-143 114 -143 287q0 81 32 148t82 108.5t105.5 72t109.5 45t86 21t42 6.5q35 0 135 -14t172 -14h328zM645 393q127 3 14 316q-117 348 -239 342q-122 -3 -12 -318q116 -340 237 -340zM723 -86l-371 10
q-82 3 -153 25q-15 -15 -15 -33q0 -63 58 -110t149 -70.5t177 -34t165 -10.5q116 0 190 30t74 80q0 105 -274 113z" />
    <glyph glyph-name="uni0122" unicode="&#x122;" horiz-adv-x="1277" 
d="M547 725v12h674l10 -10l-8 -760h-13l-292 287h-11q-22 -30 -58.5 -82.5t-56.5 -79.5t-45 -58.5t-42.5 -45t-30.5 -13.5q-185 2 -333.5 98.5t-230 258t-81.5 354.5q0 129 33.5 238t86 181.5t121.5 129.5t135.5 89t133.5 53t109.5 27.5t68.5 6.5q183 0 324 -77t198 -191
l-405 -332l-11 4q-19 113 -63 222.5t-115.5 189.5t-148.5 80q-71 0 -114.5 -62t-43.5 -180q0 -132 41 -277t106.5 -263.5t157.5 -195.5t186 -77q17 0 23 2v389zM813 -223v-2q0 -17 -4 -37q-12 -86 -125 -410h-162v10l215 295l-6 5q-32 -13 -74 -13q-75 0 -117 39.5
t-42 110.5q0 68 42 106.5t117 38.5q73 0 114.5 -38.5t41.5 -104.5z" />
    <glyph glyph-name="uni0123" unicode="&#x123;" horiz-adv-x="1097" 
d="M336 1415v4q0 19 4 47q17 113 147 486h195v-13l-258 -352l8 -4q44 14 88 14q91 0 141 -46.5t50 -131.5q0 -82 -50 -128t-141 -46q-87 0 -134.5 45t-49.5 125zM1176 1090v-89q-238 3 -412 50l-8 -13q239 -88 239 -309q0 -77 -30.5 -141.5t-79 -106t-103 -72.5t-109 -46.5
t-90 -23t-51.5 -7.5q-155 0 -276 78q-16 -22 -16 -72q0 -20 2 -34t13.5 -35t32 -34.5t61 -23.5t97.5 -10l306 -2q160 0 245.5 -73.5t85.5 -188.5q0 -83 -45.5 -166.5t-123.5 -151t-192 -109.5t-241 -42q-87 0 -168.5 13.5t-156.5 41t-134.5 74t-93.5 108.5q-7 14 61 78.5
t193 171.5q-91 34 -141.5 99.5t-50.5 148.5q0 8 12.5 23.5t40.5 41.5t52 47t67 58.5t65 56.5q-143 114 -143 287q0 81 32 148t82 108.5t105.5 72t109.5 45t86 21t42 6.5q35 0 135 -14t172 -14h328zM645 393q127 3 14 316q-117 348 -239 342q-122 -3 -12 -318
q116 -340 237 -340zM723 -86l-371 10q-82 3 -153 25q-15 -15 -15 -33q0 -63 58 -110t149 -70.5t177 -34t165 -10.5q116 0 190 30t74 80q0 105 -274 113z" />
    <glyph glyph-name="Hcircumflex" unicode="&#x124;" horiz-adv-x="1333" 
d="M995 1440l-327 90h-6l-324 -90v12l328 334h10l319 -334v-12zM1323 1382v-12l-106 -115v-1128l106 -115v-12h-612v12l106 115v522h-299v-522l105 -115v-12h-611v12l105 115v1128l-105 115v12h611v-12l-105 -115v-565h299v565l-106 115v12h612z" />
    <glyph glyph-name="hcircumflex" unicode="&#x125;" horiz-adv-x="1189" 
d="M614 1593l-327 90h-6l-324 -90v13l328 333h10l319 -333v-13zM1087 760v-670l95 -78v-12h-551v12l94 80v643q0 133 -113 133q-84 0 -141 -102v-674l96 -80v-12h-551v12l93 78v1296l-127 46v12l477 145h12v-758q213 287 303 287q83 0 145 -28t98 -78t53 -112.5t17 -139.5z
" />
    <glyph glyph-name="Hbar" unicode="&#x126;" horiz-adv-x="1439" 
d="M1427 948v-37h-159v-784l106 -115v-12h-612v12l106 115v522h-299v-522l105 -115v-12h-611v12l105 115v784h-152v37h152v307l-105 115v12h611v-12l-105 -115v-307h299v307l-106 115v12h612v-12l-106 -115v-307h159zM569 690h299v221h-299v-221z" />
    <glyph glyph-name="hbar" unicode="&#x127;" horiz-adv-x="1189" 
d="M1087 760v-670l95 -78v-12h-551v12l94 80v643q0 133 -113 133q-84 0 -141 -102v-674l96 -80v-12h-551v12l93 78v1149h-123v37h123v110l-127 46v12l477 145h12v-313h209v-37h-209v-408q213 287 303 287q83 0 145 -28t98 -78t53 -112.5t17 -139.5z" />
    <glyph glyph-name="Itilde" unicode="&#x128;" horiz-adv-x="634" 
d="M776 1772l10 -7q-33 -67 -61 -115.5t-66.5 -99t-81.5 -77.5t-88 -27q-67 0 -142 26t-145.5 52t-127.5 26q-102 0 -170 -100l-10 6q8 17 27.5 56.5t29 58t28 52t31 50.5t32.5 40t38 33.5t41.5 19t48.5 8.5q79 0 227 -51.5t213 -51.5q43 0 81.5 19t84.5 82zM117 1255
l-105 115v12h611v-12l-105 -115v-1128l105 -115v-12h-611v12l105 115v1128z" />
    <glyph glyph-name="itilde" unicode="&#x129;" horiz-adv-x="579" 
d="M752 1509l12 -6q-32 -66 -61.5 -116t-67.5 -99.5t-82 -76.5t-90 -27q-83 0 -224.5 49t-207.5 49q-21 0 -37.5 -2.5t-40 -11.5t-48 -30t-48.5 -54l-11 6q10 19 32 63.5t33.5 66t32.5 57t38 54t40.5 39t49.5 29t55 8.5q72 0 158 -25t165 -50t134 -25q28 0 49 4.5t53.5 28.5
t65.5 69zM477 88l92 -76v-12h-553v12l95 78v922l-93 65v13h459v-1002z" />
    <glyph glyph-name="Imacron" unicode="&#x12a;" horiz-adv-x="634" 
d="M-35 1516v135h707v-135h-707zM117 1255l-105 115v12h611v-12l-105 -115v-1128l105 -115v-12h-611v12l105 115v1128z" />
    <glyph glyph-name="imacron" unicode="&#x12b;" horiz-adv-x="579" 
d="M-72 1239v113h719v-113h-719zM477 88l92 -76v-12h-553v12l95 78v922l-93 65v13h459v-1002z" />
    <glyph glyph-name="Ibreve" unicode="&#x12c;" horiz-adv-x="634" 
d="M317 1444q-128 0 -209 82t-81 227h14q17 -47 95.5 -68.5t180.5 -21.5q103 0 182.5 21.5t96.5 68.5h14q0 -145 -81.5 -227t-211.5 -82zM623 1382v-12l-105 -115v-1128l105 -115v-12h-611v12l105 115v1128l-105 115v12h611z" />
    <glyph glyph-name="ibreve" unicode="&#x12d;" horiz-adv-x="579" 
d="M291 1182q-126 0 -197 91t-71 251h14q14 -57 86.5 -89t167.5 -32q94 0 166 32t86 89h14q0 -160 -71 -251t-195 -91zM477 88l92 -76v-12h-553v12l95 78v922l-93 65v13h459v-1002z" />
    <glyph glyph-name="Iogonek" unicode="&#x12e;" horiz-adv-x="634" 
d="M623 1382v-12l-105 -115v-1128l105 -115v-12h-222q-69 -102 -98 -196.5t-2.5 -158t113.5 -63.5q32 0 65 23l8 -15q-89 -88 -152 -133t-87 -45q-30 0 -62 9t-63 27t-50.5 52.5t-19.5 79.5q0 83 70 182t229 238h-340v12l105 115v1128l-105 115v12h611z" />
    <glyph glyph-name="iogonek" unicode="&#x12f;" horiz-adv-x="579" 
d="M299 1194q-91 0 -142 47t-51 131q0 83 51 129.5t142 46.5q89 0 137.5 -46t48.5 -130q0 -85 -48.5 -131.5t-137.5 -46.5zM569 12v-12h-227q-66 -101 -93.5 -193.5t-1 -154.5t112.5 -62q33 0 66 23l8 -14q-89 -88 -152 -133.5t-87 -45.5q-30 0 -62 9t-63 27t-50.5 52.5
t-19.5 79.5q0 81 68 178.5t223 233.5h-275v12l95 78v922l-93 65v13h459v-1002z" />
    <glyph glyph-name="Idotaccent" unicode="&#x130;" horiz-adv-x="634" 
d="M330 1460q-74 0 -115 38.5t-41 107.5q0 66 41.5 103.5t114.5 37.5q71 0 110 -37t39 -104q0 -69 -38.5 -107.5t-110.5 -38.5zM623 1382v-12l-105 -115v-1128l105 -115v-12h-611v12l105 115v1128l-105 115v12h611z" />
    <glyph glyph-name="dotlessi" unicode="&#x131;" horiz-adv-x="579" 
d="M477 88l92 -76v-12h-553v12l95 78v922l-93 65v13h459v-1002z" />
    <glyph glyph-name="IJ" unicode="&#x132;" horiz-adv-x="1648" 
d="M623 1370l-105 -115v-1128l105 -115v-12h-611v12l105 115v1128l-105 115v12h611v-12zM1651 1382v-12l-105 -115v-821q0 -45 -56 -123.5t-135 -153.5t-175.5 -130.5t-167.5 -55.5q-126 0 -222 58.5t-167 191.5l325 492l13 -6q-10 -72 -11.5 -183.5t8 -228t41.5 -199
t82 -82.5q44 0 54 78t10 338v825l-105 115v12h611z" />
    <glyph glyph-name="Jcircumflex" unicode="&#x134;" horiz-adv-x="1019" 
d="M717 1786h10l320 -334v-12l-328 90h-6l-324 -90v12zM410 1382h610v-12l-105 -115v-821q0 -45 -56 -123.5t-135 -153.5t-175.5 -130.5t-167.5 -55.5q-125 0 -222 58.5t-169 191.5l327 492l13 -6q-10 -72 -11 -183.5t8.5 -228t41.5 -199t82 -82.5q44 0 53.5 77t9.5 339v825
l-104 115v12z" />
    <glyph glyph-name="jcircumflex" unicode="&#x135;" horiz-adv-x="524" 
d="M270 1544h15l305 -387v-12l-318 110h-6l-313 -110v12zM90 1012l-92 65v13h457v-1039q0 -50 -38 -119t-97 -136.5t-129 -133.5t-135 -117.5t-115 -81.5l-13 13q85 94 123.5 243t38.5 367v926z" />
    <glyph glyph-name="uni0136" unicode="&#x136;" horiz-adv-x="1327" 
d="M756 1382h565v-12l-707 -682l293 158l410 -828v-18h-537v12l74 86l-283 549l-53 -51v-469l105 -115v-12h-611v12l105 115v1128l-105 115v12h611v-12l-105 -115v-610l121 125q78 84 118.5 192.5t39 214.5t-40.5 193v12zM799 -223v-2q0 -17 -4 -37q-12 -86 -125 -410h-162
v10l215 295l-6 5q-33 -13 -74 -13q-75 0 -117.5 40t-42.5 110q0 68 42.5 106.5t117.5 38.5q73 0 114.5 -38.5t41.5 -104.5z" />
    <glyph glyph-name="uni0137" unicode="&#x137;" horiz-adv-x="1132" 
d="M526 553l314 115l321 -656v-12h-499v12l69 80l-221 449l-39 -33v-416l96 -80v-12h-551v12l93 78v1296l-127 46v12l477 145h12v-1040l57 55q73 58 114.5 132t47 139.5t-7.5 119.5t-41 82v13h516v-11z" />
    <glyph glyph-name="kgreenlandic" unicode="&#x138;" horiz-adv-x="1132" 
d="M526 553l314 115l321 -656v-12h-499v12l69 80l-221 449l-39 -33v-416l96 -80v-12h-551v12l93 78v1296l-127 46v12l477 145h12v-1040l57 55q73 58 114.5 132t47 139.5t-7.5 119.5t-41 82v13h516v-11z" />
    <glyph glyph-name="Lacute" unicode="&#x139;" horiz-adv-x="1122" 
d="M817 1759v-12l-500 -311h-14l90 323h424zM1096 666h12v-666h-1092v12l103 117v1126l-105 115v12h611v-12l-105 -115h-2v-1218h68q117 0 221 128q71 88 196 325q11 21 34 65z" />
    <glyph glyph-name="lacute" unicode="&#x13a;" horiz-adv-x="579" 
d="M266 1595l58 387h405v-12l-442 -375h-21zM471 92l96 -80v-12h-551v12l93 78v1296l-127 46v12l477 145h12v-1497z" />
    <glyph glyph-name="uni013B" unicode="&#x13b;" horiz-adv-x="1122" 
d="M1096 666h12v-666h-1092v12l103 117v1126l-105 115v12h611v-12l-105 -115h-2v-1218h68q117 0 221 128q71 88 196 325q11 21 34 65zM739 -223v-2q0 -17 -4 -37q-12 -86 -125 -410h-161v10l215 295l-7 5q-33 -13 -73 -13q-75 0 -117.5 40t-42.5 110q0 68 42.5 106.5
t117.5 38.5q73 0 114 -38.5t41 -104.5z" />
    <glyph glyph-name="uni013C" unicode="&#x13c;" horiz-adv-x="579" 
d="M471 92l96 -80v-12h-551v12l93 78v1296l-127 46v12l477 145h12v-1497zM440 -223v-2q0 -17 -4 -37q-12 -86 -125 -410h-161v10l215 295l-7 5q-32 -13 -73 -13q-75 0 -117.5 40t-42.5 110q0 68 42.5 106.5t117.5 38.5q73 0 114 -38.5t41 -104.5z" />
    <glyph glyph-name="Lcaron" unicode="&#x13d;" horiz-adv-x="1122" 
d="M829 1083q-79 0 -123 41.5t-44 116.5q0 71 44 111.5t123 40.5q77 0 119.5 -40t42.5 -110v-2q0 -19 -2 -27q-10 -93 -131 -444h-172v10l227 312l-8 4q-33 -13 -76 -13zM1096 666h12v-666h-1092v12l103 117v1126l-105 115v12h611v-12l-105 -115h-2v-1218h68q117 0 221 128
q71 88 196 325q11 21 34 65z" />
    <glyph glyph-name="lcaron" unicode="&#x13e;" horiz-adv-x="866" 
d="M471 92l96 -80v-12h-551v12l93 78v1296l-127 46v12l477 145h12v-1497zM887 1403v-4q0 -25 -2 -37q-18 -101 -131 -432h-172v10l227 311l-8 4q-30 -12 -76 -12q-79 0 -123.5 41t-44.5 115q0 72 44.5 112.5t123.5 40.5q76 0 118 -39t44 -110z" />
    <glyph glyph-name="Ldot" unicode="&#x13f;" horiz-adv-x="1122" 
d="M1096 666h12v-666h-1092v12l103 117v1126l-105 115v12h611v-12l-105 -115h-2v-1218h68q117 0 221 128q71 88 196 325q11 21 34 65zM883 702q-91 0 -141 47t-50 132q0 82 50 128t141 46q89 0 136.5 -46t47.5 -128q0 -85 -47.5 -132t-136.5 -47z" />
    <glyph glyph-name="ldot" unicode="&#x140;" horiz-adv-x="901" 
d="M471 92l96 -80v-12h-551v12l93 78v1296l-127 46v12l477 145h12v-1497zM750 803q87 0 135.5 -46t48.5 -128q0 -85 -48 -131.5t-136 -46.5q-92 0 -142.5 46.5t-50.5 131.5q0 82 50.5 128t142.5 46z" />
    <glyph glyph-name="Lslash" unicode="&#x141;" horiz-adv-x="1122" 
d="M1096 666h12v-666h-1092v12l103 117v451l-166 -82v45l166 82v630l-105 115v12h611v-12l-105 -115h-2v-432l234 115v-45l-234 -115v-741h68q117 0 221 128q71 88 196 325q11 21 34 65z" />
    <glyph glyph-name="lslash" unicode="&#x142;" horiz-adv-x="579" 
d="M471 92l96 -80v-12h-551v12l93 78v1296l-127 46v12l477 145h12v-1497z" />
    <glyph glyph-name="Nacute" unicode="&#x143;" horiz-adv-x="1306" 
d="M1159 1759v-12l-500 -311h-14l90 323h424zM750 1370v12h467v-1386h-345l-669 1077h-10v-137q0 -503 428 -924v-12h-476v1130l-141 242v10h490l669 -1095l-2 4h13v121q0 253 -118.5 509.5t-305.5 448.5z" />
    <glyph glyph-name="nacute" unicode="&#x144;" horiz-adv-x="1204" 
d="M1057 1536v-12l-443 -375h-20l57 387h406zM1106 760v-672l90 -76v-12h-551v12l94 80h2v643q0 133 -110 133q-74 0 -123 -73v-703l96 -80v-12h-551v12l94 80v766l-151 -76l-8 11q14 19 39.5 56t38.5 55.5t35.5 49t36.5 46.5t34.5 38t37 33.5t36.5 23.5t39.5 16.5t40.5 4.5
q39 0 68.5 -13.5t52.5 -45t32 -91t2 -143.5h2q215 295 310 295q83 0 144.5 -28t97.5 -77.5t53.5 -113t17.5 -139.5z" />
    <glyph glyph-name="uni0145" unicode="&#x145;" horiz-adv-x="1306" 
d="M750 1370v12h467v-1386h-345l-669 1077h-10v-137q0 -503 428 -924v-12h-476v1130l-141 242v10h490l669 -1095l-2 4h13v121q0 253 -118.5 509.5t-305.5 448.5zM821 -223v-2q0 -17 -4 -37q-12 -86 -125 -410h-162v10l215 295l-6 5q-33 -13 -73 -13q-75 0 -117.5 40
t-42.5 110q0 68 42.5 106.5t117.5 38.5q73 0 114 -38.5t41 -104.5z" />
    <glyph glyph-name="uni0146" unicode="&#x146;" horiz-adv-x="1204" 
d="M1106 760v-672l90 -76v-12h-551v12l94 80h2v643q0 133 -110 133q-74 0 -123 -73v-703l96 -80v-12h-551v12l94 80v766l-151 -76l-8 11q14 19 39.5 56t38.5 55.5t35.5 49t36.5 46.5t34.5 38t37 33.5t36.5 23.5t39.5 16.5t40.5 4.5q39 0 68.5 -13.5t52.5 -45t32 -91
t2 -143.5h2q215 295 310 295q83 0 144.5 -28t97.5 -77.5t53.5 -113t17.5 -139.5zM768 -223v-2q0 -17 -4 -37q-12 -86 -125 -410h-162v10l215 295l-6 5q-32 -13 -74 -13q-75 0 -117 39.5t-42 110.5q0 68 42 106.5t117 38.5q73 0 114.5 -38.5t41.5 -104.5z" />
    <glyph glyph-name="Ncaron" unicode="&#x147;" horiz-adv-x="1306" 
d="M987 1788l-319 -334h-11l-327 334v12l323 -90h6l328 90v-12zM750 1370v12h467v-1386h-345l-669 1077h-10v-137q0 -503 428 -924v-12h-476v1130l-141 242v10h490l669 -1095l-2 4h13v121q0 253 -118.5 509.5t-305.5 448.5z" />
    <glyph glyph-name="ncaron" unicode="&#x148;" horiz-adv-x="1204" 
d="M922 1530l-306 -387h-14l-317 387v12l313 -110h6l318 110v-12zM1106 760v-672l90 -76v-12h-551v12l94 80h2v643q0 133 -110 133q-74 0 -123 -73v-703l96 -80v-12h-551v12l94 80v766l-151 -76l-8 11q14 19 39.5 56t38.5 55.5t35.5 49t36.5 46.5t34.5 38t37 33.5t36.5 23.5
t39.5 16.5t40.5 4.5q39 0 68.5 -13.5t52.5 -45t32 -91t2 -143.5h2q215 295 310 295q83 0 144.5 -28t97.5 -77.5t53.5 -113t17.5 -139.5z" />
    <glyph glyph-name="Eng" unicode="&#x14a;" horiz-adv-x="1265" 
d="M860 1411q359 0 359 -424l-2 -694q-1 -147 -46 -278.5t-100.5 -213t-143 -159t-132.5 -106.5t-110 -66q-13 -8 -19 -11l-9 17q87 84 123.5 271t36.5 568v555q0 51 -1.5 86.5t-6 74t-14 63.5t-24 46.5t-37 31.5t-52.5 10q-90 0 -164 -88v-967l107 -115v-12h-613v12
l107 115v1124l-105 119v12h504v-233q154 149 226.5 205.5t115.5 56.5z" />
    <glyph glyph-name="eng" unicode="&#x14b;" horiz-adv-x="1202" 
d="M801 1118q83 0 144.5 -28t97.5 -77.5t53.5 -113t17.5 -139.5v-703q-1 -46 -13 -91.5t-30 -83.5t-49 -78t-57.5 -70t-67 -64.5t-67.5 -55.5t-69 -49t-61.5 -40t-55.5 -33t-40 -24l-8 16q154 146 154 577v674q0 133 -111 133q-72 0 -127 -80v-698l94 -78v-12h-553v12l94 78
v768l-151 -76l-8 11q14 19 39.5 56t38.5 55.5t35.5 49t36.5 46.5t34.5 38t37 33.5t36.5 23.5t39.5 16.5t40.5 4.5q39 0 68 -13t52 -44t32 -89t3 -141h15q215 289 305 289z" />
    <glyph glyph-name="Omacron" unicode="&#x14c;" horiz-adv-x="1333" 
d="M315 1516v135h707v-135h-707zM670 -31q-136 0 -256 56.5t-204 153t-132.5 229t-48.5 280.5q0 123 31 228.5t79.5 177.5t112 130t126 92t123.5 56.5t101.5 30.5t63.5 8q179 0 326 -96t230 -261t83 -362q0 -123 -31 -228.5t-79.5 -177.5t-112 -130t-125.5 -92t-123 -56.5
t-101 -30.5t-63 -8zM909 90q57 19 74 107t-13 242t-108 347q-106 265 -224 398.5t-216 105.5q-85 -28 -85.5 -188t103.5 -449q108 -285 238 -439.5t231 -123.5z" />
    <glyph glyph-name="omacron" unicode="&#x14d;" horiz-adv-x="1110" 
d="M186 1239v113h719v-113h-719zM557 -31q-158 0 -280.5 76t-186 201.5t-63.5 275.5q0 103 25.5 191t66 147.5t93 106.5t104 74.5t102 45.5t83.5 24.5t52 6.5q159 0 281 -76t185.5 -202.5t63.5 -280.5q0 -102 -25.5 -188.5t-66 -145.5t-93 -106t-104 -74.5t-102 -45
t-83.5 -24t-52 -6.5zM737 70q36 15 44.5 68t-13.5 158.5t-78 268.5q-90 256 -166 367t-149 88q-38 -14 -47.5 -67t11 -159t75.5 -270q88 -255 166.5 -366t156.5 -88z" />
    <glyph glyph-name="Obreve" unicode="&#x14e;" horiz-adv-x="1333" 
d="M668 1444q-128 0 -209.5 82t-81.5 227h14q17 -47 96 -68.5t181 -21.5q103 0 182 21.5t96 68.5h15q0 -145 -81.5 -227t-211.5 -82zM666 1411q179 0 326 -96t230 -261t83 -362q0 -123 -31 -228.5t-79.5 -177.5t-112 -130t-125.5 -92t-123 -56.5t-101 -30.5t-63 -8
q-136 0 -256 56.5t-204 153t-132.5 229t-48.5 280.5q0 123 31 228.5t79.5 177.5t112 130t126 92t123.5 56.5t101.5 30.5t63.5 8zM909 90q57 19 74 107t-13 242t-108 347q-106 265 -224 398.5t-216 105.5q-85 -28 -85.5 -188t103.5 -449q108 -285 238 -439.5t231 -123.5z" />
    <glyph glyph-name="obreve" unicode="&#x14f;" horiz-adv-x="1110" 
d="M547 1182q-126 0 -197 91t-71 251h14q14 -57 86.5 -89t167.5 -32q94 0 166 32t86 89h14q0 -160 -71 -251t-195 -91zM553 1118q159 0 281 -76t185.5 -202.5t63.5 -280.5q0 -102 -25.5 -188.5t-66 -145.5t-93 -106t-104 -74.5t-102 -45t-83.5 -24t-52 -6.5
q-158 0 -280.5 76t-186 201.5t-63.5 275.5q0 103 25.5 191t66 147.5t93 106.5t104 74.5t102 45.5t83.5 24.5t52 6.5zM737 70q36 15 44.5 68t-13.5 158.5t-78 268.5q-90 256 -166 367t-149 88q-38 -14 -47.5 -67t11 -159t75.5 -270q88 -255 166.5 -366t156.5 -88z" />
    <glyph glyph-name="Ohungarumlaut" unicode="&#x150;" horiz-adv-x="1333" 
d="M805 1698l-213 -197l16 258l199 -51zM1026 1698l-213 -197l18 258l195 -51v-10zM670 -31q-136 0 -256 56.5t-204 153t-132.5 229t-48.5 280.5q0 123 31 228.5t79.5 177.5t112 130t126 92t123.5 56.5t101.5 30.5t63.5 8q179 0 326 -96t230 -261t83 -362q0 -123 -31 -228.5
t-79.5 -177.5t-112 -130t-125.5 -92t-123 -56.5t-101 -30.5t-63 -8zM909 90q57 19 74 107t-13 242t-108 347q-106 265 -224 398.5t-216 105.5q-85 -28 -85.5 -188t103.5 -449q108 -285 238 -439.5t231 -123.5z" />
    <glyph glyph-name="ohungarumlaut" unicode="&#x151;" horiz-adv-x="1110" 
d="M479 1536h264v-12l-344 -359h-10zM774 1536h264v-12l-342 -359h-10zM557 -31q-158 0 -280.5 76t-186 201.5t-63.5 275.5q0 103 25.5 191t66 147.5t93 106.5t104 74.5t102 45.5t83.5 24.5t52 6.5q159 0 281 -76t185.5 -202.5t63.5 -280.5q0 -102 -25.5 -188.5t-66 -145.5
t-93 -106t-104 -74.5t-102 -45t-83.5 -24t-52 -6.5zM737 70q36 15 44.5 68t-13.5 158.5t-78 268.5q-90 256 -166 367t-149 88q-38 -14 -47.5 -67t11 -159t75.5 -270q88 -255 166.5 -366t156.5 -88z" />
    <glyph glyph-name="OE" unicode="&#x152;" horiz-adv-x="1859" 
d="M1810 582h13v-582h-1035q-174 1 -309.5 42t-219 107t-137.5 158.5t-74.5 186.5t-20.5 200q0 73 11.5 141.5t38.5 137.5t67.5 129t101.5 111.5t138 88.5t180 58.5t224 21.5h1022v-581h-10q-15 23 -56 86t-61 92q-42 68 -63.5 102t-53.5 79.5t-50 66t-46.5 46.5t-51.5 36
t-56 21t-67.5 13.5t-80.5 2.5h-24v-631h22q46 0 79 9.5t72.5 37.5t80.5 86t88 149h12v-600h-12q-92 166 -162.5 224.5t-157.5 58.5h-22v-643h35q37 0 66.5 1.5t57.5 8.5t48.5 12.5t44 21t39.5 27.5t39 38.5t38 46t41.5 59t45 68.5t51.5 83zM446 694q0 -142 10 -244
t33 -181.5t63 -127.5t97.5 -72.5t138.5 -25.5v1292q-82 -1 -141.5 -30.5t-98 -81t-61.5 -133t-32 -176t-9 -220.5z" />
    <glyph glyph-name="oe" unicode="&#x153;" horiz-adv-x="1755" 
d="M1739 307l10 -12q-299 -326 -395 -326q-130 0 -242 44t-192 126q-62 -61 -145 -102.5t-135.5 -54.5t-82.5 -13q-158 0 -280.5 76t-186 201.5t-63.5 275.5q0 103 25.5 191t66 147.5t93 106.5t104 74.5t102 45.5t83.5 24.5t52 6.5q239 0 389 -166q91 87 204.5 127.5
t184.5 40.5q186 0 286.5 -101t113.5 -265q0 -27 -72 -71.5t-159 -78t-128 -33.5h-256q65 -141 174 -231t256 -90q84 0 193 57zM737 70q36 15 44.5 68t-13.5 158.5t-78 268.5q-90 256 -166 367t-149 88q-38 -14 -47.5 -67t11 -159t75.5 -270q88 -255 166.5 -366t156.5 -88z
M1159 1026q-47 0 -76.5 -45t-29.5 -133q0 -118 49 -240h262q-5 179 -63.5 298.5t-141.5 119.5z" />
    <glyph glyph-name="Racute" unicode="&#x154;" horiz-adv-x="1304" 
d="M1157 1759v-12l-500 -311h-14l90 323h424zM643 655l311 21l346 -658v-18h-565v12l94 109l-264 555h-47v-549l107 -115v-12h-613v12l107 115v1126l-103 117v12h646q124 0 221.5 -14.5t178.5 -48t125 -95t44 -149.5q0 -69 -30.5 -129.5t-96 -115.5t-183.5 -95.5t-278 -58.5
v-21zM518 1346v-633h62q60 0 104 21.5t68 53.5t38 80.5t17.5 90t3.5 94.5q0 65 -9 113.5t-31 91.5t-65 65.5t-106 22.5h-82z" />
    <glyph glyph-name="racute" unicode="&#x155;" horiz-adv-x="946" 
d="M928 1536v-12l-443 -375h-20l57 387h406zM981 1006l10 -7q-129 -280 -239 -280q-27 0 -54 18t-46 39.5t-44.5 39.5t-48.5 18q-10 0 -25.5 -15t-25.5 -37v-690l96 -80v-12h-551v12l94 80v766l-151 -76l-8 11q14 19 39.5 56t38.5 55.5t35.5 49t36.5 46.5t34.5 38t37 33.5
t36.5 23.5t39.5 16.5t40.5 4.5q39 0 67.5 -13t51.5 -44t32.5 -88.5t3.5 -139.5h17q14 19 47 66.5t56 79t50.5 68t47 55t30.5 18.5q20 0 56.5 -33t77 -66.5t71.5 -33.5q29 0 47 21z" />
    <glyph glyph-name="uni0156" unicode="&#x156;" horiz-adv-x="1304" 
d="M643 655l311 21l346 -658v-18h-565v12l94 109l-264 555h-47v-549l107 -115v-12h-613v12l107 115v1126l-103 117v12h646q124 0 221.5 -14.5t178.5 -48t125 -95t44 -149.5q0 -69 -30.5 -129.5t-96 -115.5t-183.5 -95.5t-278 -58.5v-21zM518 1346v-633h62q60 0 104 21.5
t68 53.5t38 80.5t17.5 90t3.5 94.5q0 65 -9 113.5t-31 91.5t-65 65.5t-106 22.5h-82zM819 -223v-2q0 -17 -4 -37q-12 -86 -125 -410h-162v10l215 295l-6 5q-33 -13 -73 -13q-75 0 -117.5 40t-42.5 110q0 68 42.5 106.5t117.5 38.5q73 0 114 -38.5t41 -104.5z" />
    <glyph glyph-name="uni0157" unicode="&#x157;" horiz-adv-x="946" 
d="M981 1006l10 -7q-129 -280 -239 -280q-27 0 -54 18t-46 39.5t-44.5 39.5t-48.5 18q-10 0 -25.5 -15t-25.5 -37v-690l96 -80v-12h-551v12l94 80v766l-151 -76l-8 11q14 19 39.5 56t38.5 55.5t35.5 49t36.5 46.5t34.5 38t37 33.5t36.5 23.5t39.5 16.5t40.5 4.5
q39 0 67.5 -13t51.5 -44t32.5 -88.5t3.5 -139.5h17q14 19 47 66.5t56 79t50.5 68t47 55t30.5 18.5q20 0 56.5 -33t77 -66.5t71.5 -33.5q29 0 47 21zM498 -223v-2q0 -17 -4 -37q-12 -86 -125 -410h-162v10l215 295l-6 5q-33 -13 -74 -13q-75 0 -117.5 40t-42.5 110
q0 68 42.5 106.5t117.5 38.5q73 0 114.5 -38.5t41.5 -104.5z" />
    <glyph glyph-name="Rcaron" unicode="&#x158;" horiz-adv-x="1304" 
d="M985 1788l-319 -334h-11l-327 334v12l323 -90h6l328 90v-12zM643 655l311 21l346 -658v-18h-565v12l94 109l-264 555h-47v-549l107 -115v-12h-613v12l107 115v1126l-103 117v12h646q124 0 221.5 -14.5t178.5 -48t125 -95t44 -149.5q0 -69 -30.5 -129.5t-96 -115.5
t-183.5 -95.5t-278 -58.5v-21zM518 1346v-633h62q60 0 104 21.5t68 53.5t38 80.5t17.5 90t3.5 94.5q0 65 -9 113.5t-31 91.5t-65 65.5t-106 22.5h-82z" />
    <glyph glyph-name="rcaron" unicode="&#x159;" horiz-adv-x="946" 
d="M791 1530l-306 -387h-14l-317 387v12l313 -110h6l318 110v-12zM981 1006l10 -7q-129 -280 -239 -280q-27 0 -54 18t-46 39.5t-44.5 39.5t-48.5 18q-10 0 -25.5 -15t-25.5 -37v-690l96 -80v-12h-551v12l94 80v766l-151 -76l-8 11q14 19 39.5 56t38.5 55.5t35.5 49
t36.5 46.5t34.5 38t37 33.5t36.5 23.5t39.5 16.5t40.5 4.5q39 0 67.5 -13t51.5 -44t32.5 -88.5t3.5 -139.5h17q14 19 47 66.5t56 79t50.5 68t47 55t30.5 18.5q20 0 56.5 -33t77 -66.5t71.5 -33.5q29 0 47 21z" />
    <glyph glyph-name="Sacute" unicode="&#x15a;" horiz-adv-x="1150" 
d="M1075 1759v-12l-500 -311h-14l90 323h424zM573 946l246 -149q161 -94 237.5 -186t76.5 -216q0 -84 -34.5 -161t-98.5 -139t-168 -99t-232 -37q-88 0 -181.5 17t-197.5 42t-170 35l-37 631l15 2q71 -140 166.5 -251.5t186.5 -177t187 -109t165 -59t122 -15.5q65 0 92 23
t27 57q0 19 -9 38t-29.5 39t-42 36.5t-58.5 39.5t-65.5 39.5t-77.5 44.5t-81 47l-235 146q-60 35 -101 63t-85.5 68t-70.5 81t-43 97t-16 121q1 106 42 184t114 123t164 66.5t203 21.5q192 0 331 -86l132 82h12v-594h-12q-173 231 -370 368.5t-351 137.5q-51 0 -78 -22
t-27 -58q0 -56 60.5 -104.5t244.5 -158.5q31 -18 47 -28z" />
    <glyph glyph-name="sacute" unicode="&#x15b;" horiz-adv-x="956" 
d="M928 1536v-12l-443 -375h-20l57 387h406zM395 860l273 -188q55 -36 87.5 -59t73 -59t62.5 -68t37.5 -75.5t15.5 -91.5q0 -46 -12.5 -91t-45 -92t-81.5 -82.5t-128.5 -58t-180.5 -22.5q-80 0 -168 15.5t-133 24.5t-138 -1l-43 572h13q62 -117 152.5 -221t180.5 -172.5
t175 -108t145 -39.5q30 0 49 15.5t19 47.5q0 35 -41 73t-164 116l-248 160q-119 73 -176.5 150.5t-57.5 176.5q0 153 116.5 246.5t303.5 93.5q165 0 297 -69l101 80h12l-2 -527h-12q-98 149 -210 255.5t-196 151t-141 44.5q-68 0 -68 -56q0 -34 30.5 -65t102.5 -76z" />
    <glyph glyph-name="Scircumflex" unicode="&#x15c;" horiz-adv-x="1150" 
d="M903 1440l-328 90h-6l-323 -90v12l327 334h11l319 -334v-12zM573 946l246 -149q161 -94 237.5 -186t76.5 -216q0 -84 -34.5 -161t-98.5 -139t-168 -99t-232 -37q-88 0 -181.5 17t-197.5 42t-170 35l-37 631l15 2q71 -140 166.5 -251.5t186.5 -177t187 -109t165 -59
t122 -15.5q65 0 92 23t27 57q0 19 -9 38t-29.5 39t-42 36.5t-58.5 39.5t-65.5 39.5t-77.5 44.5t-81 47l-235 146q-60 35 -101 63t-85.5 68t-70.5 81t-43 97t-16 121q1 106 42 184t114 123t164 66.5t203 21.5q192 0 331 -86l132 82h12v-594h-12q-173 231 -370 368.5
t-351 137.5q-51 0 -78 -22t-27 -58q0 -56 60.5 -104.5t244.5 -158.5q31 -18 47 -28z" />
    <glyph glyph-name="scircumflex" unicode="&#x15d;" horiz-adv-x="956" 
d="M797 1145l-318 110h-6l-313 -110v12l317 387h15l305 -387v-12zM395 860l273 -188q55 -36 87.5 -59t73 -59t62.5 -68t37.5 -75.5t15.5 -91.5q0 -46 -12.5 -91t-45 -92t-81.5 -82.5t-128.5 -58t-180.5 -22.5q-80 0 -168 15.5t-133 24.5t-138 -1l-43 572h13
q62 -117 152.5 -221t180.5 -172.5t175 -108t145 -39.5q30 0 49 15.5t19 47.5q0 35 -41 73t-164 116l-248 160q-119 73 -176.5 150.5t-57.5 176.5q0 153 116.5 246.5t303.5 93.5q165 0 297 -69l101 80h12l-2 -527h-12q-98 149 -210 255.5t-196 151t-141 44.5q-68 0 -68 -56
q0 -34 30.5 -65t102.5 -76z" />
    <glyph glyph-name="Scedilla" unicode="&#x15e;" horiz-adv-x="1150" 
d="M600 -41h-31l-28 -51q39 -7 83.5 -30t82.5 -69.5t38 -101.5q0 -84 -86.5 -164t-236.5 -137l-6 12q127 68 127 158q0 57 -47.5 92t-122.5 33l-2 12l155 248q-93 8 -251.5 45.5t-223.5 46.5l-37 631l15 2q71 -140 166.5 -251.5t186.5 -177t187 -109t165 -59t122 -15.5
q65 0 92 23t27 57q0 19 -9 38t-29.5 39t-42 36.5t-58.5 39.5t-65.5 39.5t-77.5 44.5t-81 47l-235 146q-60 35 -101 63t-85.5 68t-70.5 81t-43 97t-16 121q1 106 42 184t114 123t164 66.5t203 21.5q192 0 331 -86l132 82h12v-594h-12q-173 231 -370 368.5t-351 137.5
q-51 0 -78 -22t-27 -58q0 -56 60.5 -104.5t244.5 -158.5q31 -18 47 -28l246 -149q161 -94 237.5 -186t76.5 -216q0 -84 -34.5 -161t-98.5 -139t-168 -99t-232 -37z" />
    <glyph glyph-name="scedilla" unicode="&#x15f;" horiz-adv-x="956" 
d="M496 -27h-17l-37 -65q39 -7 83.5 -30t83 -69.5t38.5 -101.5q0 -84 -86.5 -164t-236.5 -137l-7 12q127 68 127 158q0 57 -47.5 92t-122.5 33l-2 12l164 262q-50 3 -106.5 13t-91 17.5t-87 11.5t-94.5 -5l-43 572h13q62 -117 152.5 -221t180.5 -172.5t175 -108t145 -39.5
q30 0 49 15.5t19 47.5q0 35 -41 73t-164 116l-248 160q-119 73 -176.5 150.5t-57.5 176.5q0 153 116.5 246.5t303.5 93.5q165 0 297 -69l101 80h12l-2 -527h-12q-98 149 -210 255.5t-196 151t-141 44.5q-68 0 -68 -56q0 -34 30.5 -65t102.5 -76l273 -188q55 -36 87.5 -59
t73 -59t62.5 -68t37.5 -75.5t15.5 -91.5q0 -46 -12.5 -91t-45 -92t-81.5 -82.5t-128.5 -58t-180.5 -22.5z" />
    <glyph glyph-name="Scaron" unicode="&#x160;" horiz-adv-x="1150" 
d="M903 1788l-319 -334h-11l-327 334v12l323 -90h6l328 90v-12zM573 946l246 -149q161 -94 237.5 -186t76.5 -216q0 -84 -34.5 -161t-98.5 -139t-168 -99t-232 -37q-88 0 -181.5 17t-197.5 42t-170 35l-37 631l15 2q71 -140 166.5 -251.5t186.5 -177t187 -109t165 -59
t122 -15.5q65 0 92 23t27 57q0 19 -9 38t-29.5 39t-42 36.5t-58.5 39.5t-65.5 39.5t-77.5 44.5t-81 47l-235 146q-60 35 -101 63t-85.5 68t-70.5 81t-43 97t-16 121q1 106 42 184t114 123t164 66.5t203 21.5q192 0 331 -86l132 82h12v-594h-12q-173 231 -370 368.5
t-351 137.5q-51 0 -78 -22t-27 -58q0 -56 60.5 -104.5t244.5 -158.5q31 -18 47 -28z" />
    <glyph glyph-name="scaron" unicode="&#x161;" horiz-adv-x="956" 
d="M793 1530l-306 -387h-14l-317 387v12l313 -110h6l318 110v-12zM395 860l273 -188q55 -36 87.5 -59t73 -59t62.5 -68t37.5 -75.5t15.5 -91.5q0 -46 -12.5 -91t-45 -92t-81.5 -82.5t-128.5 -58t-180.5 -22.5q-80 0 -168 15.5t-133 24.5t-138 -1l-43 572h13
q62 -117 152.5 -221t180.5 -172.5t175 -108t145 -39.5q30 0 49 15.5t19 47.5q0 35 -41 73t-164 116l-248 160q-119 73 -176.5 150.5t-57.5 176.5q0 153 116.5 246.5t303.5 93.5q165 0 297 -69l101 80h12l-2 -527h-12q-98 149 -210 255.5t-196 151t-141 44.5q-68 0 -68 -56
q0 -34 30.5 -65t102.5 -76z" />
    <glyph glyph-name="uni0162" unicode="&#x162;" horiz-adv-x="1218" 
d="M1208 1382v-581h-12q-200 345 -259.5 441t-78.5 104h-45v-1219l105 -115v-12h-287l-51 -92q39 -7 83.5 -30t82.5 -69.5t38 -101.5q0 -84 -86.5 -164t-236.5 -137l-6 12q127 68 127 158q0 57 -47.5 92t-122.5 33l-2 12l180 287h-283v12l105 115v1219h-43
q-13 -4 -39.5 -40.5t-100.5 -157.5t-204 -347h-13v581h1196z" />
    <glyph glyph-name="uni0163" unicode="&#x163;" horiz-adv-x="667" 
d="M330 -31h-17l-34 -61q39 -7 83.5 -30t82.5 -69.5t38 -101.5q0 -84 -86.5 -164t-236.5 -137l-6 12q127 68 127 158q0 57 -47.5 92t-122.5 33l-2 12l163 260q-94 17 -140.5 95t-47.5 225l-8 715l-119 69v13h158l303 346h12v-346h225v-89q-114 0 -225 19l-4 -639
q0 -78 31.5 -119t85.5 -41q52 0 112 43l9 -10q-217 -285 -334 -285z" />
    <glyph glyph-name="Tcaron" unicode="&#x164;" horiz-adv-x="1218" 
d="M942 1788l-319 -334h-11l-327 334v12l323 -90h6l328 90v-12zM1208 1382v-581h-12q-200 345 -259.5 441t-78.5 104h-45v-1219l105 -115v-12h-611v12l105 115v1219h-43q-13 -4 -39.5 -40.5t-100.5 -157.5t-204 -347h-13v581h1196z" />
    <glyph glyph-name="tcaron" unicode="&#x165;" horiz-adv-x="667" 
d="M823 1669v-2q0 -19 -2 -27q-10 -93 -131 -444h-172v10l227 312l-8 4q-33 -13 -75 -13q-80 0 -124 41.5t-44 116.5q0 71 44.5 111.5t123.5 40.5q77 0 119 -40t42 -110zM543 221q52 0 112 43l9 -10q-217 -285 -334 -285q-123 0 -184 78.5t-62 245.5l-8 715l-119 69v13h158
l303 346h12v-346h225v-89q-114 0 -225 19l-4 -639q0 -78 31.5 -119t85.5 -41z" />
    <glyph glyph-name="Tbar" unicode="&#x166;" horiz-adv-x="1218" 
d="M1208 1382v-581h-12q-200 345 -259.5 441t-78.5 104h-45v-644h199v-36h-199v-539l105 -115v-12h-611v12l105 115v539h-197v36h197v644h-43q-13 -4 -39.5 -40.5t-100.5 -157.5t-204 -347h-13v581h1196z" />
    <glyph glyph-name="tbar" unicode="&#x167;" horiz-adv-x="667" 
d="M655 264l9 -10q-217 -285 -334 -285q-123 0 -184 78.5t-62 245.5l-4 332h-121v37h121l-4 346l-119 69v13h158l303 346h12v-346h225v-89q-114 0 -225 19l-2 -358h225v-37h-225l-2 -244q0 -78 31.5 -119t85.5 -41q52 0 112 43z" />
    <glyph glyph-name="Utilde" unicode="&#x168;" horiz-adv-x="1318" 
d="M416 1550q-102 0 -170 -100l-10 6q10 20 28.5 56.5t29 57.5t28 52.5t30.5 50t32.5 40.5t38 33.5t41.5 19.5t48 8q79 0 227 -51.5t213 -51.5q43 0 81.5 19t84.5 82l10 -7q-33 -67 -61 -115.5t-66.5 -99t-81.5 -77.5t-88 -27q-67 0 -142 26t-145.5 52t-127.5 26zM1217 1382
v-1251l104 -119v-12h-506v225q-151 -144 -224 -200t-114 -56q-360 0 -360 424v862l-2 -4l-107 119v12h510v-872q0 -50 1.5 -86t6.5 -74t14.5 -63.5t24.5 -46.5t37.5 -31t52.5 -10q91 0 160 86v966l-106 119v12h508z" />
    <glyph glyph-name="utilde" unicode="&#x169;" horiz-adv-x="1171" 
d="M319 1282q-21 0 -37.5 -2.5t-40 -11.5t-48 -30t-48.5 -54l-10 6q10 19 32 63.5t33.5 66t32.5 57t38 54t40.5 39t49.5 29t55 8.5q72 0 157.5 -25t164.5 -50t134 -25q28 0 49 4.5t53.5 28.5t65.5 69l13 -6q-32 -66 -61.5 -116t-67.5 -99.5t-82 -76.5t-90 -27q-83 0 -225 49
t-208 49zM1059 229l151 76l9 -10l-39 -57t-39 -56t-35.5 -49.5t-36.5 -47t-35 -38t-37 -33.5t-36 -23.5t-39.5 -17t-40.5 -4.5q-83 0 -126 66.5t-30 230.5q-217 -295 -309 -295q-83 -1 -145 27t-98 78.5t-53.5 113.5t-17.5 140v682l-94 65v13h459v-80h-2v-656
q0 -72 31 -103.5t82 -31.5q67 0 118 68v723l-96 67v13h459v-861z" />
    <glyph glyph-name="Umacron" unicode="&#x16a;" horiz-adv-x="1318" 
d="M305 1651h707v-135h-707v135zM1217 1382v-1251l104 -119v-12h-506v225q-151 -144 -224 -200t-114 -56q-360 0 -360 424v862l-2 -4l-107 119v12h510v-872q0 -50 1.5 -86t6.5 -74t14.5 -63.5t24.5 -46.5t37.5 -31t52.5 -10q91 0 160 86v966l-106 119v12h508z" />
    <glyph glyph-name="umacron" unicode="&#x16b;" horiz-adv-x="1171" 
d="M217 1352h719v-113h-719v113zM1059 229l151 76l9 -10l-39 -57t-39 -56t-35.5 -49.5t-36.5 -47t-35 -38t-37 -33.5t-36 -23.5t-39.5 -17t-40.5 -4.5q-83 0 -126 66.5t-30 230.5q-217 -295 -309 -295q-83 -1 -145 27t-98 78.5t-53.5 113.5t-17.5 140v682l-94 65v13h459v-80
h-2v-656q0 -72 31 -103.5t82 -31.5q67 0 118 68v723l-96 67v13h459v-861z" />
    <glyph glyph-name="Ubreve" unicode="&#x16c;" horiz-adv-x="1318" 
d="M659 1444q-128 0 -209 82t-81 227h14q17 -47 95.5 -68.5t180.5 -21.5q103 0 182.5 21.5t96.5 68.5h14q0 -145 -81.5 -227t-211.5 -82zM1217 1382v-1251l104 -119v-12h-506v225q-151 -144 -224 -200t-114 -56q-360 0 -360 424v862l-2 -4l-107 119v12h510v-872
q0 -50 1.5 -86t6.5 -74t14.5 -63.5t24.5 -46.5t37.5 -31t52.5 -10q91 0 160 86v966l-106 119v12h508z" />
    <glyph glyph-name="ubreve" unicode="&#x16d;" horiz-adv-x="1171" 
d="M580 1182q-126 0 -197.5 91t-71.5 251h15q14 -57 86.5 -89t167.5 -32q94 0 165.5 32t85.5 89h15q0 -160 -71 -251t-195 -91zM1059 229l151 76l9 -10l-39 -57t-39 -56t-35.5 -49.5t-36.5 -47t-35 -38t-37 -33.5t-36 -23.5t-39.5 -17t-40.5 -4.5q-83 0 -126 66.5t-30 230.5
q-217 -295 -309 -295q-83 -1 -145 27t-98 78.5t-53.5 113.5t-17.5 140v682l-94 65v13h459v-80h-2v-656q0 -72 31 -103.5t82 -31.5q67 0 118 68v723l-96 67v13h459v-861z" />
    <glyph glyph-name="Uring" unicode="&#x16e;" horiz-adv-x="1318" 
d="M659 1409q-101 0 -171 70.5t-70 171.5q0 100 70 170.5t171 70.5q100 0 171 -70.5t71 -170.5q0 -101 -71 -171.5t-171 -70.5zM659 1786q-56 0 -94.5 -39t-38.5 -96t38.5 -96t94.5 -39t95 39t39 96t-39 96t-95 39zM1217 1382v-1251l104 -119v-12h-506v225
q-151 -144 -224 -200t-114 -56q-360 0 -360 424v862l-2 -4l-107 119v12h510v-872q0 -50 1.5 -86t6.5 -74t14.5 -63.5t24.5 -46.5t37.5 -31t52.5 -10q91 0 160 86v966l-106 119v12h508z" />
    <glyph glyph-name="uring" unicode="&#x16f;" horiz-adv-x="1171" 
d="M578 1163q-101 0 -171.5 70.5t-70.5 171.5q0 100 70.5 171t171.5 71q100 0 170.5 -71t70.5 -171q0 -101 -70.5 -171.5t-170.5 -70.5zM578 1540q-56 0 -95 -39t-39 -96t39 -96t95 -39t94.5 39t38.5 96t-38.5 96t-94.5 39zM1059 229l151 76l9 -10l-39 -57t-39 -56
t-35.5 -49.5t-36.5 -47t-35 -38t-37 -33.5t-36 -23.5t-39.5 -17t-40.5 -4.5q-83 0 -126 66.5t-30 230.5q-217 -295 -309 -295q-83 -1 -145 27t-98 78.5t-53.5 113.5t-17.5 140v682l-94 65v13h459v-80h-2v-656q0 -72 31 -103.5t82 -31.5q67 0 118 68v723l-96 67v13h459v-861z
" />
    <glyph glyph-name="Uhungarumlaut" unicode="&#x170;" horiz-adv-x="1318" 
d="M600 1759l199 -51l-2 -10l-213 -197zM823 1759l195 -51v-10l-213 -197zM1217 1382v-1251l104 -119v-12h-506v225q-151 -144 -224 -200t-114 -56q-360 0 -360 424v862l-2 -4l-107 119v12h510v-872q0 -50 1.5 -86t6.5 -74t14.5 -63.5t24.5 -46.5t37.5 -31t52.5 -10
q91 0 160 86v966l-106 119v12h508z" />
    <glyph glyph-name="uhungarumlaut" unicode="&#x171;" horiz-adv-x="1171" 
d="M776 1536v-12l-344 -359h-10l90 371h264zM1071 1524l-342 -359h-10l88 371h264v-12zM1059 229l151 76l9 -10l-39 -57t-39 -56t-35.5 -49.5t-36.5 -47t-35 -38t-37 -33.5t-36 -23.5t-39.5 -17t-40.5 -4.5q-83 0 -126 66.5t-30 230.5q-217 -295 -309 -295q-83 -1 -145 27
t-98 78.5t-53.5 113.5t-17.5 140v682l-94 65v13h459v-80h-2v-656q0 -72 31 -103.5t82 -31.5q67 0 118 68v723l-96 67v13h459v-861z" />
    <glyph glyph-name="Uogonek" unicode="&#x172;" horiz-adv-x="1318" 
d="M1214 1382v-1251l107 -119v-12h-240q-86 0 -151.5 -18.5t-102.5 -45.5t-60 -64.5t-30.5 -69t-7.5 -64.5q0 -60 39.5 -110t103.5 -50q33 0 66 23l8 -15q-185 -176 -241 -176q-30 0 -61.5 9t-62.5 27t-51 52.5t-20 79.5q0 54 22.5 102t56.5 82.5t73.5 72t73.5 69.5
t56.5 75.5t22.5 90.5v157q-156 -147 -227.5 -202.5t-112.5 -55.5q-360 0 -360 424v858l-107 119v12h508v-944q0 -117 31.5 -178t105.5 -61q91 0 162 88v964l-106 119v12h505z" />
    <glyph glyph-name="uogonek" unicode="&#x173;" horiz-adv-x="1171" 
d="M1010 -422q32 0 65 23l8 -15q-89 -87 -152 -131.5t-87 -44.5q-30 0 -62 9t-63 27t-50.5 52.5t-19.5 79.5q0 78 69.5 173t227.5 235q-38 -17 -65 -17q-83 0 -126 66.5t-30 230.5q-215 -295 -309 -295q-83 -1 -145 27t-98 78.5t-53.5 113.5t-17.5 140v682l-94 65v13h459
v-80l-2 -656q0 -133 113 -133q67 0 118 68v721l-96 67v13h459v-861l151 76l9 -10q-411 -564 -302 -685q29 -32 93 -32z" />
    <glyph glyph-name="Wcircumflex" unicode="&#x174;" horiz-adv-x="1640" 
d="M1192 1440l-328 90h-6l-323 -90v12l327 334h10l320 -334v-12zM1098 1370v12h540v-12l-483 -1411h-22l-287 723h-8l-324 -723h-20l-490 1411v12h561v-12l-102 -115l235 -739h13l24 92q101 256 -61 469v13h534v-13l-98 -108l166 -455h10l43 148q47 131 27.5 268t-90.5 257
t-168 183z" />
    <glyph glyph-name="wcircumflex" unicode="&#x175;" horiz-adv-x="1462" 
d="M1059 1145l-318 110h-6l-313 -110v12l317 387h15l305 -387v-12zM1061 1077v13h457v-13l-502 -1108h-23l-254 617h-14l-238 -617h-22l-520 1108v13h510v-13l-107 -76l262 -585h13l24 76q87 376 -153 585v13h524v-13l-105 -73l258 -588h13l24 76q20 56 24 127.5t-9.5 151
t-55 161t-106.5 145.5z" />
    <glyph glyph-name="Ycircumflex" unicode="&#x176;" horiz-adv-x="1257" 
d="M969 1440l-328 90h-6l-324 -90v12l328 334h10l320 -334v-12zM1257 1382v-12l-423 -827v-416l104 -115v-12h-610v12l104 115v397l-416 846v12h580v-12l-94 -110l305 -660l33 59q31 55 41.5 147.5t-1 195t-61.5 204.5t-131 164v12h569z" />
    <glyph glyph-name="ycircumflex" unicode="&#x177;" horiz-adv-x="937" 
d="M811 1145l-317 110h-7l-313 -110v12l318 387h14l305 -387v-12zM524 1090h469v-13l-32 -73l32 65l-702 -1581h-373v12l528 508l-493 1069v13h514v-13l-105 -73l275 -617h6l29 57l8 23q51 174 3.5 350t-159.5 260v13z" />
    <glyph glyph-name="Ydieresis" unicode="&#x178;" horiz-adv-x="1257" 
d="M432 1468q-72 0 -112.5 38t-40.5 106q0 65 40.5 102t112.5 37q70 0 109 -37t39 -102q0 -68 -39 -106t-109 -38zM868 1468q-72 0 -111.5 38t-39.5 106q0 65 39.5 102t111.5 37q70 0 109 -37t39 -102q0 -68 -39 -106t-109 -38zM1257 1382v-12l-423 -827v-416l104 -115v-12
h-610v12l104 115v397l-416 846v12h580v-12l-94 -110l305 -660l33 59q31 55 41.5 147.5t-1 195t-61.5 204.5t-131 164v12h569z" />
    <glyph glyph-name="Zacute" unicode="&#x179;" horiz-adv-x="1138" 
d="M1057 1759v-12l-500 -311h-14l90 323h424zM1126 1382v-14l-682 -1331h29q48 0 84.5 3t71 13.5t59 20.5t53.5 35.5t49 46.5t52 65.5t55.5 80t65.5 101.5q21 29 62.5 91t59.5 88h13v-582h-1086v14l674 1332h-14q-38 0 -69 -1.5t-60 -8.5t-50.5 -12.5t-46.5 -21.5
t-41.5 -27.5t-40.5 -38.5t-39.5 -46t-43.5 -59t-47 -69t-54 -83q-90 -131 -121 -178h-12v581h1079z" />
    <glyph glyph-name="zacute" unicode="&#x17a;" horiz-adv-x="960" 
d="M934 1536v-12l-442 -375h-21l57 387h406zM950 1090v-13l-557 -1038q36 0 65 3.5t57.5 14t50.5 21t47 34t43.5 43t44 59t44 70t49 88t53 101.5t60.5 121h13l2 -584l-7 -14l-905 4v12l533 1041q-53 -1 -88 -7t-73.5 -26.5t-68.5 -52t-71 -92t-82.5 -137.5t-102.5 -197h-14
l-2 538l8 11h901z" />
    <glyph glyph-name="Zdotaccent" unicode="&#x17b;" horiz-adv-x="1138" 
d="M567 1460q-73 0 -114 38.5t-41 107.5q0 66 41 103.5t114 37.5q72 0 111 -37.5t39 -103.5q0 -69 -39 -107.5t-111 -38.5zM1126 1382v-14l-682 -1331h29q48 0 84.5 3t71 13.5t59 20.5t53.5 35.5t49 46.5t52 65.5t55.5 80t65.5 101.5q21 29 62.5 91t59.5 88h13v-582h-1086
v14l674 1332h-14q-38 0 -69 -1.5t-60 -8.5t-50.5 -12.5t-46.5 -21.5t-41.5 -27.5t-40.5 -38.5t-39.5 -46t-43.5 -59t-47 -69t-54 -83q-90 -131 -121 -178h-12v581h1079z" />
    <glyph glyph-name="zdotaccent" unicode="&#x17c;" horiz-adv-x="960" 
d="M492 1167q-74 0 -115 38.5t-41 107.5q0 66 41.5 103.5t114.5 37.5q71 0 110 -37t39 -104q0 -69 -38.5 -107.5t-110.5 -38.5zM950 1090v-13l-557 -1038q36 0 65 3.5t57.5 14t50.5 21t47 34t43.5 43t44 59t44 70t49 88t53 101.5t60.5 121h13l2 -584l-7 -14l-905 4v12
l533 1041q-53 -1 -88 -7t-73.5 -26.5t-68.5 -52t-71 -92t-82.5 -137.5t-102.5 -197h-14l-2 538l8 11h901z" />
    <glyph glyph-name="Zcaron" unicode="&#x17d;" horiz-adv-x="1138" 
d="M885 1788l-320 -334h-10l-328 334v12l324 -90h6l328 90v-12zM1126 1382v-14l-682 -1331h29q48 0 84.5 3t71 13.5t59 20.5t53.5 35.5t49 46.5t52 65.5t55.5 80t65.5 101.5q21 29 62.5 91t59.5 88h13v-582h-1086v14l674 1332h-14q-38 0 -69 -1.5t-60 -8.5t-50.5 -12.5
t-46.5 -21.5t-41.5 -27.5t-40.5 -38.5t-39.5 -46t-43.5 -59t-47 -69t-54 -83q-90 -131 -121 -178h-12v581h1079z" />
    <glyph glyph-name="zcaron" unicode="&#x17e;" horiz-adv-x="960" 
d="M797 1530l-305 -387h-15l-317 387v12l313 -110h6l318 110v-12zM950 1090v-13l-557 -1038q36 0 65 3.5t57.5 14t50.5 21t47 34t43.5 43t44 59t44 70t49 88t53 101.5t60.5 121h13l2 -584l-7 -14l-905 4v12l533 1041q-53 -1 -88 -7t-73.5 -26.5t-68.5 -52t-71 -92
t-82.5 -137.5t-102.5 -197h-14l-2 538l8 11h901z" />
    <glyph glyph-name="uni018F" unicode="&#x18f;" horiz-adv-x="1226" 
d="M526 1393q109 0 208.5 -28t184 -85.5t146.5 -138t97.5 -193t35.5 -243.5q0 -118 -28.5 -221t-75 -176t-107 -133t-122 -97t-123 -62.5t-108 -36t-77.5 -10.5q-218 0 -363 130t-159 327q0 20 79.5 74.5t174 101.5t131.5 47h430q-30 72 -68 135.5t-90 122.5t-111.5 101.5
t-134.5 68t-157 25.5q-119 0 -246 -66l-14 13q164 153 301.5 248.5t195.5 95.5zM768 88q68 0 112 52t44 171q0 137 -58 295h-436q3 -128 56.5 -250t131 -195t150.5 -73z" />
    <glyph glyph-name="uni019D" unicode="&#x19d;" horiz-adv-x="1308" 
d="M1196 991l-2 -860l104 -119v-12h-503v872q0 61 -2.5 102.5t-10.5 84.5t-22 68t-39.5 41t-61.5 16q-90 0 -161 -86v-805q-1 -147 -46.5 -278.5t-101 -213t-143.5 -159t-133 -106.5t-110 -66q-13 -8 -19 -11l-8 17q87 84 123 270.5t36 568.5v938l-104 117v12h506v-227
q151 146 224 202t116 56q358 0 358 -422z" />
    <glyph glyph-name="Gcaron" unicode="&#x1e6;" horiz-adv-x="1277" 
d="M1030 1788l-319 -334h-11l-327 334v12l323 -90h6l328 90v-12zM547 725v12h674l10 -10l-8 -760h-13l-292 287h-11q-22 -30 -58.5 -82.5t-56.5 -79.5t-45 -58.5t-42.5 -45t-30.5 -13.5q-185 2 -333.5 98.5t-230 258t-81.5 354.5q0 129 33.5 238t86 181.5t121.5 129.5
t135.5 89t133.5 53t109.5 27.5t68.5 6.5q183 0 324 -77t198 -191l-405 -332l-11 4q-19 113 -63 222.5t-115.5 189.5t-148.5 80q-71 0 -114.5 -62t-43.5 -180q0 -132 41 -277t106.5 -263.5t157.5 -195.5t186 -77q17 0 23 2v389z" />
    <glyph glyph-name="gcaron" unicode="&#x1e7;" horiz-adv-x="1097" 
d="M860 1554l-305 -387h-14l-318 387v13l314 -111h6l317 111v-13zM1176 1090v-89q-238 3 -412 50l-8 -13q239 -88 239 -309q0 -77 -30.5 -141.5t-79 -106t-103 -72.5t-109 -46.5t-90 -23t-51.5 -7.5q-155 0 -276 78q-16 -22 -16 -72q0 -20 2 -34t13.5 -35t32 -34.5t61 -23.5
t97.5 -10l306 -2q160 0 245.5 -73.5t85.5 -188.5q0 -83 -45.5 -166.5t-123.5 -151t-192 -109.5t-241 -42q-87 0 -168.5 13.5t-156.5 41t-134.5 74t-93.5 108.5q-7 14 61 78.5t193 171.5q-91 34 -141.5 99.5t-50.5 148.5q0 8 12.5 23.5t40.5 41.5t52 47t67 58.5t65 56.5
q-143 114 -143 287q0 81 32 148t82 108.5t105.5 72t109.5 45t86 21t42 6.5q35 0 135 -14t172 -14h328zM645 393q127 3 14 316q-117 348 -239 342q-122 -3 -12 -318q116 -340 237 -340zM723 -86l-371 10q-82 3 -153 25q-15 -15 -15 -33q0 -63 58 -110t149 -70.5t177 -34
t165 -10.5q116 0 190 30t74 80q0 105 -274 113z" />
    <glyph glyph-name="uni01EA" unicode="&#x1ea;" horiz-adv-x="1333" 
d="M1305 692q0 -334 -222 -534l11 6q-196 -214 -246 -379q-40 -134 37 -174q27 -14 67 -14q35 0 66 22l8 -14q-91 -89 -154 -133.5t-88 -44.5q-30 0 -61 8.5t-61.5 27t-50 52.5t-19.5 79q0 91 81.5 202.5t287.5 271.5q-86 -50 -168.5 -74.5t-122.5 -24.5q-136 0 -256 56.5
t-204 153t-132.5 229t-48.5 280.5q0 123 31 228.5t79.5 177.5t112 130t126 92t123.5 56.5t101.5 30.5t63.5 8q179 0 326 -96t230 -261t83 -362zM909 90q57 19 74 107t-13 242t-108 347q-106 265 -224 398.5t-216 105.5q-85 -28 -85.5 -188t103.5 -449q108 -285 238 -439.5
t231 -123.5z" />
    <glyph glyph-name="uni01EB" unicode="&#x1eb;" horiz-adv-x="1110" 
d="M27 522q0 103 25.5 191t66 147.5t93 106.5t104 74.5t102 45.5t83.5 24.5t52 6.5q159 0 281 -76t185.5 -202.5t63.5 -280.5q0 -67 -13.5 -128t-31.5 -104t-50.5 -90.5t-55 -74.5t-60.5 -68q-142 -156 -178 -301q-30 -125 39 -172q31 -22 82 -22q35 0 66 22l8 -14
q-185 -176 -242 -176q-30 0 -61 9t-61.5 27t-50 52.5t-19.5 79.5q0 84 72.5 185t240.5 247q-64 -31 -123.5 -46.5t-87.5 -15.5q-158 0 -280.5 76t-186 201.5t-63.5 275.5zM332 956q-21 -30 -22 -75t18.5 -111t55.5 -146t93 -188q200 -431 303 -301q39 58 1 181t-154 337
q-157 339 -252 331q-24 -4 -43 -28z" />
    <glyph glyph-name="Aringacute" unicode="&#x1fa;" horiz-adv-x="1292" 
d="M629 1409q-101 0 -171.5 70.5t-70.5 171.5q0 100 70.5 170.5t171.5 70.5h6l78 289h424v-12l-451 -283q82 -20 134 -85.5t52 -149.5q0 -101 -71 -171.5t-172 -70.5zM629 1786q-56 0 -94.5 -39t-38.5 -96t38.5 -96t94.5 -39q57 0 95 39t38 96t-38 96t-95 39zM401 1382h420
l467 -1362v-20h-557v12l103 115l-119 352h-342q3 -144 44 -266t111 -201v-12h-524v12l485 1110l-88 248v12zM373 516h329l-184 549h-12l-47 -133q-83 -205 -86 -416z" />
    <glyph glyph-name="aringacute" unicode="&#x1fb;" horiz-adv-x="1081" 
d="M1026 2066v-12l-442 -375h-19l56 387h405zM573 1163q-101 0 -171 70.5t-70 171.5q0 100 70 171t171 71q100 0 171 -71t71 -171q0 -101 -71 -171.5t-171 -70.5zM573 1540q-56 0 -94.5 -39t-38.5 -96t38.5 -96t94.5 -39t95 39t39 96t-39 96t-95 39zM963 233l151 78l8 -10
q-15 -21 -50.5 -72t-50 -71t-44 -58t-47.5 -53.5t-44 -36t-50.5 -28t-51.5 -7.5q-81 0 -123.5 64.5t-31.5 222.5h-11q-28 -63 -58.5 -110.5t-72 -90t-96.5 -65.5t-121 -23q-106 0 -171.5 59.5t-65.5 160.5q0 56 21.5 106.5t54 87.5t83 73.5t94.5 60.5t103 52l227 101
q0 156 -44 247t-117 85q-33 -2 -54.5 -21t-32.5 -56.5t-3.5 -102t34.5 -150.5l-379 -109l-6 13q49 107 111.5 194.5t120 142.5t121 96.5t112 61.5t96 32t69 14.5t34.5 2.5q54 0 97 -8t75 -21t55.5 -36.5t39 -46t25 -60t13.5 -67t4.5 -78t-1 -83t-5.5 -91.5l-18 -369v-31z
M471 221q35 0 73.5 27.5t67.5 83.5l4 295q-125 -84 -180 -154.5t-55 -138.5q0 -57 28 -85t62 -28z" />
    <glyph glyph-name="AEacute" unicode="&#x1fc;" horiz-adv-x="1914" 
d="M1548 1759v-12l-499 -311h-15l90 323h424zM1866 582h12v-582h-1139v12l105 117v350h-309q-60 -281 -7 -467l-2 -12h-524l4 20l838 1223v10l-105 117v12h1127v-581h-13l-114 178q-42 68 -63.5 102t-53.5 79.5t-50 66t-47 46.5t-51.5 36t-56 21t-68.5 13.5t-81 2.5h-23
v-631h23q45 0 78 9.5t72 37.5t80 85.5t89 149.5h12v-600h-12q-92 167 -162 225t-157 58h-23v-643h35q37 0 66.5 1.5t57.5 8.5t48.5 12.5t44 21t39.5 27.5t39 38.5t38 46t41.5 59t45 68.5t51.5 83zM543 516h301v662l-74 -123q-162 -257 -227 -539z" />
    <glyph glyph-name="aeacute" unicode="&#x1fd;" horiz-adv-x="1607" 
d="M1249 1536v-12l-442 -375h-21l58 387h405zM1591 303l8 -10q-132 -146 -241 -235t-160 -89q-404 0 -528 312h-11q-114 -308 -391 -308q-104 0 -169.5 58.5t-65.5 158.5q0 47 13 86.5t51.5 79.5t73.5 69t117.5 75t141.5 76t184 92q-3 169 -48 260.5t-117 85.5
q-31 -2 -52 -20.5t-32 -56t-3 -104.5t37 -157l-379 -109l-6 13q50 107 112 194.5t120 142.5t121.5 96.5t112 61.5t95.5 32t68.5 14.5t34.5 2.5q142 0 217 -102q60 43 148 70.5t135 27.5q185 0 288 -101.5t117 -264.5q0 -27 -74.5 -71.5t-164 -78t-130.5 -33.5h-239
q28 -66 65 -121t87.5 -102t118 -73.5t145.5 -26.5q95 0 200 55zM1008 1022q-45 0 -72.5 -44t-24.5 -138q7 -120 52 -234h243q-3 167 -58.5 291.5t-139.5 124.5zM477 221q44 0 89 32t79 101q-31 121 -31 271q-123 -83 -177 -153.5t-54 -139.5q0 -56 28.5 -83.5t65.5 -27.5z
" />
    <glyph glyph-name="Oslashacute" unicode="&#x1fe;" horiz-adv-x="1333" 
d="M1169 1759v-12l-499 -311h-15l90 323h424zM1149 1382l-84 -125q112 -100 176 -247.5t64 -317.5q0 -123 -31 -228.5t-79.5 -177.5t-112 -130t-125.5 -92t-123 -56.5t-101 -30.5t-63 -8q-215 0 -377 131l-66 -100h-39l80 121q-113 99 -176 247t-63 320q0 123 31 228.5
t79.5 177.5t112 130t126 92t123.5 56.5t101.5 30.5t63.5 8q212 0 374 -133l70 104h39zM440 653q40 -103 72 -168l291 437q-96 200 -196.5 296.5t-184.5 71.5q-85 -28 -85.5 -188t103.5 -449zM909 90q57 19 74 107t-13 242t-108 347q-20 51 -43 101l-291 -436
q97 -193 198.5 -289.5t182.5 -71.5z" />
    <glyph glyph-name="oslashacute" unicode="&#x1ff;" horiz-adv-x="1110" 
d="M999 1536v-12l-442 -375h-20l57 387h405zM1014 1137l-109 -148q86 -78 132 -189.5t46 -240.5q0 -102 -25.5 -188.5t-66 -145.5t-93 -106t-104 -74.5t-102 -45t-83.5 -24t-52 -6.5q-178 0 -319 103l-91 -125h-32l102 141q-91 76 -140.5 189.5t-49.5 244.5q0 103 25.5 191
t66 147.5t93 106.5t104 74.5t102 45.5t83.5 24.5t52 6.5q195 0 332 -112l94 131h35zM414 524q26 -73 41 -110l192 266q-76 193 -142 276.5t-130 63.5q-38 -14 -47.5 -67t11 -159t75.5 -270zM737 70q36 15 44.5 68t-13.5 158.5t-78 268.5l-31 84l-194 -266q72 -179 139 -256
t133 -57z" />
    <glyph glyph-name="uni0218" unicode="&#x218;" horiz-adv-x="1150" 
d="M573 946l246 -149q161 -94 237.5 -186t76.5 -216q0 -84 -34.5 -161t-98.5 -139t-168 -99t-232 -37q-88 0 -181.5 17t-197.5 42t-170 35l-37 631l15 2q71 -140 166.5 -251.5t186.5 -177t187 -109t165 -59t122 -15.5q65 0 92 23t27 57q0 19 -9 38t-29.5 39t-42 36.5
t-58.5 39.5t-65.5 39.5t-77.5 44.5t-81 47l-235 146q-60 35 -101 63t-85.5 68t-70.5 81t-43 97t-16 121q1 106 42 184t114 123t164 66.5t203 21.5q192 0 331 -86l132 82h12v-594h-12q-173 231 -370 368.5t-351 137.5q-51 0 -78 -22t-27 -58q0 -56 60.5 -104.5t244.5 -158.5
q31 -18 47 -28zM737 -223v-2q0 -17 -4 -37q-12 -86 -125 -410h-162v10l216 295l-7 5q-33 -13 -73 -13q-75 0 -117.5 40t-42.5 110q0 68 42.5 106.5t117.5 38.5q73 0 114 -38.5t41 -104.5z" />
    <glyph glyph-name="uni0219" unicode="&#x219;" horiz-adv-x="956" 
d="M395 860l273 -188q55 -36 87.5 -59t73 -59t62.5 -68t37.5 -75.5t15.5 -91.5q0 -46 -12.5 -91t-45 -92t-81.5 -82.5t-128.5 -58t-180.5 -22.5q-80 0 -168 15.5t-133 24.5t-138 -1l-43 572h13q62 -117 152.5 -221t180.5 -172.5t175 -108t145 -39.5q30 0 49 15.5t19 47.5
q0 35 -41 73t-164 116l-248 160q-119 73 -176.5 150.5t-57.5 176.5q0 153 116.5 246.5t303.5 93.5q165 0 297 -69l101 80h12l-2 -527h-12q-98 149 -210 255.5t-196 151t-141 44.5q-68 0 -68 -56q0 -34 30.5 -65t102.5 -76zM639 -223v-2q0 -17 -4 -37q-12 -86 -125 -410h-162
v10l215 295l-6 5q-33 -13 -74 -13q-75 0 -117 39.5t-42 110.5q0 68 42 106.5t117 38.5q73 0 114.5 -38.5t41.5 -104.5z" />
    <glyph glyph-name="uni021A" unicode="&#x21a;" horiz-adv-x="1218" 
d="M1208 1382v-581h-12q-200 345 -259.5 441t-78.5 104h-45v-1219l105 -115v-12h-611v12l105 115v1219h-43q-13 -4 -39.5 -40.5t-100.5 -157.5t-204 -347h-13v581h1196zM778 -223v-2q0 -17 -4 -37q-12 -86 -125 -410h-162v10l215 295l-6 5q-32 -13 -73 -13q-75 0 -117.5 40
t-42.5 110q0 68 42.5 106.5t117.5 38.5q73 0 114 -38.5t41 -104.5z" />
    <glyph glyph-name="uni021B" unicode="&#x21b;" horiz-adv-x="667" 
d="M655 264l9 -10q-217 -285 -334 -285q-123 0 -184 78.5t-62 245.5l-8 715l-119 69v13h158l303 346h12v-346h225v-89q-114 0 -225 19l-4 -639q0 -78 31.5 -119t85.5 -41q52 0 112 43zM475 -223v-2q0 -17 -4 -37q-12 -86 -125 -410h-162v10l215 295l-6 5q-32 -13 -74 -13
q-75 0 -117 39.5t-42 110.5q0 68 42 106.5t117 38.5q73 0 114.5 -38.5t41.5 -104.5z" />
    <glyph glyph-name="uni0232" unicode="&#x232;" horiz-adv-x="1257" 
d="M287 1651h706v-135h-706v135zM1257 1382v-12l-423 -827v-416l104 -115v-12h-610v12l104 115v397l-416 846v12h580v-12l-94 -110l305 -660l33 59q31 55 41.5 147.5t-1 195t-61.5 204.5t-131 164v12h569z" />
    <glyph glyph-name="uni0233" unicode="&#x233;" horiz-adv-x="937" 
d="M129 1352h719v-113h-719v113zM524 1090h469v-13l-32 -73l32 65l-702 -1581h-373v12l528 508l-493 1069v13h514v-13l-105 -73l275 -617h6l29 57l8 23q51 174 3.5 350t-159.5 260v13z" />
    <glyph glyph-name="uni0237" unicode="&#x237;" horiz-adv-x="524" 
d="M-2 1077v13h457v-1039q0 -50 -38 -119t-97 -136.5t-129 -133.5t-135 -117.5t-115 -81.5l-13 13q85 94 123.5 243t38.5 367v926z" />
    <glyph glyph-name="uni0259" unicode="&#x259;" horiz-adv-x="1009" 
d="M403 1120q164 0 295.5 -66.5t209 -195t77.5 -297.5q0 -100 -25 -185.5t-65.5 -144.5t-94 -106.5t-107 -75.5t-108 -47t-94 -26t-67.5 -7q-184 0 -284.5 101.5t-114.5 265.5q0 27 72 71.5t158.5 77.5t127.5 33h256q-40 90 -97.5 160t-144 117t-186.5 47q-79 0 -195 -58
l-8 11q135 149 239.5 237t155.5 88zM596 63q47 0 76.5 45.5t29.5 133.5q0 115 -47 239h-264q5 -177 63.5 -297.5t141.5 -120.5z" />
    <glyph glyph-name="uni0272" unicode="&#x272;" horiz-adv-x="1163" 
d="M1073 760v-672l92 -76v-12h-553v12l97 80h2v643q0 133 -113 133q-72 0 -121 -69v-742h-360v801l-154 -76l-8 11q15 20 45 62.5t43.5 62t39.5 53.5t41.5 50t39.5 38t42.5 32t42 17.5t46.5 7.5q83 0 126 -65.5t30 -227.5q215 295 309 295q83 0 145 -28t98 -78t53 -112.5
t17 -139.5zM68 -35l340 2q6 -70 -24 -135.5t-78.5 -111.5t-105.5 -82t-105 -54.5t-77 -21.5l13 12q24 11 38 32t19.5 43.5t4.5 62.5t-4.5 71t-10.5 87.5t-10 94.5z" />
    <glyph glyph-name="circumflex" unicode="&#x2c6;" horiz-adv-x="671" 
d="M16 1192v12l318 387h14l305 -387v-12l-317 111h-6z" />
    <glyph glyph-name="caron" unicode="&#x2c7;" horiz-adv-x="671" 
d="M334 1126l-318 387v13l314 -111h6l317 111v-13l-305 -387h-14z" />
    <glyph glyph-name="breve" unicode="&#x2d8;" horiz-adv-x="657" 
d="M582 1524h14q0 -160 -71 -251t-195 -91q-126 0 -197.5 91t-71.5 251h15q14 -57 86.5 -89t167.5 -32q94 0 166 32t86 89z" />
    <glyph glyph-name="dotaccent" unicode="&#x2d9;" horiz-adv-x="407" 
d="M207 1243q-74 0 -115 38.5t-41 107.5q0 66 41.5 103.5t114.5 37.5q71 0 110 -37t39 -104q0 -69 -38.5 -107.5t-110.5 -38.5z" />
    <glyph glyph-name="ring" unicode="&#x2da;" horiz-adv-x="593" 
d="M297 1214q-101 0 -171.5 70.5t-70.5 171.5q0 100 70.5 171t171.5 71q100 0 171 -71t71 -171q0 -101 -71 -171.5t-171 -70.5zM297 1321q56 0 94.5 39t38.5 96t-38.5 96t-94.5 39t-94.5 -39t-38.5 -96t38.5 -96t94.5 -39z" />
    <glyph glyph-name="ogonek" unicode="&#x2db;" horiz-adv-x="514" 
d="M385 68l21 -5q-115 -147 -144 -282q-28 -134 52 -173q27 -14 67 -14q32 0 65 23l9 -14q-89 -88 -152.5 -133t-87.5 -45q-30 0 -62 8.5t-63 27t-50.5 52.5t-19.5 79q0 90 84.5 201t280.5 275z" />
    <glyph glyph-name="tilde" unicode="&#x2dc;" horiz-adv-x="983" 
d="M938 1548l12 -6q-32 -66 -61.5 -116t-67.5 -99.5t-82 -76.5t-90 -27q-83 0 -224.5 49t-207.5 49q-21 0 -37.5 -2.5t-40 -11.5t-48 -30t-48.5 -54l-10 6q10 20 32 63.5t33.5 66t32.5 57.5t38 53.5t40 39t49 29t55 8.5q72 0 158 -25t165 -50t134 -25q28 0 49 4.5t53.5 28.5
t65.5 69z" />
    <glyph glyph-name="hungarumlaut" unicode="&#x2dd;" horiz-adv-x="765" 
d="M147 1536h265v-12l-344 -359h-11zM442 1536h265v-12l-342 -359h-11z" />
    <glyph glyph-name="gravecomb" unicode="&#x300;" 
d="M-522 1524v12h407l56 -387h-19z" />
    <glyph glyph-name="acutecomb" unicode="&#x301;" 
d="M-403 1536h407v-12l-444 -375h-21z" />
    <glyph glyph-name="uni0302" unicode="&#x302;" 
d="M-655 1145v12l317 387h14l306 -387v-12l-318 110h-6z" />
    <glyph glyph-name="tildecomb" unicode="&#x303;" 
d="M-45 1509l12 -6q-32 -66 -61.5 -116t-67.5 -99.5t-82 -76.5t-90 -27q-83 0 -224.5 49t-207.5 49q-21 0 -37.5 -2.5t-40 -11.5t-48 -30t-48.5 -54l-10 6q10 20 32 63.5t33.5 66t32.5 57.5t38 53.5t40 39t49 29t55 8.5q72 0 158 -25t165 -50t134 -25q28 0 49 4.5t53.5 28.5
t65.5 69z" />
    <glyph glyph-name="uni0304" unicode="&#x304;" 
d="M-791 1239v113h719v-113h-719z" />
    <glyph glyph-name="uni0306" unicode="&#x306;" 
d="M-76 1524h15q0 -160 -71 -251t-196 -91q-126 0 -197 91t-71 251h14q14 -57 86.5 -89t167.5 -32q94 0 166 32t86 89z" />
    <glyph glyph-name="uni0307" unicode="&#x307;" 
d="M-201 1167q-73 0 -114 38.5t-41 107.5q0 66 41 103.5t114 37.5q72 0 111 -37.5t39 -103.5q0 -69 -39 -107.5t-111 -38.5z" />
    <glyph glyph-name="uni0308" unicode="&#x308;" 
d="M-635 1176q-72 0 -112.5 38t-40.5 105q0 65 40.5 102t112.5 37q70 0 109 -37t39 -102q0 -68 -39 -105.5t-109 -37.5zM-199 1176q-72 0 -111.5 37.5t-39.5 105.5q0 65 39.5 102t111.5 37q70 0 109 -37t39 -102q0 -68 -39 -105.5t-109 -37.5z" />
    <glyph glyph-name="uni030A" unicode="&#x30a;" 
d="M-297 1163q-101 0 -171.5 70.5t-70.5 171.5q0 100 70.5 171t171.5 71q100 0 171 -71t71 -171q0 -101 -71 -171.5t-171 -70.5zM-297 1270q56 0 94.5 39t38.5 96t-38.5 96t-94.5 39t-94.5 -39t-38.5 -96t38.5 -96t94.5 -39z" />
    <glyph glyph-name="uni030B" unicode="&#x30b;" 
d="M-618 1536h264v-12l-344 -359h-11zM-324 1536h265v-12l-342 -359h-11z" />
    <glyph glyph-name="uni030C" unicode="&#x30c;" 
d="M-338 1143l-317 387v12l313 -110h6l318 110v-12l-306 -387h-14z" />
    <glyph glyph-name="uni0312" unicode="&#x312;" 
d="M-233 1573q91 0 140.5 -46.5t49.5 -131.5q0 -82 -50 -128t-140 -46q-87 0 -135 45t-50 125v4q0 19 4 47q16 106 148 485h194v-12l-258 -352l8 -4q44 14 89 14z" />
    <glyph glyph-name="dotbelowcomb" unicode="&#x323;" 
d="M-199 -393q-72 0 -112.5 38t-40.5 105q0 65 40.5 102t112.5 37q70 0 109 -37t39 -102q0 -68 -39 -105.5t-109 -37.5z" />
    <glyph glyph-name="uni0326" unicode="&#x326;" 
d="M-51 -223v-2q0 -17 -4 -37q-12 -86 -125 -410h-162v10l215 295l-6 5q-32 -13 -74 -13q-75 0 -117.5 40t-42.5 110q0 68 42.5 106.5t117.5 38.5q73 0 114.5 -38.5t41.5 -104.5z" />
    <glyph glyph-name="uni0327" unicode="&#x327;" 
d="M-365 -287l195 312h41l-66 -117q39 -7 83.5 -30t83 -69.5t38.5 -101.5q0 -84 -86.5 -164t-236.5 -137l-6 12q126 68 126 158q0 57 -47 92t-122 33z" />
    <glyph glyph-name="uni0328" unicode="&#x328;" 
d="M-129 55l20 -4q-115 -146 -143 -282q-28 -134 52 -173q27 -14 67 -14q32 0 65 23l9 -15q-89 -88 -152.5 -133t-87.5 -45q-30 0 -62 9t-63 27t-50.5 52.5t-19.5 79.5q0 90 84 200t281 275z" />
    <glyph glyph-name="uni0394" unicode="&#x394;" horiz-adv-x="1187" 
d="M805 1436l8 -107l352 -1317v-12h-1140v12l387 1346l381 78h12zM436 1262l-299 -1029h551l-244 1029h-8z" />
    <glyph glyph-name="uni03A9" unicode="&#x3a9;" horiz-adv-x="1347" 
d="M760 274h311q46 0 74.5 6.5t48.5 25.5t31 39.5t28 62.5h13v-408h-549v373q73 37 116.5 160.5t43.5 324.5q0 230 -56.5 366t-144.5 136q-90 0 -147.5 -136t-57.5 -366q0 -381 143 -481v-377h-551v408h13q30 -80 65.5 -107t118.5 -27h313v66q-134 16 -236.5 62.5
t-165.5 115.5t-94.5 153.5t-31.5 182.5q0 243 174 393t457 150q281 0 454 -150t173 -393q0 -210 -136.5 -350.5t-406.5 -167.5v-62z" />
    <glyph glyph-name="uni03BC" unicode="&#x3bc;" horiz-adv-x="1171" 
d="M1059 229l151 76l9 -10l-39 -57t-39 -56t-35.5 -49.5t-36.5 -47t-35 -38t-37 -33.5t-36 -23.5t-39.5 -17t-40.5 -4.5q-83 0 -126 66.5t-30 230.5q-217 -295 -309 -295q-181 -3 -262 133l-7 -10l297 -592v-14h-342v1524l-94 65v13h459v-80h-2v-656q0 -72 31 -103.5
t82 -31.5q67 0 118 68v723l-96 67v13h459v-861z" />
    <glyph glyph-name="pi" unicode="&#x3c0;" horiz-adv-x="1105" 
d="M1114 1090v-273h-168v-594l152 76l8 -10q-15 -21 -50.5 -72t-50 -71t-44 -58t-47.5 -53.5t-44 -36t-50.5 -28t-51.5 -7.5q-73 0 -111 75t-43 206v573h-155q-9 -343 -49 -523.5t-129 -320.5l-306 275l2 8q128 55 251 212t175 349h-118q-180 0 -297 -174l-15 8
q5 10 29 69.5t50.5 115t63 117.5t81 99.5t88.5 37.5h829z" />
    <glyph glyph-name="Wgrave" unicode="&#x1e80;" horiz-adv-x="1640" 
d="M801 1759l88 -323h-15l-499 311v12h426zM1098 1370v12h540v-12l-483 -1411h-22l-287 723h-8l-324 -723h-20l-490 1411v12h561v-12l-102 -115l235 -739h13l24 92q101 256 -61 469v13h534v-13l-98 -108l166 -455h10l43 148q47 131 27.5 268t-90.5 257t-168 183z" />
    <glyph glyph-name="wgrave" unicode="&#x1e81;" horiz-adv-x="1462" 
d="M690 1536l55 -387h-18l-444 375v12h407zM1061 1077v13h457v-13l-502 -1108h-23l-254 617h-14l-238 -617h-22l-520 1108v13h510v-13l-107 -76l262 -585h13l24 76q87 376 -153 585v13h524v-13l-105 -73l258 -588h13l24 76q20 56 24 127.5t-9.5 151t-55 161t-106.5 145.5z
" />
    <glyph glyph-name="Wacute" unicode="&#x1e82;" horiz-adv-x="1640" 
d="M1364 1759v-12l-500 -311h-14l90 323h424zM1098 1370v12h540v-12l-483 -1411h-22l-287 723h-8l-324 -723h-20l-490 1411v12h561v-12l-102 -115l235 -739h13l24 92q101 256 -61 469v13h534v-13l-98 -108l166 -455h10l43 148q47 131 27.5 268t-90.5 257t-168 183z" />
    <glyph glyph-name="wacute" unicode="&#x1e83;" horiz-adv-x="1462" 
d="M1190 1536v-12l-442 -375h-21l57 387h406zM1061 1077v13h457v-13l-502 -1108h-23l-254 617h-14l-238 -617h-22l-520 1108v13h510v-13l-107 -76l262 -585h13l24 76q87 376 -153 585v13h524v-13l-105 -73l258 -588h13l24 76q20 56 24 127.5t-9.5 151t-55 161t-106.5 145.5z
" />
    <glyph glyph-name="Wdieresis" unicode="&#x1e84;" horiz-adv-x="1640" 
d="M655 1468q-72 0 -112.5 38t-40.5 106q0 65 40.5 102t112.5 37q70 0 109 -37t39 -102q0 -68 -39 -106t-109 -38zM1092 1468q-72 0 -112 38t-40 106q0 65 40 102t112 37q70 0 108.5 -37t38.5 -102q0 -68 -38.5 -106t-108.5 -38zM1098 1370v12h540v-12l-483 -1411h-22
l-287 723h-8l-324 -723h-20l-490 1411v12h561v-12l-102 -115l235 -739h13l24 92q101 256 -61 469v13h534v-13l-98 -108l166 -455h10l43 148q47 131 27.5 268t-90.5 257t-168 183z" />
    <glyph glyph-name="wdieresis" unicode="&#x1e85;" horiz-adv-x="1462" 
d="M530 1176q-72 0 -112.5 38t-40.5 105q0 65 40.5 102t112.5 37q70 0 109 -37t39 -102q0 -68 -39 -105.5t-109 -37.5zM967 1176q-72 0 -112 37.5t-40 105.5q0 65 40 102t112 37q70 0 108.5 -37t38.5 -102q0 -68 -38.5 -105.5t-108.5 -37.5zM1061 1077v13h457v-13
l-502 -1108h-23l-254 617h-14l-238 -617h-22l-520 1108v13h510v-13l-107 -76l262 -585h13l24 76q87 376 -153 585v13h524v-13l-105 -73l258 -588h13l24 76q20 56 24 127.5t-9.5 151t-55 161t-106.5 145.5z" />
    <glyph glyph-name="uni1E9E" unicode="&#x1e9e;" horiz-adv-x="1404" 
d="M1053 967q0 -48 38.5 -103t93 -110t109 -116t93 -143t38.5 -169q0 -101 -53 -182t-137 -124t-180 -43q-63 0 -217 27.5t-220 28.5l-28 684l12 2q122 -331 246.5 -517t226.5 -186q69 0 76.5 55.5t-61.5 159.5q-36 55 -89.5 117.5t-95 109.5t-81 100t-61.5 110.5t-22 119.5
q0 116 79.5 195t258.5 137q-163 240 -364 240q-121 0 -165 -76t-44 -240v-1044h-508v12l106 119v760q0 90 27.5 166t72 128.5t106 93.5t124.5 65.5t133 40t126.5 21t109.5 5.5q172 0 335 -37t263 -112v-7l-150 -88q-15 -9 -48 -29t-45 -27.5t-35 -23.5t-31 -26t-20 -25.5
t-15.5 -32t-3.5 -36.5z" />
    <glyph glyph-name="uni1EA0" unicode="&#x1ea0;" horiz-adv-x="1292" 
d="M401 1382h420l467 -1362v-20h-557v12l103 115l-119 352h-342q3 -144 44 -266t111 -201v-12h-524v12l485 1110l-88 248v12zM373 516h329l-184 549h-12l-47 -133q-83 -205 -86 -416zM643 -111q70 0 109 -37t39 -102q0 -68 -39 -105.5t-109 -37.5q-72 0 -113 38t-41 105
q0 65 41 102t113 37z" />
    <glyph glyph-name="uni1EA1" unicode="&#x1ea1;" horiz-adv-x="1081" 
d="M963 233l151 78l8 -10q-15 -21 -50.5 -72t-50 -71t-44 -58t-47.5 -53.5t-44 -36t-50.5 -28t-51.5 -7.5q-81 0 -123.5 64.5t-31.5 222.5h-11q-28 -63 -58.5 -110.5t-72 -90t-96.5 -65.5t-121 -23q-106 0 -171.5 59.5t-65.5 160.5q0 56 21.5 106.5t54 87.5t83 73.5
t94.5 60.5t103 52l227 101q0 156 -44 247t-117 85q-33 -2 -54.5 -21t-32.5 -56.5t-3.5 -102t34.5 -150.5l-379 -109l-6 13q49 107 111.5 194.5t120 142.5t121 96.5t112 61.5t96 32t69 14.5t34.5 2.5q54 0 97 -8t75 -21t55.5 -36.5t39 -46t25 -60t13.5 -67t4.5 -78t-1 -83
t-5.5 -91.5l-18 -369v-31zM471 221q35 0 73.5 27.5t67.5 83.5l4 295q-125 -84 -180 -154.5t-55 -138.5q0 -57 28 -85t62 -28zM535 -111q70 0 108.5 -37t38.5 -102q0 -68 -38.5 -105.5t-108.5 -37.5q-72 0 -113 38t-41 105q0 65 41 102t113 37z" />
    <glyph glyph-name="uni1EB8" unicode="&#x1eb8;" horiz-adv-x="1185" 
d="M1139 582h12v-582h-1139v12l105 117v1124l-105 117v12h1127v-581h-13q-19 28 -58 89t-58 89q-41 67 -63 101.5t-53 80t-49.5 66t-47 46.5t-51 36t-56 20.5t-68.5 13.5t-81 3h-23v-631h21q46 0 79.5 9t72.5 37.5t80 86t89 149.5h10v-600h-10q-92 167 -162.5 225t-158.5 58
h-21v-643h35q41 0 73.5 3.5t60.5 8t53.5 18t46 25t44 37.5t41.5 46.5t45.5 62t48 74.5t56.5 91q19 28 59 90t58 89zM590 -111q70 0 108.5 -37t38.5 -102q0 -68 -38.5 -105.5t-108.5 -37.5q-72 0 -113 38t-41 105q0 65 41 102t113 37z" />
    <glyph glyph-name="uni1EB9" unicode="&#x1eb9;" horiz-adv-x="1009" 
d="M993 307l11 -12q-299 -326 -396 -326q-164 0 -295.5 66.5t-208.5 195t-77 297.5q0 100 25 185.5t65.5 144.5t93.5 106.5t106.5 75.5t107.5 47t93.5 26t67.5 7q186 0 286 -101t113 -265q0 -27 -72 -71.5t-158.5 -78t-127.5 -33.5h-256q65 -141 174 -231t256 -90
q83 0 192 57zM414 1026q-47 0 -77 -45t-30 -133q0 -118 49 -240h262q-5 179 -63 298.5t-141 119.5zM496 -111q70 0 108.5 -37t38.5 -102q0 -68 -38.5 -105.5t-108.5 -37.5q-72 0 -113 38t-41 105q0 65 41 102t113 37z" />
    <glyph glyph-name="uni1EBC" unicode="&#x1ebc;" horiz-adv-x="1185" 
d="M352 1550q-102 0 -170 -100l-10 6q10 19 32.5 64.5t33.5 66t32 57t37.5 54.5t39.5 38.5t48 29t54 8.5q79 0 227 -51.5t213 -51.5q43 0 81.5 19t84.5 82l10 -7q-33 -67 -61 -115.5t-66.5 -99t-81.5 -77.5t-88 -27q-67 0 -142 26t-146 52t-128 26zM1139 582h12v-582h-1139
v12l105 117v1124l-105 117v12h1127v-581h-13q-19 28 -58 89t-58 89q-41 67 -63 101.5t-53 80t-49.5 66t-47 46.5t-51 36t-56 20.5t-68.5 13.5t-81 3h-23v-631h21q46 0 79.5 9t72.5 37.5t80 86t89 149.5h10v-600h-10q-92 167 -162.5 225t-158.5 58h-21v-643h35q41 0 73.5 3.5
t60.5 8t53.5 18t46 25t44 37.5t41.5 46.5t45.5 62t48 74.5t56.5 91q19 28 59 90t58 89z" />
    <glyph glyph-name="uni1EBD" unicode="&#x1ebd;" horiz-adv-x="1009" 
d="M281 1282q-21 0 -37.5 -2.5t-40.5 -11.5t-48.5 -30t-48.5 -54l-10 6q10 19 32 63.5t33.5 66t32.5 57t38 54t40.5 39t49.5 29t55 8.5q72 0 158 -25t165 -50t134 -25q28 0 48.5 4.5t53 28.5t65.5 69l13 -6q-32 -66 -61.5 -116t-67.5 -99.5t-82 -76.5t-90 -27
q-83 0 -224.5 49t-207.5 49zM801 250q83 0 192 57l11 -12q-299 -326 -396 -326q-164 0 -295.5 66.5t-208.5 195t-77 297.5q0 100 25 185.5t65.5 144.5t93.5 106.5t106.5 75.5t107.5 47t93.5 26t67.5 7q186 0 286 -101t113 -265q0 -27 -72 -71.5t-158.5 -78t-127.5 -33.5
h-256q65 -141 174 -231t256 -90zM414 1026q-47 0 -77 -45t-30 -133q0 -118 49 -240h262q-5 179 -63 298.5t-141 119.5z" />
    <glyph glyph-name="uni1ECA" unicode="&#x1eca;" horiz-adv-x="634" 
d="M623 1382v-12l-105 -115v-1128l105 -115v-12h-611v12l105 115v1128l-105 115v12h611zM313 -111q70 0 109 -37t39 -102q0 -68 -39 -105.5t-109 -37.5q-72 0 -112.5 38t-40.5 105q0 65 40.5 102t112.5 37z" />
    <glyph glyph-name="uni1ECB" unicode="&#x1ecb;" horiz-adv-x="579" 
d="M299 1194q-91 0 -142 47t-51 131q0 83 51 129.5t142 46.5q89 0 137.5 -46t48.5 -130q0 -85 -48.5 -131.5t-137.5 -46.5zM477 88l92 -76v-12h-553v12l95 78v922l-93 65v13h459v-1002zM289 -111q70 0 108.5 -37t38.5 -102q0 -68 -38.5 -105.5t-108.5 -37.5q-72 0 -113 38
t-41 105q0 65 41 102t113 37z" />
    <glyph glyph-name="uni1ECC" unicode="&#x1ecc;" horiz-adv-x="1333" 
d="M670 -31q-136 0 -256 56.5t-204 153t-132.5 229t-48.5 280.5q0 123 31 228.5t79.5 177.5t112 130t126 92t123.5 56.5t101.5 30.5t63.5 8q179 0 326 -96t230 -261t83 -362q0 -123 -31 -228.5t-79.5 -177.5t-112 -130t-125.5 -92t-123 -56.5t-101 -30.5t-63 -8zM909 90
q57 19 74 107t-13 242t-108 347q-106 265 -224 398.5t-216 105.5q-85 -28 -85.5 -188t103.5 -449q108 -285 238 -439.5t231 -123.5zM664 -393q-72 0 -113 38t-41 105q0 65 41 102t113 37q70 0 108.5 -37t38.5 -102q0 -68 -38.5 -105.5t-108.5 -37.5z" />
    <glyph glyph-name="uni1ECD" unicode="&#x1ecd;" horiz-adv-x="1110" 
d="M557 -31q-158 0 -280.5 76t-186 201.5t-63.5 275.5q0 103 25.5 191t66 147.5t93 106.5t104 74.5t102 45.5t83.5 24.5t52 6.5q159 0 281 -76t185.5 -202.5t63.5 -280.5q0 -102 -25.5 -188.5t-66 -145.5t-93 -106t-104 -74.5t-102 -45t-83.5 -24t-52 -6.5zM737 70
q36 15 44.5 68t-13.5 158.5t-78 268.5q-90 256 -166 367t-149 88q-38 -14 -47.5 -67t11 -159t75.5 -270q88 -255 166.5 -366t156.5 -88zM573 -393q-72 0 -112.5 38t-40.5 105q0 65 40.5 102t112.5 37q70 0 109 -37t39 -102q0 -68 -39 -105.5t-109 -37.5z" />
    <glyph glyph-name="uni1EE4" unicode="&#x1ee4;" horiz-adv-x="1318" 
d="M1217 1382v-1251l104 -119v-12h-506v225q-151 -144 -224 -200t-114 -56q-360 0 -360 424v862l-2 -4l-107 119v12h510v-872q0 -50 1.5 -86t6.5 -74t14.5 -63.5t24.5 -46.5t37.5 -31t52.5 -10q91 0 160 86v966l-106 119v12h508zM655 -111q70 0 109 -37t39 -102
q0 -68 -39 -105.5t-109 -37.5q-72 0 -112.5 38t-40.5 105q0 65 40.5 102t112.5 37z" />
    <glyph glyph-name="uni1EE5" unicode="&#x1ee5;" horiz-adv-x="1171" 
d="M1059 229l151 76l9 -10l-39 -57t-39 -56t-35.5 -49.5t-36.5 -47t-35 -38t-37 -33.5t-36 -23.5t-39.5 -17t-40.5 -4.5q-83 0 -126 66.5t-30 230.5q-217 -295 -309 -295q-83 -1 -145 27t-98 78.5t-53.5 113.5t-17.5 140v682l-94 65v13h459v-80h-2v-656q0 -72 31 -103.5
t82 -31.5q67 0 118 68v723l-96 67v13h459v-861zM598 -111q70 0 108.5 -37t38.5 -102q0 -68 -38.5 -105.5t-108.5 -37.5q-72 0 -113 38t-41 105q0 65 41 102t113 37z" />
    <glyph glyph-name="Ygrave" unicode="&#x1ef2;" horiz-adv-x="1257" 
d="M578 1759l88 -323h-15l-499 311v12h426zM1257 1382v-12l-423 -827v-416l104 -115v-12h-610v12l104 115v397l-416 846v12h580v-12l-94 -110l305 -660l33 59q31 55 41.5 147.5t-1 195t-61.5 204.5t-131 164v12h569z" />
    <glyph glyph-name="ygrave" unicode="&#x1ef3;" horiz-adv-x="937" 
d="M442 1536l56 -387h-19l-444 375v12h407zM524 1090h469v-13l-32 -73l32 65l-702 -1581h-373v12l528 508l-493 1069v13h514v-13l-105 -73l275 -617h6l29 57l8 23q51 174 3.5 350t-159.5 260v13z" />
    <glyph glyph-name="uni1EF8" unicode="&#x1ef8;" horiz-adv-x="1257" 
d="M397 1550q-102 0 -170 -100l-10 6q10 19 32.5 64.5t33.5 66t32 57t37.5 54.5t39.5 38.5t48 29t54 8.5q79 0 227 -51.5t213 -51.5q43 0 81.5 19t84.5 82l10 -7q-33 -67 -61 -115.5t-66.5 -99t-81.5 -77.5t-88 -27q-67 0 -142 26t-146 52t-128 26zM1257 1382v-12l-423 -827
v-416l104 -115v-12h-610v12l104 115v397l-416 846v12h580v-12l-94 -110l305 -660l33 59q31 55 41.5 147.5t-1 195t-61.5 204.5t-131 164v12h569z" />
    <glyph glyph-name="uni1EF9" unicode="&#x1ef9;" horiz-adv-x="937" 
d="M231 1282q-21 0 -37.5 -2.5t-40 -11.5t-48 -30t-48.5 -54l-10 6q10 19 32 63.5t33.5 66t32.5 57t38 54t40.5 39t49.5 29t55 8.5q72 0 157.5 -25t164.5 -50t134 -25q28 0 49 4.5t53.5 28.5t65.5 69l13 -6q-32 -66 -61.5 -116t-67.5 -99.5t-82 -76.5t-90 -27q-83 0 -225 49
t-208 49zM524 1090h469v-13l-32 -73l32 65l-702 -1581h-373v12l528 508l-493 1069v13h514v-13l-105 -73l275 -617h6l29 57l8 23q51 174 3.5 350t-159.5 260v13z" />
    <glyph glyph-name="endash" unicode="&#x2013;" horiz-adv-x="1024" 
d="M0 547v37h1024v-37h-1024z" />
    <glyph glyph-name="emdash" unicode="&#x2014;" horiz-adv-x="2048" 
d="M0 547v37h2048v-37h-2048z" />
    <glyph glyph-name="quoteleft" unicode="&#x2018;" horiz-adv-x="468" 
d="M236 1014q91 0 140.5 -46.5t49.5 -131.5q0 -82 -50 -128t-140 -46q-87 0 -135 44.5t-50 124.5v5q0 19 4 47q16 105 148 487h194v-12l-258 -354l8 -5q47 15 89 15z" />
    <glyph glyph-name="quoteright" unicode="&#x2019;" horiz-adv-x="468" 
d="M420 1227v-4q0 -17 -4 -45q-16 -105 -150 -488h-194v12l258 353l-8 6q-35 -14 -86 -14q-92 0 -142.5 45.5t-50.5 130.5q0 83 50.5 129.5t142.5 46.5q86 0 134 -45t50 -127z" />
    <glyph glyph-name="quotesinglbase" unicode="&#x201a;" horiz-adv-x="468" 
d="M420 168v-2q0 -21 -2 -29q-8 -95 -152 -506h-194v13l258 352l-8 6q-35 -14 -86 -14q-92 0 -142.5 46.5t-50.5 131.5q0 82 50.5 128t142.5 46q87 0 135.5 -46t48.5 -126z" />
    <glyph glyph-name="quotedblleft" unicode="&#x201c;" horiz-adv-x="897" 
d="M236 1040q91 0 140.5 -46t49.5 -132q0 -82 -50 -128t-140 -46q-88 0 -136.5 46t-48.5 126v2q0 25 2 37q13 99 150 498h194v-13l-258 -352l8 -6q35 14 89 14zM662 1040q92 0 142 -46t50 -132q0 -82 -50 -128t-142 -46q-87 0 -136 46t-49 126v2q0 21 2 31q8 88 150 504h196
v-13l-260 -352l10 -6q35 14 87 14z" />
    <glyph glyph-name="quotedblright" unicode="&#x201d;" horiz-adv-x="897" 
d="M420 1227v-2q0 -23 -2 -35q-13 -103 -152 -500h-194v12l258 353l-8 6q-35 -14 -86 -14q-93 0 -143 46t-50 132q0 82 50.5 128t142.5 46q87 0 135.5 -46t48.5 -126zM846 1227v-2q0 -25 -2 -37q-13 -99 -150 -498h-194v12l258 353l-8 6q-35 -14 -88 -14q-91 0 -141 46
t-50 132q0 82 50 128t141 46q88 0 136 -46t48 -126z" />
    <glyph glyph-name="quotedblbase" unicode="&#x201e;" horiz-adv-x="897" 
d="M420 168v-2q0 -21 -2 -29q-8 -95 -152 -506h-194v13l258 352l-8 6q-35 -14 -86 -14q-92 0 -142.5 46.5t-50.5 131.5q0 82 50.5 128t142.5 46q87 0 135.5 -46t48.5 -126zM846 168v-2q0 -21 -2 -31q-9 -97 -150 -504h-194v13l258 352l-10 6q-35 -14 -86 -14
q-91 0 -141 46.5t-50 131.5q0 82 50 128t141 46q88 0 136 -46t48 -126z" />
    <glyph glyph-name="dagger" unicode="&#x2020;" horiz-adv-x="890" 
d="M457 969l413 133v-293l-413 133l137 -369l-143 -614h-9l-135 614l125 369l-412 -133v293l412 -133l-151 415h323z" />
    <glyph glyph-name="daggerdbl" unicode="&#x2021;" horiz-adv-x="942" 
d="M485 1006l408 147v-328l-408 148l129 -301l-129 -301l408 147v-328l-408 148l154 -379h-342l160 379l-410 -148v328l410 -147l-127 301l127 301l-410 -148v328l410 -147l-160 378h342z" />
    <glyph glyph-name="bullet" unicode="&#x2022;" horiz-adv-x="675" 
d="M338 274q-116 0 -196.5 80t-80.5 195q0 117 80.5 196.5t196.5 79.5q115 0 195.5 -80t80.5 -196q0 -115 -81 -195t-195 -80z" />
    <glyph glyph-name="ellipsis" unicode="&#x2026;" horiz-adv-x="1501" 
d="M242 340q89 0 136.5 -46t47.5 -128q0 -85 -47.5 -131.5t-136.5 -46.5q-91 0 -142 47t-51 131q0 82 51 128t142 46zM754 340q89 0 136.5 -46t47.5 -128q0 -85 -47.5 -131.5t-136.5 -46.5q-91 0 -141 46.5t-50 131.5q0 82 50 128t141 46zM1266 340q89 0 136.5 -46
t47.5 -128q0 -85 -47.5 -131.5t-136.5 -46.5q-91 0 -141 46.5t-50 131.5q0 82 50 128t141 46z" />
    <glyph glyph-name="perthousand" unicode="&#x2030;" horiz-adv-x="2267" 
d="M356 565q-150 0 -245 119t-95 289q0 75 16 138.5t41.5 105.5t59 74.5t66 50.5t65 30t53 15.5t33.5 3.5q150 0 245 -120t95 -292q0 -85 -21 -155t-55.5 -113t-72.5 -73.5t-78 -45.5t-65.5 -21t-41.5 -6zM784 713l-14 10l262 659h262zM481 637q27 13 35 62.5t-8 137
t-57 195.5q-59 152 -119.5 226t-110.5 59q-25 -10 -34.5 -53t3.5 -124t50 -186q60 -163 126 -249.5t115 -67.5zM1171 -16q-150 0 -245 118.5t-95 288.5q0 75 16 138.5t41.5 105.5t59 74.5t66 50.5t65 30t53 15.5t33.5 3.5q150 0 245 -120t95 -292q0 -74 -16 -136
t-41.5 -103.5t-59 -74t-66 -50.5t-65 -30t-53 -15.5t-33.5 -3.5zM1917 -16q-150 0 -245 118.5t-95 288.5q0 75 16 138.5t41.5 105.5t59 74.5t66 50.5t65 30t53 15.5t33.5 3.5q150 0 245 -120t95 -292q0 -74 -16 -136t-41.5 -103.5t-59 -74t-66 -50.5t-65 -30t-53 -15.5
t-33.5 -3.5zM1296 55q27 13 35 62.5t-8 137.5t-57 196q-59 152 -119.5 225.5t-110.5 58.5q-25 -10 -34.5 -53t3.5 -123.5t50 -185.5q60 -163 126 -250t115 -68zM2042 55q27 13 35 62.5t-8.5 137.5t-57.5 196q-59 152 -119 225.5t-110 58.5q-26 -10 -35 -52.5t3.5 -123.5
t49.5 -186q60 -163 126 -250t116 -68zM735 670l15 -11l-263 -659h-264z" />
    <glyph glyph-name="guilsinglleft" unicode="&#x2039;" horiz-adv-x="559" 
d="M498 -4l-13 -2l-489 530v6l489 490l13 -2l-205 -488v-6z" />
    <glyph glyph-name="guilsinglright" unicode="&#x203a;" horiz-adv-x="559" 
d="M563 524l-489 -530l-13 2l205 528v6l-205 488l13 2l489 -490v-6z" />
    <glyph glyph-name="fraction" unicode="&#x2044;" horiz-adv-x="108" 
d="M78 713l-15 10l263 659h262zM29 670l14 -11l-262 -659h-264z" />
    <glyph glyph-name="uni2070" unicode="&#x2070;" horiz-adv-x="706" 
d="M356 725q-150 0 -245 119t-95 289q0 103 31 183.5t72.5 122.5t93 69t84.5 34.5t53 7.5q150 0 245 -119.5t95 -291.5q0 -85 -21 -155t-55.5 -113t-72.5 -73.5t-78 -45.5t-65.5 -21t-41.5 -6zM481 797q27 13 35 62.5t-8 137t-57 195.5q-59 152 -119.5 226t-110.5 59
q-25 -10 -34.5 -53t3.5 -124t50 -186q60 -163 126 -249.5t115 -67.5z" />
    <glyph glyph-name="uni2074" unicode="&#x2074;" horiz-adv-x="659" 
d="M657 954v-32h-147v-107l61 -59v-13h-352v13l60 59v107h-275v28l264 586h289v-12l-518 -570h240v179l217 198h12l2 -377h147z" />
    <glyph glyph-name="uni2075" unicode="&#x2075;" horiz-adv-x="604" 
d="M106 1276l209 -35q165 -30 231 -77.5t66 -143.5q0 -16 -2.5 -32.5t-10 -40.5t-20.5 -45t-35 -46t-54 -43.5t-76.5 -37t-102 -27t-131 -13.5t-164.5 4v267h13q47 -57 170 -118t207 -61q108 0 108 72q0 45 -45.5 74.5t-153.5 54.5l-286 62l102 446h281q69 0 108 19t58 59
h10v-264l-6 -7h-461z" />
    <glyph glyph-name="uni2076" unicode="&#x2076;" horiz-adv-x="667" 
d="M336 727q-58 0 -112.5 22t-99 62.5t-71 105t-26.5 142.5q0 186 139 321.5t362 175.5l7 -10q-62 -19 -112.5 -56t-84 -84t-55 -95t-33.5 -99l6 -4q37 40 92.5 64t83.5 24q87 0 153 -75t66 -193q0 -130 -87.5 -215.5t-227.5 -85.5zM420 762q36 8 40 58t-24 167
q-30 111 -67 167.5t-78 49.5q-37 -9 -38 -70t28 -165q30 -115 64.5 -165t74.5 -42z" />
    <glyph glyph-name="uni2077" unicode="&#x2077;" horiz-adv-x="555" 
d="M4 1227v307h594v-12l-12 -17l-80 -162l-144 -602h-284v15l399 590h-323q-105 0 -136 -119h-14z" />
    <glyph glyph-name="uni2078" unicode="&#x2078;" horiz-adv-x="704" 
d="M680 965q2 -53 -23 -98t-63.5 -73t-86 -47.5t-88.5 -27.5t-73 -8q-28 0 -64.5 5t-83 18.5t-84 34.5t-63.5 57.5t-26 82.5q0 72 60 118.5t153 51.5l-2 2q-80 55 -124 109.5t-44 132.5q0 56 26.5 99t64 66.5t86 38t85 19t69.5 4.5q64 0 118 -16.5t93 -57.5t39 -100
q0 -49 -38.5 -94.5t-135.5 -77.5q11 -8 43 -28t47.5 -31t41 -33t38.5 -41t23.5 -47t11.5 -59zM338 1516q-35 0 -55.5 -22t-20.5 -58q0 -47 30.5 -82.5t98.5 -85.5l49 -37q23 64 23 112q0 78 -35.5 125.5t-89.5 47.5zM387 748q84 0 84 77q-1 49 -33 92t-100 91l-70 51
q-24 -39 -24 -117q0 -57 14 -98t37.5 -60.5t45.5 -27.5t46 -8z" />
    <glyph glyph-name="uni2079" unicode="&#x2079;" horiz-adv-x="667" 
d="M332 1559q123 0 217 -89t94 -241q0 -188 -140.5 -324t-363.5 -176l-6 10q62 19 112.5 56t84 84t55 95t33.5 99l-6 4q-37 -39 -92 -62.5t-82 -23.5q-89 0 -155.5 74t-66.5 192q0 130 88 216t228 86zM248 1526q-36 -8 -40.5 -59.5t23.5 -168.5q30 -110 67.5 -167t78.5 -50
q72 16 10 236q-30 116 -64 166.5t-75 42.5z" />
    <glyph glyph-name="uni2080" unicode="&#x2080;" horiz-adv-x="706" 
d="M356 -520q-150 0 -245 118.5t-95 288.5q0 75 16 138.5t41.5 105.5t59 74.5t66 50.5t65 30t53 15.5t33.5 3.5q150 0 245 -119.5t95 -291.5q0 -85 -21 -155t-55.5 -113t-72.5 -73.5t-78 -45.5t-65.5 -21t-41.5 -6zM481 -449q27 12 35 61.5t-8 138t-57 196.5
q-59 152 -119.5 225.5t-110.5 58.5q-25 -10 -34.5 -53t3.5 -123.5t50 -185.5q60 -163 126 -250t115 -68z" />
    <glyph glyph-name="uni2081" unicode="&#x2081;" horiz-adv-x="458" 
d="M350 264l-2 -704l64 -60v-12h-357v12l62 60l2 600l-86 14v12l309 107h8v-29z" />
    <glyph glyph-name="uni2082" unicode="&#x2082;" horiz-adv-x="651" 
d="M209 -322h254q55 0 87 27.5t50 85.5h10v-295l-8 -8h-579v12l172 215q102 131 146 214.5t36 174.5q-5 59 -29 90t-61 25q-24 -3 -36 -24t-11.5 -54t7.5 -68.5t19 -74.5l-250 -66l-4 9q54 104 116 180.5t114 112t87.5 50.5t57.5 15q98 0 162.5 -43.5t64.5 -136.5
q0 -113 -83.5 -205t-235.5 -174l-86 -59v-3z" />
    <glyph glyph-name="uni2083" unicode="&#x2083;" horiz-adv-x="632" 
d="M645 264v-6l-266 -285v-8q118 6 192 -45t74 -147q0 -42 -18.5 -88t-61 -96.5t-111.5 -83.5t-171 -48.5t-240 8.5l2 267h12q106 -93 202.5 -138t166.5 -45q115 0 115 78q0 24 -15 47.5t-50.5 48.5t-111.5 41.5t-182 18.5l-4 10l248 279h-223q-102 0 -131 -115h-15v301l6 6
h582z" />
    <glyph glyph-name="uni2084" unicode="&#x2084;" horiz-adv-x="659" 
d="M657 -299v-33h-147v-106l61 -60v-12h-352v12l60 60v106h-275v29l264 586h289v-13l-518 -569h240v178l217 199h12l2 -377h147z" />
    <glyph glyph-name="uni2085" unicode="&#x2085;" horiz-adv-x="604" 
d="M106 23l209 -35q165 -30 231 -77.5t66 -143.5q0 -16 -2.5 -32.5t-10 -40.5t-20.5 -45t-35 -46t-54 -43.5t-76.5 -37t-102 -27t-131 -13.5t-164.5 4v264l13 2q47 -57 170 -117.5t207 -60.5q108 0 108 72q0 45 -45.5 74.5t-153.5 54.5l-286 59l102 449h281q70 0 108.5 18.5
t57.5 58.5h10v-264l-6 -6h-459z" />
    <glyph glyph-name="uni2086" unicode="&#x2086;" horiz-adv-x="667" 
d="M336 -526q-123 0 -216 88.5t-93 240.5q0 188 139 324t362 176l7 -10q-62 -19 -112.5 -56t-84 -84t-55 -95t-33.5 -99l6 -4q37 40 92.5 64t83.5 24q87 0 153 -75t66 -193q0 -130 -87.5 -215.5t-227.5 -85.5zM420 -494q36 8 40.5 59.5t-24.5 168.5q-30 111 -67 167.5
t-78 49.5q-69 -16 -10 -236q58 -225 139 -209z" />
    <glyph glyph-name="uni2087" unicode="&#x2087;" horiz-adv-x="555" 
d="M4 -27v308h594v-13l-12 -16l-80 -162l-144 -602h-284v14l399 590h-323q-105 0 -136 -119h-14z" />
    <glyph glyph-name="uni2088" unicode="&#x2088;" horiz-adv-x="704" 
d="M680 -289q2 -53 -23 -98t-63.5 -73t-86 -47.5t-88.5 -27.5t-73 -8q-28 0 -64.5 5t-83 19t-84 35t-63.5 57.5t-26 82.5q0 72 60 118.5t153 51.5l-2 2q-80 55 -124 109.5t-44 132.5q0 56 26.5 99t64 66.5t86 38t85 19t69.5 4.5q64 0 118 -16.5t93 -57.5t39 -100
q0 -49 -38.5 -94.5t-135.5 -77.5q13 -9 43.5 -29t47 -31.5t41 -33.5t38 -41t24 -46.5t11.5 -58.5zM338 262q-35 0 -55.5 -22t-20.5 -58q0 -47 30.5 -82.5t98.5 -85.5l49 -37q23 64 23 113q0 78 -35.5 125t-89.5 47zM387 -506q34 0 59 17.5t25 60.5q-1 49 -33 91.5t-100 90.5
l-70 51q-24 -39 -24 -116q0 -57 14 -98t37.5 -60.5t45.5 -28t46 -8.5z" />
    <glyph glyph-name="uni2089" unicode="&#x2089;" horiz-adv-x="667" 
d="M332 301q58 0 113 -22t99.5 -62.5t71.5 -105t27 -142.5q0 -186 -140.5 -321.5t-363.5 -175.5l-6 10q62 19 112.5 56t84 84t55 95t33.5 99l-6 4q-37 -39 -92 -63.5t-82 -24.5q-89 0 -155.5 75t-66.5 193q0 129 88 215t228 86zM248 268q-36 -8 -40.5 -59t23.5 -168
q30 -110 67.5 -167t78.5 -50q38 9 39.5 70t-29.5 165q-30 116 -64 166.5t-75 42.5z" />
    <glyph glyph-name="Euro" unicode="&#x20ac;" horiz-adv-x="1200" 
d="M1102 547h12v-547h-283q-148 0 -267.5 31t-200 82t-138.5 124t-88 151.5t-43 168.5h-176v37h170q-4 66 -4 100q0 62 8 111h-174v37h180q16 88 51 164.5t98 146.5t148.5 120t208 79.5t270.5 29.5h236v-546h-14q-27 53 -74 143q-120 235 -167 295.5t-126 60.5
q-194 -3 -219 -493h416v-37h-418q-2 -35 -2 -111q0 -67 2 -100h418v-37h-418q10 -268 65 -391t160 -123q32 0 52.5 8t46.5 32.5t57.5 77t77 135.5t115.5 213q13 25 20 38z" />
    <glyph glyph-name="trademark" unicode="&#x2122;" horiz-adv-x="925" 
d="M346 815v531q-69 -5 -112 -73.5t-127 -270.5q-2 -5 -3 -7h-6v377l4 4h727l5 -4v-377h-9q-85 204 -118 258q-48 79 -109 91l-16 2v-531l55 -67v-9h-346v9zM862 696v-6l-45 -65v-625h-289v8l68 58v456h-6l-180 -403h-13l-245 409h-7v-63q0 -109 28.5 -196t74 -145.5
t117.5 -117.5v-6h-250l4 571l-74 119v6l258 2l172 -331h8l144 329h235z" />
    <glyph glyph-name="uni2153" unicode="&#x2153;" horiz-adv-x="1314" 
d="M55 596l62 59l2 600l-86 15v12l309 107h8v-29l-2 -705l64 -59v-12h-357v12zM635 723l262 659h264l-512 -669zM1327 797v-6l-266 -285v-8q117 8 191.5 -44t74.5 -147q0 -35 -12.5 -73t-41.5 -81t-75 -76.5t-113.5 -59t-157 -30t-204.5 12.5l2 266h12q106 -94 202 -139
t167 -45q47 0 81 17.5t34 60.5q0 19 -8 37t-32 39.5t-62 37.5t-104.5 27.5t-152.5 13.5l-2 11l246 278h-221q-100 0 -133 -115h-15v302l6 6h584zM354 0h-264l510 670l14 -11z" />
    <glyph glyph-name="uni2154" unicode="&#x2154;" horiz-adv-x="1433" 
d="M610 887v-295l-8 -8h-579v12l172 215q102 131 146 214.5t36 174.5q-5 59 -29 90t-61 25q-24 -3 -36 -24t-11.5 -54t7.5 -68.5t19 -74.5l-250 -66l-4 8q44 85 94 152t91.5 104.5t82 62t66 32.5t41.5 8q98 0 162.5 -44t64.5 -137q0 -112 -84 -204.5t-235 -173.5l-86 -60
h254q55 0 87.5 26.5t49.5 84.5h10zM739 723l260 659h265l-510 -669zM1446 797v-6l-266 -285v-8q119 8 192.5 -43.5t73.5 -147.5q0 -35 -12.5 -73t-41 -81t-74.5 -76.5t-113 -59.5t-156.5 -30t-204.5 13l2 266h12q106 -94 202 -139t167 -45q28 0 52 6t43 24.5t19 47.5
q0 19 -8 37t-32 39.5t-61.5 37.5t-104 27.5t-152.5 13.5l-4 11l248 278h-223q-103 0 -132 -115h-14v302l6 6h582zM457 0h-264l512 670l14 -11z" />
    <glyph glyph-name="oneeighth" unicode="&#x215b;" horiz-adv-x="1411" 
d="M55 596l62 59l2 600l-86 15v12l309 107h8v-29l-2 -705l64 -59v-12h-357v12zM639 723l262 659h262l-510 -669zM1364 223q2 -53 -23 -98t-63.5 -73t-85.5 -47.5t-88 -27.5t-72 -8q-38 0 -86.5 9t-104.5 29t-94 62t-38 99q0 72 60 118.5t153 51.5l-2 2q-80 55 -124 109.5
t-44 132.5q0 56 26.5 99t64 66.5t86 38t85 19t69.5 4.5q65 0 119.5 -16.5t93.5 -57.5t39 -100q0 -48 -39.5 -94t-136.5 -78q11 -8 43 -28t48 -31t41.5 -33.5t38 -41.5t23.5 -47t11 -59zM1022 774q-35 0 -55.5 -22t-20.5 -58q0 -47 31 -82t100 -86l47 -37q23 64 23 113
q0 78 -35 125t-90 47zM356 0h-262l510 670l14 -11zM1073 6q33 0 57.5 17.5t24.5 60.5q-1 49 -33 91.5t-100 90.5l-70 49q-24 -34 -24 -114q0 -57 14.5 -98t38 -60.5t46 -28t46.5 -8.5z" />
    <glyph glyph-name="threeeighths" unicode="&#x215c;" horiz-adv-x="1445" 
d="M696 723l262 659h263l-510 -669zM645 887q0 -35 -12.5 -73t-41 -81t-74.5 -76.5t-113 -59.5t-156.5 -30t-204.5 13l2 266h12q106 -94 202 -139t167 -45q46 0 80.5 17.5t34.5 59.5q0 24 -15 47.5t-50.5 48.5t-111.5 41.5t-182 18.5l-4 10l248 279h-223q-102 0 -131 -115
h-15v301l6 6h582v-6l-266 -285v-6q118 6 192 -45.5t74 -146.5zM1421 223q2 -53 -23 -98t-63.5 -73t-86 -47.5t-88.5 -27.5t-73 -8q-28 0 -64.5 5t-83 19t-84 35t-63.5 57.5t-26 82.5q0 72 60 118.5t153 51.5l-2 2q-80 55 -124 109.5t-44 132.5q0 56 26.5 99t64 66.5t86.5 38
t85.5 19t69.5 4.5q64 0 118 -16.5t93 -57.5t39 -100q0 -49 -38.5 -94.5t-135.5 -77.5q10 -7 43 -28t47.5 -31.5t40.5 -33t38.5 -41.5t23 -47t11.5 -59zM1079 774q-35 0 -55 -22t-20 -58q0 -47 30.5 -82.5t98.5 -85.5l49 -37q22 61 22 113q0 78 -35.5 125t-89.5 47zM414 0
h-264l512 670l14 -11zM1128 6q34 0 59 17.5t25 60.5q-1 49 -33 91.5t-100 90.5l-69 51q-25 -41 -25 -116q0 -57 14 -98t37.5 -60.5t45.5 -28t46 -8.5z" />
    <glyph glyph-name="fiveeighths" unicode="&#x215d;" horiz-adv-x="1417" 
d="M612 866q0 -16 -2.5 -32.5t-10 -40.5t-20.5 -45t-35 -46t-54 -43t-76.5 -36.5t-102 -27t-131 -13.5t-164.5 4v266h13q47 -57 170 -117.5t207 -60.5q108 0 108 71q0 45 -45.5 74.5t-153.5 54.5l-286 62l102 446h281q69 0 108 19t58 59h10v-264l-6 -6h-461l-15 -68l209 -35
q165 -30 231 -77.5t66 -143.5zM668 723l262 659h262l-510 -669zM1393 223q2 -53 -23 -98t-63.5 -73t-86 -47.5t-88.5 -27.5t-73 -8q-37 0 -85 9t-104.5 29t-94.5 62t-38 99q0 72 60 118.5t153 51.5l-2 2q-80 55 -124 109.5t-44 132.5q0 56 26.5 99t64 66.5t86.5 38t85.5 19
t69.5 4.5q64 0 118 -16.5t93 -57.5t39 -100q0 -49 -38.5 -94.5t-135.5 -77.5q11 -7 43 -28t47.5 -31.5t41 -33t38 -41.5t23.5 -47t12 -59zM1051 774q-35 0 -55.5 -22t-20.5 -58q0 -47 30.5 -82.5t98.5 -85.5l49 -37q23 64 23 113q0 78 -35.5 125t-89.5 47zM385 0h-264
l512 670l14 -11zM1100 6q34 0 59 17.5t25 60.5q-1 49 -33 91.5t-100 90.5l-70 51q-25 -41 -25 -116q0 -57 14 -98t37.5 -60.5t46 -28t46.5 -8.5z" />
    <glyph glyph-name="seveneighths" unicode="&#x215e;" horiz-adv-x="1368" 
d="M618 723l263 659h262l-510 -669zM18 1073h-14v307h594v-12l-12 -16l-80 -162l-144 -602h-284v14l399 590h-323q-105 0 -136 -119zM1343 223q2 -53 -23 -98t-63.5 -73t-85.5 -47.5t-88 -27.5t-73 -8q-37 0 -85 9t-104.5 29t-94.5 62t-38 99q0 72 60 118.5t153 51.5l-2 2
q-80 55 -124 109.5t-44 132.5q0 56 26.5 99t64 66.5t86.5 38t85.5 19t69.5 4.5q64 0 118 -16.5t93 -57.5t39 -100q0 -49 -38.5 -94.5t-135.5 -77.5q10 -7 43 -28t47.5 -31.5t40.5 -33t38.5 -41.5t23 -47t11.5 -59zM1001 774q-35 0 -55 -22t-20 -58q0 -47 30.5 -82.5
t98.5 -85.5l49 -37q22 61 22 113q0 78 -35.5 125t-89.5 47zM336 0h-264l512 670l14 -11zM1051 6q34 0 59 17.5t25 60.5q-1 49 -33 91.5t-101 90.5l-69 51q-25 -41 -25 -116q0 -57 14 -98t37.5 -60.5t46 -28t46.5 -8.5z" />
    <glyph glyph-name="arrowleft" unicode="&#x2190;" horiz-adv-x="1458" 
d="M428 557l983 166v-381l-979 166l330 -500v-12l-760 536v7l760 536v-12z" />
    <glyph glyph-name="arrowup" unicode="&#x2191;" horiz-adv-x="972" 
d="M489 1409l537 -760h-12l-500 330l166 -979h-381l166 981l-506 -332h-12l536 760h6z" />
    <glyph glyph-name="arrowright" unicode="&#x2192;" horiz-adv-x="1458" 
d="M696 1063v12l762 -536v-7l-762 -536v12l330 500l-979 -166v381l983 -166z" />
    <glyph glyph-name="arrowdown" unicode="&#x2193;" horiz-adv-x="974" 
d="M506 399l508 334h12l-537 -760h-6l-536 760h12l500 -330l-166 979h383z" />
    <glyph glyph-name="minus" unicode="&#x2212;" horiz-adv-x="827" 
d="M35 547v37h760v-37h-760z" />
    <glyph glyph-name="notequal" unicode="&#x2260;" horiz-adv-x="827" 
d="M795 748v-37h-265l-161 -332h426v-37h-445l-80 -164h-43l80 164h-272v37h291l161 332h-452v37h471l80 165h43l-80 -165h246z" />
    <glyph glyph-name="lessequal" unicode="&#x2264;" horiz-adv-x="894" 
d="M887 297v-41l-840 371v41l840 360v-41l-787 -338v-6zM59 154v36h834v-36h-834z" />
    <glyph glyph-name="greaterequal" unicode="&#x2265;" horiz-adv-x="894" 
d="M848 627l-840 -371v41l787 346v6l-787 338v41l840 -360v-41zM2 190h834v-36h-834v36z" />
    <glyph glyph-name="uni273A" unicode="&#x273a;" horiz-adv-x="1478" 
d="M1448 793h6v-203h-6q-119 8 -250.5 25.5t-252.5 38t-154 24.5q26 -11 144.5 -55.5t239.5 -94.5t228 -102l6 -4q-46 -73 -100 -174l-6 2q-99 66 -205 148t-199 158t-121 97q9 -11 96 -116.5t165 -207t145 -200.5l2 -4q-18 -11 -87 -50.5t-87 -51.5l-4 6
q-54 111 -105 233.5t-97 245t-54 141.5q3 -26 24 -151.5t39 -259.5t27 -256v-7h-203v7q8 119 25.5 250.5t38 253.5t24.5 153q-13 -30 -56 -144.5t-93.5 -238t-102.5 -229.5l-4 -7l-176 103l4 4q67 98 145.5 201t159 202t96.5 119q-18 -14 -90 -73t-127.5 -103.5t-142 -109
t-162.5 -115.5l-6 -4q-25 49 -100 176l6 2q112 54 243 107.5t241.5 95t142.5 55.5q-11 -1 -259.5 -39.5t-414.5 -50.5h-6v203h6q119 -8 250.5 -25.5t252.5 -38t154 -24.5q-27 11 -144.5 55t-239 94t-228.5 102l-6 2q71 120 100 177l6 -5q98 -67 202 -146.5t201 -158.5
t119 -96q-4 5 -94 115.5t-166 209.5t-143 197l-2 6q86 53 174 101l4 -4q54 -110 105.5 -236.5t94 -239.5t56.5 -145q-3 25 -24 151.5t-39 260.5t-27 256v6h203v-6q-8 -121 -25.5 -253t-38 -254.5t-24.5 -152.5q6 14 53.5 141.5t97 246.5t101.5 227l4 4q49 -25 176 -100
l-4 -7q-67 -99 -144.5 -199.5t-164.5 -206.5t-95 -116q22 17 120.5 97.5t202 160t201.5 146.5l7 4q25 -49 100 -176l-6 -5q-110 -53 -239 -105.5t-239.5 -94t-144.5 -56.5q36 4 154.5 24t256.5 39t259 28z" />
    <glyph glyph-name="zero.slash" horiz-adv-x="1220" 
d="M606 1411q171 0 307.5 -98.5t209.5 -262t73 -358.5q0 -129 -28 -238t-72.5 -181.5t-103 -129.5t-114.5 -88.5t-112.5 -52t-92 -27t-57.5 -6.5q-171 0 -307 98t-209 260.5t-73 356.5q0 130 28 239.5t72 182.5t102 130t114 89t112.5 52.5t92.5 27t58 6.5zM383 1286
q-46 -18 -63 -93t5 -216.5t87 -325.5q40 -109 84 -202l231 466q-92 204 -182 300.5t-162 70.5zM834 92q48 21 62.5 108.5t-14 241.5t-100.5 344l-37 91l-231 -467q85 -172 170 -256.5t150 -61.5z" />
    <glyph glyph-name="IJacute" horiz-adv-x="1650" 
d="M819 1759v-12l-500 -311h-14l90 323h424zM1335 1436l90 323h424v-12l-499 -311h-15zM623 1370l-105 -115v-1128l105 -115v-12h-611v12l105 115v1128l-105 115v12h611v-12zM1040 1382h611v-12l-105 -115v-821q0 -45 -56 -123.5t-135 -153.5t-175.5 -130.5t-167.5 -55.5
q-126 0 -222 58.5t-167 191.5l325 492l13 -6q-10 -72 -11.5 -183.5t8 -228t41.5 -199t82 -82.5q44 0 54 78t10 338v825l-105 115v12z" />
    <glyph glyph-name="i.loclTRK" horiz-adv-x="579" 
d="M303 1196q-91 0 -140.5 45.5t-49.5 130.5q0 82 50 128t140 46q87 0 135.5 -46t48.5 -128q0 -85 -48 -130.5t-136 -45.5zM477 88l92 -76v-12h-553v12l95 78v922l-93 65v13h459v-1002z" />
    <glyph glyph-name="guilsinglleft.case" horiz-adv-x="559" 
d="M498 160l-13 -2l-489 530v6l489 490l13 -2l-205 -488v-6z" />
    <glyph glyph-name="guilsinglright.case" horiz-adv-x="559" 
d="M563 688l-489 -530l-13 2l205 528v6l-205 488l13 2l489 -490v-6z" />
    <glyph glyph-name="guillemotleft.case" horiz-adv-x="954" 
d="M498 160l-13 -2l-489 530v6l489 490l13 -2l-205 -488v-6zM895 160l-12 -2l-490 530v6l490 490l12 -2l-207 -488v-6z" />
    <glyph glyph-name="guillemotright.case" horiz-adv-x="954" 
d="M498 688l-490 -530l-12 2l207 528v6l-207 488l12 2l490 -490v-6zM895 688l-489 -530l-13 2l205 528v6l-205 488l13 2l489 -490v-6z" />
    <glyph glyph-name="exclamdown.case" horiz-adv-x="514" 
d="M270 1397q88 0 136.5 -46.5t48.5 -131.5q0 -82 -49 -128.5t-136 -46.5q-90 0 -141 46.5t-51 128.5q0 85 50.5 131.5t141.5 46.5zM250 979h12q37 -117 113 -439t106 -540h-448q29 216 104 535.5t113 443.5z" />
    <glyph glyph-name="questiondown.case" horiz-adv-x="940" 
d="M457 1401q92 0 142 -46t50 -132q0 -82 -50 -128t-142 -46q-88 0 -136.5 46t-48.5 128q0 86 48.5 132t136.5 46zM444 981h21q-98 -342 -100 -567q0 -130 36 -211.5t105 -81.5q23 0 40 6t29 19.5t19.5 31.5t9.5 46t1.5 58t-5 72t-11 84t-16.5 99l373 104l4 -10
q-69 -160 -153 -287.5t-167.5 -204.5t-161.5 -117t-144 -40q-74 0 -133.5 19.5t-97.5 51.5t-64 75t-36.5 88.5t-10.5 94.5q0 64 18.5 125.5t45 108t77 106.5t91 100t112.5 111t118 119z" />
    <glyph glyph-name="braceleft.case" horiz-adv-x="606" 
d="M-33 637v43q58 0 95 6t66.5 23.5t40.5 49.5t8.5 83t-21.5 125l-50 186q-25 96 -28 177t11.5 135t41.5 96t58 65.5t64 38.5t56 20t39 5q14 0 31.5 -3.5t33 -8.5t37.5 -14.5t36.5 -16.5t39 -20.5t36.5 -20.5t36.5 -22.5t31.5 -20t30 -19.5t24 -16l-10 -19q-1 1 -25 13
t-34.5 16.5t-31.5 10t-40 5.5q-218 0 -135 -299l51 -180q22 -81 23 -145.5t-18 -108.5t-51 -75.5t-79.5 -48.5t-99.5 -24.5t-115 -6.5v-17q64 0 115.5 -7.5t99 -24t79.5 -47.5t51 -75t18 -108t-23 -145l-51 -181q-80 -299 135 -299q19 0 40 5.5t31.5 10t34.5 16.5t25 13
l10 -18q-1 -1 -24 -16t-30 -19.5t-31.5 -20t-36.5 -22.5t-36.5 -20.5t-39 -20.5t-36.5 -16.5t-37.5 -14.5t-33 -8.5t-31.5 -3.5q-16 0 -39 5t-56 20t-64 38.5t-58 65.5t-41.5 96t-11.5 135t28 177l50 186q20 75 22 126.5t-9 83t-41 49t-66.5 23t-94.5 5.5z" />
    <glyph glyph-name="braceright.case" horiz-adv-x="606" 
d="M639 680v-43q-57 0 -93.5 -5.5t-66.5 -23t-41 -49t-9 -83t22 -126.5l49 -186q25 -96 28 -177t-11.5 -135t-41.5 -96t-58 -65.5t-64 -38.5t-56 -20t-39 -5q-14 0 -31.5 3.5t-33 8.5t-37.5 14.5t-36.5 16.5t-39 20.5t-36.5 20.5t-36.5 22.5t-31.5 20t-30 19.5t-24 16l10 18
q1 -1 25 -13t34.5 -16.5t31.5 -10t40 -5.5q77 0 116.5 38.5t41 105t-21.5 155.5l-49 181q-19 70 -22.5 127t7 99t34.5 73.5t56 52t75 33t88.5 17.5t100.5 5v17q-64 -1 -116 6.5t-99.5 24.5t-79.5 48.5t-50.5 75.5t-17 108.5t23.5 145.5l49 180q23 89 21.5 155.5t-41 105
t-116.5 38.5q-19 0 -40 -5.5t-31.5 -10t-34.5 -16.5t-25 -13l-10 19q1 1 24 16t30 19.5t31.5 20t36.5 22.5t36.5 20.5t39 20.5t36.5 16.5t37.5 14.5t33 8.5t31.5 3.5q16 0 39 -5t56 -20t64 -38.5t58 -65.5t41.5 -96t11.5 -135t-28 -177l-49 -186q-19 -74 -21.5 -125t8 -83
t40 -49.5t66.5 -23.5t95 -6z" />
    <glyph glyph-name="bracketleft.case" horiz-adv-x="573" 
d="M549 1679v-12l-105 -117l-2 -1788l107 -118v-13h-428v2048h428z" />
    <glyph glyph-name="bracketright.case" horiz-adv-x="573" 
d="M453 1679v-2048h-428v13l106 118l-2 1788l-104 117v12h428z" />
    <glyph glyph-name="parenleft.case" horiz-adv-x="612" 
d="M412 674q0 -220 25.5 -406t66 -306t80.5 -194.5t80 -113.5l-9 -14q-126 75 -189 126q-388 311 -388 908q0 196 46.5 364t100.5 266.5t150 192t140.5 124t125.5 78.5q9 6 14 9l9 -14q-40 -39 -80 -113.5t-80.5 -194.5t-66 -306t-25.5 -406z" />
    <glyph glyph-name="parenright.case" horiz-adv-x="612" 
d="M-51 1694l8 14q127 -76 193 -130q385 -312 385 -904q0 -143 -23 -269.5t-59 -219t-88 -174.5t-100.5 -135t-108.5 -101.5t-99.5 -74t-83.5 -51.5q-11 -6 -16 -9l-8 14q40 39 80 113.5t80.5 194.5t66 306t25.5 406t-25.5 406t-66 306t-80.5 194.5t-80 113.5z" />
    <glyph glyph-name="emdash.case" horiz-adv-x="2048" 
d="M0 645v37h2048v-37h-2048z" />
    <glyph glyph-name="endash.case" horiz-adv-x="1024" 
d="M0 645v37h1024v-37h-1024z" />
    <glyph glyph-name="hyphen.case" horiz-adv-x="774" 
d="M35 645v37h704v-37h-704z" />
    <glyph glyph-name="at.case" horiz-adv-x="1792" 
d="M1051 -172q156 0 275.5 53.5t236.5 157.5l14 -19q-127 -129 -359.5 -277t-334.5 -144q-186 9 -340.5 70t-260 161t-163.5 236.5t-58 295.5q0 188 60 355.5t160.5 290t230 212t272.5 134.5t283 45q154 0 281.5 -49t211.5 -133.5t129.5 -197t45.5 -241.5
q0 -128 -35.5 -241.5t-93 -193t-129.5 -137.5t-145.5 -86t-139.5 -28q-113 0 -179.5 67.5t-60.5 170.5h-6q-101 -230 -287 -230q-87 0 -139.5 47t-52.5 129q0 29 6.5 55t21 50.5t28.5 44t40 41t43.5 36t50.5 35t50.5 30.5l52.5 30q95 47 182 92q-1 109 -15.5 171.5t-36.5 82
t-56 17.5t-53 -26t-23.5 -68.5t-2 -92.5t12.5 -115l-313 -57l-4 10q50 92 110.5 166.5t118 118.5t110.5 75.5t98.5 45t71 19t37.5 5.5q78 0 130.5 -19t79 -57.5t36.5 -84t8 -109.5l-10 -340q-6 -229 115 -229q77 0 124.5 74t47.5 210q0 150 -52 286.5t-145 239t-231 163.5
t-299 61q-251 0 -397 -160.5t-146 -445.5q0 -167 55 -313.5t155 -255.5t250.5 -171.5t332.5 -62.5zM827 301q29 0 59.5 20.5t53.5 65.5l2 264q-96 -66 -142 -133.5t-46 -128.5q0 -43 23 -65.5t50 -22.5z" />
    <glyph glyph-name="zero.osf" horiz-adv-x="1146" 
d="M592 -31q-118 0 -223 39.5t-184 112t-125 183t-46 243.5q0 95 26.5 177.5t69 138.5t97 102t108 73t104.5 45t85 24.5t51 6.5q113 0 214 -38.5t178.5 -110t123 -182.5t45.5 -246q0 -96 -26.5 -178.5t-68 -139t-95 -102t-105.5 -72.5t-102 -45t-81.5 -24.5t-45.5 -6.5z
M743 72q42 14 54.5 68t-7 161.5t-75.5 269.5q-87 241 -165.5 350.5t-158.5 88.5q-43 -15 -56.5 -69.5t4.5 -159t69 -261.5q88 -249 170 -360.5t165 -87.5z" />
    <glyph glyph-name="one.osf" horiz-adv-x="782" 
d="M578 125h4l217 -113v-12h-797v12l217 111v764l-203 26v13l551 190h13v-51z" />
    <glyph glyph-name="two.osf" horiz-adv-x="1026" 
d="M299 274h416q170 0 231 207h12v-467l-14 -14h-940l2 2v8l217 238q185 189 265 327.5t67 262.5q-8 78 -47 126t-100 44q-56 -5 -74 -56t-1.5 -124.5t58.5 -153.5l-411 -109l-7 10q59 114 127.5 205.5t134.5 148.5t127.5 97t118.5 59t96.5 27t71.5 8q62 0 116.5 -14.5
t99.5 -44t71.5 -80.5t26.5 -117q0 -166 -157.5 -303.5t-428.5 -236.5l-78 -39v-11z" />
    <glyph glyph-name="three.osf" horiz-adv-x="989" 
d="M987 1087v-10l-455 -485v-10q201 9 327 -79t126 -251q0 -50 -15.5 -106t-49 -118.5t-86.5 -117t-128.5 -102t-175 -73.5t-225 -32t-278.5 23l2 448l12 2q187 -164 325 -236.5t252 -72.5q195 0 195 137q0 32 -12 62.5t-50.5 66.5t-101 63t-174 47t-258.5 23l-8 17l424 479
h-332q-183 0 -238 -193h-12v506l12 12h924z" />
    <glyph glyph-name="four.osf" horiz-adv-x="1112" 
d="M856 53h254v-53h-254v-330h-360v330h-492v33l522 1057h430v-13l-886 -1024h426v340l344 295l16 2v-637z" />
    <glyph glyph-name="five.osf" horiz-adv-x="1042" 
d="M166 637l334 -62q286 -50 400 -132.5t114 -249.5q0 -32 -5.5 -65t-22 -81.5t-47 -89t-80.5 -88t-123 -78.5t-174 -59.5t-233.5 -31.5t-301.5 5v453h12q86 -102 286.5 -205t348.5 -103q87 0 135.5 34.5t48.5 101.5q0 75 -77.5 125t-268.5 94l-463 110l176 775h443
q123 0 190.5 31.5t97.5 99.5h17v-451l-12 -12h-768z" />
    <glyph glyph-name="six.osf" horiz-adv-x="1091" 
d="M561 -29q-109 0 -206 39t-171 111t-117.5 182.5t-43.5 245.5q0 223 106 408t297.5 307t445.5 168l9 -15q-86 -28 -159 -76t-124 -105.5t-90.5 -126.5t-63.5 -135.5t-38 -137.5l10 -7q61 69 149 107.5t137 38.5q73 0 141 -33t120.5 -92t84 -147t31.5 -191q0 -123 -47 -228
t-122.5 -171.5t-166.5 -104t-182 -37.5zM705 51q114 25 22 389q-47 176 -117 286.5t-139 96.5q-47 -10 -61 -72t-1.5 -150t44.5 -202q45 -169 113.5 -265t138.5 -83z" />
    <glyph glyph-name="seven.osf" horiz-adv-x="942" 
d="M-6 1077l10 13h989v-11l-159 -319l-263 -1053h-440v12l653 1045h-540q-183 0 -238 -193h-12v506z" />
    <glyph glyph-name="eight.osf" horiz-adv-x="1040" 
d="M1047 403q2 -77 -24.5 -143.5t-72 -112.5t-101.5 -81.5t-117 -56t-114.5 -30.5t-97.5 -10q-40 0 -88.5 6t-110.5 20t-118.5 40t-104.5 61.5t-77 90t-29 120.5q0 131 100.5 210.5t261.5 82.5l-16 12q-64 44 -106 80t-83 86t-61 110t-20 132q0 80 29 144.5t78 105t105 69
t120.5 42.5t113 20t92.5 6q64 0 121.5 -10t110 -33t90 -56.5t60 -84t22.5 -113.5q0 -31 -7.5 -62t-27 -67t-50.5 -67t-82 -60t-116 -47q16 -11 53 -36t56.5 -38t51.5 -38.5t50 -44.5t41.5 -48.5t35.5 -57.5t21.5 -64.5t10.5 -76.5zM506 1350q-61 0 -96 -39.5t-35 -104.5
q0 -79 52.5 -146.5t160.5 -148.5l88 -67q43 118 43 211q0 134 -60 214.5t-153 80.5zM586 29q64 0 104 36t39 113q-2 84 -52.5 157t-164.5 152l-121 86q-51 -58 -51 -208q0 -79 17 -140.5t43 -97.5t60 -59t64.5 -31t61.5 -8z" />
    <glyph glyph-name="nine.osf" horiz-adv-x="1091" 
d="M530 1116q110 0 207 -39t171.5 -111t117.5 -182.5t43 -244.5q0 -225 -105.5 -410t-297.5 -307t-447 -168l-6 14q107 34 192 98.5t140 146.5t89 165t52 174l-8 6q-61 -70 -149.5 -107.5t-139.5 -37.5q-151 0 -263 128.5t-112 331.5q0 124 47 229t122 172t165.5 104.5
t181.5 37.5zM387 1036q-116 -25 -20 -389q47 -178 116.5 -287.5t139.5 -95.5q46 9 60 71.5t1.5 150t-43.5 202.5q-45 168 -114.5 264.5t-139.5 83.5z" />
    <glyph glyph-name="zero.dnom" horiz-adv-x="706" 
d="M356 -16q-150 0 -245 118.5t-95 288.5q0 75 16 138.5t41.5 105.5t59 74.5t66 50.5t65 30t53 15.5t33.5 3.5q150 0 245 -120t95 -292q0 -74 -16 -136t-41.5 -103.5t-59 -74t-66 -50.5t-65 -30t-53 -15.5t-33.5 -3.5zM481 55q27 13 35 62.5t-8 137.5t-57 196
q-59 152 -119.5 225.5t-110.5 58.5q-25 -10 -34.5 -53t3.5 -123.5t50 -185.5q60 -163 126 -250t115 -68z" />
    <glyph glyph-name="one.dnom" horiz-adv-x="458" 
d="M350 776l-2 -704l64 -60v-12h-357v12l62 60l2 600l-86 14v12l309 107h8v-29z" />
    <glyph glyph-name="two.dnom" horiz-adv-x="651" 
d="M209 193h254q55 0 87.5 26.5t49.5 83.5h10v-295l-8 -8h-579v12l172 215q102 131 146 214.5t36 174.5q-5 59 -29 90t-61 25q-24 -3 -36 -24t-11.5 -54t7.5 -68.5t19 -74.5l-250 -66l-4 9q54 104 116 180.5t114 112t87.5 50.5t57.5 15q98 0 162.5 -43.5t64.5 -136.5
q0 -207 -319 -379z" />
    <glyph glyph-name="three.dnom" horiz-adv-x="632" 
d="M645 797v-6l-266 -285v-8q117 8 191.5 -44t74.5 -147q0 -35 -12.5 -73t-41 -81t-74.5 -76.5t-113 -59.5t-156.5 -30t-204.5 13l2 266h12q106 -94 202 -139t167 -45q28 0 52 6t43.5 24.5t19.5 47.5q0 19 -8 37t-32 39.5t-62 37.5t-104.5 27.5t-152.5 13.5l-4 11l248 278
h-223q-102 0 -131 -115h-15v302l6 6h582z" />
    <glyph glyph-name="four.dnom" horiz-adv-x="659" 
d="M657 211v-33h-147v-106l61 -60v-12h-352v12l60 60v106h-275v29l264 586h289v-13l-518 -569h240v178l217 199h12l2 -377h147z" />
    <glyph glyph-name="five.dnom" horiz-adv-x="604" 
d="M106 535l209 -35q165 -30 231 -77.5t66 -143.5q0 -16 -2.5 -32.5t-10 -40.5t-20.5 -45t-35 -46t-54 -43.5t-76.5 -37t-102 -27t-131 -13.5t-164.5 4v266h13q47 -57 170 -117.5t207 -60.5q108 0 108 72q0 45 -45.5 74.5t-153.5 54.5l-286 61l102 447h281q70 0 108.5 18.5
t57.5 58.5h10v-264l-6 -6h-461z" />
    <glyph glyph-name="six.dnom" horiz-adv-x="667" 
d="M336 -20q-79 0 -148 36.5t-115 113.5t-46 181q0 187 139 322.5t362 175.5l7 -10q-62 -19 -112.5 -56t-84 -84t-55 -95t-33.5 -99l6 -4q37 40 92.5 64t83.5 24q87 0 153 -75t66 -193q0 -130 -87.5 -215.5t-227.5 -85.5zM420 14q36 8 40 58.5t-24 167.5q-30 111 -67 167.5
t-78 49.5q-69 -16 -10 -236q59 -226 139 -207z" />
    <glyph glyph-name="seven.dnom" horiz-adv-x="555" 
d="M4 485v308h594v-13l-12 -16l-80 -162l-144 -602h-284v14l399 590h-323q-105 0 -136 -119h-14z" />
    <glyph glyph-name="eight.dnom" horiz-adv-x="704" 
d="M680 223q2 -53 -23 -98t-63.5 -73t-86 -47.5t-88.5 -27.5t-73 -8q-28 0 -64.5 5t-83 19t-84 35t-63.5 57.5t-26 82.5q0 72 60 118.5t153 51.5l-2 2q-80 55 -124 109.5t-44 132.5q0 56 26.5 99t64 66.5t86 38t85 19t69.5 4.5q64 0 118 -16.5t93 -57.5t39 -100
q0 -49 -38.5 -94.5t-135.5 -77.5q11 -7 43 -28t47.5 -31.5t41 -33t38 -41.5t23.5 -47t12 -59zM338 774q-35 0 -55.5 -22t-20.5 -58q0 -47 30.5 -82.5t98.5 -85.5l49 -37q23 64 23 113q0 78 -35.5 125t-89.5 47zM387 6q34 0 59 17.5t25 60.5q-1 49 -33 91.5t-100 90.5l-70 51
q-24 -39 -24 -116q0 -57 14 -98t37.5 -60.5t45.5 -28t46 -8.5z" />
    <glyph glyph-name="nine.dnom" horiz-adv-x="667" 
d="M332 811q123 0 217 -89t94 -241q0 -188 -140 -323.5t-364 -175.5l-6 10q62 19 112.5 56t84 84t55 95t33.5 99l-6 4q-37 -39 -92 -62.5t-82 -23.5q-89 0 -155.5 74t-66.5 192q0 129 88 215t228 86zM248 778q-36 -8 -40.5 -59t23.5 -168q30 -110 67.5 -167t78.5 -50
q38 9 39.5 70t-29.5 165q-30 116 -64 166.5t-75 42.5z" />
    <glyph glyph-name="zero.numr" horiz-adv-x="706" 
d="M356 565q-150 0 -245 119t-95 289q0 75 16 138.5t41.5 105.5t59 74.5t66 50.5t65 30t53 15.5t33.5 3.5q150 0 245 -120t95 -292q0 -85 -21 -155t-55.5 -113t-72.5 -73.5t-78 -45.5t-65.5 -21t-41.5 -6zM481 637q27 13 35 62.5t-8 137t-57 195.5q-59 152 -119.5 226
t-110.5 59q-25 -10 -34.5 -53t3.5 -124t50 -186q60 -163 126 -249.5t115 -67.5z" />
    <glyph glyph-name="one.numr" horiz-adv-x="458" 
d="M350 1360l-2 -705l64 -59v-12h-357v12l62 59l2 600l-86 15v12l309 107h8v-29z" />
    <glyph glyph-name="two.numr" horiz-adv-x="651" 
d="M209 776h254q55 0 87.5 26.5t49.5 84.5h10v-295l-8 -8h-579v12l172 215q102 131 146 214.5t36 174.5q-5 59 -29 90t-61 25q-24 -3 -36 -24t-11.5 -54t7.5 -68.5t19 -74.5l-250 -66l-4 8q44 85 94 152t91.5 104.5t82 62t66 32.5t41.5 8q98 0 162.5 -44t64.5 -137
q0 -112 -84 -204.5t-235 -173.5z" />
    <glyph glyph-name="three.numr" horiz-adv-x="632" 
d="M645 1376v-6l-266 -285v-8q118 8 192 -43.5t74 -146.5q0 -35 -12.5 -73t-41 -81t-74.5 -76.5t-113 -59.5t-156.5 -30t-204.5 13l2 266h12q106 -94 202 -139t167 -45q46 0 80.5 17.5t34.5 59.5q0 24 -15 47.5t-50.5 48.5t-111.5 41.5t-182 18.5l-4 10l248 279h-223
q-102 0 -131 -115h-15v301l6 6h582z" />
    <glyph glyph-name="four.numr" horiz-adv-x="659" 
d="M657 797v-33h-147v-107l61 -59v-12h-352v12l60 59v107h-275v29l264 585h289v-12l-518 -569h240v178l217 199h12l2 -377h147z" />
    <glyph glyph-name="five.numr" horiz-adv-x="604" 
d="M106 1122l209 -35q165 -30 231 -77.5t66 -143.5q0 -16 -2.5 -32.5t-10 -40.5t-20.5 -45t-35 -46t-54 -43t-76.5 -36.5t-102 -27t-131 -13.5t-164.5 4v266h13q47 -57 170 -117.5t207 -60.5q108 0 108 71q0 45 -45.5 74.5t-153.5 54.5l-286 62l102 446h281q69 0 108 19
t58 59h10v-264l-6 -6h-461z" />
    <glyph glyph-name="six.numr" horiz-adv-x="667" 
d="M336 567q-58 0 -112.5 22t-99 62.5t-71 105t-26.5 142.5q0 187 139 322.5t362 175.5l7 -11q-119 -37 -189.5 -130t-95.5 -203l6 -4q37 40 92.5 64t83.5 24q87 0 153 -75.5t66 -193.5q0 -130 -87.5 -215.5t-227.5 -85.5zM420 602q36 8 40 58t-24 167q-30 111 -67 167.5
t-78 49.5q-37 -9 -38 -70t28 -165q30 -115 64.5 -165t74.5 -42z" />
    <glyph glyph-name="seven.numr" horiz-adv-x="555" 
d="M4 1073v307h594v-12l-12 -16l-80 -162l-144 -602h-284v14l399 590h-323q-105 0 -136 -119h-14z" />
    <glyph glyph-name="eight.numr" horiz-adv-x="704" 
d="M680 809q2 -53 -23 -98t-63.5 -73t-86 -47.5t-88.5 -27.5t-73 -8q-28 0 -64.5 5t-83 19t-84 35t-63.5 57.5t-26 82.5q0 72 60 118.5t153 51.5l-2 2q-80 55 -124 109t-44 132q0 56 26.5 99t64 66.5t86 38.5t85 19.5t69.5 4.5q64 0 118 -16.5t93 -57.5t39 -100
q0 -49 -38.5 -94.5t-135.5 -77.5q11 -7 43 -28t47.5 -31.5t41 -33t38 -41.5t23.5 -47t12 -59zM338 1360q-35 0 -55.5 -22t-20.5 -58q0 -47 30.5 -82.5t98.5 -85.5l49 -37q23 64 23 113q0 78 -35.5 125t-89.5 47zM387 592q34 0 59 17.5t25 60.5q-1 49 -33 91.5t-100 90.5
l-70 51q-24 -39 -24 -117q0 -57 14 -98t37.5 -60.5t45.5 -27.5t46 -8z" />
    <glyph glyph-name="nine.numr" horiz-adv-x="667" 
d="M332 1399q123 0 217 -89t94 -241q0 -188 -140.5 -324t-363.5 -176l-6 11q119 37 189.5 130t95.5 203l-6 5q-37 -39 -92 -63t-82 -24q-89 0 -155.5 74.5t-66.5 192.5q0 129 88 215t228 86zM248 1366q-36 -8 -40.5 -59t23.5 -168q30 -110 67.5 -167t78.5 -50q38 9 39.5 70
t-29.5 165q-30 116 -64 166.5t-75 42.5z" />
    <glyph glyph-name="J.ss01" horiz-adv-x="602" 
d="M604 1382v-12l-104 -115v-962q0 -107 -23.5 -206t-58 -172t-87.5 -141t-98.5 -112t-104.5 -87t-91.5 -63t-73.5 -43q-6 -3 -10 -5.5t-8 -4.5l-8 17q89 84 126 271t37 568v940h-2l-104 115v12h610z" />
    <glyph glyph-name="n.comp" horiz-adv-x="1228" 
d="M1030 57h-364v678q0 133 -111 133q-28 0 -52.5 -10.5t-43.5 -31t-33.5 -40.5t-27.5 -51t-20 -49.5t-16.5 -48.5t-11.5 -37l-12 125q273 393 379 393q83 0 144.5 -28t97.5 -77.5t53.5 -113t17.5 -139.5v-703z" />
    <glyph glyph-name="b.part" horiz-adv-x="1228" 
d="M578 -27q-113 0 -203 40.5t-150 109.5l246 174q0 -140 40.5 -206t100.5 -66q29 0 51.5 14.5t41.5 51t29.5 107t10.5 173.5q0 497 -174 497q-30 0 -61.5 -16t-50.5 -45v47q30 33 73 81t67 74.5t50 54t42 39.5t24 11q133 -17 222 -92.5t128 -186.5t39 -255
q0 -106 -23 -195.5t-59.5 -150.5t-86 -109t-98.5 -76t-101 -46t-90 -24t-68 -6z" />
    <glyph glyph-name="c.part" horiz-adv-x="946" 
d="M571 -31q-154 0 -280.5 71.5t-198.5 196.5t-72 277q0 103 27 191.5t69 147.5t97 106.5t107.5 75t103 45.5t82 24t45.5 6l-59 -70q-56 0 -88.5 -70t-32.5 -198q0 -72 15.5 -146.5t50 -147.5t84 -129t124 -91t162.5 -35q78 0 141 45l8 -10q-155 -134 -233 -196.5
t-104.5 -77.5t-47.5 -15z" />
    <glyph glyph-name="d.part" horiz-adv-x="655" 
d="M381 -29q-197 24 -292 160.5t-95 351.5q0 107 23 197.5t60 152t87 110t99.5 76.5t101.5 46t89.5 24.5t67.5 6.5q213 0 352 -125l-245 -152q-7 118 -45 170.5t-90 52.5q-31 0 -54.5 -15t-44.5 -51t-32 -106.5t-11 -171.5q0 -239 38.5 -367t127.5 -128q30 0 63.5 19
t55.5 52v-49q-21 -23 -53.5 -58.5t-50.5 -55.5t-42.5 -46.5t-39 -41t-30 -28.5t-25 -19.5t-15.5 -4.5z" />
    </font>
</defs>
</svg>
